#VRML V2.0 utf8
# 3D model generated by easyeda2kicad.py (https://github.com/uPesy/easyeda2kicad.py)

Shape{
    appearance Appearance {
        material  Material 	{
            diffuseColor 0.7529411764705882 0.7529411764705882 0.7529411764705882
            specularColor 0.3764705882352941 0.3764705882352941 0.3764705882352941
            ambientIntensity 0.7529
            transparency 0.0
            shininess 0.5
        }
    }
    geometry IndexedFaceSet {
        ccw TRUE
        solid FALSE
        coord DEF co Coordinate {
            point [
                -0.0878 -0.3937 0.0, -0.0878 0.3937 0.0, -0.0878 -0.3937 0.0197, -0.0878 0.3937 0.0197, -0.4027 -0.3937 0.0, -0.4027 -0.3937 0.0197, -0.4129 -0.3924 0.0197, -0.4129 -0.3924 0.0, -0.4224 -0.3884 0.0197, -0.4224 -0.3884 0.0, -0.4306 -0.3822 0.0197, -0.4306 -0.3822 0.0, -0.4368 -0.374 0.0197, -0.4368 -0.374 0.0, -0.4408 -0.3645 0.0197, -0.4408 -0.3645 0.0, -0.4421 -0.3543 0.0197, -0.4421 -0.3543 0.0, -0.4421 0.3543 0.0, -0.4421 0.3543 0.0197, -0.4408 0.3645 0.0197, -0.4408 0.3645 0.0, -0.4368 0.374 0.0197, -0.4368 0.374 0.0, -0.4306 0.3822 0.0197, -0.4306 0.3822 0.0, -0.4224 0.3884 0.0197, -0.4224 0.3884 0.0, -0.4129 0.3924 0.0197, -0.4129 0.3924 0.0, -0.4027 0.3937 0.0197, -0.4027 0.3937 0.0, 0.5028 0.3937 0.0, 0.5028 0.3937 0.0197, 0.513 0.3924 0.0197, 0.513 0.3924 0.0, 0.5225 0.3884 0.0197, 0.5225 0.3884 0.0, 0.5306 0.3822 0.0197, 0.5306 0.3822 0.0, 0.5369 0.374 0.0197, 0.5369 0.374 0.0, 0.5408 0.3645 0.0197, 0.5408 0.3645 0.0, 0.5421 0.3543 0.0197, 0.5421 0.3543 0.0, 0.5421 -0.3543 0.0, 0.5421 -0.3543 0.0197, 0.5408 -0.3645 0.0197, 0.5408 -0.3645 0.0, 0.5369 -0.374 0.0197, 0.5369 -0.374 0.0, 0.5306 -0.3822 0.0197, 0.5306 -0.3822 0.0, 0.5225 -0.3884 0.0197, 0.5225 -0.3884 0.0, 0.513 -0.3924 0.0197, 0.513 -0.3924 0.0, 0.5028 -0.3937 0.0197, 0.5028 -0.3937 0.0, 0.1878 -0.3937 0.0, 0.1878 -0.3937 0.0197, 0.1878 0.3937 0.0, 0.1878 0.3937 0.0197
            ]
        }
        coordIndex [
            0,1,2,-1,2,1,3,-1,4,0,5,-1,5,0,2,-1,4,5,6,-1,4,6,7,-1,7,6,8,-1,7,8,9,-1,9,8,10,-1,9,10,11,-1,11,10,12,-1,11,12,13,-1,13,12,14,-1,13,14,15,-1,15,14,16,-1,15,16,17,-1,18,17,19,-1,19,17,16,-1,18,19,20,-1,18,20,21,-1,21,20,22,-1,21,22,23,-1,23,22,24,-1,23,24,25,-1,25,24,26,-1,25,26,27,-1,27,26,28,-1,27,28,29,-1,29,28,30,-1,29,30,31,-1,1,31,3,-1,3,31,30,-1,1,0,31,-1,31,0,4,-1,18,31,17,-1,17,31,4,-1,17,4,7,-1,7,9,11,-1,23,25,27,-1,11,13,7,-1,7,13,15,-1,7,15,17,-1,18,21,31,-1,31,21,23,-1,31,23,29,-1,29,23,27,-1,16,2,19,-1,19,2,3,-1,19,3,30,-1,26,24,22,-1,30,28,19,-1,19,28,26,-1,19,26,20,-1,20,26,22,-1,14,6,16,-1,16,6,5,-1,16,5,2,-1,14,12,6,-1,6,12,10,-1,6,10,8,-1,32,33,34,-1,32,34,35,-1,35,34,36,-1,35,36,37,-1,37,36,38,-1,37,38,39,-1,39,38,40,-1,39,40,41,-1,41,40,42,-1,41,42,43,-1,43,42,44,-1,43,44,45,-1,46,45,47,-1,47,45,44,-1,46,47,48,-1,46,48,49,-1,49,48,50,-1,49,50,51,-1,51,50,52,-1,51,52,53,-1,53,52,54,-1,53,54,55,-1,55,54,56,-1,55,56,57,-1,57,56,58,-1,57,58,59,-1,60,59,61,-1,61,59,58,-1,62,60,63,-1,63,60,61,-1,32,62,33,-1,33,62,63,-1,43,45,32,-1,37,39,41,-1,57,59,46,-1,46,59,45,-1,32,45,62,-1,62,45,59,-1,62,59,60,-1,51,53,55,-1,43,32,41,-1,41,32,35,-1,41,35,37,-1,57,46,55,-1,55,46,49,-1,55,49,51,-1,33,63,44,-1,40,38,36,-1,63,61,44,-1,44,61,58,-1,44,58,47,-1,47,58,56,-1,47,56,54,-1,44,42,33,-1,33,42,40,-1,33,40,34,-1,34,40,36,-1,52,50,54,-1,54,50,48,-1,54,48,47,-1,
        ]
    }
}
Shape{
    appearance Appearance {
        material  Material 	{
            diffuseColor 0.25098039215686274 0.25098039215686274 0.25098039215686274
            specularColor 0.12549019607843137 0.12549019607843137 0.12549019607843137
            ambientIntensity 0.251
            transparency 0.0
            shininess 0.5
        }
    }
    geometry IndexedFaceSet {
        ccw TRUE
        solid FALSE
        coord DEF co Coordinate {
            point [
                0.0272 -0.2751 0.4921, 0.0272 -0.2988 0.4921, 0.0379 -0.2988 0.4921, 0.5028 0.374 0.4921, 0.3434 0.374 0.4921, 0.5225 0.3543 0.4921, 0.0694 -0.3443 0.4921, 0.0683 -0.3444 0.4921, 0.0749 -0.3444 0.4921, 0.0977 -0.3175 0.4921, 0.1061 -0.3175 0.4921, 0.1061 -0.3099 0.4921, -0.1191 -0.3118 0.4921, -0.1187 -0.3099 0.4921, -0.4224 -0.3099 0.4921, -0.0356 -0.2721 0.4921, -0.0315 -0.2749 0.4921, 0.0129 -0.2749 0.4921, -0.0103 -0.296 0.4921, -0.0051 -0.3003 0.4921, 0.0129 -0.302 0.4921, -0.0271 -0.2778 0.4921, -0.0261 -0.2787 0.4921, -0.0202 -0.2861 0.4921, -0.0169 -0.2928 0.4921, -0.0159 -0.2931 0.4921, -0.0711 -0.2725 0.4921, -0.0623 -0.2691 0.4921, -0.4027 0.374 0.4921, -0.4224 0.3543 0.4921, -0.4224 -0.2749 0.4921, 0.0129 0.374 0.4921, -0.0529 -0.268 0.4921, -0.0451 -0.2688 0.4921, -0.4167 0.3683 0.4921, -0.4126 0.3714 0.4921, -0.4078 0.3733 0.4921, -0.4198 0.3642 0.4921, -0.4218 0.3594 0.4921, -0.1102 -0.2924 0.4921, -0.1088 -0.2911 0.4921, -0.0749 -0.2749 0.4921, -0.0757 -0.2754 0.4921, -0.1025 -0.2868 0.4921, -0.0954 -0.2841 0.4921, -0.0884 -0.2833 0.4921, -0.0801 -0.2792 0.4921, -0.0862 -0.2835 0.4921, -0.084 -0.2837 0.4921, -0.4224 -0.302 0.4921, -0.1177 -0.3047 0.4921, -0.1165 -0.302 0.4921, -0.1145 -0.2979 0.4921, -0.1057 -0.3395 0.4921, -0.1112 -0.3348 0.4921, -0.4224 -0.3444 0.4921, -0.099 -0.343 0.4921, -0.1157 -0.3281 0.4921, -0.1183 -0.321 0.4921, -0.1191 -0.3141 0.4921, -0.096 -0.3439 0.4921, -0.0957 -0.3444 0.4921, -0.0941 -0.3479 0.4921, -0.0913 -0.3514 0.4921, 0.0129 -0.355 0.4921, -0.0701 -0.355 0.4921, 0.0129 -0.374 0.4921, -0.0734 -0.3562 0.4921, -0.078 -0.3568 0.4921, -0.0787 -0.3568 0.4921, -0.4027 -0.374 0.4921, -0.0832 -0.3561 0.4921, -0.0858 -0.355 0.4921, -0.4126 -0.3714 0.4921, -0.4078 -0.3733 0.4921, -0.4167 -0.3683 0.4921, -0.4198 -0.3642 0.4921, -0.0876 -0.3542 0.4921, -0.4224 -0.3543 0.4921, -0.4223 -0.355 0.4921, -0.4218 -0.3594 0.4921, 0.0129 -0.3444 0.4921, -0.0602 -0.3444 0.4921, -0.0602 -0.3444 0.4921, -0.0624 -0.3487 0.4921, -0.0654 -0.352 0.4921, -0.0691 -0.3546 0.4921, 0.0011 -0.3115 0.4921, 0.0019 -0.3177 0.4921, 0.0129 -0.3099 0.4921, -0.0359 -0.3332 0.4921, -0.0346 -0.3327 0.4921, -0.0324 -0.3219 0.4921, -0.0051 -0.3357 0.4921, -0.0103 -0.3401 0.4921, -0.0637 -0.3251 0.4921, -0.0383 -0.3118 0.4921, -0.067 -0.3221 0.4921, -0.0711 -0.3199 0.4921, -0.0371 -0.334 0.4921, -0.0013 -0.3305 0.4921, -0.0099 -0.3162 0.4921, -0.0108 -0.3126 0.4921, -0.0123 -0.3099 0.4921, -0.1067 -0.3099 0.4921, 0.0011 -0.3245 0.4921, -0.0332 -0.3325 0.4921, -0.033 -0.3325 0.4921, -0.0324 -0.3326 0.4921, -0.1056 -0.3213 0.4921, -0.1033 -0.3251 0.4921, -0.0937 -0.3271 0.4921, -0.0999 -0.3286 0.4921, -0.0958 -0.3312 0.4921, -0.0867 -0.3208 0.4921, -0.0906 -0.3235 0.4921, -0.1072 -0.3137 0.4921, -0.107 -0.3166 0.4921, -0.0825 -0.3192 0.4921, -0.078 -0.3186 0.4921, -0.0756 -0.3188 0.4921, -0.0391 -0.3384 0.4921, -0.039 -0.3377 0.4921, -0.059 -0.3359 0.4921, -0.0386 -0.3362 0.4921, -0.0379 -0.3349 0.4921, -0.0137 -0.3279 0.4921, -0.0116 -0.3249 0.4921, -0.0103 -0.3216 0.4921, -0.0098 -0.3179 0.4921, -0.0346 -0.3441 0.4921, -0.0359 -0.3436 0.4921, -0.0371 -0.3427 0.4921, -0.0375 -0.3423 0.4921, -0.0384 -0.3411 0.4921, -0.0389 -0.3398 0.4921, -0.0591 -0.3398 0.4921, -0.059 -0.3378 0.4921, -0.016 -0.3429 0.4921, -0.0224 -0.3443 0.4921, -0.0336 -0.3443 0.4921, -0.032 -0.3327 0.4921, -0.0235 -0.3327 0.4921, -0.0201 -0.332 0.4921, -0.0168 -0.3305 0.4921, -0.0139 -0.3282 0.4921, -0.0262 -0.3031 0.4921, -0.105 -0.3049 0.4921, -0.1066 -0.3091 0.4921, -0.0246 -0.3031 0.4921, -0.0126 -0.3093 0.4921, -0.0148 -0.3068 0.4921, -0.0177 -0.3048 0.4921, -0.021 -0.3035 0.4921, -0.0302 -0.2917 0.4921, -0.0345 -0.2866 0.4921, -0.0781 -0.2976 0.4921, -0.103 -0.302 0.4921, -0.0795 -0.2968 0.4921, -0.035 -0.2861 0.4921, -0.0403 -0.2824 0.4921, -0.0463 -0.2801 0.4921, -0.0264 -0.302 0.4921, -0.0273 -0.2978 0.4921, -0.0838 -0.2953 0.4921, -0.0882 -0.2947 0.4921, -0.0902 -0.2948 0.4921, -0.0596 -0.2802 0.4921, -0.0658 -0.2827 0.4921, -0.0527 -0.2794 0.4921, -0.071 -0.2865 0.4921, -0.0753 -0.2916 0.4921, -0.0948 -0.2959 0.4921, -0.0991 -0.2982 0.4921, -0.1024 -0.3011 0.4921, -0.0039 -0.302 0.4921, -0.0012 -0.3057 0.4921, 0.0004 -0.3099 0.4921, 0.1121 -0.3411 0.4921, 0.1121 -0.3442 0.4921, 0.1146 -0.3444 0.4921, 0.1146 -0.3099 0.4921, 0.1115 -0.3175 0.4921, 0.1115 -0.3205 0.4921, 0.1012 -0.3321 0.4921, 0.1012 -0.3411 0.4921, 0.1061 -0.3321 0.4921, 0.1061 -0.3411 0.4921, 0.1107 -0.3321 0.4921, 0.1107 -0.3291 0.4921, 0.1012 -0.3205 0.4921, 0.1012 -0.3291 0.4921, 0.1061 -0.3205 0.4921, 0.1061 -0.3291 0.4921, 0.1061 -0.3444 0.4921, 0.1061 -0.3442 0.4921, 0.0977 -0.3442 0.4921, 0.0845 -0.3394 0.4921, 0.0849 -0.341 0.4921, 0.085 -0.341 0.4921, 0.0941 -0.3251 0.4921, 0.0812 -0.3099 0.4921, 0.0906 -0.3251 0.4921, 0.0812 -0.3297 0.4921, 0.0854 -0.3395 0.4921, 0.0852 -0.3403 0.4921, 0.0612 -0.3302 0.4921, 0.0613 -0.3291 0.4921, 0.0578 -0.3099 0.4921, 0.0617 -0.3326 0.4921, 0.0614 -0.3315 0.4921, 0.0612 -0.34 0.4921, 0.0627 -0.3409 0.4921, 0.0627 -0.341 0.4921, 0.0627 -0.3338 0.4921, 0.0622 -0.3333 0.4921, 0.0627 -0.3338 0.4921, 0.0642 -0.3444 0.4921, 0.0635 -0.3443 0.4921, 0.0627 -0.3444 0.4921, 0.0627 -0.344 0.4921, 0.0578 -0.3444 0.4921, 0.0612 -0.3435 0.4921, 0.0732 -0.3255 0.4921, 0.0732 -0.3288 0.4921, 0.0634 -0.3262 0.4921, 0.0642 -0.3257 0.4921, 0.0627 -0.3099 0.4921, 0.0617 -0.328 0.4921, 0.0624 -0.3271 0.4921, 0.0627 -0.3267 0.4921, 0.0739 -0.3403 0.4921, 0.0735 -0.3414 0.4921, 0.0729 -0.3423 0.4921, 0.066 -0.325 0.4921, 0.0686 -0.3247 0.4921, 0.0749 -0.3099 0.4921, 0.071 -0.3249 0.4921, 0.0729 -0.3358 0.4921, 0.0736 -0.3367 0.4921, 0.0739 -0.3377 0.4921, 0.0741 -0.339 0.4921, 0.0719 -0.3431 0.4921, 0.0711 -0.3436 0.4921, 0.0683 -0.3274 0.4921, 0.0673 -0.3275 0.4921, 0.0647 -0.3299 0.4921, 0.0664 -0.3277 0.4921, 0.0657 -0.3281 0.4921, 0.0647 -0.3304 0.4921, 0.0648 -0.3309 0.4921, 0.0651 -0.3314 0.4921, 0.0654 -0.3317 0.4921, 0.0666 -0.3325 0.4921, 0.0706 -0.3277 0.4921, 0.0686 -0.3334 0.4921, 0.0725 -0.3284 0.4921, 0.0699 -0.3339 0.4921, 0.0722 -0.3351 0.4921, 0.0652 -0.3285 0.4921, 0.0649 -0.329 0.4921, 0.0647 -0.3294 0.4921, 0.0648 -0.3417 0.4921, 0.0663 -0.3358 0.4921, 0.0643 -0.3349 0.4921, 0.0667 -0.3419 0.4921, 0.0668 -0.3419 0.4921, 0.0685 -0.3367 0.4921, 0.0686 -0.3417 0.4921, 0.0706 -0.3393 0.4921, 0.0706 -0.3389 0.4921, 0.0694 -0.3414 0.4921, 0.0697 -0.3412 0.4921, 0.0701 -0.3408 0.4921, 0.0704 -0.3404 0.4921, 0.0706 -0.3399 0.4921, 0.0704 -0.3384 0.4921, 0.0702 -0.3379 0.4921, 0.0698 -0.3375 0.4921, 0.1396 -0.302 0.4921, 0.1309 -0.3018 0.4921, 0.1271 -0.3018 0.4921, 0.1244 -0.2945 0.4921, 0.1146 -0.2945 0.4921, 0.1146 -0.302 0.4921, 0.1207 -0.2751 0.4921, 0.1396 -0.2749 0.4921, 0.1146 -0.2749 0.4921, 0.1133 -0.2945 0.4921, 0.1107 -0.3018 0.4921, 0.1061 -0.302 0.4921, 0.1069 -0.3018 0.4921, 0.1061 -0.2749 0.4921, 0.1146 -0.2816 0.4921, 0.1171 -0.2751 0.4921, 0.078 -0.2751 0.4921, 0.0812 -0.2749 0.4921, 0.0749 -0.2749 0.4921, 0.0677 -0.2898 0.4921, 0.0677 -0.2988 0.4921, 0.0749 -0.2898 0.4921, 0.0749 -0.2988 0.4921, 0.0773 -0.2898 0.4921, 0.0786 -0.2988 0.4921, 0.0773 -0.2867 0.4921, 0.078 -0.2782 0.4921, 0.0749 -0.2867 0.4921, 0.0749 -0.2782 0.4921, 0.0677 -0.2867 0.4921, 0.0677 -0.2782 0.4921, 0.0643 -0.3018 0.4921, 0.0627 -0.302 0.4921, 0.0749 -0.302 0.4921, 0.0812 -0.302 0.4921, 0.0786 -0.3018 0.4921, 0.0749 -0.3018 0.4921, 0.0627 -0.2749 0.4921, 0.0643 -0.2751 0.4921, 0.0749 -0.2751 0.4921, 0.5225 -0.2749 0.4921, 0.5198 0.3642 0.4921, 0.5167 0.3683 0.4921, 0.5126 0.3714 0.4921, 0.5218 0.3594 0.4921, 0.5079 0.3733 0.4921, 0.5079 -0.3733 0.4921, 0.5126 -0.3714 0.4921, 0.5167 -0.3683 0.4921, 0.0586 -0.2792 0.4921, 0.0578 -0.2979 0.4921, 0.0589 -0.2974 0.4921, 0.0589 -0.2794 0.4921, 0.043 -0.2851 0.4921, 0.0426 -0.2888 0.4921, 0.0533 -0.2992 0.4921, 0.0426 -0.2902 0.4921, 0.0431 -0.2928 0.4921, 0.0475 -0.2981 0.4921, 0.0494 -0.2989 0.4921, 0.052 -0.2992 0.4921, 0.0578 -0.2789 0.4921, 0.0559 -0.2782 0.4921, 0.0563 -0.2986 0.4921, 0.0527 -0.2778 0.4921, 0.0516 -0.2778 0.4921, 0.0493 -0.2783 0.4921, 0.0472 -0.2793 0.4921, 0.0441 -0.2949 0.4921, 0.0452 -0.2964 0.4921, 0.0457 -0.2969 0.4921, 0.0454 -0.2808 0.4921, 0.0439 -0.2828 0.4921, 0.0555 -0.2749 0.4921, 0.0561 -0.275 0.4921, 0.0578 -0.2749 0.4921, 0.0578 -0.2754 0.4921, 0.0589 -0.2758 0.4921, 0.0526 -0.2747 0.4921, 0.0578 0.374 0.4921, 0.0526 -0.2747 0.4921, 0.0402 0.374 0.4921, 0.0508 -0.2749 0.4921, 0.0402 -0.2749 0.4921, 0.0409 -0.2811 0.4921, 0.0428 -0.2786 0.4921, 0.0435 -0.278 0.4921, 0.046 -0.2762 0.4921, 0.0487 -0.2752 0.4921, 0.0386 -0.2749 0.4921, 0.0396 -0.2841 0.4921, 0.0402 -0.2828 0.4921, 0.0402 -0.295 0.4921, 0.0395 -0.2933 0.4921, 0.0386 -0.302 0.4921, 0.039 -0.289 0.4921, 0.039 -0.2876 0.4921, 0.047 -0.3016 0.4921, 0.0445 -0.3004 0.4921, 0.0402 -0.302 0.4921, 0.0424 -0.2986 0.4921, 0.0406 -0.2961 0.4921, 0.0492 -0.302 0.4921, 0.0402 -0.3099 0.4921, 0.0499 -0.3022 0.4921, 0.0516 -0.3023 0.4921, 0.0539 -0.302 0.4921, 0.0589 -0.3007 0.4921, 0.0585 -0.3009 0.4921, 0.0578 -0.302 0.4921, 0.0578 -0.3012 0.4921, 0.0556 -0.3019 0.4921, 0.0426 -0.3352 0.4921, 0.0432 -0.3297 0.4921, 0.0419 -0.3363 0.4921, 0.0415 -0.3375 0.4921, 0.0567 -0.3442 0.4921, 0.0533 -0.3442 0.4921, 0.0506 -0.3275 0.4921, 0.0495 -0.3274 0.4921, 0.0477 -0.3328 0.4921, 0.0563 -0.3291 0.4921, 0.0567 -0.3319 0.4921, 0.0436 -0.3343 0.4921, 0.0449 -0.3336 0.4921, 0.0455 -0.3282 0.4921, 0.0476 -0.3276 0.4921, 0.0441 -0.3439 0.4921, 0.043 -0.3431 0.4921, 0.0402 -0.3444 0.4921, 0.0427 -0.3428 0.4921, 0.042 -0.3418 0.4921, 0.0533 -0.3412 0.4921, 0.0532 -0.3412 0.4921, 0.0527 -0.3421 0.4921, 0.0516 -0.3432 0.4921, 0.0415 -0.3407 0.4921, 0.0413 -0.3391 0.4921, 0.0432 -0.3264 0.4921, 0.0533 -0.332 0.4921, 0.0532 -0.3306 0.4921, 0.0529 -0.3294 0.4921, 0.0525 -0.3287 0.4921, 0.0439 -0.326 0.4921, 0.0464 -0.3251 0.4921, 0.0498 -0.3247 0.4921, 0.0521 -0.3249 0.4921, 0.0534 -0.3254 0.4921, 0.0545 -0.326 0.4921, 0.0551 -0.3266 0.4921, 0.0558 -0.3276 0.4921, 0.052 -0.3282 0.4921, 0.0514 -0.3278 0.4921, 0.0492 -0.3444 0.4921, 0.0491 -0.3444 0.4921, 0.0578 -0.355 0.4921, 0.0402 -0.355 0.4921, 0.0474 -0.3446 0.4921, 0.0455 -0.3444 0.4921, 0.0454 -0.3444 0.4921, 0.0812 -0.3444 0.4921, 0.0812 -0.3387 0.4921, 0.0758 -0.3251 0.4921, 0.0795 -0.3251 0.4921, 0.0833 -0.3441 0.4921, 0.0832 -0.3444 0.4921, 0.0818 -0.3476 0.4921, 0.0749 -0.355 0.4921, 0.0765 -0.3529 0.4921, 0.0765 -0.3499 0.4921, 0.0805 -0.3495 0.4921, 0.0811 -0.3488 0.4921, 0.0812 -0.3488 0.4921, 0.0664 -0.3446 0.4921, 0.0627 -0.355 0.4921, 0.0772 -0.3501 0.4921, 0.0784 -0.3503 0.4921, 0.0812 -0.3525 0.4921, 0.08 -0.353 0.4921, 0.0812 -0.355 0.4921, 0.0787 -0.3531 0.4921, 0.0779 -0.3531 0.4921, 0.0793 -0.3502 0.4921, 0.08 -0.3499 0.4921, 0.0855 -0.347 0.4921, 0.0839 -0.35 0.4921, 0.1061 -0.355 0.4921, 0.0865 -0.3444 0.4921, 0.0827 -0.3515 0.4921, 0.0825 -0.3517 0.4921, 0.0813 -0.3525 0.4921, 0.1146 -0.374 0.4921, 0.1146 -0.355 0.4921, 0.1061 -0.374 0.4921, 0.0812 -0.374 0.4921, 0.0749 -0.374 0.4921, 0.0627 -0.374 0.4921, 0.0578 -0.374 0.4921, 0.0402 -0.374 0.4921, 0.5198 -0.3642 0.4921, 0.5218 -0.3594 0.4921, 0.5028 -0.374 0.4921, 0.5224 -0.355 0.4921, 0.3434 -0.374 0.4921, 0.3434 -0.355 0.4921, 0.1396 -0.374 0.4921, 0.1396 -0.355 0.4921, 0.0505 -0.3439 0.4921, 0.5225 -0.3543 0.4921, 0.3434 -0.3444 0.4921, 0.1396 -0.3444 0.4921, 0.0238 -0.3175 0.4921, 0.0238 -0.3442 0.4921, 0.0386 -0.3444 0.4921, 0.0386 -0.355 0.4921, 0.0386 -0.374 0.4921, 0.0375 -0.3175 0.4921, 0.0386 -0.3099 0.4921, 0.0375 -0.3205 0.4921, 0.0381 -0.3411 0.4921, 0.0381 -0.3442 0.4921, 0.0272 -0.3321 0.4921, 0.0272 -0.3411 0.4921, 0.0368 -0.3321 0.4921, 0.0368 -0.3291 0.4921, 0.0272 -0.3291 0.4921, 0.0272 -0.3205 0.4921, 0.1171 -0.3442 0.4921, 0.1381 -0.3353 0.4921, 0.1368 -0.3381 0.4921, 0.1348 -0.3404 0.4921, 0.1374 -0.3242 0.4921, 0.1384 -0.3268 0.4921, 0.1396 -0.3099 0.4921, 0.1388 -0.3305 0.4921, 0.1388 -0.3322 0.4921, 0.132 -0.3424 0.4921, 0.129 -0.3436 0.4921, 0.1244 -0.3442 0.4921, 0.1171 -0.3175 0.4921, 0.1247 -0.3175 0.4921, 0.1288 -0.3179 0.4921, 0.132 -0.3191 0.4921, 0.1348 -0.321 0.4921, 0.1357 -0.3219 0.4921, 0.1441 -0.3442 0.4921, 0.1403 -0.3442 0.4921, 0.1605 -0.3442 0.4921, 0.1578 -0.3369 0.4921, 0.1467 -0.3369 0.4921, 0.1505 -0.3175 0.4921, 0.1542 -0.3175 0.4921, 0.0238 -0.3018 0.4921, 0.0238 -0.2751 0.4921, 0.0379 -0.3018 0.4921, 0.0913 -0.2751 0.4921, 0.0954 -0.2756 0.4921, 0.0986 -0.2768 0.4921, 0.104 -0.2819 0.4921, 0.105 -0.2844 0.4921, 0.1054 -0.2881 0.4921, 0.1053 -0.2898 0.4921, 0.1047 -0.293 0.4921, 0.1034 -0.2957 0.4921, 0.1014 -0.2981 0.4921, 0.0986 -0.3001 0.4921, 0.0956 -0.3013 0.4921, 0.091 -0.3018 0.4921, 0.0837 -0.3018 0.4921, 0.0837 -0.2751 0.4921, 0.1014 -0.2787 0.4921, 0.1023 -0.2796 0.4921, 0.1643 -0.3442 0.4921, 0.3434 -0.3099 0.4921, 0.3434 -0.302 0.4921, 0.3434 -0.2749 0.4921, 0.0386 0.374 0.4921, 0.5225 -0.3444 0.4921, 0.5225 -0.3099 0.4921, 0.5225 -0.302 0.4921, 0.1396 0.374 0.4921, 0.1146 0.374 0.4921, 0.1061 0.374 0.4921, 0.0812 0.374 0.4921, 0.0749 0.374 0.4921, 0.0627 0.374 0.4921, 0.5421 0.3543 0.4724, 0.5421 0.3543 0.0197, 0.5408 0.3645 0.0197, 0.5408 0.3645 0.4724, 0.5369 0.374 0.0197, 0.5369 0.374 0.4724, 0.5306 0.3822 0.0197, 0.5306 0.3822 0.4724, 0.5225 0.3884 0.0197, 0.5225 0.3884 0.4724, 0.513 0.3924 0.0197, 0.513 0.3924 0.4724, 0.5028 0.3937 0.0197, 0.5028 0.3937 0.4724, -0.4027 0.3937 0.4724, -0.4027 0.3937 0.0197, -0.4129 0.3924 0.0197, -0.4129 0.3924 0.4724, -0.4224 0.3884 0.0197, -0.4224 0.3884 0.4724, -0.4306 0.3822 0.0197, -0.4306 0.3822 0.4724, -0.4368 0.374 0.0197, -0.4368 0.374 0.4724, -0.4408 0.3645 0.0197, -0.4408 0.3645 0.4724, -0.4421 0.3543 0.0197, -0.4421 0.3543 0.4724, -0.4421 -0.3543 0.4724, -0.4421 -0.3543 0.0197, -0.4408 -0.3645 0.0197, -0.4408 -0.3645 0.4724, -0.4368 -0.374 0.0197, -0.4368 -0.374 0.4724, -0.4306 -0.3822 0.0197, -0.4306 -0.3822 0.4724, -0.4224 -0.3884 0.0197, -0.4224 -0.3884 0.4724, -0.4129 -0.3924 0.0197, -0.4129 -0.3924 0.4724, -0.4027 -0.3937 0.0197, -0.4027 -0.3937 0.4724, 0.5028 -0.3937 0.4724, 0.5028 -0.3937 0.0197, 0.513 -0.3924 0.0197, 0.513 -0.3924 0.4724, 0.5225 -0.3884 0.0197, 0.5225 -0.3884 0.4724, 0.5306 -0.3822 0.0197, 0.5306 -0.3822 0.4724, 0.5369 -0.374 0.0197, 0.5369 -0.374 0.4724, 0.5408 -0.3645 0.0197, 0.5408 -0.3645 0.4724, 0.5421 -0.3543 0.0197, 0.5421 -0.3543 0.4724, -0.4414 -0.3543 0.4775, -0.4395 -0.3543 0.4823, -0.4394 0.3543 0.4822, -0.4402 0.3543 0.481, -0.4414 0.3543 0.4775, -0.4416 0.3543 0.4768, -0.4323 -0.3543 0.4895, -0.4347 0.3543 0.4878, -0.4363 -0.3543 0.4864, -0.4363 0.3543 0.4863, -0.4378 0.3543 0.4847, -0.4268 0.3543 0.4916, -0.4275 0.3543 0.4914, -0.4275 -0.3543 0.4915, -0.431 0.3543 0.4902, -0.4322 0.3543 0.4894, -0.4313 -0.362 0.4895, -0.4352 -0.363 0.4864, -0.4382 -0.3638 0.4823, -0.4401 -0.3643 0.4775, -0.4363 -0.3737 0.4775, -0.4301 -0.3817 0.4775, -0.4221 -0.3878 0.4775, -0.4128 -0.3917 0.4775, -0.4027 -0.393 0.4775, -0.4345 -0.3727 0.4823, -0.4287 -0.3803 0.4823, -0.4211 -0.3861 0.4823, -0.4122 -0.3898 0.4823, -0.4027 -0.3911 0.4823, -0.4318 -0.3711 0.4864, -0.4265 -0.3781 0.4864, -0.4195 -0.3834 0.4864, -0.4114 -0.3868 0.4864, -0.4027 -0.3879 0.4864, -0.4283 -0.3691 0.4895, -0.4236 -0.3752 0.4895, -0.4175 -0.3799 0.4895, -0.4104 -0.3829 0.4895, -0.4027 -0.3839 0.4895, -0.4267 -0.3607 0.4915, -0.4242 -0.3667 0.4915, -0.4203 -0.3719 0.4915, -0.4151 -0.3758 0.4915, -0.4091 -0.3783 0.4915, -0.4027 -0.3791 0.4915, -0.4403 0.3644 0.4768, -0.4027 0.3932 0.4768, -0.4128 0.3919 0.4768, -0.4027 0.393 0.4775, -0.4124 0.3905 0.481, -0.4389 0.364 0.481, -0.4118 0.3882 0.4847, -0.4027 0.391 0.4822, -0.4027 0.3918 0.481, -0.4366 0.3634 0.4847, -0.411 0.3852 0.4878, -0.4027 0.3878 0.4863, -0.4027 0.3894 0.4847, -0.4336 0.3626 0.4878, -0.4027 0.3791 0.4914, -0.4027 0.3826 0.4902, -0.41 0.3816 0.4902, -0.4027 0.3838 0.4894, -0.4027 0.3863 0.4878, -0.4222 0.388 0.4768, -0.4214 0.3867 0.481, -0.4203 0.3847 0.4847, -0.4187 0.382 0.4878, -0.4168 0.3788 0.4902, -0.4302 0.3818 0.4768, -0.4292 0.3808 0.481, -0.4275 0.3791 0.4847, -0.4253 0.3769 0.4878, -0.4227 0.3743 0.4902, -0.4364 0.3738 0.4768, -0.4351 0.373 0.481, -0.4331 0.3719 0.4847, -0.4304 0.3703 0.4878, -0.4272 0.3684 0.4902, -0.43 0.3616 0.4902, -0.4027 0.3784 0.4916, -0.409 0.3776 0.4916, -0.4148 0.3752 0.4916, -0.4198 0.3713 0.4916, -0.4236 0.3664 0.4916, -0.426 0.3606 0.4916, 0.5028 -0.3791 0.4915, 0.5028 -0.3839 0.4895, 0.5028 -0.3879 0.4864, 0.5028 -0.3911 0.4823, 0.5028 -0.393 0.4775, 0.5028 0.393 0.4775, 0.5028 0.3911 0.4823, 0.5028 0.3879 0.4864, 0.5028 0.3839 0.4895, 0.5028 0.3791 0.4915, 0.5267 -0.3607 0.4915, 0.5128 -0.3917 0.4775, 0.5123 -0.3898 0.4823, 0.5115 -0.3868 0.4864, 0.5104 -0.3829 0.4895, 0.5092 -0.3783 0.4915, 0.5221 -0.3878 0.4775, 0.5211 -0.3861 0.4823, 0.5196 -0.3834 0.4864, 0.5175 -0.3799 0.4895, 0.5152 -0.3758 0.4915, 0.5301 -0.3817 0.4775, 0.5287 -0.3803 0.4823, 0.5265 -0.3781 0.4864, 0.5237 -0.3752 0.4895, 0.5203 -0.3719 0.4915, 0.5363 -0.3737 0.4775, 0.5346 -0.3727 0.4823, 0.5319 -0.3711 0.4864, 0.5283 -0.3691 0.4895, 0.5242 -0.3667 0.4915, 0.5402 -0.3643 0.4775, 0.5383 -0.3638 0.4823, 0.5352 -0.363 0.4864, 0.5313 -0.362 0.4895, 0.5276 -0.3543 0.4915, 0.5323 -0.3543 0.4895, 0.5364 -0.3543 0.4864, 0.5395 -0.3543 0.4823, 0.5415 -0.3543 0.4775, 0.5415 0.3543 0.4775, 0.5402 0.3643 0.4775, 0.5395 0.3543 0.4823, 0.5383 0.3638 0.4823, 0.5364 0.3543 0.4864, 0.5352 0.363 0.4864, 0.5323 0.3543 0.4895, 0.5313 0.362 0.4895, 0.5276 0.3543 0.4915, 0.5267 0.3607 0.4915, 0.5363 0.3737 0.4775, 0.5346 0.3727 0.4823, 0.5319 0.3711 0.4864, 0.5283 0.3691 0.4895, 0.5242 0.3667 0.4915, 0.5301 0.3817 0.4775, 0.5287 0.3803 0.4823, 0.5265 0.3781 0.4864, 0.5237 0.3752 0.4895, 0.5203 0.3719 0.4915, 0.5221 0.3878 0.4775, 0.5211 0.3861 0.4823, 0.5196 0.3834 0.4864, 0.5175 0.3799 0.4895, 0.5152 0.3758 0.4915, 0.5128 0.3917 0.4775, 0.5123 0.3898 0.4823, 0.5115 0.3868 0.4864, 0.5104 0.3829 0.4895, 0.5092 0.3783 0.4915
            ]
        }
        coordIndex [
            0,1,2,-1,3,4,5,-1,6,7,8,-1,9,10,11,-1,12,13,14,-1,15,16,17,-1,18,19,17,-1,17,19,20,-1,16,21,17,-1,17,21,22,-1,17,22,23,-1,23,24,17,-1,17,24,25,-1,17,25,18,-1,26,27,28,-1,28,29,30,-1,28,27,31,-1,31,27,32,-1,31,32,33,-1,34,28,35,-1,35,28,36,-1,34,37,28,-1,28,37,38,-1,28,38,29,-1,39,40,30,-1,26,28,41,-1,41,28,30,-1,41,30,42,-1,40,43,30,-1,30,43,44,-1,30,44,42,-1,42,44,45,-1,42,45,46,-1,46,45,47,-1,46,47,48,-1,14,13,49,-1,13,50,49,-1,49,50,51,-1,49,51,30,-1,30,51,52,-1,30,52,39,-1,53,54,55,-1,53,55,56,-1,54,57,55,-1,55,57,58,-1,55,58,14,-1,14,58,59,-1,14,59,12,-1,60,56,61,-1,61,56,55,-1,61,55,62,-1,62,55,63,-1,64,65,66,-1,66,65,67,-1,67,68,66,-1,66,68,69,-1,66,69,70,-1,70,69,71,-1,70,71,72,-1,73,74,75,-1,75,74,70,-1,75,70,76,-1,63,55,77,-1,77,55,78,-1,77,78,72,-1,72,78,79,-1,72,79,70,-1,70,79,80,-1,70,80,76,-1,81,82,64,-1,64,82,83,-1,64,83,84,-1,84,85,64,-1,64,85,86,-1,64,86,65,-1,87,88,89,-1,90,91,92,-1,93,94,81,-1,95,96,97,-1,97,96,98,-1,90,92,99,-1,93,81,100,-1,101,102,96,-1,96,102,103,-1,96,103,104,-1,89,88,81,-1,81,88,105,-1,81,105,100,-1,91,106,92,-1,92,106,107,-1,92,107,108,-1,109,110,111,-1,111,110,112,-1,111,112,113,-1,114,104,115,-1,115,104,116,-1,115,116,111,-1,111,116,117,-1,111,117,109,-1,114,118,104,-1,104,118,119,-1,104,119,96,-1,96,119,120,-1,96,120,98,-1,121,122,123,-1,123,122,124,-1,123,124,92,-1,92,124,125,-1,92,125,99,-1,126,127,92,-1,92,127,128,-1,92,128,96,-1,96,128,129,-1,96,129,101,-1,130,131,82,-1,82,131,132,-1,82,132,133,-1,133,134,82,-1,82,134,135,-1,82,135,136,-1,136,135,121,-1,136,121,137,-1,137,121,123,-1,94,138,81,-1,81,138,139,-1,81,139,82,-1,82,139,140,-1,82,140,130,-1,108,141,92,-1,92,141,142,-1,92,142,143,-1,143,144,92,-1,92,144,145,-1,92,145,126,-1,146,147,148,-1,148,104,146,-1,146,104,103,-1,146,103,149,-1,149,103,150,-1,150,151,149,-1,149,151,152,-1,149,152,153,-1,154,155,156,-1,157,156,158,-1,155,159,156,-1,156,159,160,-1,156,160,161,-1,147,146,157,-1,157,146,162,-1,157,162,156,-1,156,162,163,-1,156,163,154,-1,158,164,157,-1,157,164,165,-1,157,165,166,-1,167,168,169,-1,169,168,170,-1,169,170,161,-1,161,170,171,-1,161,171,156,-1,172,173,166,-1,166,173,174,-1,166,174,157,-1,19,175,20,-1,20,175,176,-1,20,176,89,-1,89,176,177,-1,89,177,87,-1,178,179,180,-1,11,10,181,-1,181,10,182,-1,181,182,183,-1,184,185,186,-1,186,185,187,-1,186,187,188,-1,188,187,178,-1,188,178,189,-1,190,191,192,-1,192,191,193,-1,192,193,183,-1,180,179,194,-1,194,179,195,-1,194,195,196,-1,197,198,199,-1,200,201,202,-1,202,201,203,-1,202,203,204,-1,204,203,197,-1,204,197,205,-1,205,197,199,-1,206,207,208,-1,209,210,211,-1,212,213,214,-1,209,211,215,-1,212,214,211,-1,211,214,216,-1,211,216,215,-1,217,218,219,-1,219,218,220,-1,219,220,221,-1,221,220,222,-1,221,222,211,-1,223,224,8,-1,225,226,227,-1,207,228,208,-1,208,228,229,-1,208,229,227,-1,227,229,230,-1,227,230,225,-1,231,232,8,-1,8,232,233,-1,226,234,227,-1,227,234,235,-1,227,235,236,-1,236,235,237,-1,236,237,223,-1,238,239,224,-1,224,239,240,-1,224,240,8,-1,8,240,241,-1,8,241,231,-1,233,242,8,-1,8,242,243,-1,8,243,6,-1,244,245,246,-1,246,245,247,-1,246,247,248,-1,246,249,244,-1,244,249,250,-1,244,250,251,-1,251,252,244,-1,244,252,253,-1,244,253,254,-1,254,253,255,-1,254,255,256,-1,256,255,257,-1,256,257,224,-1,224,257,258,-1,224,258,238,-1,259,260,248,-1,248,260,261,-1,248,261,246,-1,262,263,213,-1,213,263,264,-1,213,264,214,-1,262,265,263,-1,263,265,266,-1,263,266,267,-1,267,266,268,-1,267,269,270,-1,268,271,267,-1,267,271,272,-1,267,272,273,-1,273,274,267,-1,267,274,275,-1,267,275,269,-1,270,276,267,-1,267,276,277,-1,267,277,278,-1,279,280,281,-1,282,283,281,-1,281,283,284,-1,281,284,279,-1,280,279,285,-1,285,279,286,-1,285,286,287,-1,283,288,284,-1,284,288,289,-1,284,289,290,-1,290,289,291,-1,290,291,292,-1,292,291,293,-1,292,293,287,-1,287,293,294,-1,287,294,285,-1,295,296,297,-1,298,299,300,-1,300,299,301,-1,300,301,302,-1,302,301,303,-1,302,303,304,-1,304,303,305,-1,304,305,306,-1,306,305,307,-1,306,307,308,-1,308,307,309,-1,310,311,312,-1,295,305,296,-1,296,305,303,-1,296,303,313,-1,313,303,314,-1,313,314,312,-1,312,314,315,-1,312,315,310,-1,316,317,297,-1,297,317,318,-1,297,318,295,-1,5,4,319,-1,320,321,322,-1,5,323,3,-1,3,323,320,-1,3,320,324,-1,324,320,322,-1,325,326,327,-1,328,329,330,-1,328,330,331,-1,331,330,311,-1,331,311,316,-1,316,311,310,-1,316,310,317,-1,332,333,334,-1,334,333,335,-1,334,335,336,-1,337,338,339,-1,328,340,329,-1,329,340,341,-1,329,341,342,-1,342,341,343,-1,342,343,334,-1,343,344,334,-1,334,344,345,-1,334,345,346,-1,336,347,334,-1,334,347,348,-1,334,348,339,-1,339,348,349,-1,339,349,337,-1,346,350,334,-1,334,350,351,-1,334,351,332,-1,352,353,354,-1,354,353,355,-1,354,355,316,-1,316,355,356,-1,316,356,331,-1,357,358,359,-1,359,358,360,-1,359,360,361,-1,362,363,364,-1,364,365,362,-1,362,365,366,-1,362,366,367,-1,368,369,362,-1,362,369,370,-1,362,370,363,-1,371,372,373,-1,373,372,374,-1,373,374,368,-1,368,374,375,-1,368,375,369,-1,376,377,378,-1,377,379,378,-1,378,379,380,-1,378,380,371,-1,376,378,381,-1,381,378,382,-1,381,382,383,-1,383,382,384,-1,384,382,208,-1,384,208,385,-1,330,386,311,-1,311,386,387,-1,311,387,388,-1,388,387,389,-1,388,389,390,-1,391,392,393,-1,393,392,394,-1,221,395,396,-1,397,398,399,-1,208,400,401,-1,391,402,392,-1,392,402,403,-1,392,403,404,-1,404,403,399,-1,404,399,405,-1,405,399,398,-1,210,206,211,-1,211,206,208,-1,211,208,221,-1,221,208,401,-1,221,401,395,-1,406,407,408,-1,408,407,409,-1,408,409,410,-1,411,412,396,-1,396,412,413,-1,396,413,414,-1,410,415,408,-1,408,415,416,-1,408,416,382,-1,382,416,394,-1,382,394,417,-1,417,394,392,-1,418,419,399,-1,399,419,420,-1,399,420,421,-1,417,422,382,-1,382,422,423,-1,382,423,208,-1,208,423,424,-1,424,425,208,-1,208,425,426,-1,208,426,427,-1,427,428,208,-1,208,428,429,-1,208,429,400,-1,421,430,399,-1,399,430,431,-1,399,431,397,-1,432,433,434,-1,434,433,435,-1,433,436,435,-1,435,436,437,-1,435,437,408,-1,408,437,438,-1,408,438,406,-1,439,440,8,-1,8,440,441,-1,223,8,236,-1,236,8,441,-1,236,441,201,-1,201,441,442,-1,201,442,203,-1,443,440,444,-1,444,440,439,-1,444,439,445,-1,446,447,448,-1,449,450,439,-1,439,450,451,-1,439,451,445,-1,452,453,7,-1,7,453,446,-1,7,446,8,-1,8,446,448,-1,8,448,439,-1,439,448,454,-1,439,454,455,-1,456,457,458,-1,458,457,459,-1,458,459,446,-1,446,459,460,-1,446,460,447,-1,455,461,439,-1,439,461,462,-1,439,462,449,-1,463,464,465,-1,463,465,466,-1,464,467,465,-1,465,467,468,-1,465,468,458,-1,458,468,469,-1,458,469,456,-1,470,471,472,-1,472,471,465,-1,472,465,473,-1,473,465,458,-1,473,458,474,-1,474,458,446,-1,474,446,475,-1,475,446,453,-1,475,453,476,-1,476,453,434,-1,476,434,477,-1,477,434,435,-1,327,478,325,-1,325,478,479,-1,325,479,480,-1,480,479,481,-1,480,481,482,-1,482,481,483,-1,482,483,484,-1,484,483,485,-1,484,485,470,-1,452,217,453,-1,453,217,219,-1,453,219,434,-1,434,219,221,-1,434,221,432,-1,432,221,396,-1,432,396,486,-1,486,396,414,-1,471,180,465,-1,465,180,194,-1,465,194,466,-1,466,194,196,-1,466,196,200,-1,200,196,9,-1,200,9,201,-1,201,9,11,-1,481,487,483,-1,483,487,488,-1,483,488,485,-1,485,488,489,-1,490,89,491,-1,491,89,81,-1,491,81,492,-1,492,81,64,-1,492,64,493,-1,493,64,66,-1,493,66,494,-1,490,495,496,-1,495,497,496,-1,496,497,498,-1,496,498,492,-1,492,498,499,-1,492,499,491,-1,500,501,502,-1,502,501,498,-1,502,498,503,-1,503,498,497,-1,503,497,504,-1,504,497,505,-1,193,189,183,-1,183,189,178,-1,183,178,181,-1,181,178,180,-1,181,180,506,-1,507,508,489,-1,489,508,509,-1,510,511,512,-1,512,511,513,-1,512,513,489,-1,489,513,514,-1,489,514,507,-1,509,515,489,-1,489,515,516,-1,489,516,517,-1,470,485,471,-1,471,485,489,-1,471,489,180,-1,180,489,517,-1,180,517,506,-1,506,518,181,-1,181,518,519,-1,181,519,512,-1,512,519,520,-1,512,520,521,-1,521,522,512,-1,512,522,523,-1,512,523,510,-1,524,525,489,-1,526,527,528,-1,489,525,512,-1,512,525,529,-1,512,529,530,-1,371,373,378,-1,378,373,496,-1,378,496,382,-1,382,496,492,-1,382,492,408,-1,408,492,493,-1,408,493,435,-1,435,493,494,-1,435,494,477,-1,512,279,181,-1,181,279,284,-1,181,284,11,-1,11,284,290,-1,11,290,201,-1,201,290,313,-1,201,313,236,-1,236,313,312,-1,236,312,227,-1,227,312,311,-1,227,311,208,-1,208,311,388,-1,208,388,385,-1,385,388,390,-1,490,496,89,-1,89,496,373,-1,89,373,20,-1,20,373,531,-1,20,531,17,-1,531,532,17,-1,17,532,0,-1,17,0,368,-1,368,0,2,-1,368,2,373,-1,373,2,533,-1,373,533,531,-1,296,534,292,-1,292,534,535,-1,292,535,536,-1,537,538,292,-1,292,538,539,-1,292,539,290,-1,290,539,540,-1,290,540,541,-1,541,542,290,-1,290,542,543,-1,290,543,544,-1,544,545,290,-1,290,545,546,-1,290,546,313,-1,313,546,547,-1,313,547,296,-1,296,547,548,-1,296,548,534,-1,536,549,292,-1,292,549,550,-1,292,550,537,-1,528,524,526,-1,526,524,489,-1,526,489,551,-1,551,489,488,-1,551,488,530,-1,530,488,552,-1,530,552,512,-1,512,552,553,-1,512,553,279,-1,279,553,554,-1,279,554,286,-1,367,361,362,-1,362,361,360,-1,362,360,368,-1,368,360,555,-1,368,555,17,-1,17,555,31,-1,17,31,15,-1,15,31,33,-1,487,556,488,-1,488,556,557,-1,488,557,552,-1,552,557,558,-1,552,558,553,-1,553,558,319,-1,553,319,554,-1,554,319,4,-1,554,4,286,-1,286,4,559,-1,286,559,287,-1,287,559,560,-1,287,560,292,-1,292,560,561,-1,292,561,296,-1,296,561,562,-1,296,562,297,-1,297,562,563,-1,297,563,316,-1,316,563,564,-1,316,564,354,-1,354,564,358,-1,354,358,352,-1,352,358,357,-1,565,566,567,-1,565,567,568,-1,568,567,569,-1,568,569,570,-1,570,569,571,-1,570,571,572,-1,572,571,573,-1,572,573,574,-1,574,573,575,-1,574,575,576,-1,576,575,577,-1,576,577,578,-1,578,577,579,-1,579,577,580,-1,579,580,581,-1,579,581,582,-1,582,581,583,-1,582,583,584,-1,584,583,585,-1,584,585,586,-1,586,585,587,-1,586,587,588,-1,588,587,589,-1,588,589,590,-1,590,589,591,-1,590,591,592,-1,592,591,593,-1,593,591,594,-1,593,594,595,-1,593,595,596,-1,596,595,597,-1,596,597,598,-1,598,597,599,-1,598,599,600,-1,600,599,601,-1,600,601,602,-1,602,601,603,-1,602,603,604,-1,604,603,605,-1,604,605,606,-1,606,605,607,-1,607,605,608,-1,607,608,609,-1,607,609,610,-1,610,609,611,-1,610,611,612,-1,612,611,613,-1,612,613,614,-1,614,613,615,-1,614,615,616,-1,616,615,617,-1,616,617,618,-1,618,617,619,-1,618,619,620,-1,620,619,565,-1,565,619,566,-1,569,567,566,-1,583,581,585,-1,585,581,580,-1,585,580,587,-1,580,577,566,-1,566,577,575,-1,608,605,594,-1,594,605,603,-1,594,603,601,-1,575,573,566,-1,566,573,571,-1,566,571,569,-1,601,599,594,-1,594,599,597,-1,594,597,595,-1,613,611,615,-1,615,611,609,-1,615,609,617,-1,617,609,608,-1,617,608,619,-1,619,608,594,-1,619,594,566,-1,566,594,591,-1,566,591,580,-1,580,591,589,-1,580,589,587,-1,621,622,623,-1,623,624,621,-1,621,624,625,-1,621,625,593,-1,593,625,626,-1,593,626,592,-1,627,628,629,-1,629,628,630,-1,629,630,622,-1,622,630,631,-1,622,631,623,-1,632,633,634,-1,634,633,635,-1,634,635,627,-1,627,635,636,-1,627,636,628,-1,78,55,634,-1,634,55,14,-1,29,632,30,-1,30,632,634,-1,30,634,49,-1,49,634,14,-1,634,627,637,-1,627,629,638,-1,629,622,639,-1,622,621,640,-1,621,593,596,-1,621,596,640,-1,640,596,598,-1,640,598,641,-1,641,598,600,-1,641,600,642,-1,642,600,602,-1,642,602,643,-1,643,602,604,-1,643,604,644,-1,644,604,606,-1,644,606,645,-1,622,640,639,-1,639,640,641,-1,639,641,646,-1,646,641,642,-1,646,642,647,-1,647,642,643,-1,647,643,648,-1,648,643,644,-1,648,644,649,-1,649,644,645,-1,649,645,650,-1,629,639,638,-1,638,639,646,-1,638,646,651,-1,651,646,647,-1,651,647,652,-1,652,647,648,-1,652,648,653,-1,653,648,649,-1,653,649,654,-1,654,649,650,-1,654,650,655,-1,627,638,637,-1,637,638,651,-1,637,651,656,-1,656,651,652,-1,656,652,657,-1,657,652,653,-1,657,653,658,-1,658,653,654,-1,658,654,659,-1,659,654,655,-1,659,655,660,-1,634,637,661,-1,661,637,656,-1,661,656,662,-1,662,656,657,-1,662,657,663,-1,663,657,658,-1,663,658,664,-1,664,658,659,-1,664,659,665,-1,665,659,660,-1,665,660,666,-1,78,634,79,-1,79,634,661,-1,79,661,80,-1,80,661,662,-1,80,662,76,-1,76,662,663,-1,76,663,75,-1,75,663,664,-1,75,664,73,-1,73,664,665,-1,73,665,74,-1,74,665,666,-1,74,666,70,-1,667,590,592,-1,579,582,668,-1,668,582,669,-1,668,669,670,-1,670,669,671,-1,592,626,667,-1,667,626,625,-1,667,625,672,-1,673,674,671,-1,671,674,675,-1,671,675,670,-1,625,624,672,-1,672,624,623,-1,672,623,676,-1,677,678,673,-1,673,678,679,-1,673,679,674,-1,623,631,676,-1,676,631,630,-1,676,630,680,-1,681,682,683,-1,683,682,684,-1,683,684,677,-1,677,684,685,-1,677,685,678,-1,582,584,669,-1,669,584,686,-1,669,686,671,-1,671,686,687,-1,671,687,673,-1,673,687,688,-1,673,688,677,-1,677,688,689,-1,677,689,683,-1,683,689,690,-1,584,586,686,-1,686,586,691,-1,686,691,687,-1,687,691,692,-1,687,692,688,-1,688,692,693,-1,688,693,689,-1,689,693,694,-1,689,694,690,-1,690,694,695,-1,586,588,691,-1,691,588,696,-1,691,696,692,-1,692,696,697,-1,692,697,693,-1,693,697,698,-1,693,698,694,-1,694,698,699,-1,694,699,695,-1,695,699,700,-1,588,590,696,-1,696,590,667,-1,696,667,697,-1,697,667,672,-1,697,672,698,-1,698,672,676,-1,698,676,699,-1,699,676,680,-1,699,680,700,-1,700,680,701,-1,28,702,703,-1,703,702,681,-1,630,628,680,-1,680,628,636,-1,680,636,701,-1,701,636,635,-1,701,635,633,-1,681,683,703,-1,703,683,690,-1,703,690,704,-1,704,690,695,-1,704,695,705,-1,705,695,700,-1,705,700,706,-1,706,700,701,-1,706,701,707,-1,707,701,633,-1,707,633,632,-1,28,703,36,-1,36,703,704,-1,36,704,35,-1,35,704,705,-1,35,705,34,-1,34,705,706,-1,34,706,37,-1,37,706,707,-1,37,707,38,-1,38,707,632,-1,38,632,29,-1,708,660,709,-1,709,660,655,-1,709,655,710,-1,710,655,650,-1,710,650,711,-1,711,650,645,-1,711,645,712,-1,712,645,606,-1,712,606,607,-1,480,482,708,-1,708,482,484,-1,484,470,708,-1,708,470,666,-1,708,666,660,-1,470,472,666,-1,666,472,473,-1,666,473,474,-1,474,475,666,-1,666,475,476,-1,666,476,477,-1,477,494,666,-1,666,494,66,-1,666,66,70,-1,579,668,578,-1,578,668,713,-1,668,670,713,-1,713,670,675,-1,713,675,714,-1,675,674,714,-1,714,674,679,-1,714,679,715,-1,715,679,678,-1,715,678,716,-1,678,685,716,-1,716,685,684,-1,716,684,717,-1,717,684,682,-1,717,682,681,-1,360,717,555,-1,555,717,681,-1,555,681,31,-1,31,681,702,-1,31,702,28,-1,360,358,717,-1,717,358,564,-1,717,564,563,-1,563,562,717,-1,717,562,561,-1,717,561,560,-1,560,559,717,-1,717,559,4,-1,717,4,3,-1,481,479,718,-1,607,610,712,-1,712,610,719,-1,712,719,711,-1,711,719,720,-1,711,720,710,-1,710,720,721,-1,710,721,709,-1,709,721,722,-1,709,722,708,-1,708,722,723,-1,708,723,480,-1,480,723,325,-1,610,612,719,-1,719,612,724,-1,719,724,720,-1,720,724,725,-1,720,725,721,-1,721,725,726,-1,721,726,722,-1,722,726,727,-1,722,727,723,-1,723,727,728,-1,723,728,325,-1,325,728,326,-1,612,614,724,-1,724,614,729,-1,724,729,725,-1,725,729,730,-1,725,730,726,-1,726,730,731,-1,726,731,727,-1,727,731,732,-1,727,732,728,-1,728,732,733,-1,728,733,326,-1,326,733,327,-1,614,616,729,-1,729,616,734,-1,729,734,730,-1,730,734,735,-1,730,735,731,-1,731,735,736,-1,731,736,732,-1,732,736,737,-1,732,737,733,-1,733,737,738,-1,733,738,327,-1,327,738,478,-1,616,618,734,-1,734,618,739,-1,734,739,735,-1,735,739,740,-1,735,740,736,-1,736,740,741,-1,736,741,737,-1,737,741,742,-1,737,742,738,-1,738,742,718,-1,738,718,478,-1,478,718,479,-1,487,481,743,-1,743,481,718,-1,743,718,744,-1,744,718,742,-1,744,742,745,-1,745,742,741,-1,745,741,746,-1,746,741,740,-1,746,740,747,-1,747,740,739,-1,747,739,620,-1,620,739,618,-1,565,568,748,-1,748,568,749,-1,748,749,750,-1,750,749,751,-1,750,751,752,-1,752,751,753,-1,752,753,754,-1,754,753,755,-1,754,755,756,-1,756,755,757,-1,756,757,5,-1,5,757,323,-1,568,570,749,-1,749,570,758,-1,749,758,751,-1,751,758,759,-1,751,759,753,-1,753,759,760,-1,753,760,755,-1,755,760,761,-1,755,761,757,-1,757,761,762,-1,757,762,323,-1,323,762,320,-1,570,572,758,-1,758,572,763,-1,758,763,759,-1,759,763,764,-1,759,764,760,-1,760,764,765,-1,760,765,761,-1,761,765,766,-1,761,766,762,-1,762,766,767,-1,762,767,320,-1,320,767,321,-1,572,574,763,-1,763,574,768,-1,763,768,764,-1,764,768,769,-1,764,769,765,-1,765,769,770,-1,765,770,766,-1,766,770,771,-1,766,771,767,-1,767,771,772,-1,767,772,321,-1,321,772,322,-1,574,576,768,-1,768,576,773,-1,768,773,769,-1,769,773,774,-1,769,774,770,-1,770,774,775,-1,770,775,771,-1,771,775,776,-1,771,776,772,-1,772,776,777,-1,772,777,322,-1,322,777,324,-1,576,578,773,-1,773,578,713,-1,773,713,774,-1,774,713,714,-1,774,714,775,-1,775,714,715,-1,775,715,776,-1,776,715,716,-1,776,716,777,-1,777,716,717,-1,777,717,324,-1,324,717,3,-1,620,565,748,-1,756,5,319,-1,620,748,747,-1,747,748,750,-1,747,750,746,-1,746,750,752,-1,746,752,745,-1,745,752,754,-1,745,754,744,-1,744,754,756,-1,744,756,743,-1,743,756,319,-1,743,319,558,-1,558,557,743,-1,743,557,556,-1,743,556,487,-1,
        ]
    }
}
Shape{
    appearance Appearance {
        material  Material 	{
            diffuseColor 1.0 1.0 1.0
            specularColor 0.5019607843137255 0.5019607843137255 0.5019607843137255
            ambientIntensity 1.0
            transparency 0.0
            shininess 0.5
        }
    }
    geometry IndexedFaceSet {
        ccw TRUE
        solid FALSE
        coord DEF co Coordinate {
            point [
                0.0379 -0.2988 0.4961, 0.0379 -0.3018 0.4961, 0.0379 -0.2988 0.4921, 0.0379 -0.3018 0.4921, 0.0272 -0.2988 0.4961, 0.0272 -0.2988 0.4921, 0.0272 -0.2751 0.4961, 0.0272 -0.2751 0.4921, 0.0238 -0.2751 0.4961, 0.0238 -0.2751 0.4921, 0.0238 -0.3018 0.4961, 0.0238 -0.3018 0.4921, 0.0589 -0.3007 0.4921, 0.0589 -0.3007 0.4961, 0.0585 -0.3009 0.4961, 0.0516 -0.3023 0.4921, 0.0539 -0.302 0.4921, 0.0516 -0.3023 0.4961, 0.0556 -0.3019 0.4961, 0.0556 -0.3019 0.4921, 0.0578 -0.3012 0.4921, 0.0585 -0.3009 0.4921, 0.0589 -0.2974 0.4961, 0.0589 -0.2974 0.4921, 0.0578 -0.2979 0.4921, 0.0563 -0.2986 0.4961, 0.0563 -0.2986 0.4921, 0.0533 -0.2992 0.4921, 0.0533 -0.2992 0.4961, 0.052 -0.2992 0.4921, 0.052 -0.2992 0.4961, 0.0494 -0.2989 0.4921, 0.0494 -0.2989 0.4961, 0.0475 -0.2981 0.4921, 0.0475 -0.2981 0.4961, 0.0457 -0.2969 0.4921, 0.0457 -0.2969 0.4961, 0.0452 -0.2964 0.4921, 0.0452 -0.2964 0.4961, 0.0441 -0.2949 0.4921, 0.0441 -0.2949 0.4961, 0.0431 -0.2928 0.4921, 0.0431 -0.2928 0.4961, 0.0426 -0.2902 0.4921, 0.0426 -0.2902 0.4961, 0.0426 -0.2888 0.4921, 0.0426 -0.2888 0.4961, 0.043 -0.2851 0.4921, 0.043 -0.2851 0.4961, 0.0439 -0.2828 0.4921, 0.0439 -0.2828 0.4961, 0.0454 -0.2808 0.4921, 0.0454 -0.2808 0.4961, 0.0472 -0.2793 0.4921, 0.0472 -0.2793 0.4961, 0.0493 -0.2783 0.4921, 0.0493 -0.2783 0.4961, 0.0516 -0.2778 0.4921, 0.0516 -0.2778 0.4961, 0.0527 -0.2778 0.4921, 0.0527 -0.2778 0.4961, 0.0589 -0.2794 0.4921, 0.0589 -0.2794 0.4961, 0.0586 -0.2792 0.4961, 0.0559 -0.2782 0.4921, 0.0559 -0.2782 0.4961, 0.0578 -0.2789 0.4921, 0.0586 -0.2792 0.4921, 0.0589 -0.2758 0.4961, 0.0589 -0.2758 0.4921, 0.0526 -0.2747 0.4921, 0.0526 -0.2747 0.4961, 0.0526 -0.2747 0.4961, 0.0578 -0.2754 0.4921, 0.0561 -0.275 0.4961, 0.0561 -0.275 0.4921, 0.0555 -0.2749 0.4921, 0.0526 -0.2747 0.4921, 0.0508 -0.2749 0.4921, 0.0487 -0.2752 0.4961, 0.0487 -0.2752 0.4921, 0.046 -0.2762 0.4921, 0.046 -0.2762 0.4961, 0.0435 -0.278 0.4921, 0.0435 -0.278 0.4961, 0.0428 -0.2786 0.4921, 0.0428 -0.2786 0.4961, 0.0409 -0.2811 0.4921, 0.0409 -0.2811 0.4961, 0.0402 -0.2828 0.4921, 0.0396 -0.2841 0.4961, 0.0396 -0.2841 0.4921, 0.039 -0.2876 0.4921, 0.039 -0.2876 0.4961, 0.039 -0.289 0.4921, 0.039 -0.289 0.4961, 0.0424 -0.2986 0.4921, 0.0424 -0.2986 0.4961, 0.0406 -0.2961 0.4961, 0.0395 -0.2933 0.4921, 0.0395 -0.2933 0.4961, 0.0402 -0.295 0.4921, 0.0406 -0.2961 0.4921, 0.0499 -0.3022 0.4961, 0.0445 -0.3004 0.4921, 0.0445 -0.3004 0.4961, 0.047 -0.3016 0.4921, 0.047 -0.3016 0.4961, 0.0492 -0.302 0.4921, 0.0499 -0.3022 0.4921, 0.0786 -0.2988 0.4961, 0.0786 -0.3018 0.4961, 0.0786 -0.2988 0.4921, 0.0786 -0.3018 0.4921, 0.0677 -0.2988 0.4921, 0.0677 -0.2988 0.4961, 0.0749 -0.2988 0.4921, 0.0677 -0.2898 0.4961, 0.0677 -0.2898 0.4921, 0.0773 -0.2898 0.4961, 0.0749 -0.2898 0.4921, 0.0773 -0.2898 0.4921, 0.0773 -0.2867 0.4961, 0.0773 -0.2867 0.4921, 0.0677 -0.2867 0.4921, 0.0677 -0.2867 0.4961, 0.0749 -0.2867 0.4921, 0.0677 -0.2782 0.4961, 0.0677 -0.2782 0.4921, 0.078 -0.2782 0.4961, 0.0749 -0.2782 0.4921, 0.078 -0.2782 0.4921, 0.078 -0.2751 0.4961, 0.078 -0.2751 0.4921, 0.0643 -0.2751 0.4921, 0.0643 -0.2751 0.4961, 0.0749 -0.2751 0.4921, 0.0643 -0.3018 0.4961, 0.0643 -0.3018 0.4921, 0.0749 -0.3018 0.4921, 0.1014 -0.2981 0.4961, 0.0986 -0.2963 0.4961, 0.0986 -0.3001 0.4961, 0.0969 -0.2975 0.4961, 0.0956 -0.3013 0.4961, 0.0947 -0.2983 0.4961, 0.091 -0.3018 0.4961, 0.091 -0.2988 0.4961, 0.0837 -0.3018 0.4961, 0.0871 -0.2988 0.4961, 0.0837 -0.2751 0.4961, 0.0871 -0.2782 0.4961, 0.0913 -0.2751 0.4961, 0.0912 -0.2782 0.4961, 0.0954 -0.2756 0.4961, 0.0946 -0.2786 0.4961, 0.0986 -0.2768 0.4961, 0.0969 -0.2794 0.4961, 0.1014 -0.2787 0.4961, 0.0989 -0.2807 0.4961, 0.1023 -0.2796 0.4961, 0.0996 -0.2814 0.4961, 0.104 -0.2819 0.4961, 0.1006 -0.2829 0.4961, 0.105 -0.2844 0.4961, 0.1014 -0.2849 0.4961, 0.1054 -0.2881 0.4961, 0.1018 -0.2882 0.4961, 0.1053 -0.2898 0.4961, 0.1017 -0.2903 0.4961, 0.1047 -0.293 0.4961, 0.1011 -0.2926 0.4961, 0.1034 -0.2957 0.4961, 0.1001 -0.2946 0.4961, 0.0989 -0.296 0.4961, 0.091 -0.3018 0.4921, 0.0837 -0.3018 0.4921, 0.0956 -0.3013 0.4921, 0.0986 -0.3001 0.4921, 0.1014 -0.2981 0.4921, 0.1034 -0.2957 0.4921, 0.1047 -0.293 0.4921, 0.1053 -0.2898 0.4921, 0.1054 -0.2881 0.4921, 0.105 -0.2844 0.4921, 0.104 -0.2819 0.4921, 0.1023 -0.2796 0.4921, 0.1014 -0.2787 0.4921, 0.0986 -0.2768 0.4921, 0.0954 -0.2756 0.4921, 0.0913 -0.2751 0.4921, 0.0837 -0.2751 0.4921, 0.0912 -0.2782 0.4921, 0.0871 -0.2782 0.4921, 0.0871 -0.2988 0.4921, 0.091 -0.2988 0.4921, 0.0989 -0.296 0.4921, 0.0986 -0.2963 0.4921, 0.0969 -0.2975 0.4921, 0.0947 -0.2983 0.4921, 0.1018 -0.2882 0.4921, 0.1017 -0.2903 0.4921, 0.1011 -0.2926 0.4921, 0.1001 -0.2946 0.4921, 0.0989 -0.2807 0.4921, 0.0996 -0.2814 0.4921, 0.1006 -0.2829 0.4921, 0.1014 -0.2849 0.4921, 0.0946 -0.2786 0.4921, 0.0969 -0.2794 0.4921
            ]
        }
        coordIndex [
            0,1,2,-1,2,1,3,-1,4,0,5,-1,5,0,2,-1,6,4,7,-1,7,4,5,-1,8,6,9,-1,9,6,7,-1,10,8,11,-1,11,8,9,-1,1,10,3,-1,3,10,11,-1,6,8,4,-1,4,8,10,-1,4,10,0,-1,0,10,1,-1,12,13,14,-1,15,16,17,-1,17,16,18,-1,16,19,18,-1,18,19,20,-1,18,20,14,-1,14,20,21,-1,14,21,12,-1,22,13,23,-1,23,13,12,-1,22,23,24,-1,22,24,25,-1,24,26,25,-1,25,26,27,-1,25,27,28,-1,28,27,29,-1,28,29,30,-1,30,29,31,-1,30,31,32,-1,32,31,33,-1,32,33,34,-1,34,33,35,-1,34,35,36,-1,36,35,37,-1,36,37,38,-1,38,37,39,-1,38,39,40,-1,40,39,41,-1,40,41,42,-1,42,41,43,-1,42,43,44,-1,44,43,45,-1,44,45,46,-1,46,45,47,-1,46,47,48,-1,48,47,49,-1,48,49,50,-1,50,49,51,-1,50,51,52,-1,52,51,53,-1,52,53,54,-1,54,53,55,-1,54,55,56,-1,56,55,57,-1,56,57,58,-1,58,57,59,-1,58,59,60,-1,61,62,63,-1,60,59,64,-1,60,64,65,-1,65,64,66,-1,65,66,63,-1,63,66,67,-1,63,67,61,-1,68,62,69,-1,69,62,61,-1,70,71,72,-1,68,69,73,-1,68,73,74,-1,73,75,74,-1,74,75,76,-1,74,76,72,-1,72,76,77,-1,72,77,70,-1,71,70,78,-1,71,78,79,-1,78,80,79,-1,79,80,81,-1,79,81,82,-1,82,81,83,-1,82,83,84,-1,84,83,85,-1,84,85,86,-1,86,85,87,-1,86,87,88,-1,88,87,89,-1,88,89,90,-1,89,91,90,-1,90,91,92,-1,90,92,93,-1,93,92,94,-1,93,94,95,-1,96,97,98,-1,95,94,99,-1,95,99,100,-1,100,99,101,-1,100,101,98,-1,98,101,102,-1,98,102,96,-1,15,17,103,-1,97,96,104,-1,97,104,105,-1,105,104,106,-1,105,106,107,-1,107,106,108,-1,107,108,103,-1,103,108,109,-1,103,109,15,-1,63,62,68,-1,54,84,52,-1,52,84,86,-1,52,86,50,-1,50,86,88,-1,50,88,48,-1,63,68,65,-1,65,68,74,-1,65,74,60,-1,60,74,72,-1,60,72,58,-1,58,72,71,-1,58,71,56,-1,56,71,79,-1,56,79,54,-1,54,79,82,-1,54,82,84,-1,95,46,93,-1,93,46,48,-1,93,48,90,-1,90,48,88,-1,13,22,14,-1,14,22,25,-1,14,25,18,-1,18,25,28,-1,18,28,17,-1,17,28,30,-1,17,30,103,-1,103,30,32,-1,103,32,107,-1,107,32,34,-1,107,34,105,-1,105,34,36,-1,105,36,97,-1,97,36,38,-1,97,38,98,-1,98,38,40,-1,98,40,100,-1,100,40,42,-1,100,42,95,-1,95,42,44,-1,95,44,46,-1,110,111,112,-1,112,111,113,-1,114,115,116,-1,116,115,110,-1,116,110,112,-1,117,115,118,-1,118,115,114,-1,117,118,119,-1,119,118,120,-1,119,120,121,-1,122,119,123,-1,123,119,121,-1,124,125,126,-1,126,125,122,-1,126,122,123,-1,127,125,128,-1,128,125,124,-1,127,128,129,-1,129,128,130,-1,129,130,131,-1,132,129,133,-1,133,129,131,-1,134,135,136,-1,136,135,132,-1,136,132,133,-1,137,135,138,-1,138,135,134,-1,137,138,111,-1,111,138,139,-1,111,139,113,-1,137,111,110,-1,110,115,137,-1,137,115,117,-1,137,117,135,-1,129,132,127,-1,127,132,135,-1,127,135,125,-1,125,135,117,-1,125,117,122,-1,122,117,119,-1,140,141,142,-1,142,141,143,-1,142,143,144,-1,144,143,145,-1,144,145,146,-1,146,145,147,-1,146,147,148,-1,148,147,149,-1,148,149,150,-1,150,149,151,-1,150,151,152,-1,152,151,153,-1,152,153,154,-1,154,153,155,-1,154,155,156,-1,156,155,157,-1,156,157,158,-1,158,157,159,-1,158,159,160,-1,160,159,161,-1,160,161,162,-1,162,161,163,-1,162,163,164,-1,164,163,165,-1,164,165,166,-1,166,165,167,-1,166,167,168,-1,168,167,169,-1,168,169,170,-1,170,169,171,-1,170,171,172,-1,172,171,173,-1,172,173,140,-1,140,173,174,-1,140,174,141,-1,146,148,175,-1,175,148,176,-1,146,175,177,-1,146,177,144,-1,144,177,178,-1,144,178,142,-1,142,178,179,-1,142,179,140,-1,140,179,180,-1,140,180,172,-1,172,180,181,-1,172,181,170,-1,170,181,182,-1,170,182,168,-1,168,182,183,-1,168,183,166,-1,166,183,184,-1,166,184,164,-1,164,184,185,-1,164,185,162,-1,162,185,186,-1,162,186,160,-1,160,186,187,-1,160,187,158,-1,158,187,188,-1,158,188,156,-1,156,188,189,-1,156,189,154,-1,154,189,190,-1,154,190,152,-1,150,152,191,-1,191,152,190,-1,148,150,176,-1,176,150,191,-1,153,151,192,-1,192,151,193,-1,151,149,193,-1,193,149,194,-1,149,147,194,-1,194,147,195,-1,174,196,197,-1,174,197,141,-1,141,197,198,-1,141,198,143,-1,143,198,199,-1,143,199,145,-1,145,199,195,-1,145,195,147,-1,167,200,201,-1,167,201,169,-1,169,201,202,-1,169,202,171,-1,171,202,203,-1,171,203,173,-1,173,203,196,-1,173,196,174,-1,159,204,205,-1,159,205,161,-1,161,205,206,-1,161,206,163,-1,163,206,207,-1,163,207,165,-1,165,207,200,-1,165,200,167,-1,153,192,208,-1,153,208,155,-1,155,208,209,-1,155,209,157,-1,157,209,204,-1,157,204,159,-1,
        ]
    }
}
Shape{
    appearance Appearance {
        material  Material 	{
            diffuseColor 0.25098039215686274 0.25098039215686274 0.25098039215686274
            specularColor 0.12549019607843137 0.12549019607843137 0.12549019607843137
            ambientIntensity 0.251
            transparency 0.0
            shininess 0.5
        }
    }
    geometry IndexedFaceSet {
        ccw TRUE
        solid FALSE
        coord DEF co Coordinate {
            point [
                0.0986 -0.2963 0.4921, 0.0989 -0.296 0.4921, 0.0912 -0.2782 0.4921, 0.0871 -0.2782 0.4921, 0.0871 -0.2988 0.4921, 0.091 -0.2988 0.4921, 0.0947 -0.2983 0.4921, 0.0969 -0.2975 0.4921, 0.1001 -0.2946 0.4921, 0.1011 -0.2926 0.4921, 0.1017 -0.2903 0.4921, 0.1018 -0.2882 0.4921, 0.1014 -0.2849 0.4921, 0.1006 -0.2829 0.4921, 0.0996 -0.2814 0.4921, 0.0989 -0.2807 0.4921, 0.0946 -0.2786 0.4921, 0.0969 -0.2794 0.4921
            ]
        }
        coordIndex [
            0,1,2,-1,3,4,2,-1,2,4,5,-1,5,6,2,-1,2,6,7,-1,2,7,0,-1,1,8,2,-1,2,8,9,-1,2,9,10,-1,10,11,2,-1,2,11,12,-1,2,12,13,-1,13,14,2,-1,2,14,15,-1,2,15,16,-1,16,15,17,-1,
        ]
    }
}
Shape{
    appearance Appearance {
        material  Material 	{
            diffuseColor 1.0 1.0 1.0
            specularColor 0.5019607843137255 0.5019607843137255 0.5019607843137255
            ambientIntensity 1.0
            transparency 0.0
            shininess 0.5
        }
    }
    geometry IndexedFaceSet {
        ccw TRUE
        solid FALSE
        coord DEF co Coordinate {
            point [
                0.1144 -0.2915 0.4961, 0.1133 -0.2945 0.4961, 0.1233 -0.2915 0.4961, 0.1244 -0.2945 0.4961, 0.1183 -0.2804 0.4961, 0.1171 -0.2751 0.4961, 0.1069 -0.3018 0.4961, 0.1107 -0.3018 0.4961, 0.1186 -0.2796 0.4961, 0.1188 -0.2785 0.4961, 0.1207 -0.2751 0.4961, 0.1189 -0.2785 0.4961, 0.1191 -0.2797 0.4961, 0.1193 -0.2804 0.4961, 0.1309 -0.3018 0.4961, 0.1271 -0.3018 0.4961, 0.1207 -0.2751 0.4921, 0.1309 -0.3018 0.4921, 0.1171 -0.2751 0.4921, 0.1069 -0.3018 0.4921, 0.1146 -0.2816 0.4921, 0.1107 -0.3018 0.4921, 0.1133 -0.2945 0.4921, 0.1244 -0.2945 0.4921, 0.1146 -0.2945 0.4921, 0.1271 -0.3018 0.4921, 0.1144 -0.2915 0.4921, 0.1233 -0.2915 0.4921, 0.1193 -0.2804 0.4921, 0.1189 -0.2785 0.4921, 0.1191 -0.2797 0.4921, 0.1188 -0.2785 0.4921, 0.1183 -0.2804 0.4921, 0.1186 -0.2796 0.4921
            ]
        }
        coordIndex [
            0,1,2,-1,2,1,3,-1,4,5,0,-1,0,5,6,-1,0,6,1,-1,1,6,7,-1,4,8,5,-1,5,8,9,-1,5,9,10,-1,10,9,11,-1,10,11,12,-1,12,13,10,-1,10,13,2,-1,10,2,14,-1,14,2,3,-1,14,3,15,-1,10,14,16,-1,16,14,17,-1,5,10,18,-1,18,10,16,-1,19,6,20,-1,20,6,5,-1,20,5,18,-1,7,6,21,-1,21,6,19,-1,1,7,22,-1,22,7,21,-1,23,3,24,-1,24,3,1,-1,24,1,22,-1,15,3,25,-1,25,3,23,-1,14,15,17,-1,17,15,25,-1,0,2,26,-1,26,2,27,-1,2,13,27,-1,27,13,28,-1,11,29,30,-1,11,30,12,-1,12,30,28,-1,12,28,13,-1,11,9,29,-1,29,9,31,-1,4,32,33,-1,4,33,8,-1,8,33,31,-1,8,31,9,-1,4,0,32,-1,32,0,26,-1,
        ]
    }
}
Shape{
    appearance Appearance {
        material  Material 	{
            diffuseColor 0.25098039215686274 0.25098039215686274 0.25098039215686274
            specularColor 0.12549019607843137 0.12549019607843137 0.12549019607843137
            ambientIntensity 0.251
            transparency 0.0
            shininess 0.5
        }
    }
    geometry IndexedFaceSet {
        ccw TRUE
        solid FALSE
        coord DEF co Coordinate {
            point [
                0.1189 -0.2785 0.4921, 0.1188 -0.2785 0.4921, 0.1191 -0.2797 0.4921, 0.1186 -0.2796 0.4921, 0.1193 -0.2804 0.4921, 0.1183 -0.2804 0.4921, 0.1233 -0.2915 0.4921, 0.1144 -0.2915 0.4921
            ]
        }
        coordIndex [
            0,1,2,-1,2,1,3,-1,2,3,4,-1,4,3,5,-1,4,5,6,-1,6,5,7,-1,
        ]
    }
}
Shape{
    appearance Appearance {
        material  Material 	{
            diffuseColor 1.0 1.0 1.0
            specularColor 0.5019607843137255 0.5019607843137255 0.5019607843137255
            ambientIntensity 1.0
            transparency 0.0
            shininess 0.5
        }
    }
    geometry IndexedFaceSet {
        ccw TRUE
        solid FALSE
        coord DEF co Coordinate {
            point [
                0.0381 -0.3411 0.4961, 0.0381 -0.3442 0.4961, 0.0381 -0.3411 0.4921, 0.0381 -0.3442 0.4921, 0.0272 -0.3411 0.4961, 0.0272 -0.3411 0.4921, 0.0272 -0.3321 0.4961, 0.0272 -0.3321 0.4921, 0.0368 -0.3321 0.4961, 0.0368 -0.3321 0.4921, 0.0368 -0.3291 0.4961, 0.0368 -0.3291 0.4921, 0.0272 -0.3291 0.4961, 0.0272 -0.3291 0.4921, 0.0272 -0.3205 0.4961, 0.0272 -0.3205 0.4921, 0.0375 -0.3205 0.4961, 0.0375 -0.3205 0.4921, 0.0375 -0.3175 0.4961, 0.0375 -0.3175 0.4921, 0.0238 -0.3175 0.4961, 0.0238 -0.3175 0.4921, 0.0238 -0.3442 0.4961, 0.0238 -0.3442 0.4921, 0.0533 -0.3442 0.4961, 0.0567 -0.3442 0.4961, 0.0533 -0.3412 0.4961, 0.0567 -0.3319 0.4961, 0.0532 -0.3412 0.4961, 0.0515 -0.3407 0.4961, 0.0527 -0.3421 0.4961, 0.0505 -0.3414 0.4961, 0.0467 -0.3357 0.4961, 0.0489 -0.3352 0.4961, 0.0533 -0.3346 0.4961, 0.0533 -0.3364 0.4961, 0.0533 -0.3366 0.4961, 0.0531 -0.3381 0.4961, 0.0526 -0.3393 0.4961, 0.0519 -0.3403 0.4961, 0.0521 -0.3249 0.4961, 0.0514 -0.3278 0.4961, 0.0534 -0.3254 0.4961, 0.052 -0.3282 0.4961, 0.046 -0.3361 0.4961, 0.0533 -0.332 0.4961, 0.0532 -0.3306 0.4961, 0.0563 -0.3291 0.4961, 0.0529 -0.3294 0.4961, 0.0558 -0.3276 0.4961, 0.0525 -0.3287 0.4961, 0.0551 -0.3266 0.4961, 0.0545 -0.326 0.4961, 0.0432 -0.3264 0.4961, 0.0432 -0.3297 0.4961, 0.0439 -0.326 0.4961, 0.0455 -0.3282 0.4961, 0.0464 -0.3251 0.4961, 0.0476 -0.3276 0.4961, 0.0498 -0.3247 0.4961, 0.0495 -0.3274 0.4961, 0.0506 -0.3275 0.4961, 0.0454 -0.3407 0.4961, 0.043 -0.3431 0.4961, 0.0457 -0.341 0.4961, 0.0441 -0.3439 0.4961, 0.0464 -0.3415 0.4961, 0.0454 -0.3444 0.4961, 0.0471 -0.3417 0.4961, 0.0474 -0.3446 0.4961, 0.0483 -0.3419 0.4961, 0.0491 -0.3444 0.4961, 0.0495 -0.3417 0.4961, 0.0505 -0.3439 0.4961, 0.0516 -0.3432 0.4961, 0.0477 -0.3328 0.4961, 0.0449 -0.3336 0.4961, 0.0456 -0.3364 0.4961, 0.0436 -0.3343 0.4961, 0.0452 -0.3369 0.4961, 0.0426 -0.3352 0.4961, 0.0449 -0.3375 0.4961, 0.0419 -0.3363 0.4961, 0.0448 -0.3383 0.4961, 0.0415 -0.3375 0.4961, 0.0447 -0.3388 0.4961, 0.0413 -0.3391 0.4961, 0.0448 -0.3396 0.4961, 0.0415 -0.3407 0.4961, 0.045 -0.3402 0.4961, 0.042 -0.3418 0.4961, 0.0427 -0.3428 0.4961, 0.0498 -0.3247 0.4921, 0.0464 -0.3251 0.4921, 0.0439 -0.326 0.4921, 0.0432 -0.3264 0.4921, 0.0432 -0.3297 0.4921, 0.0455 -0.3282 0.4921, 0.0476 -0.3276 0.4921, 0.0495 -0.3274 0.4921, 0.0506 -0.3275 0.4921, 0.0514 -0.3278 0.4921, 0.052 -0.3282 0.4921, 0.0525 -0.3287 0.4921, 0.0529 -0.3294 0.4921, 0.0532 -0.3306 0.4921, 0.0533 -0.332 0.4921, 0.0477 -0.3328 0.4921, 0.0449 -0.3336 0.4921, 0.0436 -0.3343 0.4921, 0.0426 -0.3352 0.4921, 0.0419 -0.3363 0.4921, 0.0415 -0.3375 0.4921, 0.0413 -0.3391 0.4921, 0.0415 -0.3407 0.4921, 0.042 -0.3418 0.4921, 0.0427 -0.3428 0.4921, 0.043 -0.3431 0.4921, 0.0474 -0.3446 0.4921, 0.0455 -0.3444 0.4921, 0.0454 -0.3444 0.4921, 0.0441 -0.3439 0.4921, 0.0491 -0.3444 0.4921, 0.0492 -0.3444 0.4921, 0.0505 -0.3439 0.4921, 0.0516 -0.3432 0.4921, 0.0527 -0.3421 0.4921, 0.0532 -0.3412 0.4921, 0.0533 -0.3412 0.4921, 0.0533 -0.3442 0.4921, 0.0567 -0.3442 0.4921, 0.0567 -0.3319 0.4921, 0.0563 -0.3291 0.4921, 0.0558 -0.3276 0.4921, 0.0551 -0.3266 0.4921, 0.0545 -0.326 0.4921, 0.0534 -0.3254 0.4921, 0.0521 -0.3249 0.4921, 0.0456 -0.3364 0.4921, 0.046 -0.3361 0.4921, 0.0467 -0.3357 0.4921, 0.0489 -0.3352 0.4921, 0.0447 -0.3388 0.4921, 0.0448 -0.3383 0.4921, 0.0449 -0.3375 0.4921, 0.0452 -0.3369 0.4921, 0.0457 -0.341 0.4921, 0.0454 -0.3407 0.4921, 0.045 -0.3402 0.4921, 0.0448 -0.3396 0.4921, 0.0483 -0.3419 0.4921, 0.0471 -0.3417 0.4921, 0.0464 -0.3415 0.4921, 0.0519 -0.3403 0.4921, 0.0515 -0.3407 0.4921, 0.0505 -0.3414 0.4921, 0.0495 -0.3417 0.4921, 0.0533 -0.3364 0.4921, 0.0533 -0.3366 0.4921, 0.0531 -0.3381 0.4921, 0.0526 -0.3393 0.4921, 0.0533 -0.3346 0.4921
            ]
        }
        coordIndex [
            0,1,2,-1,2,1,3,-1,4,0,5,-1,5,0,2,-1,6,4,7,-1,7,4,5,-1,8,6,9,-1,9,6,7,-1,10,8,11,-1,11,8,9,-1,12,10,13,-1,13,10,11,-1,14,12,15,-1,15,12,13,-1,16,14,17,-1,17,14,15,-1,18,16,19,-1,19,16,17,-1,20,18,21,-1,21,18,19,-1,22,20,23,-1,23,20,21,-1,1,22,3,-1,3,22,23,-1,22,1,0,-1,0,4,22,-1,22,4,6,-1,22,6,20,-1,16,18,14,-1,14,18,20,-1,14,20,12,-1,12,20,6,-1,12,6,10,-1,10,6,8,-1,24,25,26,-1,26,25,27,-1,28,29,30,-1,30,29,31,-1,32,33,27,-1,27,33,34,-1,27,34,35,-1,35,36,27,-1,27,36,37,-1,27,37,26,-1,26,37,38,-1,26,38,28,-1,28,38,39,-1,28,39,29,-1,40,41,42,-1,42,41,43,-1,44,32,45,-1,45,32,27,-1,45,27,46,-1,46,27,47,-1,46,47,48,-1,48,47,49,-1,48,49,50,-1,50,49,51,-1,50,51,43,-1,43,51,52,-1,43,52,42,-1,53,54,55,-1,55,54,56,-1,55,56,57,-1,57,56,58,-1,57,58,59,-1,59,58,60,-1,59,60,40,-1,40,60,61,-1,40,61,41,-1,62,63,64,-1,64,63,65,-1,64,65,66,-1,66,65,67,-1,66,67,68,-1,68,67,69,-1,68,69,70,-1,70,69,71,-1,70,71,72,-1,72,71,73,-1,72,73,31,-1,31,73,74,-1,31,74,30,-1,45,75,44,-1,44,75,76,-1,44,76,77,-1,77,76,78,-1,77,78,79,-1,79,78,80,-1,79,80,81,-1,81,80,82,-1,81,82,83,-1,83,82,84,-1,83,84,85,-1,85,84,86,-1,85,86,87,-1,87,86,88,-1,87,88,89,-1,89,88,90,-1,89,90,62,-1,62,90,91,-1,62,91,63,-1,59,92,93,-1,59,93,57,-1,57,93,94,-1,57,94,55,-1,55,94,95,-1,55,95,53,-1,54,53,96,-1,96,53,95,-1,54,96,97,-1,54,97,56,-1,56,97,98,-1,56,98,58,-1,58,98,99,-1,58,99,60,-1,60,99,100,-1,60,100,61,-1,61,100,101,-1,61,101,41,-1,41,101,102,-1,41,102,43,-1,43,102,103,-1,43,103,50,-1,50,103,104,-1,50,104,48,-1,48,104,105,-1,48,105,46,-1,46,105,106,-1,46,106,45,-1,75,45,107,-1,107,45,106,-1,75,107,108,-1,75,108,76,-1,76,108,109,-1,76,109,78,-1,78,109,110,-1,78,110,80,-1,80,110,111,-1,80,111,82,-1,82,111,112,-1,82,112,84,-1,84,112,113,-1,84,113,86,-1,86,113,114,-1,86,114,88,-1,88,114,115,-1,88,115,90,-1,90,115,116,-1,90,116,91,-1,91,116,117,-1,91,117,63,-1,118,69,119,-1,119,69,67,-1,119,67,120,-1,120,67,65,-1,120,65,121,-1,121,65,63,-1,121,63,117,-1,69,118,122,-1,69,122,71,-1,71,122,123,-1,71,123,73,-1,123,124,73,-1,73,124,125,-1,73,125,74,-1,74,125,126,-1,74,126,30,-1,30,126,127,-1,30,127,28,-1,26,28,128,-1,128,28,127,-1,24,26,129,-1,129,26,128,-1,25,24,130,-1,130,24,129,-1,27,25,131,-1,131,25,130,-1,27,131,132,-1,27,132,47,-1,47,132,133,-1,47,133,49,-1,49,133,134,-1,49,134,51,-1,51,134,135,-1,51,135,52,-1,52,135,136,-1,52,136,42,-1,42,136,137,-1,42,137,40,-1,40,137,92,-1,40,92,59,-1,77,138,139,-1,77,139,44,-1,44,139,140,-1,44,140,32,-1,32,140,141,-1,32,141,33,-1,85,142,143,-1,85,143,83,-1,83,143,144,-1,83,144,81,-1,81,144,145,-1,81,145,79,-1,79,145,138,-1,79,138,77,-1,64,146,147,-1,64,147,62,-1,62,147,148,-1,62,148,89,-1,89,148,149,-1,89,149,87,-1,87,149,142,-1,87,142,85,-1,70,150,151,-1,70,151,68,-1,68,151,152,-1,68,152,66,-1,66,152,146,-1,66,146,64,-1,39,153,154,-1,39,154,29,-1,29,154,155,-1,29,155,31,-1,31,155,156,-1,31,156,72,-1,72,156,150,-1,72,150,70,-1,35,157,158,-1,35,158,36,-1,36,158,159,-1,36,159,37,-1,37,159,160,-1,37,160,38,-1,38,160,153,-1,38,153,39,-1,35,34,157,-1,157,34,161,-1,34,33,161,-1,161,33,141,-1,
        ]
    }
}
Shape{
    appearance Appearance {
        material  Material 	{
            diffuseColor 0.25098039215686274 0.25098039215686274 0.25098039215686274
            specularColor 0.12549019607843137 0.12549019607843137 0.12549019607843137
            ambientIntensity 0.251
            transparency 0.0
            shininess 0.5
        }
    }
    geometry IndexedFaceSet {
        ccw TRUE
        solid FALSE
        coord DEF co Coordinate {
            point [
                0.0533 -0.3366 0.4921, 0.0533 -0.3364 0.4921, 0.0456 -0.3364 0.4921, 0.0533 -0.3346 0.4921, 0.0489 -0.3352 0.4921, 0.0467 -0.3357 0.4921, 0.046 -0.3361 0.4921, 0.0531 -0.3381 0.4921, 0.0452 -0.3369 0.4921, 0.0526 -0.3393 0.4921, 0.0454 -0.3407 0.4921, 0.0457 -0.341 0.4921, 0.0515 -0.3407 0.4921, 0.045 -0.3402 0.4921, 0.0505 -0.3414 0.4921, 0.0495 -0.3417 0.4921, 0.0483 -0.3419 0.4921, 0.0449 -0.3375 0.4921, 0.0448 -0.3383 0.4921, 0.0519 -0.3403 0.4921, 0.0447 -0.3388 0.4921, 0.0448 -0.3396 0.4921, 0.0464 -0.3415 0.4921, 0.0471 -0.3417 0.4921
            ]
        }
        coordIndex [
            0,1,2,-1,1,3,4,-1,4,5,1,-1,1,5,6,-1,1,6,2,-1,0,2,7,-1,7,2,8,-1,7,8,9,-1,10,11,12,-1,10,12,13,-1,14,12,15,-1,15,12,16,-1,8,17,9,-1,9,17,18,-1,9,18,19,-1,19,18,20,-1,19,20,12,-1,12,20,21,-1,12,21,13,-1,11,22,12,-1,12,22,23,-1,12,23,16,-1,
        ]
    }
}
Shape{
    appearance Appearance {
        material  Material 	{
            diffuseColor 1.0 1.0 1.0
            specularColor 0.5019607843137255 0.5019607843137255 0.5019607843137255
            ambientIntensity 1.0
            transparency 0.0
            shininess 0.5
        }
    }
    geometry IndexedFaceSet {
        ccw TRUE
        solid FALSE
        coord DEF co Coordinate {
            point [
                0.0612 -0.34 0.4921, 0.0612 -0.34 0.4961, 0.0627 -0.3409 0.4961, 0.0667 -0.3419 0.4961, 0.0667 -0.3419 0.4921, 0.0648 -0.3417 0.4921, 0.0648 -0.3417 0.4961, 0.0627 -0.341 0.4921, 0.0627 -0.3409 0.4921, 0.0612 -0.3435 0.4961, 0.0612 -0.3435 0.4921, 0.0627 -0.344 0.4921, 0.0635 -0.3443 0.4961, 0.0664 -0.3446 0.4921, 0.0664 -0.3446 0.4961, 0.0642 -0.3444 0.4921, 0.0635 -0.3443 0.4921, 0.0683 -0.3444 0.4921, 0.0694 -0.3443 0.4961, 0.0694 -0.3443 0.4921, 0.0711 -0.3436 0.4921, 0.0711 -0.3436 0.4961, 0.0719 -0.3431 0.4921, 0.0719 -0.3431 0.4961, 0.0729 -0.3423 0.4921, 0.0729 -0.3423 0.4961, 0.0735 -0.3414 0.4921, 0.0735 -0.3414 0.4961, 0.0739 -0.3403 0.4921, 0.0739 -0.3403 0.4961, 0.0741 -0.339 0.4921, 0.0741 -0.339 0.4961, 0.0739 -0.3377 0.4921, 0.0739 -0.3377 0.4961, 0.0736 -0.3367 0.4921, 0.0736 -0.3367 0.4961, 0.0729 -0.3358 0.4921, 0.0729 -0.3358 0.4961, 0.0722 -0.3351 0.4921, 0.0722 -0.3351 0.4961, 0.0699 -0.3339 0.4921, 0.0699 -0.3339 0.4961, 0.0686 -0.3334 0.4921, 0.0686 -0.3334 0.4961, 0.0666 -0.3325 0.4921, 0.0666 -0.3325 0.4961, 0.0654 -0.3317 0.4921, 0.0654 -0.3317 0.4961, 0.0651 -0.3314 0.4921, 0.0651 -0.3314 0.4961, 0.0648 -0.3309 0.4921, 0.0648 -0.3309 0.4961, 0.0647 -0.3304 0.4921, 0.0647 -0.3304 0.4961, 0.0647 -0.3299 0.4921, 0.0647 -0.3299 0.4961, 0.0647 -0.3294 0.4921, 0.0647 -0.3294 0.4961, 0.0649 -0.329 0.4921, 0.0649 -0.329 0.4961, 0.0652 -0.3285 0.4921, 0.0652 -0.3285 0.4961, 0.0657 -0.3281 0.4921, 0.0657 -0.3281 0.4961, 0.0664 -0.3277 0.4921, 0.0664 -0.3277 0.4961, 0.0673 -0.3275 0.4921, 0.0673 -0.3275 0.4961, 0.0683 -0.3274 0.4921, 0.0683 -0.3274 0.4961, 0.0706 -0.3277 0.4921, 0.0706 -0.3277 0.4961, 0.0725 -0.3284 0.4921, 0.0725 -0.3284 0.4961, 0.0732 -0.3288 0.4921, 0.0732 -0.3288 0.4961, 0.0732 -0.3255 0.4961, 0.0732 -0.3255 0.4921, 0.071 -0.3249 0.4921, 0.071 -0.3249 0.4961, 0.0686 -0.3247 0.4921, 0.0686 -0.3247 0.4961, 0.066 -0.325 0.4921, 0.066 -0.325 0.4961, 0.0642 -0.3257 0.4921, 0.0642 -0.3257 0.4961, 0.0634 -0.3262 0.4921, 0.0634 -0.3262 0.4961, 0.0627 -0.3267 0.4921, 0.0624 -0.3271 0.4961, 0.0624 -0.3271 0.4921, 0.0617 -0.328 0.4921, 0.0617 -0.328 0.4961, 0.0613 -0.3291 0.4921, 0.0613 -0.3291 0.4961, 0.0612 -0.3302 0.4921, 0.0612 -0.3302 0.4961, 0.0614 -0.3315 0.4921, 0.0614 -0.3315 0.4961, 0.0617 -0.3326 0.4921, 0.0617 -0.3326 0.4961, 0.0622 -0.3333 0.4921, 0.0622 -0.3333 0.4961, 0.0663 -0.3358 0.4921, 0.0663 -0.3358 0.4961, 0.0643 -0.3349 0.4961, 0.0627 -0.3338 0.4921, 0.0627 -0.3338 0.4961, 0.0627 -0.3338 0.4921, 0.0643 -0.3349 0.4921, 0.0685 -0.3367 0.4921, 0.0685 -0.3367 0.4961, 0.0698 -0.3375 0.4921, 0.0698 -0.3375 0.4961, 0.0702 -0.3379 0.4921, 0.0702 -0.3379 0.4961, 0.0704 -0.3384 0.4921, 0.0704 -0.3384 0.4961, 0.0706 -0.3389 0.4921, 0.0706 -0.3389 0.4961, 0.0706 -0.3393 0.4921, 0.0706 -0.3393 0.4961, 0.0706 -0.3399 0.4921, 0.0706 -0.3399 0.4961, 0.0704 -0.3404 0.4921, 0.0704 -0.3404 0.4961, 0.0701 -0.3408 0.4921, 0.0701 -0.3408 0.4961, 0.0697 -0.3412 0.4921, 0.0697 -0.3412 0.4961, 0.0694 -0.3414 0.4921, 0.0694 -0.3414 0.4961, 0.0686 -0.3417 0.4921, 0.0686 -0.3417 0.4961, 0.0668 -0.3419 0.4921, 0.0668 -0.3419 0.4961, 0.0906 -0.3251 0.4961, 0.0941 -0.3251 0.4961, 0.0906 -0.3251 0.4921, 0.0941 -0.3251 0.4921, 0.0854 -0.3395 0.4961, 0.0854 -0.3395 0.4921, 0.0852 -0.3403 0.4921, 0.0852 -0.3403 0.4961, 0.085 -0.341 0.4921, 0.085 -0.341 0.4961, 0.0849 -0.341 0.4961, 0.0849 -0.341 0.4921, 0.0845 -0.3394 0.4961, 0.0845 -0.3394 0.4921, 0.0795 -0.3251 0.4961, 0.0812 -0.3297 0.4921, 0.0795 -0.3251 0.4921, 0.0758 -0.3251 0.4961, 0.0758 -0.3251 0.4921, 0.0833 -0.3441 0.4961, 0.0812 -0.3387 0.4921, 0.0833 -0.3441 0.4921, 0.0818 -0.3476 0.4921, 0.0818 -0.3476 0.4961, 0.0832 -0.3444 0.4921, 0.0812 -0.3488 0.4921, 0.0811 -0.3488 0.4961, 0.0811 -0.3488 0.4921, 0.0805 -0.3495 0.4921, 0.0805 -0.3495 0.4961, 0.08 -0.3499 0.4921, 0.08 -0.3499 0.4961, 0.0793 -0.3502 0.4921, 0.0793 -0.3502 0.4961, 0.0784 -0.3503 0.4921, 0.0784 -0.3503 0.4961, 0.0772 -0.3501 0.4921, 0.0772 -0.3501 0.4961, 0.0765 -0.3499 0.4921, 0.0765 -0.3499 0.4961, 0.0765 -0.3529 0.4961, 0.0765 -0.3529 0.4921, 0.0779 -0.3531 0.4921, 0.0779 -0.3531 0.4961, 0.0787 -0.3531 0.4921, 0.0787 -0.3531 0.4961, 0.08 -0.353 0.4921, 0.08 -0.353 0.4961, 0.0812 -0.3525 0.4921, 0.0813 -0.3525 0.4961, 0.0813 -0.3525 0.4921, 0.0825 -0.3517 0.4921, 0.0825 -0.3517 0.4961, 0.0827 -0.3515 0.4921, 0.0827 -0.3515 0.4961, 0.0839 -0.35 0.4921, 0.0839 -0.35 0.4961, 0.0855 -0.347 0.4921, 0.0855 -0.347 0.4961, 0.0865 -0.3444 0.4921, 0.1121 -0.3411 0.4961, 0.1121 -0.3442 0.4961, 0.1121 -0.3411 0.4921, 0.1121 -0.3442 0.4921, 0.1012 -0.3411 0.4961, 0.1061 -0.3411 0.4921, 0.1012 -0.3411 0.4921, 0.1012 -0.3321 0.4961, 0.1012 -0.3321 0.4921, 0.1107 -0.3321 0.4961, 0.1061 -0.3321 0.4921, 0.1107 -0.3321 0.4921, 0.1107 -0.3291 0.4961, 0.1107 -0.3291 0.4921, 0.1012 -0.3291 0.4921, 0.1012 -0.3291 0.4961, 0.1061 -0.3291 0.4921, 0.1012 -0.3205 0.4961, 0.1012 -0.3205 0.4921, 0.1115 -0.3205 0.4921, 0.1115 -0.3205 0.4961, 0.1061 -0.3205 0.4921, 0.1115 -0.3175 0.4961, 0.1115 -0.3175 0.4921, 0.0977 -0.3175 0.4921, 0.0977 -0.3175 0.4961, 0.1061 -0.3175 0.4921, 0.0977 -0.3442 0.4961, 0.0977 -0.3442 0.4921, 0.1061 -0.3442 0.4921, 0.1348 -0.3404 0.4961, 0.1321 -0.3386 0.4961, 0.132 -0.3424 0.4961, 0.1303 -0.3398 0.4961, 0.129 -0.3436 0.4961, 0.1281 -0.3407 0.4961, 0.1244 -0.3442 0.4961, 0.1244 -0.3411 0.4961, 0.1171 -0.3442 0.4961, 0.1205 -0.3411 0.4961, 0.1171 -0.3175 0.4961, 0.1205 -0.3205 0.4961, 0.1247 -0.3175 0.4961, 0.1246 -0.3205 0.4961, 0.1288 -0.3179 0.4961, 0.128 -0.3209 0.4961, 0.132 -0.3191 0.4961, 0.1303 -0.3218 0.4961, 0.1348 -0.321 0.4961, 0.1323 -0.3231 0.4961, 0.1357 -0.3219 0.4961, 0.133 -0.3238 0.4961, 0.1374 -0.3242 0.4961, 0.1341 -0.3253 0.4961, 0.1384 -0.3268 0.4961, 0.1348 -0.3272 0.4961, 0.1388 -0.3305 0.4961, 0.1352 -0.3306 0.4961, 0.1388 -0.3322 0.4961, 0.1351 -0.3326 0.4961, 0.1381 -0.3353 0.4961, 0.1345 -0.335 0.4961, 0.1368 -0.3381 0.4961, 0.1335 -0.3369 0.4961, 0.1324 -0.3383 0.4961, 0.1244 -0.3442 0.4921, 0.1171 -0.3442 0.4921, 0.129 -0.3436 0.4921, 0.132 -0.3424 0.4921, 0.1348 -0.3404 0.4921, 0.1368 -0.3381 0.4921, 0.1381 -0.3353 0.4921, 0.1388 -0.3322 0.4921, 0.1388 -0.3305 0.4921, 0.1384 -0.3268 0.4921, 0.1374 -0.3242 0.4921, 0.1357 -0.3219 0.4921, 0.1348 -0.321 0.4921, 0.132 -0.3191 0.4921, 0.1288 -0.3179 0.4921, 0.1247 -0.3175 0.4921, 0.1171 -0.3175 0.4921, 0.1246 -0.3205 0.4921, 0.1205 -0.3205 0.4921, 0.1205 -0.3411 0.4921, 0.1244 -0.3411 0.4921, 0.1324 -0.3383 0.4921, 0.1321 -0.3386 0.4921, 0.1303 -0.3398 0.4921, 0.1281 -0.3407 0.4921, 0.1352 -0.3306 0.4921, 0.1351 -0.3326 0.4921, 0.1345 -0.335 0.4921, 0.1335 -0.3369 0.4921, 0.1323 -0.3231 0.4921, 0.133 -0.3238 0.4921, 0.1341 -0.3253 0.4921, 0.1348 -0.3272 0.4921, 0.128 -0.3209 0.4921, 0.1303 -0.3218 0.4921
            ]
        }
        coordIndex [
            0,1,2,-1,3,4,5,-1,3,5,6,-1,6,5,7,-1,6,7,2,-1,2,7,8,-1,2,8,0,-1,9,1,10,-1,10,1,0,-1,10,11,9,-1,9,11,12,-1,13,14,15,-1,15,14,12,-1,15,12,16,-1,16,12,11,-1,13,17,14,-1,14,17,18,-1,17,19,18,-1,18,19,20,-1,18,20,21,-1,21,20,22,-1,21,22,23,-1,23,22,24,-1,23,24,25,-1,25,24,26,-1,25,26,27,-1,27,26,28,-1,27,28,29,-1,29,28,30,-1,29,30,31,-1,31,30,32,-1,31,32,33,-1,33,32,34,-1,33,34,35,-1,35,34,36,-1,35,36,37,-1,37,36,38,-1,37,38,39,-1,39,38,40,-1,39,40,41,-1,41,40,42,-1,41,42,43,-1,43,42,44,-1,43,44,45,-1,45,44,46,-1,45,46,47,-1,47,46,48,-1,47,48,49,-1,49,48,50,-1,49,50,51,-1,51,50,52,-1,51,52,53,-1,53,52,54,-1,53,54,55,-1,55,54,56,-1,55,56,57,-1,57,56,58,-1,57,58,59,-1,59,58,60,-1,59,60,61,-1,61,60,62,-1,61,62,63,-1,63,62,64,-1,63,64,65,-1,65,64,66,-1,65,66,67,-1,67,66,68,-1,67,68,69,-1,69,68,70,-1,69,70,71,-1,71,70,72,-1,71,72,73,-1,73,72,74,-1,73,74,75,-1,76,75,77,-1,77,75,74,-1,76,77,78,-1,76,78,79,-1,79,78,80,-1,79,80,81,-1,81,80,82,-1,81,82,83,-1,83,82,84,-1,83,84,85,-1,85,84,86,-1,85,86,87,-1,86,88,87,-1,87,88,89,-1,88,90,89,-1,89,90,91,-1,89,91,92,-1,92,91,93,-1,92,93,94,-1,94,93,95,-1,94,95,96,-1,96,95,97,-1,96,97,98,-1,98,97,99,-1,98,99,100,-1,100,99,101,-1,100,101,102,-1,103,104,105,-1,102,101,106,-1,102,106,107,-1,107,106,108,-1,107,108,105,-1,105,108,109,-1,105,109,103,-1,104,103,110,-1,104,110,111,-1,111,110,112,-1,111,112,113,-1,113,112,114,-1,113,114,115,-1,115,114,116,-1,115,116,117,-1,117,116,118,-1,117,118,119,-1,119,118,120,-1,119,120,121,-1,121,120,122,-1,121,122,123,-1,123,122,124,-1,123,124,125,-1,125,124,126,-1,125,126,127,-1,127,126,128,-1,127,128,129,-1,129,128,130,-1,129,130,131,-1,131,130,132,-1,131,132,133,-1,133,132,134,-1,133,134,135,-1,135,134,4,-1,135,4,3,-1,61,63,85,-1,85,63,83,-1,111,43,104,-1,104,43,45,-1,21,23,127,-1,127,23,25,-1,127,25,125,-1,125,25,27,-1,125,27,123,-1,123,27,29,-1,123,29,121,-1,121,29,31,-1,121,31,119,-1,119,31,33,-1,119,33,117,-1,117,33,35,-1,117,35,115,-1,115,35,37,-1,115,37,113,-1,113,37,39,-1,113,39,111,-1,111,39,41,-1,111,41,43,-1,14,3,12,-1,12,3,6,-1,12,6,9,-1,9,6,2,-1,9,2,1,-1,63,65,83,-1,83,65,67,-1,83,67,81,-1,81,67,69,-1,81,69,79,-1,79,69,71,-1,79,71,76,-1,76,71,73,-1,76,73,75,-1,127,129,21,-1,21,129,131,-1,21,131,18,-1,18,131,133,-1,18,133,14,-1,14,133,135,-1,14,135,3,-1,85,87,61,-1,61,87,89,-1,61,89,59,-1,59,89,92,-1,59,92,57,-1,57,92,94,-1,57,94,55,-1,55,94,96,-1,55,96,53,-1,53,96,98,-1,53,98,51,-1,51,98,100,-1,51,100,49,-1,49,100,102,-1,49,102,47,-1,47,102,107,-1,47,107,45,-1,45,107,105,-1,45,105,104,-1,136,137,138,-1,138,137,139,-1,140,136,141,-1,141,136,138,-1,140,141,142,-1,140,142,143,-1,143,142,144,-1,143,144,145,-1,146,145,147,-1,147,145,144,-1,148,146,149,-1,149,146,147,-1,148,149,150,-1,150,149,151,-1,150,151,152,-1,153,150,154,-1,154,150,152,-1,153,154,155,-1,155,154,156,-1,155,156,157,-1,158,159,160,-1,160,159,155,-1,160,155,157,-1,158,161,159,-1,159,161,162,-1,161,163,162,-1,162,163,164,-1,162,164,165,-1,165,164,166,-1,165,166,167,-1,167,166,168,-1,167,168,169,-1,169,168,170,-1,169,170,171,-1,171,170,172,-1,171,172,173,-1,173,172,174,-1,173,174,175,-1,176,175,177,-1,177,175,174,-1,176,177,178,-1,176,178,179,-1,179,178,180,-1,179,180,181,-1,181,180,182,-1,181,182,183,-1,183,182,184,-1,183,184,185,-1,184,186,185,-1,185,186,187,-1,185,187,188,-1,188,187,189,-1,188,189,190,-1,190,189,191,-1,190,191,192,-1,192,191,193,-1,192,193,194,-1,139,137,195,-1,195,137,194,-1,195,194,193,-1,143,145,194,-1,137,136,194,-1,194,136,140,-1,194,140,143,-1,150,153,148,-1,148,153,155,-1,148,155,146,-1,175,176,173,-1,173,176,179,-1,173,179,171,-1,171,179,181,-1,171,181,169,-1,169,181,183,-1,169,183,167,-1,167,183,185,-1,167,185,165,-1,145,146,194,-1,194,146,155,-1,194,155,192,-1,155,159,192,-1,192,159,162,-1,192,162,190,-1,190,162,165,-1,190,165,188,-1,188,165,185,-1,196,197,198,-1,198,197,199,-1,196,198,200,-1,200,198,201,-1,200,201,202,-1,203,200,204,-1,204,200,202,-1,203,204,205,-1,205,204,206,-1,205,206,207,-1,208,205,209,-1,209,205,207,-1,210,211,212,-1,212,211,208,-1,212,208,209,-1,213,211,214,-1,214,211,210,-1,215,216,217,-1,217,216,213,-1,217,213,214,-1,218,216,219,-1,219,216,215,-1,220,221,222,-1,222,221,218,-1,222,218,219,-1,223,221,224,-1,224,221,220,-1,223,224,197,-1,197,224,225,-1,197,225,199,-1,223,197,196,-1,196,200,223,-1,223,200,203,-1,223,203,221,-1,216,218,213,-1,213,218,221,-1,213,221,211,-1,211,221,203,-1,211,203,208,-1,208,203,205,-1,226,227,228,-1,228,227,229,-1,228,229,230,-1,230,229,231,-1,230,231,232,-1,232,231,233,-1,232,233,234,-1,234,233,235,-1,234,235,236,-1,236,235,237,-1,236,237,238,-1,238,237,239,-1,238,239,240,-1,240,239,241,-1,240,241,242,-1,242,241,243,-1,242,243,244,-1,244,243,245,-1,244,245,246,-1,246,245,247,-1,246,247,248,-1,248,247,249,-1,248,249,250,-1,250,249,251,-1,250,251,252,-1,252,251,253,-1,252,253,254,-1,254,253,255,-1,254,255,256,-1,256,255,257,-1,256,257,258,-1,258,257,259,-1,258,259,226,-1,226,259,260,-1,226,260,227,-1,232,234,261,-1,261,234,262,-1,232,261,263,-1,232,263,230,-1,230,263,264,-1,230,264,228,-1,228,264,265,-1,228,265,226,-1,226,265,266,-1,226,266,258,-1,258,266,267,-1,258,267,256,-1,256,267,268,-1,256,268,254,-1,254,268,269,-1,254,269,252,-1,252,269,270,-1,252,270,250,-1,250,270,271,-1,250,271,248,-1,248,271,272,-1,248,272,246,-1,246,272,273,-1,246,273,244,-1,244,273,274,-1,244,274,242,-1,242,274,275,-1,242,275,240,-1,240,275,276,-1,240,276,238,-1,236,238,277,-1,277,238,276,-1,234,236,262,-1,262,236,277,-1,239,237,278,-1,278,237,279,-1,237,235,279,-1,279,235,280,-1,235,233,280,-1,280,233,281,-1,260,282,283,-1,260,283,227,-1,227,283,284,-1,227,284,229,-1,229,284,285,-1,229,285,231,-1,231,285,281,-1,231,281,233,-1,253,286,287,-1,253,287,255,-1,255,287,288,-1,255,288,257,-1,257,288,289,-1,257,289,259,-1,259,289,282,-1,259,282,260,-1,245,290,291,-1,245,291,247,-1,247,291,292,-1,247,292,249,-1,249,292,293,-1,249,293,251,-1,251,293,286,-1,251,286,253,-1,239,278,294,-1,239,294,241,-1,241,294,295,-1,241,295,243,-1,243,295,290,-1,243,290,245,-1,
        ]
    }
}
Shape{
    appearance Appearance {
        material  Material 	{
            diffuseColor 0.25098039215686274 0.25098039215686274 0.25098039215686274
            specularColor 0.12549019607843137 0.12549019607843137 0.12549019607843137
            ambientIntensity 0.251
            transparency 0.0
            shininess 0.5
        }
    }
    geometry IndexedFaceSet {
        ccw TRUE
        solid FALSE
        coord DEF co Coordinate {
            point [
                0.1321 -0.3386 0.4921, 0.1324 -0.3383 0.4921, 0.1246 -0.3205 0.4921, 0.1205 -0.3205 0.4921, 0.1205 -0.3411 0.4921, 0.1244 -0.3411 0.4921, 0.1281 -0.3407 0.4921, 0.1303 -0.3398 0.4921, 0.1335 -0.3369 0.4921, 0.1345 -0.335 0.4921, 0.1351 -0.3326 0.4921, 0.1352 -0.3306 0.4921, 0.1348 -0.3272 0.4921, 0.1341 -0.3253 0.4921, 0.133 -0.3238 0.4921, 0.1323 -0.3231 0.4921, 0.128 -0.3209 0.4921, 0.1303 -0.3218 0.4921
            ]
        }
        coordIndex [
            0,1,2,-1,3,4,2,-1,2,4,5,-1,5,6,2,-1,2,6,7,-1,2,7,0,-1,1,8,2,-1,2,8,9,-1,2,9,10,-1,10,11,2,-1,2,11,12,-1,2,12,13,-1,13,14,2,-1,2,14,15,-1,2,15,16,-1,16,15,17,-1,
        ]
    }
}
Shape{
    appearance Appearance {
        material  Material 	{
            diffuseColor 1.0 1.0 1.0
            specularColor 0.5019607843137255 0.5019607843137255 0.5019607843137255
            ambientIntensity 1.0
            transparency 0.0
            shininess 0.5
        }
    }
    geometry IndexedFaceSet {
        ccw TRUE
        solid FALSE
        coord DEF co Coordinate {
            point [
                0.1478 -0.3338 0.4961, 0.1467 -0.3369 0.4961, 0.1567 -0.3338 0.4961, 0.1578 -0.3369 0.4961, 0.1518 -0.3228 0.4961, 0.1505 -0.3175 0.4961, 0.1403 -0.3442 0.4961, 0.1441 -0.3442 0.4961, 0.152 -0.322 0.4961, 0.1522 -0.3209 0.4961, 0.1542 -0.3175 0.4961, 0.1523 -0.3209 0.4961, 0.1525 -0.322 0.4961, 0.1527 -0.3228 0.4961, 0.1643 -0.3442 0.4961, 0.1605 -0.3442 0.4961, 0.1542 -0.3175 0.4921, 0.1643 -0.3442 0.4921, 0.1505 -0.3175 0.4921, 0.1403 -0.3442 0.4921, 0.1441 -0.3442 0.4921, 0.1467 -0.3369 0.4921, 0.1578 -0.3369 0.4921, 0.1605 -0.3442 0.4921, 0.1478 -0.3338 0.4921, 0.1567 -0.3338 0.4921, 0.1527 -0.3228 0.4921, 0.1523 -0.3209 0.4921, 0.1525 -0.322 0.4921, 0.1522 -0.3209 0.4921, 0.1518 -0.3228 0.4921, 0.152 -0.322 0.4921
            ]
        }
        coordIndex [
            0,1,2,-1,2,1,3,-1,4,5,0,-1,0,5,6,-1,0,6,1,-1,1,6,7,-1,4,8,5,-1,5,8,9,-1,5,9,10,-1,10,9,11,-1,10,11,12,-1,12,13,10,-1,10,13,2,-1,10,2,14,-1,14,2,3,-1,14,3,15,-1,10,14,16,-1,16,14,17,-1,5,10,18,-1,18,10,16,-1,6,5,19,-1,19,5,18,-1,7,6,20,-1,20,6,19,-1,1,7,21,-1,21,7,20,-1,3,1,22,-1,22,1,21,-1,15,3,23,-1,23,3,22,-1,14,15,17,-1,17,15,23,-1,0,2,24,-1,24,2,25,-1,2,13,25,-1,25,13,26,-1,11,27,28,-1,11,28,12,-1,12,28,26,-1,12,26,13,-1,11,9,27,-1,27,9,29,-1,4,30,31,-1,4,31,8,-1,8,31,29,-1,8,29,9,-1,4,0,30,-1,30,0,24,-1,
        ]
    }
}
Shape{
    appearance Appearance {
        material  Material 	{
            diffuseColor 0.25098039215686274 0.25098039215686274 0.25098039215686274
            specularColor 0.12549019607843137 0.12549019607843137 0.12549019607843137
            ambientIntensity 0.251
            transparency 0.0
            shininess 0.5
        }
    }
    geometry IndexedFaceSet {
        ccw TRUE
        solid FALSE
        coord DEF co Coordinate {
            point [
                0.1523 -0.3209 0.4921, 0.1522 -0.3209 0.4921, 0.1525 -0.322 0.4921, 0.152 -0.322 0.4921, 0.1527 -0.3228 0.4921, 0.1518 -0.3228 0.4921, 0.1567 -0.3338 0.4921, 0.1478 -0.3338 0.4921
            ]
        }
        coordIndex [
            0,1,2,-1,2,1,3,-1,2,3,4,-1,4,3,5,-1,4,5,6,-1,6,5,7,-1,
        ]
    }
}
Shape{
    appearance Appearance {
        material  Material 	{
            diffuseColor 1.0 1.0 1.0
            specularColor 0.5019607843137255 0.5019607843137255 0.5019607843137255
            ambientIntensity 1.0
            transparency 0.0
            shininess 0.5
        }
    }
    geometry IndexedFaceSet {
        ccw TRUE
        solid FALSE
        coord DEF co Coordinate {
            point [
                -0.0941 -0.3479 0.4961, -0.0913 -0.3514 0.4961, -0.0958 -0.3312 0.4961, -0.0712 -0.3354 0.4961, -0.0708 -0.3372 0.4961, -0.0324 -0.3219 0.4961, -0.0273 -0.2978 0.4961, -0.0262 -0.3031 0.4961, -0.0169 -0.2928 0.4961, -0.0781 -0.3306 0.4961, -0.0765 -0.3308 0.4961, -0.0637 -0.3251 0.4961, -0.0991 -0.2982 0.4961, -0.0948 -0.2959 0.4961, -0.0954 -0.2841 0.4961, -0.0748 -0.3314 0.4961, -0.0732 -0.3325 0.4961, -0.072 -0.3338 0.4961, -0.0884 -0.2833 0.4961, -0.0383 -0.3118 0.4961, -0.0708 -0.3388 0.4961, -0.059 -0.3378 0.4961, -0.059 -0.3359 0.4961, -0.0999 -0.3286 0.4961, -0.099 -0.343 0.4961, -0.096 -0.3439 0.4961, -0.0246 -0.3031 0.4961, -0.021 -0.3035 0.4961, -0.0159 -0.2931 0.4961, -0.0177 -0.3048 0.4961, -0.0103 -0.296 0.4961, -0.0051 -0.3003 0.4961, -0.0658 -0.2827 0.4961, -0.0757 -0.2754 0.4961, -0.071 -0.2865 0.4961, -0.0801 -0.2792 0.4961, -0.0753 -0.2916 0.4961, -0.084 -0.2837 0.4961, -0.0781 -0.2976 0.4961, -0.0902 -0.2948 0.4961, -0.0882 -0.2947 0.4961, -0.0862 -0.2835 0.4961, -0.0838 -0.2953 0.4961, -0.0795 -0.2968 0.4961, -0.0829 -0.3437 0.4961, -0.0813 -0.3447 0.4961, -0.0876 -0.3542 0.4961, -0.0795 -0.3453 0.4961, -0.0798 -0.3308 0.4961, -0.0825 -0.3192 0.4961, -0.0815 -0.3314 0.4961, -0.0867 -0.3208 0.4961, -0.083 -0.3324 0.4961, -0.0906 -0.3235 0.4961, -0.0842 -0.3338 0.4961, -0.0937 -0.3271 0.4961, -0.0851 -0.3354 0.4961, -0.0855 -0.3372 0.4961, -0.0051 -0.3357 0.4961, -0.0139 -0.3282 0.4961, -0.0103 -0.3401 0.4961, -0.0168 -0.3305 0.4961, -0.016 -0.3429 0.4961, -0.0201 -0.332 0.4961, -0.0224 -0.3443 0.4961, -0.0235 -0.3327 0.4961, -0.0336 -0.3443 0.4961, -0.032 -0.3327 0.4961, -0.0346 -0.3441 0.4961, -0.1066 -0.3091 0.4961, -0.1191 -0.3118 0.4961, -0.1072 -0.3137 0.4961, -0.1191 -0.3141 0.4961, -0.107 -0.3166 0.4961, -0.1183 -0.321 0.4961, -0.1056 -0.3213 0.4961, -0.1157 -0.3281 0.4961, -0.1033 -0.3251 0.4961, -0.1112 -0.3348 0.4961, -0.1057 -0.3395 0.4961, -0.0711 -0.3199 0.4961, -0.0756 -0.3188 0.4961, -0.078 -0.3186 0.4961, -0.0148 -0.3068 0.4961, -0.0126 -0.3093 0.4961, -0.0012 -0.3057 0.4961, -0.0108 -0.3126 0.4961, 0.0011 -0.3115 0.4961, -0.0099 -0.3162 0.4961, 0.0019 -0.3177 0.4961, -0.0098 -0.3179 0.4961, 0.0011 -0.3245 0.4961, -0.0103 -0.3216 0.4961, -0.0013 -0.3305 0.4961, -0.0116 -0.3249 0.4961, -0.0137 -0.3279 0.4961, -0.1025 -0.2868 0.4961, -0.1088 -0.2911 0.4961, -0.1024 -0.3011 0.4961, -0.1102 -0.2924 0.4961, -0.105 -0.3049 0.4961, -0.1145 -0.2979 0.4961, -0.1177 -0.3047 0.4961, -0.0841 -0.3424 0.4961, -0.085 -0.3408 0.4961, -0.0855 -0.3391 0.4961, -0.0302 -0.2917 0.4961, -0.0202 -0.2861 0.4961, -0.0345 -0.2866 0.4961, -0.0261 -0.2787 0.4961, -0.035 -0.2861 0.4961, -0.0271 -0.2778 0.4961, -0.0403 -0.2824 0.4961, -0.0356 -0.2721 0.4961, -0.0463 -0.2801 0.4961, -0.0451 -0.2688 0.4961, -0.0527 -0.2794 0.4961, -0.0529 -0.268 0.4961, -0.0596 -0.2802 0.4961, -0.0623 -0.2691 0.4961, -0.0711 -0.2725 0.4961, -0.067 -0.3221 0.4961, -0.033 -0.3325 0.4961, -0.0375 -0.3423 0.4961, -0.0371 -0.3427 0.4961, -0.0324 -0.3326 0.4961, -0.0359 -0.3436 0.4961, -0.0832 -0.3561 0.4961, -0.0787 -0.3568 0.4961, -0.0781 -0.3454 0.4961, -0.078 -0.3568 0.4961, -0.0765 -0.3452 0.4961, -0.0734 -0.3562 0.4961, -0.0748 -0.3446 0.4961, -0.0691 -0.3546 0.4961, -0.0733 -0.3436 0.4961, -0.0654 -0.352 0.4961, -0.0721 -0.3423 0.4961, -0.0624 -0.3487 0.4961, -0.0712 -0.3406 0.4961, -0.0602 -0.3444 0.4961, -0.0591 -0.3398 0.4961, -0.0391 -0.3384 0.4961, -0.0389 -0.3398 0.4961, -0.0384 -0.3411 0.4961, -0.0346 -0.3327 0.4961, -0.0359 -0.3332 0.4961, -0.039 -0.3377 0.4961, -0.0371 -0.334 0.4961, -0.0379 -0.3349 0.4961, -0.0386 -0.3362 0.4961, -0.0332 -0.3325 0.4961, 0.0019 -0.3177 0.4921, 0.0011 -0.3115 0.4921, 0.0004 -0.3099 0.4921, -0.0012 -0.3057 0.4921, -0.0039 -0.302 0.4921, -0.0051 -0.3003 0.4921, -0.0103 -0.296 0.4921, -0.0159 -0.2931 0.4921, -0.0169 -0.2928 0.4921, -0.0202 -0.2861 0.4921, -0.0261 -0.2787 0.4921, -0.0271 -0.2778 0.4921, -0.0315 -0.2749 0.4921, -0.0356 -0.2721 0.4921, -0.0451 -0.2688 0.4921, -0.0529 -0.268 0.4921, -0.0757 -0.2754 0.4921, -0.0749 -0.2749 0.4921, -0.0711 -0.2725 0.4921, -0.0623 -0.2691 0.4921, -0.0801 -0.2792 0.4921, -0.084 -0.2837 0.4921, -0.0862 -0.2835 0.4921, -0.0884 -0.2833 0.4921, -0.0954 -0.2841 0.4921, -0.1025 -0.2868 0.4921, -0.1088 -0.2911 0.4921, -0.1102 -0.2924 0.4921, -0.1191 -0.3141 0.4921, -0.1145 -0.2979 0.4921, -0.1165 -0.302 0.4921, -0.1177 -0.3047 0.4921, -0.1187 -0.3099 0.4921, -0.1191 -0.3118 0.4921, -0.1183 -0.321 0.4921, -0.1157 -0.3281 0.4921, -0.1112 -0.3348 0.4921, -0.1057 -0.3395 0.4921, -0.099 -0.343 0.4921, -0.096 -0.3439 0.4921, -0.0957 -0.3444 0.4921, -0.0941 -0.3479 0.4921, -0.0913 -0.3514 0.4921, -0.0876 -0.3542 0.4921, -0.0858 -0.355 0.4921, -0.0832 -0.3561 0.4921, -0.0787 -0.3568 0.4921, -0.078 -0.3568 0.4921, -0.059 -0.3378 0.4921, -0.0734 -0.3562 0.4921, -0.0701 -0.355 0.4921, -0.0691 -0.3546 0.4921, -0.0654 -0.352 0.4921, -0.0624 -0.3487 0.4921, -0.0602 -0.3444 0.4921, -0.0602 -0.3444 0.4921, -0.0591 -0.3398 0.4921, -0.059 -0.3359 0.4921, -0.0324 -0.3219 0.4921, -0.0383 -0.3118 0.4921, -0.0637 -0.3251 0.4921, -0.067 -0.3221 0.4921, -0.0711 -0.3199 0.4921, -0.0756 -0.3188 0.4921, -0.078 -0.3186 0.4921, -0.0825 -0.3192 0.4921, -0.0867 -0.3208 0.4921, -0.0906 -0.3235 0.4921, -0.0937 -0.3271 0.4921, -0.0958 -0.3312 0.4921, -0.0999 -0.3286 0.4921, -0.1033 -0.3251 0.4921, -0.1056 -0.3213 0.4921, -0.107 -0.3166 0.4921, -0.1072 -0.3137 0.4921, -0.1067 -0.3099 0.4921, -0.1066 -0.3091 0.4921, -0.105 -0.3049 0.4921, -0.103 -0.302 0.4921, -0.1024 -0.3011 0.4921, -0.0991 -0.2982 0.4921, -0.0948 -0.2959 0.4921, -0.0902 -0.2948 0.4921, -0.0882 -0.2947 0.4921, -0.0838 -0.2953 0.4921, -0.0795 -0.2968 0.4921, -0.0781 -0.2976 0.4921, -0.0753 -0.2916 0.4921, -0.071 -0.2865 0.4921, -0.0658 -0.2827 0.4921, -0.0596 -0.2802 0.4921, -0.0527 -0.2794 0.4921, -0.0262 -0.3031 0.4921, -0.0264 -0.302 0.4921, -0.0273 -0.2978 0.4921, -0.0302 -0.2917 0.4921, -0.0345 -0.2866 0.4921, -0.035 -0.2861 0.4921, -0.0403 -0.2824 0.4921, -0.0463 -0.2801 0.4921, -0.0246 -0.3031 0.4921, -0.021 -0.3035 0.4921, -0.0177 -0.3048 0.4921, -0.0148 -0.3068 0.4921, -0.0126 -0.3093 0.4921, -0.0123 -0.3099 0.4921, -0.0108 -0.3126 0.4921, -0.0099 -0.3162 0.4921, -0.0098 -0.3179 0.4921, -0.0103 -0.3216 0.4921, -0.0116 -0.3249 0.4921, -0.0137 -0.3279 0.4921, -0.0139 -0.3282 0.4921, -0.0168 -0.3305 0.4921, -0.0201 -0.332 0.4921, -0.0235 -0.3327 0.4921, -0.032 -0.3327 0.4921, -0.0324 -0.3326 0.4921, -0.033 -0.3325 0.4921, -0.0332 -0.3325 0.4921, -0.0346 -0.3327 0.4921, -0.0359 -0.3332 0.4921, -0.0371 -0.334 0.4921, -0.0379 -0.3349 0.4921, -0.0386 -0.3362 0.4921, -0.039 -0.3377 0.4921, -0.0391 -0.3384 0.4921, -0.0389 -0.3398 0.4921, -0.0384 -0.3411 0.4921, -0.0375 -0.3423 0.4921, -0.0371 -0.3427 0.4921, -0.0359 -0.3436 0.4921, -0.0346 -0.3441 0.4921, -0.0336 -0.3443 0.4921, -0.0224 -0.3443 0.4921, -0.016 -0.3429 0.4921, -0.0103 -0.3401 0.4921, -0.0051 -0.3357 0.4921, -0.0013 -0.3305 0.4921, 0.0011 -0.3245 0.4921, -0.0781 -0.3306 0.4921, -0.0765 -0.3308 0.4921, -0.0748 -0.3314 0.4921, -0.0732 -0.3325 0.4921, -0.072 -0.3338 0.4921, -0.0712 -0.3354 0.4921, -0.0708 -0.3372 0.4921, -0.0708 -0.3388 0.4921, -0.0712 -0.3406 0.4921, -0.0721 -0.3423 0.4921, -0.0733 -0.3436 0.4921, -0.0748 -0.3446 0.4921, -0.0765 -0.3452 0.4921, -0.0781 -0.3454 0.4921, -0.0795 -0.3453 0.4921, -0.0813 -0.3447 0.4921, -0.0829 -0.3437 0.4921, -0.0841 -0.3424 0.4921, -0.085 -0.3408 0.4921, -0.0855 -0.3391 0.4921, -0.0855 -0.3372 0.4921, -0.0851 -0.3354 0.4921, -0.0842 -0.3338 0.4921, -0.083 -0.3324 0.4921, -0.0815 -0.3314 0.4921, -0.0798 -0.3308 0.4921
            ]
        }
        coordIndex [
            0,1,2,-1,3,4,5,-1,6,7,8,-1,9,10,11,-1,12,13,14,-1,10,15,11,-1,11,15,16,-1,11,16,17,-1,14,13,18,-1,3,5,17,-1,17,5,19,-1,17,19,11,-1,20,21,4,-1,4,21,22,-1,4,22,5,-1,23,24,2,-1,2,24,25,-1,2,25,0,-1,7,26,8,-1,8,26,27,-1,8,27,28,-1,28,27,29,-1,28,29,30,-1,30,29,31,-1,32,33,34,-1,34,33,35,-1,34,35,36,-1,36,35,37,-1,36,37,38,-1,13,39,18,-1,18,39,40,-1,18,40,41,-1,41,40,42,-1,41,42,37,-1,37,42,43,-1,37,43,38,-1,44,1,45,-1,45,1,46,-1,45,46,47,-1,48,49,50,-1,50,49,51,-1,50,51,52,-1,52,51,53,-1,52,53,54,-1,54,53,55,-1,54,55,56,-1,56,55,2,-1,56,2,57,-1,58,59,60,-1,60,59,61,-1,60,61,62,-1,62,61,63,-1,62,63,64,-1,64,63,65,-1,64,65,66,-1,66,65,67,-1,66,67,68,-1,69,70,71,-1,71,70,72,-1,71,72,73,-1,73,72,74,-1,73,74,75,-1,75,74,76,-1,75,76,77,-1,77,76,78,-1,77,78,23,-1,23,78,79,-1,23,79,24,-1,80,81,48,-1,48,81,82,-1,48,82,49,-1,29,83,31,-1,31,83,84,-1,31,84,85,-1,85,84,86,-1,85,86,87,-1,87,86,88,-1,87,88,89,-1,89,88,90,-1,89,90,91,-1,91,90,92,-1,91,92,93,-1,93,92,94,-1,93,94,58,-1,58,94,95,-1,58,95,59,-1,14,96,12,-1,12,96,97,-1,12,97,98,-1,98,97,99,-1,98,99,100,-1,100,99,101,-1,100,101,69,-1,69,101,102,-1,69,102,70,-1,44,103,1,-1,1,103,104,-1,1,104,2,-1,2,104,105,-1,2,105,57,-1,6,8,106,-1,106,8,107,-1,106,107,108,-1,108,107,109,-1,108,109,110,-1,110,109,111,-1,110,111,112,-1,112,111,113,-1,112,113,114,-1,114,113,115,-1,114,115,116,-1,116,115,117,-1,116,117,118,-1,118,117,119,-1,118,119,32,-1,32,119,120,-1,32,120,33,-1,9,11,48,-1,48,11,121,-1,48,121,80,-1,122,123,124,-1,67,125,68,-1,68,125,122,-1,68,122,126,-1,126,122,124,-1,46,127,47,-1,47,127,128,-1,47,128,129,-1,129,128,130,-1,129,130,131,-1,131,130,132,-1,131,132,133,-1,133,132,134,-1,133,134,135,-1,135,134,136,-1,135,136,137,-1,137,136,138,-1,137,138,139,-1,139,138,140,-1,139,140,20,-1,20,140,141,-1,20,141,21,-1,142,143,122,-1,122,143,144,-1,122,144,123,-1,145,146,147,-1,146,148,147,-1,147,148,149,-1,147,149,150,-1,142,122,147,-1,147,122,151,-1,147,151,145,-1,89,152,153,-1,89,153,87,-1,87,153,154,-1,87,154,85,-1,154,155,85,-1,85,155,156,-1,85,156,31,-1,156,157,31,-1,31,157,158,-1,31,158,30,-1,30,158,159,-1,30,159,28,-1,28,159,160,-1,28,160,8,-1,8,160,161,-1,8,161,107,-1,107,161,162,-1,107,162,109,-1,109,162,163,-1,109,163,111,-1,111,163,113,-1,113,163,164,-1,164,165,113,-1,113,165,166,-1,113,166,115,-1,115,166,167,-1,115,167,117,-1,168,33,169,-1,169,33,120,-1,169,120,170,-1,170,120,119,-1,170,119,171,-1,171,119,117,-1,171,117,167,-1,33,168,172,-1,33,172,35,-1,35,172,173,-1,35,173,37,-1,37,173,174,-1,37,174,41,-1,41,174,175,-1,41,175,18,-1,18,175,176,-1,18,176,14,-1,14,176,177,-1,14,177,96,-1,96,177,178,-1,96,178,97,-1,97,178,179,-1,97,179,99,-1,180,72,70,-1,99,179,181,-1,182,102,181,-1,181,102,101,-1,181,101,99,-1,182,183,102,-1,102,183,184,-1,102,184,70,-1,70,184,185,-1,70,185,180,-1,72,180,186,-1,72,186,74,-1,74,186,187,-1,74,187,76,-1,76,187,188,-1,76,188,78,-1,78,188,189,-1,78,189,79,-1,79,189,190,-1,79,190,24,-1,24,190,191,-1,24,191,25,-1,25,191,192,-1,25,192,0,-1,192,193,0,-1,0,193,194,-1,0,194,1,-1,1,194,195,-1,1,195,46,-1,46,195,196,-1,46,196,127,-1,196,197,127,-1,127,197,198,-1,127,198,128,-1,128,198,199,-1,128,199,130,-1,200,21,141,-1,130,199,201,-1,130,201,132,-1,132,201,202,-1,132,202,134,-1,202,203,134,-1,134,203,204,-1,134,204,136,-1,136,204,205,-1,136,205,138,-1,138,205,206,-1,138,206,140,-1,140,206,207,-1,140,207,141,-1,141,207,208,-1,141,208,200,-1,22,21,209,-1,209,21,200,-1,5,22,210,-1,210,22,209,-1,19,5,211,-1,211,5,210,-1,11,19,212,-1,212,19,211,-1,11,212,213,-1,11,213,121,-1,121,213,214,-1,121,214,80,-1,80,214,215,-1,80,215,81,-1,81,215,216,-1,81,216,82,-1,82,216,217,-1,82,217,49,-1,49,217,218,-1,49,218,51,-1,51,218,219,-1,51,219,53,-1,53,219,220,-1,53,220,55,-1,55,220,221,-1,55,221,2,-1,2,221,222,-1,2,222,23,-1,23,222,223,-1,23,223,77,-1,77,223,224,-1,77,224,75,-1,75,224,225,-1,75,225,73,-1,73,225,226,-1,73,226,71,-1,226,227,71,-1,71,227,69,-1,227,228,69,-1,69,228,229,-1,69,229,100,-1,100,229,230,-1,100,230,98,-1,230,231,98,-1,98,231,232,-1,98,232,12,-1,12,232,233,-1,12,233,13,-1,13,233,234,-1,13,234,39,-1,39,234,235,-1,39,235,40,-1,40,235,236,-1,40,236,42,-1,42,236,237,-1,42,237,43,-1,43,237,238,-1,43,238,38,-1,38,238,239,-1,38,239,36,-1,36,239,240,-1,36,240,34,-1,34,240,241,-1,34,241,32,-1,32,241,242,-1,32,242,118,-1,118,242,243,-1,118,243,116,-1,244,7,245,-1,245,7,6,-1,245,6,246,-1,246,6,106,-1,246,106,247,-1,247,106,108,-1,247,108,248,-1,248,108,110,-1,248,110,249,-1,249,110,112,-1,249,112,250,-1,250,112,114,-1,250,114,251,-1,251,114,116,-1,251,116,243,-1,26,7,252,-1,252,7,244,-1,26,252,253,-1,26,253,27,-1,27,253,254,-1,27,254,29,-1,29,254,255,-1,29,255,83,-1,83,255,256,-1,83,256,84,-1,84,256,257,-1,84,257,86,-1,257,258,86,-1,86,258,259,-1,86,259,88,-1,88,259,260,-1,88,260,90,-1,90,260,261,-1,90,261,92,-1,92,261,262,-1,92,262,94,-1,94,262,263,-1,94,263,95,-1,95,263,264,-1,95,264,59,-1,59,264,265,-1,59,265,61,-1,61,265,266,-1,61,266,63,-1,63,266,267,-1,63,267,65,-1,67,65,268,-1,268,65,267,-1,67,268,269,-1,67,269,125,-1,125,269,270,-1,125,270,122,-1,122,270,271,-1,122,271,151,-1,151,271,272,-1,151,272,145,-1,145,272,273,-1,145,273,146,-1,146,273,274,-1,146,274,148,-1,148,274,275,-1,148,275,149,-1,149,275,276,-1,149,276,150,-1,150,276,277,-1,150,277,147,-1,147,277,278,-1,147,278,142,-1,142,278,279,-1,142,279,143,-1,143,279,280,-1,143,280,144,-1,144,280,281,-1,144,281,123,-1,123,281,282,-1,123,282,124,-1,124,282,283,-1,124,283,126,-1,126,283,284,-1,126,284,68,-1,68,284,285,-1,68,285,66,-1,64,66,286,-1,286,66,285,-1,64,286,287,-1,64,287,62,-1,62,287,288,-1,62,288,60,-1,60,288,289,-1,60,289,58,-1,58,289,290,-1,58,290,93,-1,93,290,291,-1,93,291,91,-1,91,291,152,-1,91,152,89,-1,9,292,293,-1,9,293,10,-1,10,293,294,-1,10,294,15,-1,15,294,295,-1,15,295,16,-1,16,295,296,-1,16,296,17,-1,17,296,297,-1,17,297,3,-1,3,297,298,-1,3,298,4,-1,4,298,299,-1,4,299,20,-1,20,299,300,-1,20,300,139,-1,139,300,301,-1,139,301,137,-1,137,301,302,-1,137,302,135,-1,135,302,303,-1,135,303,133,-1,133,303,304,-1,133,304,131,-1,131,304,305,-1,131,305,129,-1,129,305,306,-1,129,306,47,-1,47,306,307,-1,47,307,45,-1,45,307,308,-1,45,308,44,-1,44,308,309,-1,44,309,103,-1,103,309,310,-1,103,310,104,-1,104,310,311,-1,104,311,105,-1,105,311,312,-1,105,312,57,-1,57,312,313,-1,57,313,56,-1,56,313,314,-1,56,314,54,-1,54,314,315,-1,54,315,52,-1,52,315,316,-1,52,316,50,-1,50,316,317,-1,50,317,48,-1,48,317,292,-1,48,292,9,-1,
        ]
    }
}
Shape{
    appearance Appearance {
        material  Material 	{
            diffuseColor 0.25098039215686274 0.25098039215686274 0.25098039215686274
            specularColor 0.12549019607843137 0.12549019607843137 0.12549019607843137
            ambientIntensity 0.251
            transparency 0.0
            shininess 0.5
        }
    }
    geometry IndexedFaceSet {
        ccw TRUE
        solid FALSE
        coord DEF co Coordinate {
            point [
                -0.0795 -0.3453 0.4921, -0.0781 -0.3454 0.4921, -0.0781 -0.3306 0.4921, -0.0748 -0.3446 0.4921, -0.0708 -0.3388 0.4921, -0.0765 -0.3452 0.4921, -0.0708 -0.3372 0.4921, -0.0712 -0.3354 0.4921, -0.072 -0.3338 0.4921, -0.0732 -0.3325 0.4921, -0.0815 -0.3314 0.4921, -0.0841 -0.3424 0.4921, -0.0829 -0.3437 0.4921, -0.0748 -0.3314 0.4921, -0.0765 -0.3308 0.4921, -0.085 -0.3408 0.4921, -0.083 -0.3324 0.4921, -0.0855 -0.3391 0.4921, -0.0798 -0.3308 0.4921, -0.0813 -0.3447 0.4921, -0.0733 -0.3436 0.4921, -0.0721 -0.3423 0.4921, -0.0712 -0.3406 0.4921, -0.0855 -0.3372 0.4921, -0.0842 -0.3338 0.4921, -0.0851 -0.3354 0.4921
            ]
        }
        coordIndex [
            0,1,2,-1,3,4,5,-1,5,4,6,-1,5,6,1,-1,6,7,1,-1,1,7,8,-1,1,8,9,-1,10,11,12,-1,9,13,1,-1,1,13,14,-1,1,14,2,-1,11,10,15,-1,15,10,16,-1,15,16,17,-1,2,18,0,-1,0,18,10,-1,0,10,19,-1,19,10,12,-1,3,20,4,-1,4,20,21,-1,4,21,22,-1,17,16,23,-1,23,16,24,-1,23,24,25,-1,
        ]
    }
}