%TF.GenerationSoftware,KiCad,Pcbnew,10.0.3*%
%TF.CreationDate,2026-06-12T19:04:15-04:00*%
%TF.ProjectId,Yuzu Pocket,59757a75-2050-46f6-936b-65742e6b6963,1.1*%
%TF.SameCoordinates,Original*%
%TF.FileFunction,Legend,Top*%
%TF.FilePolarity,Positive*%
%FSLAX46Y46*%
G04 Gerber Fmt 4.6, Leading zero omitted, Abs format (unit mm)*
G04 Created by KiCad (PCBNEW 10.0.3) date 2026-06-12 19:04:15*
%MOMM*%
%LPD*%
G01*
G04 APERTURE LIST*
%ADD10C,0.187500*%
%ADD11C,0.300000*%
%ADD12C,0.120000*%
%ADD13C,0.150000*%
%ADD14C,0.060000*%
%ADD15C,0.250000*%
%ADD16C,0.200000*%
G04 APERTURE END LIST*
D10*
G36*
X166250000Y-105626905D02*
G01*
X165959839Y-105782152D01*
X165959839Y-105867424D01*
X166076938Y-105867424D01*
X166076938Y-105813614D01*
X166250000Y-105813614D01*
X166250000Y-106203883D01*
X166076389Y-106203883D01*
X166076389Y-106145998D01*
X165707780Y-106145998D01*
X165707780Y-106203883D01*
X165534856Y-106203883D01*
X165534856Y-105843793D01*
X165693126Y-105843793D01*
X165693126Y-105867424D01*
X165827948Y-105867424D01*
X165827948Y-105838160D01*
X165824330Y-105756415D01*
X165817489Y-105735635D01*
X165803997Y-105718313D01*
X165785970Y-105706928D01*
X165760857Y-105702834D01*
X165735621Y-105706912D01*
X165717168Y-105718313D01*
X165703940Y-105735843D01*
X165697064Y-105757972D01*
X165694354Y-105786273D01*
X165693126Y-105843793D01*
X165534856Y-105843793D01*
X165534856Y-105815125D01*
X165536642Y-105718222D01*
X165541772Y-105641789D01*
X165550747Y-105583217D01*
X165565836Y-105535432D01*
X165588882Y-105495080D01*
X165620082Y-105460988D01*
X165658939Y-105434607D01*
X165701760Y-105418875D01*
X165749821Y-105413498D01*
X165786349Y-105416766D01*
X165820059Y-105426381D01*
X165851578Y-105442395D01*
X165878317Y-105463828D01*
X165899317Y-105488534D01*
X165915097Y-105516859D01*
X166076160Y-105419772D01*
X166076160Y-105367886D01*
X166250000Y-105367886D01*
X166250000Y-105626905D01*
G37*
G36*
X166250000Y-104623434D02*
G01*
X166250000Y-105306245D01*
X166076389Y-105306245D01*
X166076389Y-105250878D01*
X165707780Y-105250878D01*
X165707780Y-105307253D01*
X165534856Y-105307253D01*
X165534856Y-104623434D01*
X165766078Y-104623434D01*
X165766078Y-104813348D01*
X165707780Y-104813348D01*
X165707780Y-104972304D01*
X165816224Y-104972304D01*
X165816224Y-104831437D01*
X165962770Y-104831437D01*
X165962770Y-104972304D01*
X166077076Y-104972304D01*
X166077076Y-104813348D01*
X166019282Y-104813348D01*
X166019282Y-104623434D01*
X166250000Y-104623434D01*
G37*
G36*
X166250000Y-104355988D02*
G01*
X166250000Y-104519295D01*
X166018457Y-104519295D01*
X166018457Y-104356354D01*
X166054812Y-104341521D01*
X166080643Y-104323534D01*
X166098149Y-104302597D01*
X166108615Y-104278228D01*
X166112247Y-104249330D01*
X166108877Y-104222816D01*
X166100253Y-104206376D01*
X166087021Y-104196852D01*
X166067642Y-104193414D01*
X166046394Y-104198204D01*
X166028853Y-104212877D01*
X166011167Y-104240717D01*
X165980905Y-104303231D01*
X165941361Y-104384055D01*
X165912670Y-104431550D01*
X165881998Y-104466834D01*
X165840038Y-104497588D01*
X165808497Y-104512725D01*
X165774830Y-104521832D01*
X165738463Y-104524928D01*
X165689354Y-104520516D01*
X165647851Y-104508004D01*
X165612491Y-104487885D01*
X165582255Y-104459852D01*
X165557897Y-104426151D01*
X165540467Y-104388938D01*
X165529766Y-104347541D01*
X165526064Y-104301079D01*
X165529492Y-104254368D01*
X165539341Y-104213130D01*
X165555241Y-104176483D01*
X165577217Y-104143726D01*
X165534856Y-104143726D01*
X165534856Y-103979411D01*
X165740020Y-103979411D01*
X165740020Y-104141253D01*
X165700620Y-104160039D01*
X165675020Y-104183015D01*
X165660149Y-104210389D01*
X165655024Y-104243697D01*
X165658198Y-104267501D01*
X165666402Y-104282454D01*
X165679199Y-104291264D01*
X165698209Y-104294484D01*
X165716728Y-104290761D01*
X165729304Y-104280242D01*
X165743006Y-104257970D01*
X165778947Y-104187735D01*
X165828778Y-104091797D01*
X165855471Y-104047189D01*
X165869161Y-104029592D01*
X165888810Y-104010323D01*
X165910828Y-103992917D01*
X165932957Y-103979091D01*
X165967608Y-103963342D01*
X166003917Y-103953923D01*
X166042408Y-103950743D01*
X166086196Y-103955001D01*
X166125690Y-103967445D01*
X166161835Y-103988124D01*
X166195274Y-104017788D01*
X166222819Y-104053093D01*
X166242500Y-104092465D01*
X166254594Y-104136700D01*
X166258792Y-104186865D01*
X166255323Y-104233456D01*
X166245130Y-104276793D01*
X166228285Y-104317476D01*
X166204525Y-104355988D01*
X166250000Y-104355988D01*
G37*
G36*
X166250000Y-103180691D02*
G01*
X166250000Y-103863503D01*
X166076389Y-103863503D01*
X166076389Y-103808136D01*
X165707780Y-103808136D01*
X165707780Y-103864510D01*
X165534856Y-103864510D01*
X165534856Y-103180691D01*
X165766078Y-103180691D01*
X165766078Y-103370605D01*
X165707780Y-103370605D01*
X165707780Y-103529562D01*
X165816224Y-103529562D01*
X165816224Y-103388695D01*
X165962770Y-103388695D01*
X165962770Y-103529562D01*
X166077076Y-103529562D01*
X166077076Y-103370605D01*
X166019282Y-103370605D01*
X166019282Y-103180691D01*
X166250000Y-103180691D01*
G37*
G36*
X166250000Y-102526914D02*
G01*
X166250000Y-102930006D01*
X166076389Y-102930006D01*
X166076389Y-102868503D01*
X165707780Y-102868503D01*
X165707780Y-102947546D01*
X165836741Y-102947546D01*
X165836741Y-103084200D01*
X165534856Y-103084200D01*
X165534856Y-102374781D01*
X165836741Y-102374781D01*
X165836741Y-102511435D01*
X165707780Y-102511435D01*
X165707780Y-102589975D01*
X166076389Y-102589975D01*
X166076389Y-102526914D01*
X166250000Y-102526914D01*
G37*
G36*
X127338518Y-104000000D02*
G01*
X126909322Y-104000000D01*
X126909322Y-103833075D01*
X127010759Y-103833075D01*
X127010759Y-103514109D01*
X126981954Y-103518925D01*
X126936387Y-103520887D01*
X126909322Y-103519146D01*
X126909322Y-103357992D01*
X126923610Y-103358633D01*
X126967549Y-103355680D01*
X127008684Y-103346994D01*
X127047487Y-103332667D01*
X127084594Y-103312580D01*
X127111763Y-103291510D01*
X127130835Y-103269515D01*
X127240149Y-103269515D01*
X127240149Y-103832983D01*
X127338518Y-103832983D01*
X127338518Y-104000000D01*
G37*
G36*
X127810258Y-104000000D02*
G01*
X127551650Y-104000000D01*
X127551650Y-103809490D01*
X127810258Y-103809490D01*
X127810258Y-104000000D01*
G37*
G36*
X128380092Y-103774319D02*
G01*
X128530576Y-103774319D01*
X128524347Y-104000000D01*
X127954330Y-104000000D01*
X127953277Y-103976461D01*
X127958263Y-103910961D01*
X127972766Y-103851545D01*
X127996508Y-103797171D01*
X128022116Y-103757584D01*
X128057645Y-103716342D01*
X128099613Y-103677179D01*
X128152671Y-103635513D01*
X128237487Y-103569327D01*
X128273846Y-103535175D01*
X128289316Y-103513141D01*
X128297895Y-103492272D01*
X128300636Y-103471977D01*
X128295948Y-103443573D01*
X128282547Y-103421648D01*
X128269289Y-103411206D01*
X128251672Y-103404540D01*
X128228325Y-103402093D01*
X128200577Y-103406039D01*
X128180064Y-103416960D01*
X128164919Y-103434975D01*
X128154779Y-103462092D01*
X128150885Y-103501790D01*
X127964497Y-103496111D01*
X127970285Y-103445864D01*
X127981864Y-103404574D01*
X127998532Y-103370717D01*
X128020049Y-103343083D01*
X128046654Y-103320852D01*
X128085774Y-103299461D01*
X128130432Y-103283650D01*
X128181532Y-103273700D01*
X128240140Y-103270202D01*
X128304119Y-103274284D01*
X128359029Y-103285832D01*
X128406257Y-103304100D01*
X128446953Y-103328774D01*
X128482376Y-103361421D01*
X128506785Y-103397504D01*
X128521424Y-103437766D01*
X128526454Y-103483472D01*
X128522046Y-103523045D01*
X128508825Y-103560580D01*
X128486154Y-103596907D01*
X128455460Y-103628099D01*
X128405344Y-103664755D01*
X128329396Y-103707824D01*
X128244546Y-103753128D01*
X128204603Y-103778761D01*
X128176095Y-103805420D01*
X128156976Y-103832937D01*
X128377527Y-103832937D01*
X128380092Y-103774319D01*
G37*
G36*
X129122712Y-104005861D02*
G01*
X128898909Y-104005861D01*
X128671397Y-103457780D01*
X128618137Y-103457780D01*
X128618137Y-103284856D01*
X129004330Y-103284856D01*
X129004330Y-103457780D01*
X128944476Y-103457780D01*
X129048477Y-103756779D01*
X129157517Y-103457780D01*
X129099768Y-103457780D01*
X129099768Y-103284856D01*
X129390112Y-103284856D01*
X129390112Y-103457780D01*
X129336898Y-103457780D01*
X129122712Y-104005861D01*
G37*
G36*
X131336137Y-109254306D02*
G01*
X131263367Y-109254306D01*
X131263367Y-109116050D01*
X131584989Y-109116050D01*
X131582702Y-109195980D01*
X131576797Y-109252858D01*
X131568549Y-109291767D01*
X131554854Y-109326996D01*
X131533001Y-109364108D01*
X131501596Y-109403600D01*
X131465908Y-109437867D01*
X131425759Y-109465181D01*
X131380604Y-109485894D01*
X131332703Y-109500121D01*
X131282131Y-109508779D01*
X131228471Y-109511723D01*
X131148820Y-109507053D01*
X131076018Y-109493489D01*
X131009156Y-109471469D01*
X130961956Y-109448348D01*
X130921065Y-109419122D01*
X130885802Y-109383550D01*
X130855787Y-109341043D01*
X130832048Y-109295534D01*
X130815075Y-109247471D01*
X130804759Y-109196379D01*
X130801245Y-109141695D01*
X130805965Y-109075336D01*
X130819567Y-109016263D01*
X130841568Y-108963334D01*
X130871987Y-108915630D01*
X130911337Y-108872509D01*
X130956910Y-108835690D01*
X131005844Y-108807327D01*
X131058646Y-108786956D01*
X131115999Y-108774485D01*
X131178737Y-108770202D01*
X131245303Y-108774668D01*
X131300423Y-108787115D01*
X131346050Y-108806526D01*
X131383764Y-108832484D01*
X131383764Y-108784856D01*
X131558336Y-108784856D01*
X131558336Y-109036366D01*
X131384313Y-109036366D01*
X131367052Y-109006993D01*
X131347541Y-108983993D01*
X131325741Y-108966482D01*
X131300976Y-108953664D01*
X131273382Y-108945833D01*
X131242301Y-108943126D01*
X131209362Y-108946170D01*
X131182820Y-108954642D01*
X131161353Y-108968039D01*
X131144070Y-108986540D01*
X131128810Y-109017751D01*
X131117611Y-109068709D01*
X131113112Y-109147420D01*
X131117853Y-109225620D01*
X131129600Y-109275561D01*
X131145581Y-109305643D01*
X131170224Y-109328550D01*
X131201437Y-109342580D01*
X131241294Y-109347592D01*
X131277316Y-109343380D01*
X131302816Y-109332119D01*
X131320605Y-109314531D01*
X131331921Y-109289493D01*
X131336137Y-109254306D01*
G37*
G36*
X131965688Y-109500000D02*
G01*
X131670215Y-109500000D01*
X131670215Y-109326389D01*
X131732680Y-109326389D01*
X131732680Y-108957780D01*
X131670215Y-108957780D01*
X131670215Y-108784856D01*
X132010064Y-108784856D01*
X132267068Y-109153877D01*
X132267068Y-108957780D01*
X132209183Y-108957780D01*
X132209183Y-108784856D01*
X132499526Y-108784856D01*
X132499526Y-108957780D01*
X132437519Y-108957780D01*
X132437519Y-109508792D01*
X132200619Y-109508792D01*
X131902673Y-109081154D01*
X131902673Y-109326297D01*
X131965688Y-109326297D01*
X131965688Y-109500000D01*
G37*
G36*
X133040063Y-108788874D02*
G01*
X133119323Y-108799236D01*
X133167822Y-108812100D01*
X133214516Y-108831699D01*
X133259778Y-108858358D01*
X133299877Y-108891687D01*
X133334108Y-108932207D01*
X133362726Y-108980770D01*
X133378965Y-109018844D01*
X133390982Y-109059904D01*
X133398292Y-109102713D01*
X133400782Y-109148336D01*
X133396248Y-109209360D01*
X133382975Y-109265624D01*
X133361123Y-109317962D01*
X133331815Y-109366023D01*
X133298734Y-109404536D01*
X133261793Y-109434695D01*
X133221331Y-109458689D01*
X133178591Y-109476304D01*
X133133153Y-109487726D01*
X133054354Y-109496357D01*
X132918739Y-109500000D01*
X132585805Y-109500000D01*
X132585805Y-109327076D01*
X132920204Y-109327076D01*
X132944888Y-109327076D01*
X132993674Y-109323054D01*
X133028716Y-109312451D01*
X133053413Y-109296682D01*
X133070139Y-109275968D01*
X133085374Y-109240508D01*
X133095127Y-109197779D01*
X133098623Y-109146275D01*
X133095576Y-109099564D01*
X133086396Y-109053218D01*
X133075412Y-109024274D01*
X133060543Y-109001035D01*
X133041791Y-108982602D01*
X133019196Y-108970212D01*
X132983338Y-108961314D01*
X132928997Y-108957780D01*
X132920204Y-108957780D01*
X132920204Y-109327076D01*
X132585805Y-109327076D01*
X132585805Y-109326572D01*
X132641630Y-109326572D01*
X132641630Y-108958284D01*
X132585805Y-108958284D01*
X132585805Y-108784856D01*
X132928447Y-108784856D01*
X133040063Y-108788874D01*
G37*
G36*
X141547077Y-100754077D02*
G01*
X141734473Y-100740385D01*
X141740973Y-100784137D01*
X141754751Y-100814774D01*
X141774853Y-100835717D01*
X141802148Y-100848711D01*
X141839115Y-100853454D01*
X141867082Y-100850503D01*
X141888005Y-100842488D01*
X141903596Y-100829961D01*
X141918957Y-100804164D01*
X141924204Y-100772808D01*
X141919755Y-100742540D01*
X141907268Y-100719519D01*
X141886365Y-100701906D01*
X141854600Y-100689420D01*
X141807929Y-100683415D01*
X141807929Y-100566224D01*
X141843324Y-100561022D01*
X141876164Y-100545296D01*
X141893103Y-100529741D01*
X141903226Y-100510126D01*
X141906801Y-100485120D01*
X141901599Y-100455398D01*
X141886743Y-100433005D01*
X141863490Y-100418839D01*
X141832429Y-100413817D01*
X141805876Y-100417229D01*
X141785970Y-100426634D01*
X141771032Y-100441865D01*
X141760467Y-100464173D01*
X141754897Y-100495974D01*
X141559351Y-100484067D01*
X141567450Y-100431436D01*
X141584231Y-100388132D01*
X141609249Y-100352354D01*
X141643065Y-100322958D01*
X141682073Y-100301137D01*
X141728954Y-100284638D01*
X141785172Y-100274013D01*
X141852442Y-100270202D01*
X141924531Y-100274504D01*
X141982252Y-100286284D01*
X142028171Y-100304235D01*
X142064429Y-100327629D01*
X142096060Y-100359436D01*
X142117792Y-100393567D01*
X142130734Y-100430633D01*
X142135138Y-100471611D01*
X142131753Y-100504836D01*
X142121815Y-100535018D01*
X142105187Y-100562881D01*
X142083118Y-100587179D01*
X142057996Y-100605129D01*
X142029350Y-100617286D01*
X142066574Y-100629548D01*
X142098016Y-100648771D01*
X142124605Y-100675309D01*
X142144488Y-100707160D01*
X142156586Y-100743324D01*
X142160783Y-100784944D01*
X142155291Y-100834221D01*
X142139430Y-100876727D01*
X142113145Y-100913991D01*
X142075100Y-100946877D01*
X142031530Y-100971549D01*
X141980467Y-100989973D01*
X141920600Y-101001698D01*
X141850381Y-101005861D01*
X141779506Y-101001438D01*
X141720396Y-100989093D01*
X141671140Y-100969851D01*
X141630150Y-100944221D01*
X141602590Y-100918279D01*
X141580498Y-100887202D01*
X141563662Y-100850236D01*
X141552307Y-100806306D01*
X141547077Y-100754077D01*
G37*
G36*
X142560258Y-101000000D02*
G01*
X142301650Y-101000000D01*
X142301650Y-100809490D01*
X142560258Y-100809490D01*
X142560258Y-101000000D01*
G37*
G36*
X142684272Y-100754077D02*
G01*
X142871667Y-100740385D01*
X142878168Y-100784137D01*
X142891945Y-100814774D01*
X142912048Y-100835717D01*
X142939343Y-100848711D01*
X142976310Y-100853454D01*
X143004277Y-100850503D01*
X143025200Y-100842488D01*
X143040790Y-100829961D01*
X143056151Y-100804164D01*
X143061398Y-100772808D01*
X143056949Y-100742540D01*
X143044463Y-100719519D01*
X143023560Y-100701906D01*
X142991795Y-100689420D01*
X142945123Y-100683415D01*
X142945123Y-100566224D01*
X142980519Y-100561022D01*
X143013359Y-100545296D01*
X143030298Y-100529741D01*
X143040421Y-100510126D01*
X143043996Y-100485120D01*
X143038794Y-100455398D01*
X143023937Y-100433005D01*
X143000685Y-100418839D01*
X142969624Y-100413817D01*
X142943071Y-100417229D01*
X142923165Y-100426634D01*
X142908227Y-100441865D01*
X142897661Y-100464173D01*
X142892092Y-100495974D01*
X142696545Y-100484067D01*
X142704645Y-100431436D01*
X142721426Y-100388132D01*
X142746443Y-100352354D01*
X142780259Y-100322958D01*
X142819268Y-100301137D01*
X142866149Y-100284638D01*
X142922367Y-100274013D01*
X142989637Y-100270202D01*
X143061725Y-100274504D01*
X143119446Y-100286284D01*
X143165366Y-100304235D01*
X143201624Y-100327629D01*
X143233254Y-100359436D01*
X143254987Y-100393567D01*
X143267928Y-100430633D01*
X143272332Y-100471611D01*
X143268948Y-100504836D01*
X143259009Y-100535018D01*
X143242382Y-100562881D01*
X143220312Y-100587179D01*
X143195191Y-100605129D01*
X143166545Y-100617286D01*
X143203769Y-100629548D01*
X143235211Y-100648771D01*
X143261799Y-100675309D01*
X143281683Y-100707160D01*
X143293781Y-100743324D01*
X143297978Y-100784944D01*
X143292485Y-100834221D01*
X143276625Y-100876727D01*
X143250340Y-100913991D01*
X143212295Y-100946877D01*
X143168724Y-100971549D01*
X143117661Y-100989973D01*
X143057795Y-101001698D01*
X142987576Y-101005861D01*
X142916701Y-101001438D01*
X142857591Y-100989093D01*
X142808334Y-100969851D01*
X142767345Y-100944221D01*
X142739785Y-100918279D01*
X142717692Y-100887202D01*
X142700857Y-100850236D01*
X142689502Y-100806306D01*
X142684272Y-100754077D01*
G37*
G36*
X143872712Y-101005861D02*
G01*
X143648909Y-101005861D01*
X143421397Y-100457780D01*
X143368137Y-100457780D01*
X143368137Y-100284856D01*
X143754330Y-100284856D01*
X143754330Y-100457780D01*
X143694476Y-100457780D01*
X143798477Y-100756779D01*
X143907517Y-100457780D01*
X143849768Y-100457780D01*
X143849768Y-100284856D01*
X144140112Y-100284856D01*
X144140112Y-100457780D01*
X144086898Y-100457780D01*
X143872712Y-101005861D01*
G37*
G36*
X142088518Y-103500000D02*
G01*
X141659322Y-103500000D01*
X141659322Y-103333075D01*
X141760759Y-103333075D01*
X141760759Y-103014109D01*
X141731954Y-103018925D01*
X141686387Y-103020887D01*
X141659322Y-103019146D01*
X141659322Y-102857992D01*
X141673610Y-102858633D01*
X141717549Y-102855680D01*
X141758684Y-102846994D01*
X141797487Y-102832667D01*
X141834594Y-102812580D01*
X141861763Y-102791510D01*
X141880835Y-102769515D01*
X141990149Y-102769515D01*
X141990149Y-103332983D01*
X142088518Y-103332983D01*
X142088518Y-103500000D01*
G37*
G36*
X142560258Y-103500000D02*
G01*
X142301650Y-103500000D01*
X142301650Y-103309490D01*
X142560258Y-103309490D01*
X142560258Y-103500000D01*
G37*
G36*
X142678868Y-103306605D02*
G01*
X142867088Y-103294790D01*
X142882269Y-103320572D01*
X142902276Y-103338430D01*
X142927905Y-103349480D01*
X142960923Y-103353454D01*
X142987471Y-103350846D01*
X143010316Y-103343366D01*
X143030211Y-103331151D01*
X143044696Y-103314502D01*
X143053922Y-103291883D01*
X143057322Y-103261313D01*
X143053935Y-103231474D01*
X143044727Y-103209356D01*
X143030211Y-103193032D01*
X143000388Y-103177133D01*
X142965548Y-103171737D01*
X142929451Y-103176376D01*
X142897863Y-103189958D01*
X142869607Y-103212999D01*
X142712482Y-103157586D01*
X142734098Y-102784856D01*
X143262120Y-102784856D01*
X143262120Y-102974954D01*
X143139251Y-102974954D01*
X143122306Y-102931402D01*
X142870110Y-102931402D01*
X142864157Y-103067919D01*
X142910230Y-103045650D01*
X142963659Y-103031737D01*
X143025998Y-103026840D01*
X143083721Y-103031030D01*
X143134326Y-103043026D01*
X143178957Y-103062320D01*
X143218523Y-103088893D01*
X143251763Y-103122646D01*
X143275326Y-103161557D01*
X143289831Y-103206653D01*
X143294910Y-103259481D01*
X143289784Y-103310621D01*
X143274846Y-103356282D01*
X143250054Y-103397666D01*
X143214447Y-103435565D01*
X143172454Y-103465010D01*
X143122137Y-103486904D01*
X143061862Y-103500870D01*
X142989591Y-103505861D01*
X142926028Y-103502185D01*
X142870700Y-103491738D01*
X142822453Y-103475175D01*
X142780305Y-103452830D01*
X142742528Y-103423512D01*
X142713528Y-103389761D01*
X142692398Y-103351096D01*
X142678868Y-103306605D01*
G37*
G36*
X143872712Y-103505861D02*
G01*
X143648909Y-103505861D01*
X143421397Y-102957780D01*
X143368137Y-102957780D01*
X143368137Y-102784856D01*
X143754330Y-102784856D01*
X143754330Y-102957780D01*
X143694476Y-102957780D01*
X143798477Y-103256779D01*
X143907517Y-102957780D01*
X143849768Y-102957780D01*
X143849768Y-102784856D01*
X144140112Y-102784856D01*
X144140112Y-102957780D01*
X144086898Y-102957780D01*
X143872712Y-103505861D01*
G37*
G36*
X145847265Y-125750000D02*
G01*
X145444173Y-125750000D01*
X145444173Y-125576389D01*
X145505676Y-125576389D01*
X145505676Y-125207780D01*
X145426633Y-125207780D01*
X145426633Y-125336741D01*
X145289979Y-125336741D01*
X145289979Y-125034856D01*
X145999398Y-125034856D01*
X145999398Y-125336741D01*
X145862744Y-125336741D01*
X145862744Y-125207780D01*
X145784204Y-125207780D01*
X145784204Y-125576389D01*
X145847265Y-125576389D01*
X145847265Y-125750000D01*
G37*
G36*
X146479976Y-125750000D02*
G01*
X146064107Y-125750000D01*
X146064107Y-125576572D01*
X146144982Y-125576572D01*
X146376799Y-125395771D01*
X146144982Y-125208284D01*
X146068183Y-125208284D01*
X146068183Y-125034856D01*
X146545555Y-125034856D01*
X146545555Y-125188134D01*
X146476770Y-125188134D01*
X146592725Y-125289296D01*
X146695261Y-125188134D01*
X146635864Y-125188134D01*
X146635864Y-125034856D01*
X147034331Y-125034856D01*
X147034331Y-125208284D01*
X146926849Y-125208284D01*
X146736477Y-125367607D01*
X146989360Y-125576572D01*
X147061488Y-125576572D01*
X147061488Y-125750000D01*
X146578986Y-125750000D01*
X146578986Y-125596584D01*
X146651480Y-125596584D01*
X146523665Y-125480905D01*
X146406245Y-125596584D01*
X146479976Y-125596584D01*
X146479976Y-125750000D01*
G37*
G36*
X152281777Y-125036642D02*
G01*
X152358210Y-125041772D01*
X152416782Y-125050747D01*
X152464567Y-125065836D01*
X152504919Y-125088882D01*
X152539011Y-125120082D01*
X152565392Y-125158939D01*
X152581124Y-125201760D01*
X152586501Y-125249821D01*
X152583233Y-125286349D01*
X152573618Y-125320059D01*
X152557604Y-125351578D01*
X152536171Y-125378317D01*
X152511465Y-125399317D01*
X152483140Y-125415097D01*
X152580227Y-125576160D01*
X152632113Y-125576160D01*
X152632113Y-125750000D01*
X152373094Y-125750000D01*
X152217847Y-125459839D01*
X152132575Y-125459839D01*
X152132575Y-125576938D01*
X152186385Y-125576938D01*
X152186385Y-125750000D01*
X151796116Y-125750000D01*
X151796116Y-125576389D01*
X151854001Y-125576389D01*
X151854001Y-125327948D01*
X152132575Y-125327948D01*
X152161839Y-125327948D01*
X152243584Y-125324330D01*
X152264364Y-125317489D01*
X152281686Y-125303997D01*
X152293071Y-125285970D01*
X152297165Y-125260857D01*
X152293087Y-125235621D01*
X152281686Y-125217168D01*
X152264156Y-125203940D01*
X152242027Y-125197064D01*
X152213726Y-125194354D01*
X152156206Y-125193126D01*
X152132575Y-125193126D01*
X152132575Y-125327948D01*
X151854001Y-125327948D01*
X151854001Y-125207780D01*
X151796116Y-125207780D01*
X151796116Y-125034856D01*
X152184874Y-125034856D01*
X152281777Y-125036642D01*
G37*
G36*
X153089153Y-125750000D02*
G01*
X152673283Y-125750000D01*
X152673283Y-125576572D01*
X152754158Y-125576572D01*
X152985975Y-125395771D01*
X152754158Y-125208284D01*
X152677359Y-125208284D01*
X152677359Y-125034856D01*
X153154732Y-125034856D01*
X153154732Y-125188134D01*
X153085947Y-125188134D01*
X153201901Y-125289296D01*
X153304437Y-125188134D01*
X153245040Y-125188134D01*
X153245040Y-125034856D01*
X153643507Y-125034856D01*
X153643507Y-125208284D01*
X153536025Y-125208284D01*
X153345653Y-125367607D01*
X153598536Y-125576572D01*
X153670664Y-125576572D01*
X153670664Y-125750000D01*
X153188162Y-125750000D01*
X153188162Y-125596584D01*
X153260657Y-125596584D01*
X153132841Y-125480905D01*
X153015422Y-125596584D01*
X153089153Y-125596584D01*
X153089153Y-125750000D01*
G37*
D11*
G36*
X139238868Y-138583169D02*
G01*
X139629046Y-138671188D01*
X139597387Y-138752146D01*
X139552569Y-138822451D01*
X139493934Y-138883527D01*
X139419852Y-138936069D01*
X139338115Y-138975392D01*
X139245492Y-139004537D01*
X139140344Y-139022876D01*
X139020790Y-139029309D01*
X138862390Y-139019169D01*
X138729624Y-138990785D01*
X138618337Y-138946383D01*
X138525099Y-138886976D01*
X138459272Y-138825482D01*
X138409135Y-138757620D01*
X138373285Y-138682538D01*
X138351277Y-138598837D01*
X138343657Y-138504675D01*
X138354576Y-138392934D01*
X138386210Y-138294344D01*
X138438350Y-138206168D01*
X138512734Y-138126587D01*
X138600425Y-138063376D01*
X138698446Y-138017889D01*
X138808727Y-137989806D01*
X138933778Y-137980041D01*
X139042900Y-137986354D01*
X139131336Y-138003722D01*
X139202626Y-138030305D01*
X139259751Y-138065038D01*
X139259751Y-137997627D01*
X139580137Y-137997627D01*
X139580137Y-138431402D01*
X139260575Y-138431402D01*
X139223102Y-138351725D01*
X139178553Y-138300616D01*
X139126737Y-138271367D01*
X139064937Y-138261409D01*
X139006794Y-138269675D01*
X138960010Y-138293291D01*
X138921780Y-138333033D01*
X138894191Y-138384644D01*
X138877112Y-138444072D01*
X138871130Y-138513101D01*
X138877899Y-138587918D01*
X138896569Y-138647111D01*
X138925810Y-138693994D01*
X138965224Y-138730630D01*
X139010892Y-138752225D01*
X139064937Y-138759665D01*
X139116323Y-138752804D01*
X139157797Y-138733278D01*
X139191789Y-138700726D01*
X139219123Y-138652310D01*
X139238868Y-138583169D01*
G37*
G36*
X140628186Y-137984314D02*
G01*
X140764796Y-138013018D01*
X140882670Y-138058491D01*
X140984594Y-138119993D01*
X141058030Y-138183852D01*
X141113114Y-138252870D01*
X141151926Y-138327748D01*
X141175455Y-138409777D01*
X141183530Y-138500737D01*
X141175917Y-138588427D01*
X141153610Y-138668713D01*
X141116646Y-138743120D01*
X141064058Y-138812783D01*
X140993936Y-138878367D01*
X140896103Y-138942094D01*
X140782230Y-138989117D01*
X140649403Y-139018807D01*
X140494032Y-139029309D01*
X140356391Y-139022288D01*
X140237722Y-139002464D01*
X140135476Y-138971326D01*
X140047418Y-138929832D01*
X139971688Y-138878367D01*
X139902711Y-138813385D01*
X139850732Y-138743664D01*
X139814010Y-138668492D01*
X139791740Y-138586675D01*
X139784110Y-138496615D01*
X139784142Y-138496249D01*
X140311491Y-138496249D01*
X140320210Y-138590970D01*
X140342719Y-138654888D01*
X140375835Y-138696627D01*
X140419891Y-138721480D01*
X140478645Y-138730355D01*
X140541738Y-138721166D01*
X140588641Y-138695618D01*
X140623515Y-138653176D01*
X140647005Y-138588855D01*
X140656057Y-138494234D01*
X140650507Y-138423020D01*
X140635471Y-138368229D01*
X140612551Y-138326347D01*
X140579353Y-138293719D01*
X140538610Y-138274151D01*
X140487896Y-138267271D01*
X140437562Y-138273946D01*
X140395625Y-138293166D01*
X140360035Y-138325431D01*
X140334461Y-138367203D01*
X140317702Y-138422798D01*
X140311491Y-138496249D01*
X139784142Y-138496249D01*
X139791511Y-138411418D01*
X139813254Y-138332912D01*
X139849381Y-138259668D01*
X139900889Y-138190616D01*
X139969673Y-138125122D01*
X140065456Y-138061682D01*
X140178417Y-138014649D01*
X140311773Y-137984792D01*
X140469486Y-137974180D01*
X140628186Y-137984314D01*
G37*
G36*
X142132322Y-139000000D02*
G01*
X141339509Y-139000000D01*
X141339509Y-138680805D01*
X141467645Y-138680805D01*
X141467645Y-138316822D01*
X141339509Y-138316822D01*
X141339509Y-137997627D01*
X141988890Y-137997627D01*
X141988890Y-138123565D01*
X142085729Y-138059678D01*
X142184530Y-138015266D01*
X142286399Y-137988886D01*
X142392715Y-137980041D01*
X142488377Y-137987638D01*
X142566360Y-138008766D01*
X142630020Y-138041870D01*
X142681868Y-138086745D01*
X142720593Y-138141938D01*
X142750581Y-138214327D01*
X142770497Y-138308129D01*
X142777856Y-138428471D01*
X142777856Y-138681079D01*
X142895733Y-138681079D01*
X142895733Y-139000000D01*
X142256611Y-139000000D01*
X142256611Y-138553676D01*
X142248824Y-138421910D01*
X142232339Y-138363808D01*
X142211465Y-138340599D01*
X142179917Y-138325678D01*
X142133512Y-138320027D01*
X142089668Y-138325155D01*
X142041890Y-138341477D01*
X141988890Y-138371135D01*
X141988890Y-138680347D01*
X142132322Y-138680347D01*
X142132322Y-139000000D01*
G37*
G36*
X143839304Y-138628872D02*
G01*
X143839304Y-138941564D01*
X143780856Y-138972516D01*
X143691568Y-139002472D01*
X143591432Y-139022796D01*
X143498219Y-139029309D01*
X143387021Y-139019108D01*
X143298184Y-138990840D01*
X143244171Y-138960415D01*
X143201582Y-138925006D01*
X143168858Y-138884503D01*
X143133778Y-138814344D01*
X143117200Y-138742995D01*
X143109965Y-138479487D01*
X143109965Y-138314166D01*
X142982928Y-138314166D01*
X142982928Y-137997627D01*
X143109965Y-137997627D01*
X143109965Y-137847875D01*
X143631301Y-137603236D01*
X143631301Y-137997627D01*
X143839304Y-137997627D01*
X143839304Y-138314166D01*
X143631301Y-138314166D01*
X143631301Y-138507789D01*
X143636707Y-138595113D01*
X143648337Y-138635009D01*
X143671098Y-138657269D01*
X143715473Y-138665875D01*
X143766920Y-138657857D01*
X143839304Y-138628872D01*
G37*
G36*
X144834258Y-137980866D02*
G01*
X144983735Y-138000833D01*
X145073925Y-138023150D01*
X145139936Y-138049966D01*
X145186884Y-138080059D01*
X145244354Y-138138558D01*
X145278933Y-138197753D01*
X145297834Y-138271895D01*
X145305769Y-138399162D01*
X145305769Y-138682453D01*
X145432806Y-138682453D01*
X145432806Y-139000000D01*
X144784524Y-139000000D01*
X144784524Y-138932131D01*
X144718986Y-138967363D01*
X144639939Y-138994107D01*
X144544879Y-139011380D01*
X144430891Y-139017585D01*
X144323787Y-139010736D01*
X144237344Y-138991886D01*
X144167868Y-138962932D01*
X144112337Y-138924803D01*
X144063407Y-138874415D01*
X144030039Y-138821581D01*
X144010351Y-138765435D01*
X144003710Y-138704618D01*
X144009441Y-138657907D01*
X144497295Y-138657907D01*
X144507557Y-138713130D01*
X144537412Y-138756001D01*
X144581915Y-138785283D01*
X144631659Y-138794836D01*
X144693227Y-138788628D01*
X144743372Y-138771206D01*
X144784524Y-138743270D01*
X144784524Y-138561553D01*
X144715662Y-138534291D01*
X144641917Y-138525191D01*
X144580867Y-138534886D01*
X144536312Y-138561919D01*
X144507221Y-138604408D01*
X144497295Y-138657907D01*
X144009441Y-138657907D01*
X144011861Y-138638183D01*
X144035869Y-138578722D01*
X144076663Y-138524322D01*
X144137159Y-138473992D01*
X144204390Y-138436506D01*
X144282786Y-138408555D01*
X144374263Y-138390800D01*
X144481083Y-138384508D01*
X144609895Y-138391180D01*
X144709143Y-138409079D01*
X144784524Y-138435615D01*
X144784524Y-138410519D01*
X144780488Y-138325748D01*
X144771427Y-138282383D01*
X144750129Y-138248500D01*
X144709236Y-138217354D01*
X144655761Y-138197906D01*
X144591725Y-138191067D01*
X144532532Y-138197258D01*
X144482423Y-138214943D01*
X144439468Y-138243835D01*
X144402498Y-138285040D01*
X143992994Y-138243640D01*
X144033083Y-138173132D01*
X144082398Y-138115463D01*
X144141458Y-138069151D01*
X144211531Y-138033531D01*
X144311971Y-138003340D01*
X144452836Y-137982242D01*
X144645031Y-137974180D01*
X144834258Y-137980866D01*
G37*
G36*
X146473830Y-138583169D02*
G01*
X146864008Y-138671188D01*
X146832349Y-138752146D01*
X146787530Y-138822451D01*
X146728896Y-138883527D01*
X146654814Y-138936069D01*
X146573077Y-138975392D01*
X146480453Y-139004537D01*
X146375306Y-139022876D01*
X146255752Y-139029309D01*
X146097351Y-139019169D01*
X145964586Y-138990785D01*
X145853298Y-138946383D01*
X145760061Y-138886976D01*
X145694234Y-138825482D01*
X145644096Y-138757620D01*
X145608246Y-138682538D01*
X145586238Y-138598837D01*
X145578619Y-138504675D01*
X145589538Y-138392934D01*
X145621172Y-138294344D01*
X145673311Y-138206168D01*
X145747696Y-138126587D01*
X145835387Y-138063376D01*
X145933407Y-138017889D01*
X146043689Y-137989806D01*
X146168740Y-137980041D01*
X146277861Y-137986354D01*
X146366298Y-138003722D01*
X146437587Y-138030305D01*
X146494713Y-138065038D01*
X146494713Y-137997627D01*
X146815098Y-137997627D01*
X146815098Y-138431402D01*
X146495537Y-138431402D01*
X146458064Y-138351725D01*
X146413514Y-138300616D01*
X146361699Y-138271367D01*
X146299898Y-138261409D01*
X146241755Y-138269675D01*
X146194971Y-138293291D01*
X146156742Y-138333033D01*
X146129153Y-138384644D01*
X146112073Y-138444072D01*
X146106092Y-138513101D01*
X146112860Y-138587918D01*
X146131531Y-138647111D01*
X146160772Y-138693994D01*
X146200186Y-138730630D01*
X146245853Y-138752225D01*
X146299898Y-138759665D01*
X146351285Y-138752804D01*
X146392759Y-138733278D01*
X146426751Y-138700726D01*
X146454085Y-138652310D01*
X146473830Y-138583169D01*
G37*
G36*
X147818020Y-138628872D02*
G01*
X147818020Y-138941564D01*
X147759572Y-138972516D01*
X147670284Y-139002472D01*
X147570148Y-139022796D01*
X147476935Y-139029309D01*
X147365737Y-139019108D01*
X147276900Y-138990840D01*
X147222887Y-138960415D01*
X147180298Y-138925006D01*
X147147574Y-138884503D01*
X147112494Y-138814344D01*
X147095916Y-138742995D01*
X147088681Y-138479487D01*
X147088681Y-138314166D01*
X146961644Y-138314166D01*
X146961644Y-137997627D01*
X147088681Y-137997627D01*
X147088681Y-137847875D01*
X147610017Y-137603236D01*
X147610017Y-137997627D01*
X147818020Y-137997627D01*
X147818020Y-138314166D01*
X147610017Y-138314166D01*
X147610017Y-138507789D01*
X147615423Y-138595113D01*
X147627053Y-138635009D01*
X147649814Y-138657269D01*
X147694189Y-138665875D01*
X147745636Y-138657857D01*
X147818020Y-138628872D01*
G37*
G36*
X148677877Y-139000000D02*
G01*
X147959895Y-139000000D01*
X147959895Y-138681812D01*
X148065408Y-138681812D01*
X148065408Y-137887901D01*
X147959895Y-137887901D01*
X147959895Y-137569713D01*
X148586653Y-137569713D01*
X148586653Y-138681812D01*
X148677877Y-138681812D01*
X148677877Y-139000000D01*
G37*
G36*
X149675918Y-137984314D02*
G01*
X149812528Y-138013018D01*
X149930402Y-138058491D01*
X150032326Y-138119993D01*
X150105762Y-138183852D01*
X150160846Y-138252870D01*
X150199658Y-138327748D01*
X150223187Y-138409777D01*
X150231262Y-138500737D01*
X150223649Y-138588427D01*
X150201342Y-138668713D01*
X150164378Y-138743120D01*
X150111790Y-138812783D01*
X150041668Y-138878367D01*
X149943835Y-138942094D01*
X149829962Y-138989117D01*
X149697135Y-139018807D01*
X149541764Y-139029309D01*
X149404123Y-139022288D01*
X149285454Y-139002464D01*
X149183208Y-138971326D01*
X149095150Y-138929832D01*
X149019420Y-138878367D01*
X148950443Y-138813385D01*
X148898464Y-138743664D01*
X148861742Y-138668492D01*
X148839472Y-138586675D01*
X148831842Y-138496615D01*
X148831874Y-138496249D01*
X149359223Y-138496249D01*
X149367942Y-138590970D01*
X149390451Y-138654888D01*
X149423567Y-138696627D01*
X149467623Y-138721480D01*
X149526377Y-138730355D01*
X149589470Y-138721166D01*
X149636373Y-138695618D01*
X149671247Y-138653176D01*
X149694737Y-138588855D01*
X149703789Y-138494234D01*
X149698239Y-138423020D01*
X149683203Y-138368229D01*
X149660283Y-138326347D01*
X149627085Y-138293719D01*
X149586342Y-138274151D01*
X149535628Y-138267271D01*
X149485294Y-138273946D01*
X149443357Y-138293166D01*
X149407767Y-138325431D01*
X149382193Y-138367203D01*
X149365434Y-138422798D01*
X149359223Y-138496249D01*
X148831874Y-138496249D01*
X148839243Y-138411418D01*
X148860986Y-138332912D01*
X148897113Y-138259668D01*
X148948621Y-138190616D01*
X149017405Y-138125122D01*
X149113188Y-138061682D01*
X149226149Y-138014649D01*
X149359506Y-137984792D01*
X149517218Y-137974180D01*
X149675918Y-137984314D01*
G37*
G36*
X151069317Y-137989470D02*
G01*
X151176424Y-138016450D01*
X151270546Y-138059909D01*
X151270546Y-137997627D01*
X151913698Y-137997627D01*
X151913698Y-138316455D01*
X151789775Y-138316455D01*
X151789775Y-138859499D01*
X151785345Y-138982428D01*
X151773654Y-139074434D01*
X151756803Y-139141599D01*
X151728412Y-139204059D01*
X151688149Y-139260346D01*
X151634895Y-139311226D01*
X151573401Y-139354719D01*
X151500877Y-139390162D01*
X151415626Y-139417197D01*
X151327733Y-139434913D01*
X151214057Y-139446910D01*
X151069503Y-139451360D01*
X150897678Y-139445132D01*
X150724755Y-139424524D01*
X150569936Y-139393871D01*
X150480206Y-139366181D01*
X150624554Y-139107253D01*
X150707396Y-139133914D01*
X150813415Y-139151705D01*
X150947596Y-139158269D01*
X151035760Y-139153420D01*
X151103305Y-139140433D01*
X151154317Y-139121174D01*
X151201417Y-139093513D01*
X151232150Y-139065426D01*
X151250304Y-139036728D01*
X151264816Y-138982887D01*
X151270546Y-138902089D01*
X151167523Y-138941693D01*
X151054015Y-138966102D01*
X150928178Y-138974537D01*
X150817835Y-138966088D01*
X150719506Y-138941693D01*
X150631177Y-138902049D01*
X150551281Y-138846859D01*
X150483667Y-138777986D01*
X150435591Y-138698070D01*
X150405906Y-138604917D01*
X150396564Y-138506598D01*
X150922866Y-138506598D01*
X150928289Y-138565724D01*
X150943659Y-138615521D01*
X150968387Y-138657815D01*
X151002459Y-138691360D01*
X151044530Y-138711525D01*
X151097164Y-138718632D01*
X151153069Y-138711233D01*
X151195964Y-138690602D01*
X151229055Y-138656808D01*
X151252582Y-138614691D01*
X151267329Y-138564554D01*
X151272561Y-138504492D01*
X151266878Y-138439094D01*
X151251014Y-138385694D01*
X151225941Y-138341918D01*
X151190607Y-138306777D01*
X151149085Y-138286123D01*
X151099270Y-138278995D01*
X151045645Y-138286637D01*
X151002913Y-138308398D01*
X150968387Y-138344940D01*
X150943677Y-138390534D01*
X150928288Y-138443829D01*
X150922866Y-138506598D01*
X150396564Y-138506598D01*
X150395485Y-138495241D01*
X150406264Y-138379414D01*
X150437069Y-138280091D01*
X150487051Y-138194046D01*
X150557326Y-138119077D01*
X150641413Y-138058554D01*
X150733216Y-138015445D01*
X150834271Y-137989112D01*
X150946588Y-137980041D01*
X151069317Y-137989470D01*
G37*
G36*
X152879618Y-137980866D02*
G01*
X153029094Y-138000833D01*
X153119284Y-138023150D01*
X153185295Y-138049966D01*
X153232243Y-138080059D01*
X153289713Y-138138558D01*
X153324292Y-138197753D01*
X153343193Y-138271895D01*
X153351128Y-138399162D01*
X153351128Y-138682453D01*
X153478165Y-138682453D01*
X153478165Y-139000000D01*
X152829884Y-139000000D01*
X152829884Y-138932131D01*
X152764345Y-138967363D01*
X152685299Y-138994107D01*
X152590238Y-139011380D01*
X152476251Y-139017585D01*
X152369147Y-139010736D01*
X152282703Y-138991886D01*
X152213227Y-138962932D01*
X152157697Y-138924803D01*
X152108766Y-138874415D01*
X152075398Y-138821581D01*
X152055711Y-138765435D01*
X152049070Y-138704618D01*
X152054800Y-138657907D01*
X152542654Y-138657907D01*
X152552917Y-138713130D01*
X152582771Y-138756001D01*
X152627275Y-138785283D01*
X152677018Y-138794836D01*
X152738587Y-138788628D01*
X152788731Y-138771206D01*
X152829884Y-138743270D01*
X152829884Y-138561553D01*
X152761022Y-138534291D01*
X152687276Y-138525191D01*
X152626226Y-138534886D01*
X152581672Y-138561919D01*
X152552581Y-138604408D01*
X152542654Y-138657907D01*
X152054800Y-138657907D01*
X152057220Y-138638183D01*
X152081229Y-138578722D01*
X152122022Y-138524322D01*
X152182518Y-138473992D01*
X152249750Y-138436506D01*
X152328145Y-138408555D01*
X152419622Y-138390800D01*
X152526442Y-138384508D01*
X152655254Y-138391180D01*
X152754503Y-138409079D01*
X152829884Y-138435615D01*
X152829884Y-138410519D01*
X152825847Y-138325748D01*
X152816786Y-138282383D01*
X152795489Y-138248500D01*
X152754596Y-138217354D01*
X152701121Y-138197906D01*
X152637084Y-138191067D01*
X152577891Y-138197258D01*
X152527783Y-138214943D01*
X152484828Y-138243835D01*
X152447857Y-138285040D01*
X152038354Y-138243640D01*
X152078443Y-138173132D01*
X152127758Y-138115463D01*
X152186817Y-138069151D01*
X152256890Y-138033531D01*
X152357330Y-138003340D01*
X152498195Y-137982242D01*
X152690390Y-137974180D01*
X152879618Y-137980866D01*
G37*
G36*
X154395267Y-139000000D02*
G01*
X153602454Y-139000000D01*
X153602454Y-138680805D01*
X153730590Y-138680805D01*
X153730590Y-138316822D01*
X153602454Y-138316822D01*
X153602454Y-137997627D01*
X154251835Y-137997627D01*
X154251835Y-138123565D01*
X154348674Y-138059678D01*
X154447475Y-138015266D01*
X154549344Y-137988886D01*
X154655660Y-137980041D01*
X154751321Y-137987638D01*
X154829305Y-138008766D01*
X154892965Y-138041870D01*
X154944813Y-138086745D01*
X154983538Y-138141938D01*
X155013526Y-138214327D01*
X155033442Y-138308129D01*
X155040800Y-138428471D01*
X155040800Y-138681079D01*
X155158678Y-138681079D01*
X155158678Y-139000000D01*
X154519556Y-139000000D01*
X154519556Y-138553676D01*
X154511769Y-138421910D01*
X154495284Y-138363808D01*
X154474410Y-138340599D01*
X154442862Y-138325678D01*
X154396457Y-138320027D01*
X154352613Y-138325155D01*
X154304835Y-138341477D01*
X154251835Y-138371135D01*
X154251835Y-138680347D01*
X154395267Y-138680347D01*
X154395267Y-139000000D01*
G37*
G36*
X156374112Y-137989329D02*
G01*
X156472871Y-138016431D01*
X156563513Y-138061120D01*
X156647491Y-138124389D01*
X156716519Y-138202188D01*
X156765548Y-138290061D01*
X156795648Y-138390020D01*
X156806127Y-138504950D01*
X156795654Y-138621237D01*
X156765832Y-138720399D01*
X156717695Y-138805713D01*
X156650422Y-138879466D01*
X156568635Y-138938525D01*
X156475147Y-138981435D01*
X156367785Y-139008197D01*
X156243758Y-139017585D01*
X156122434Y-139008040D01*
X156019271Y-138981013D01*
X155931066Y-138937901D01*
X155931066Y-139137478D01*
X156062224Y-139137478D01*
X156062224Y-139457222D01*
X155287913Y-139457222D01*
X155287913Y-139138027D01*
X155409821Y-139138027D01*
X155409821Y-138505316D01*
X155928043Y-138505316D01*
X155934244Y-138574396D01*
X155950946Y-138626137D01*
X155976495Y-138664593D01*
X156011049Y-138694749D01*
X156050402Y-138712531D01*
X156096204Y-138718632D01*
X156158084Y-138709899D01*
X156203748Y-138685765D01*
X156237387Y-138646044D01*
X156259865Y-138586384D01*
X156268487Y-138499180D01*
X156260154Y-138413706D01*
X156238472Y-138355390D01*
X156206136Y-138316712D01*
X156162413Y-138293305D01*
X156103348Y-138284856D01*
X156055215Y-138290822D01*
X156014137Y-138308081D01*
X155978418Y-138336972D01*
X155952132Y-138375696D01*
X155934643Y-138430084D01*
X155928043Y-138505316D01*
X155409821Y-138505316D01*
X155409821Y-138316822D01*
X155289928Y-138316822D01*
X155289928Y-137997627D01*
X155931066Y-137997627D01*
X155931066Y-138066045D01*
X156040484Y-138017903D01*
X156151424Y-137989499D01*
X156265281Y-137980041D01*
X156374112Y-137989329D01*
G37*
G36*
X157767894Y-137984026D02*
G01*
X157889786Y-138012023D01*
X157995592Y-138056668D01*
X158087760Y-138117611D01*
X158148974Y-138177884D01*
X158198329Y-138249675D01*
X158236188Y-138334667D01*
X158262016Y-138435197D01*
X158274423Y-138554134D01*
X157491503Y-138554134D01*
X157501670Y-138648356D01*
X157525680Y-138712408D01*
X157560604Y-138754600D01*
X157607031Y-138779908D01*
X157668915Y-138788974D01*
X157717265Y-138782108D01*
X157757570Y-138762226D01*
X157791880Y-138728418D01*
X157820773Y-138677324D01*
X158252075Y-138730722D01*
X158216169Y-138797854D01*
X158170101Y-138855469D01*
X158113821Y-138904740D01*
X158044255Y-138948434D01*
X157941835Y-138992218D01*
X157823854Y-139019658D01*
X157687324Y-139029309D01*
X157542507Y-139022311D01*
X157420761Y-139002792D01*
X157318785Y-138972580D01*
X157233668Y-138932939D01*
X157162965Y-138884503D01*
X157098886Y-138822567D01*
X157050118Y-138754870D01*
X157015312Y-138680611D01*
X156994006Y-138598506D01*
X156986653Y-138506873D01*
X156997185Y-138402001D01*
X157496632Y-138402001D01*
X157497364Y-138419678D01*
X157781938Y-138419678D01*
X157783861Y-138387530D01*
X157779043Y-138335267D01*
X157765400Y-138291396D01*
X157743470Y-138254265D01*
X157713653Y-138225548D01*
X157678778Y-138208630D01*
X157637132Y-138202791D01*
X157594896Y-138209215D01*
X157560904Y-138227690D01*
X157533085Y-138259211D01*
X157506246Y-138321965D01*
X157496632Y-138402001D01*
X156997185Y-138402001D01*
X156997740Y-138396476D01*
X157030063Y-138297828D01*
X157083735Y-138208341D01*
X157160859Y-138126312D01*
X157250466Y-138062023D01*
X157355862Y-138014698D01*
X157480059Y-137984790D01*
X157626874Y-137974180D01*
X157767894Y-137984026D01*
G37*
G36*
X159250051Y-138628872D02*
G01*
X159250051Y-138941564D01*
X159191603Y-138972516D01*
X159102315Y-139002472D01*
X159002179Y-139022796D01*
X158908966Y-139029309D01*
X158797768Y-139019108D01*
X158708931Y-138990840D01*
X158654917Y-138960415D01*
X158612329Y-138925006D01*
X158579605Y-138884503D01*
X158544525Y-138814344D01*
X158527947Y-138742995D01*
X158520711Y-138479487D01*
X158520711Y-138314166D01*
X158393675Y-138314166D01*
X158393675Y-137997627D01*
X158520711Y-137997627D01*
X158520711Y-137847875D01*
X159042048Y-137603236D01*
X159042048Y-137997627D01*
X159250051Y-137997627D01*
X159250051Y-138314166D01*
X159042048Y-138314166D01*
X159042048Y-138507789D01*
X159047454Y-138595113D01*
X159059084Y-138635009D01*
X159081844Y-138657269D01*
X159126220Y-138665875D01*
X159177667Y-138657857D01*
X159250051Y-138628872D01*
G37*
G36*
X160194691Y-137984026D02*
G01*
X160316582Y-138012023D01*
X160422389Y-138056668D01*
X160514557Y-138117611D01*
X160575771Y-138177884D01*
X160625126Y-138249675D01*
X160662984Y-138334667D01*
X160688813Y-138435197D01*
X160701220Y-138554134D01*
X159918300Y-138554134D01*
X159928466Y-138648356D01*
X159952477Y-138712408D01*
X159987401Y-138754600D01*
X160033828Y-138779908D01*
X160095711Y-138788974D01*
X160144062Y-138782108D01*
X160184367Y-138762226D01*
X160218677Y-138728418D01*
X160247569Y-138677324D01*
X160678872Y-138730722D01*
X160642966Y-138797854D01*
X160596898Y-138855469D01*
X160540618Y-138904740D01*
X160471052Y-138948434D01*
X160368631Y-138992218D01*
X160250651Y-139019658D01*
X160114121Y-139029309D01*
X159969304Y-139022311D01*
X159847558Y-139002792D01*
X159745582Y-138972580D01*
X159660465Y-138932939D01*
X159589762Y-138884503D01*
X159525683Y-138822567D01*
X159476914Y-138754870D01*
X159442109Y-138680611D01*
X159420803Y-138598506D01*
X159413450Y-138506873D01*
X159423982Y-138402001D01*
X159923429Y-138402001D01*
X159924161Y-138419678D01*
X160208735Y-138419678D01*
X160210658Y-138387530D01*
X160205839Y-138335267D01*
X160192196Y-138291396D01*
X160170267Y-138254265D01*
X160140450Y-138225548D01*
X160105575Y-138208630D01*
X160063929Y-138202791D01*
X160021693Y-138209215D01*
X159987701Y-138227690D01*
X159959882Y-138259211D01*
X159933043Y-138321965D01*
X159923429Y-138402001D01*
X159423982Y-138402001D01*
X159424537Y-138396476D01*
X159456860Y-138297828D01*
X159510532Y-138208341D01*
X159587656Y-138126312D01*
X159677263Y-138062023D01*
X159782658Y-138014698D01*
X159906856Y-137984790D01*
X160053671Y-137974180D01*
X160194691Y-137984026D01*
G37*
G36*
X161662468Y-139000000D02*
G01*
X160855276Y-139000000D01*
X160855276Y-138680805D01*
X160990556Y-138680805D01*
X160990556Y-138316822D01*
X160855276Y-138316822D01*
X160855276Y-137997627D01*
X161478004Y-137997627D01*
X161478004Y-138236313D01*
X161517327Y-138161233D01*
X161580677Y-138088302D01*
X161653814Y-138030864D01*
X161723285Y-137999733D01*
X161800794Y-137985816D01*
X161928907Y-137980041D01*
X161928907Y-138425540D01*
X161882928Y-138425540D01*
X161777224Y-138429892D01*
X161701636Y-138441155D01*
X161649371Y-138457048D01*
X161599590Y-138482532D01*
X161564907Y-138510699D01*
X161542209Y-138541495D01*
X161520620Y-138600989D01*
X161511801Y-138682362D01*
X161662468Y-138682362D01*
X161662468Y-139000000D01*
G37*
G36*
X162373398Y-139011723D02*
G01*
X162048891Y-139011723D01*
X162048891Y-138695184D01*
X162351142Y-138695184D01*
X162412665Y-138748563D01*
X162474159Y-138784579D01*
X162536522Y-138805493D01*
X162601002Y-138812421D01*
X162687934Y-138803595D01*
X162725043Y-138784426D01*
X162735366Y-138758840D01*
X162728647Y-138735379D01*
X162707248Y-138717166D01*
X162664086Y-138700890D01*
X162544948Y-138669173D01*
X162309193Y-138602403D01*
X162204651Y-138564290D01*
X162132056Y-138521803D01*
X162073166Y-138470534D01*
X162041930Y-138426181D01*
X162023907Y-138374987D01*
X162017109Y-138303633D01*
X162025217Y-138222117D01*
X162047935Y-138155883D01*
X162084270Y-138101696D01*
X162135170Y-138057527D01*
X162216315Y-138015825D01*
X162313670Y-137989448D01*
X162430917Y-137980041D01*
X162552889Y-137988423D01*
X162653861Y-138011788D01*
X162737473Y-138048277D01*
X162737473Y-137997627D01*
X163057858Y-137997627D01*
X163057858Y-138296580D01*
X162762752Y-138296580D01*
X162705171Y-138249897D01*
X162643850Y-138217307D01*
X162577824Y-138197733D01*
X162505747Y-138191067D01*
X162433746Y-138200065D01*
X162400824Y-138220632D01*
X162390800Y-138250601D01*
X162398482Y-138272734D01*
X162423590Y-138286688D01*
X162620144Y-138330744D01*
X162798948Y-138373367D01*
X162916625Y-138410703D01*
X162984676Y-138442089D01*
X163037188Y-138477655D01*
X163076726Y-138517131D01*
X163105680Y-138563792D01*
X163123397Y-138617387D01*
X163129574Y-138679706D01*
X163120806Y-138763994D01*
X163096127Y-138832858D01*
X163056364Y-138889616D01*
X163000156Y-138936252D01*
X162911586Y-138980240D01*
X162807672Y-139007831D01*
X162685083Y-139017585D01*
X162562102Y-139009900D01*
X162459299Y-138988433D01*
X162373398Y-138954937D01*
X162373398Y-139011723D01*
G37*
G36*
X164150238Y-137984314D02*
G01*
X164286847Y-138013018D01*
X164404722Y-138058491D01*
X164506646Y-138119993D01*
X164580081Y-138183852D01*
X164635165Y-138252870D01*
X164673977Y-138327748D01*
X164697506Y-138409777D01*
X164705581Y-138500737D01*
X164697969Y-138588427D01*
X164675662Y-138668713D01*
X164638698Y-138743120D01*
X164586110Y-138812783D01*
X164515988Y-138878367D01*
X164418154Y-138942094D01*
X164304282Y-138989117D01*
X164171455Y-139018807D01*
X164016084Y-139029309D01*
X163878442Y-139022288D01*
X163759773Y-139002464D01*
X163657528Y-138971326D01*
X163569469Y-138929832D01*
X163493740Y-138878367D01*
X163424762Y-138813385D01*
X163372784Y-138743664D01*
X163336061Y-138668492D01*
X163313792Y-138586675D01*
X163306162Y-138496615D01*
X163306194Y-138496249D01*
X163833543Y-138496249D01*
X163842261Y-138590970D01*
X163864771Y-138654888D01*
X163897887Y-138696627D01*
X163941942Y-138721480D01*
X164000697Y-138730355D01*
X164063790Y-138721166D01*
X164110692Y-138695618D01*
X164145567Y-138653176D01*
X164169057Y-138588855D01*
X164178109Y-138494234D01*
X164172559Y-138423020D01*
X164157523Y-138368229D01*
X164134603Y-138326347D01*
X164101405Y-138293719D01*
X164060662Y-138274151D01*
X164009947Y-138267271D01*
X163959614Y-138273946D01*
X163917677Y-138293166D01*
X163882086Y-138325431D01*
X163856513Y-138367203D01*
X163839753Y-138422798D01*
X163833543Y-138496249D01*
X163306194Y-138496249D01*
X163313562Y-138411418D01*
X163335306Y-138332912D01*
X163371432Y-138259668D01*
X163422940Y-138190616D01*
X163491725Y-138125122D01*
X163587508Y-138061682D01*
X163700469Y-138014649D01*
X163833825Y-137984792D01*
X163991538Y-137974180D01*
X164150238Y-137984314D01*
G37*
G36*
X165654373Y-139000000D02*
G01*
X164861561Y-139000000D01*
X164861561Y-138680805D01*
X164989697Y-138680805D01*
X164989697Y-138316822D01*
X164861561Y-138316822D01*
X164861561Y-137997627D01*
X165510942Y-137997627D01*
X165510942Y-138123565D01*
X165607781Y-138059678D01*
X165706582Y-138015266D01*
X165808451Y-137988886D01*
X165914767Y-137980041D01*
X166010428Y-137987638D01*
X166088411Y-138008766D01*
X166152072Y-138041870D01*
X166203920Y-138086745D01*
X166242644Y-138141938D01*
X166272632Y-138214327D01*
X166292549Y-138308129D01*
X166299907Y-138428471D01*
X166299907Y-138681079D01*
X166417785Y-138681079D01*
X166417785Y-139000000D01*
X165778662Y-139000000D01*
X165778662Y-138553676D01*
X165770876Y-138421910D01*
X165754391Y-138363808D01*
X165733517Y-138340599D01*
X165701968Y-138325678D01*
X165655564Y-138320027D01*
X165611720Y-138325155D01*
X165563942Y-138341477D01*
X165510942Y-138371135D01*
X165510942Y-138680347D01*
X165654373Y-138680347D01*
X165654373Y-139000000D01*
G37*
G36*
X167444364Y-137549868D02*
G01*
X167564688Y-137576847D01*
X167669877Y-137619960D01*
X167762183Y-137678864D01*
X167843217Y-137754269D01*
X167911722Y-137843263D01*
X167964751Y-137939198D01*
X168002993Y-138043083D01*
X168026473Y-138156245D01*
X168034550Y-138280277D01*
X168026834Y-138405209D01*
X168004775Y-138515146D01*
X167969519Y-138612215D01*
X167921522Y-138698209D01*
X167860527Y-138774502D01*
X167766342Y-138859935D01*
X167676791Y-138916035D01*
X167590308Y-138947711D01*
X167504879Y-138957959D01*
X167441630Y-138949959D01*
X167396078Y-138928278D01*
X167363589Y-138893712D01*
X167342488Y-138843470D01*
X167277853Y-138899319D01*
X167225435Y-138932405D01*
X167170358Y-138951977D01*
X167102245Y-138958967D01*
X167027862Y-138951222D01*
X166963123Y-138928850D01*
X166905945Y-138891938D01*
X166855041Y-138838982D01*
X166816034Y-138777306D01*
X166787075Y-138704856D01*
X166768694Y-138619663D01*
X166764389Y-138553493D01*
X166981162Y-138553493D01*
X166986611Y-138635293D01*
X167001142Y-138696708D01*
X167022744Y-138742171D01*
X167053661Y-138778561D01*
X167090067Y-138799431D01*
X167133935Y-138806559D01*
X167178480Y-138799596D01*
X167218414Y-138778685D01*
X167255376Y-138741679D01*
X167289750Y-138683949D01*
X167320690Y-138598922D01*
X167354966Y-138459953D01*
X167374069Y-138337874D01*
X167380041Y-138230635D01*
X167375303Y-138170622D01*
X167362148Y-138121849D01*
X167341572Y-138082165D01*
X167313352Y-138051227D01*
X167279634Y-138033172D01*
X167238532Y-138026936D01*
X167183356Y-138036746D01*
X167134240Y-138066519D01*
X167088969Y-138120473D01*
X167047565Y-138207004D01*
X167009695Y-138331474D01*
X166988087Y-138446540D01*
X166981162Y-138553493D01*
X166764389Y-138553493D01*
X166762167Y-138519330D01*
X166770561Y-138392573D01*
X166795131Y-138275120D01*
X166835451Y-138165521D01*
X166891769Y-138062565D01*
X166949783Y-137985987D01*
X167009605Y-137930426D01*
X167071637Y-137892571D01*
X167136859Y-137870292D01*
X167206750Y-137862805D01*
X167277168Y-137871558D01*
X167338465Y-137897081D01*
X167392938Y-137940123D01*
X167441681Y-138003763D01*
X167457252Y-137894221D01*
X167666171Y-137894221D01*
X167535562Y-138709381D01*
X167531441Y-138744827D01*
X167540356Y-138772825D01*
X167566428Y-138781921D01*
X167604909Y-138776138D01*
X167649060Y-138757066D01*
X167700884Y-138720830D01*
X167746216Y-138676860D01*
X167788020Y-138618648D01*
X167826089Y-138543510D01*
X167854032Y-138462472D01*
X167871147Y-138375049D01*
X167877014Y-138280185D01*
X167866478Y-138151195D01*
X167836425Y-138039926D01*
X167788061Y-137943235D01*
X167721034Y-137858775D01*
X167638289Y-137789656D01*
X167543900Y-137740080D01*
X167435595Y-137709404D01*
X167310248Y-137698674D01*
X167210859Y-137705210D01*
X167117676Y-137724436D01*
X167029674Y-137756143D01*
X166945991Y-137800614D01*
X166868726Y-137857129D01*
X166803796Y-137921603D01*
X166750168Y-137994518D01*
X166707304Y-138076762D01*
X166665325Y-138195739D01*
X166640187Y-138318195D01*
X166631742Y-138445232D01*
X166640033Y-138577220D01*
X166663706Y-138692985D01*
X166701512Y-138794870D01*
X166752972Y-138884836D01*
X166818404Y-138964371D01*
X166896997Y-139033996D01*
X166982798Y-139087648D01*
X167076843Y-139126288D01*
X167180593Y-139150058D01*
X167295868Y-139158269D01*
X167404671Y-139150705D01*
X167509781Y-139128153D01*
X167612212Y-139090386D01*
X167712837Y-139036606D01*
X167812351Y-138965470D01*
X168034550Y-138965470D01*
X167960192Y-139050255D01*
X167881777Y-139119984D01*
X167795702Y-139179006D01*
X167699785Y-139229344D01*
X167566092Y-139278145D01*
X167432192Y-139306970D01*
X167296876Y-139316538D01*
X167173378Y-139309009D01*
X167061785Y-139287239D01*
X166960469Y-139252032D01*
X166868047Y-139203606D01*
X166754875Y-139119801D01*
X166659352Y-139020669D01*
X166580176Y-138904928D01*
X166535226Y-138810625D01*
X166502120Y-138705277D01*
X166481422Y-138587273D01*
X166474205Y-138454758D01*
X166480345Y-138329407D01*
X166498293Y-138212500D01*
X166528948Y-138100213D01*
X166571841Y-137995703D01*
X166627018Y-137897442D01*
X166694207Y-137805560D01*
X166771923Y-137725183D01*
X166857844Y-137659954D01*
X166952802Y-137608874D01*
X167058045Y-137571596D01*
X167175184Y-137548445D01*
X167306127Y-137540404D01*
X167444364Y-137549868D01*
G37*
G36*
X168789624Y-137989470D02*
G01*
X168896731Y-138016450D01*
X168990853Y-138059909D01*
X168990853Y-137997627D01*
X169634005Y-137997627D01*
X169634005Y-138316455D01*
X169510083Y-138316455D01*
X169510083Y-138859499D01*
X169505652Y-138982428D01*
X169493961Y-139074434D01*
X169477110Y-139141599D01*
X169448719Y-139204059D01*
X169408456Y-139260346D01*
X169355202Y-139311226D01*
X169293708Y-139354719D01*
X169221184Y-139390162D01*
X169135933Y-139417197D01*
X169048040Y-139434913D01*
X168934364Y-139446910D01*
X168789810Y-139451360D01*
X168617986Y-139445132D01*
X168445062Y-139424524D01*
X168290243Y-139393871D01*
X168200513Y-139366181D01*
X168344861Y-139107253D01*
X168427703Y-139133914D01*
X168533722Y-139151705D01*
X168667903Y-139158269D01*
X168756067Y-139153420D01*
X168823612Y-139140433D01*
X168874624Y-139121174D01*
X168921724Y-139093513D01*
X168952457Y-139065426D01*
X168970611Y-139036728D01*
X168985123Y-138982887D01*
X168990853Y-138902089D01*
X168887830Y-138941693D01*
X168774322Y-138966102D01*
X168648485Y-138974537D01*
X168538142Y-138966088D01*
X168439813Y-138941693D01*
X168351484Y-138902049D01*
X168271588Y-138846859D01*
X168203974Y-138777986D01*
X168155898Y-138698070D01*
X168126213Y-138604917D01*
X168116871Y-138506598D01*
X168643173Y-138506598D01*
X168648596Y-138565724D01*
X168663966Y-138615521D01*
X168688694Y-138657815D01*
X168722767Y-138691360D01*
X168764837Y-138711525D01*
X168817471Y-138718632D01*
X168873376Y-138711233D01*
X168916271Y-138690602D01*
X168949362Y-138656808D01*
X168972889Y-138614691D01*
X168987636Y-138564554D01*
X168992868Y-138504492D01*
X168987185Y-138439094D01*
X168971321Y-138385694D01*
X168946248Y-138341918D01*
X168910914Y-138306777D01*
X168869393Y-138286123D01*
X168819577Y-138278995D01*
X168765952Y-138286637D01*
X168723220Y-138308398D01*
X168688694Y-138344940D01*
X168663984Y-138390534D01*
X168648595Y-138443829D01*
X168643173Y-138506598D01*
X168116871Y-138506598D01*
X168115792Y-138495241D01*
X168126571Y-138379414D01*
X168157376Y-138280091D01*
X168207358Y-138194046D01*
X168277633Y-138119077D01*
X168361720Y-138058554D01*
X168453523Y-138015445D01*
X168554578Y-137989112D01*
X168666895Y-137980041D01*
X168789624Y-137989470D01*
G37*
G36*
X170564204Y-139000000D02*
G01*
X169779635Y-139000000D01*
X169779635Y-138680805D01*
X169902550Y-138680805D01*
X169902550Y-138316822D01*
X169777620Y-138316822D01*
X169777620Y-137997627D01*
X170424894Y-137997627D01*
X170424894Y-138134830D01*
X170502719Y-138080366D01*
X170614579Y-138027394D01*
X170733694Y-137991405D01*
X170843099Y-137980041D01*
X170944625Y-137988847D01*
X171025945Y-138013229D01*
X171091165Y-138051440D01*
X171143179Y-138103596D01*
X171183360Y-138171650D01*
X171302980Y-138084293D01*
X171419290Y-138025306D01*
X171533829Y-137991222D01*
X171648459Y-137980041D01*
X171734289Y-137986845D01*
X171805304Y-138005885D01*
X171864248Y-138035912D01*
X171916820Y-138078500D01*
X171957160Y-138128613D01*
X171986339Y-138187220D01*
X172004837Y-138253115D01*
X172017546Y-138341955D01*
X172022334Y-138459246D01*
X172022334Y-138681079D01*
X172153492Y-138681079D01*
X172153492Y-139000000D01*
X171501089Y-139000000D01*
X171501089Y-138571170D01*
X171492614Y-138421199D01*
X171475902Y-138365365D01*
X171456222Y-138344339D01*
X171427439Y-138330921D01*
X171386142Y-138325889D01*
X171332681Y-138332300D01*
X171277729Y-138352233D01*
X171219996Y-138387713D01*
X171219996Y-138682636D01*
X171360405Y-138682636D01*
X171360405Y-139000000D01*
X170698751Y-139000000D01*
X170698751Y-138573185D01*
X170691388Y-138425322D01*
X170676586Y-138367197D01*
X170658434Y-138345281D01*
X170630234Y-138331233D01*
X170587926Y-138325889D01*
X170537728Y-138332118D01*
X170483880Y-138351864D01*
X170424894Y-138387713D01*
X170424894Y-138682636D01*
X170564204Y-138682636D01*
X170564204Y-139000000D01*
G37*
G36*
X173126373Y-137980866D02*
G01*
X173275849Y-138000833D01*
X173366040Y-138023150D01*
X173432050Y-138049966D01*
X173478998Y-138080059D01*
X173536468Y-138138558D01*
X173571047Y-138197753D01*
X173589948Y-138271895D01*
X173597883Y-138399162D01*
X173597883Y-138682453D01*
X173724920Y-138682453D01*
X173724920Y-139000000D01*
X173076639Y-139000000D01*
X173076639Y-138932131D01*
X173011100Y-138967363D01*
X172932054Y-138994107D01*
X172836993Y-139011380D01*
X172723006Y-139017585D01*
X172615902Y-139010736D01*
X172529458Y-138991886D01*
X172459983Y-138962932D01*
X172404452Y-138924803D01*
X172355521Y-138874415D01*
X172322153Y-138821581D01*
X172302466Y-138765435D01*
X172295825Y-138704618D01*
X172301555Y-138657907D01*
X172789409Y-138657907D01*
X172799672Y-138713130D01*
X172829526Y-138756001D01*
X172874030Y-138785283D01*
X172923773Y-138794836D01*
X172985342Y-138788628D01*
X173035486Y-138771206D01*
X173076639Y-138743270D01*
X173076639Y-138561553D01*
X173007777Y-138534291D01*
X172934031Y-138525191D01*
X172872981Y-138534886D01*
X172828427Y-138561919D01*
X172799336Y-138604408D01*
X172789409Y-138657907D01*
X172301555Y-138657907D01*
X172303975Y-138638183D01*
X172327984Y-138578722D01*
X172368777Y-138524322D01*
X172429273Y-138473992D01*
X172496505Y-138436506D01*
X172574900Y-138408555D01*
X172666377Y-138390800D01*
X172773198Y-138384508D01*
X172902010Y-138391180D01*
X173001258Y-138409079D01*
X173076639Y-138435615D01*
X173076639Y-138410519D01*
X173072603Y-138325748D01*
X173063541Y-138282383D01*
X173042244Y-138248500D01*
X173001351Y-138217354D01*
X172947876Y-138197906D01*
X172883840Y-138191067D01*
X172824646Y-138197258D01*
X172774538Y-138214943D01*
X172731583Y-138243835D01*
X172694612Y-138285040D01*
X172285109Y-138243640D01*
X172325198Y-138173132D01*
X172374513Y-138115463D01*
X172433572Y-138069151D01*
X172503645Y-138033531D01*
X172604085Y-138003340D01*
X172744950Y-137982242D01*
X172937146Y-137974180D01*
X173126373Y-137980866D01*
G37*
G36*
X174561055Y-139000000D02*
G01*
X173851316Y-139000000D01*
X173851316Y-138680805D01*
X173953715Y-138680805D01*
X173953715Y-138316822D01*
X173851316Y-138316822D01*
X173851316Y-137997627D01*
X174475051Y-137997627D01*
X174475051Y-138680805D01*
X174561055Y-138680805D01*
X174561055Y-139000000D01*
G37*
G36*
X173910667Y-137721205D02*
G01*
X173919649Y-137671199D01*
X173946632Y-137628025D01*
X173995206Y-137589589D01*
X174052260Y-137563085D01*
X174119653Y-137546346D01*
X174199545Y-137540404D01*
X174281415Y-137546765D01*
X174347541Y-137564367D01*
X174400954Y-137591787D01*
X174444744Y-137631278D01*
X174469059Y-137673491D01*
X174477066Y-137720198D01*
X174468463Y-137770483D01*
X174442976Y-137812924D01*
X174397840Y-137849707D01*
X174342719Y-137875628D01*
X174276701Y-137892097D01*
X174197439Y-137897976D01*
X174116602Y-137892577D01*
X174049280Y-137877496D01*
X173993191Y-137853920D01*
X173946621Y-137819060D01*
X173919898Y-137775765D01*
X173910667Y-137721205D01*
G37*
G36*
X175416607Y-139000000D02*
G01*
X174698625Y-139000000D01*
X174698625Y-138681812D01*
X174804138Y-138681812D01*
X174804138Y-137887901D01*
X174698625Y-137887901D01*
X174698625Y-137569713D01*
X175325383Y-137569713D01*
X175325383Y-138681812D01*
X175416607Y-138681812D01*
X175416607Y-139000000D01*
G37*
G36*
X176157396Y-139000000D02*
G01*
X175640181Y-139000000D01*
X175640181Y-138618981D01*
X176157396Y-138618981D01*
X176157396Y-139000000D01*
G37*
G36*
X177299720Y-138583169D02*
G01*
X177689898Y-138671188D01*
X177658239Y-138752146D01*
X177613420Y-138822451D01*
X177554785Y-138883527D01*
X177480704Y-138936069D01*
X177398967Y-138975392D01*
X177306343Y-139004537D01*
X177201196Y-139022876D01*
X177081641Y-139029309D01*
X176923241Y-139019169D01*
X176790475Y-138990785D01*
X176679188Y-138946383D01*
X176585950Y-138886976D01*
X176520124Y-138825482D01*
X176469986Y-138757620D01*
X176434136Y-138682538D01*
X176412128Y-138598837D01*
X176404509Y-138504675D01*
X176415427Y-138392934D01*
X176447062Y-138294344D01*
X176499201Y-138206168D01*
X176573586Y-138126587D01*
X176661277Y-138063376D01*
X176759297Y-138017889D01*
X176869578Y-137989806D01*
X176994630Y-137980041D01*
X177103751Y-137986354D01*
X177192187Y-138003722D01*
X177263477Y-138030305D01*
X177320602Y-138065038D01*
X177320602Y-137997627D01*
X177640988Y-137997627D01*
X177640988Y-138431402D01*
X177321427Y-138431402D01*
X177283954Y-138351725D01*
X177239404Y-138300616D01*
X177187589Y-138271367D01*
X177125788Y-138261409D01*
X177067645Y-138269675D01*
X177020861Y-138293291D01*
X176982631Y-138333033D01*
X176955042Y-138384644D01*
X176937963Y-138444072D01*
X176931982Y-138513101D01*
X176938750Y-138587918D01*
X176957421Y-138647111D01*
X176986661Y-138693994D01*
X177026076Y-138730630D01*
X177071743Y-138752225D01*
X177125788Y-138759665D01*
X177177174Y-138752804D01*
X177218648Y-138733278D01*
X177252640Y-138700726D01*
X177279975Y-138652310D01*
X177299720Y-138583169D01*
G37*
G36*
X178689038Y-137984314D02*
G01*
X178825647Y-138013018D01*
X178943522Y-138058491D01*
X179045445Y-138119993D01*
X179118881Y-138183852D01*
X179173965Y-138252870D01*
X179212777Y-138327748D01*
X179236306Y-138409777D01*
X179244381Y-138500737D01*
X179236768Y-138588427D01*
X179214461Y-138668713D01*
X179177498Y-138743120D01*
X179124910Y-138812783D01*
X179054788Y-138878367D01*
X178956954Y-138942094D01*
X178843082Y-138989117D01*
X178710255Y-139018807D01*
X178554884Y-139029309D01*
X178417242Y-139022288D01*
X178298573Y-139002464D01*
X178196327Y-138971326D01*
X178108269Y-138929832D01*
X178032540Y-138878367D01*
X177963562Y-138813385D01*
X177911583Y-138743664D01*
X177874861Y-138668492D01*
X177852591Y-138586675D01*
X177844961Y-138496615D01*
X177844993Y-138496249D01*
X178372343Y-138496249D01*
X178381061Y-138590970D01*
X178403571Y-138654888D01*
X178436686Y-138696627D01*
X178480742Y-138721480D01*
X178539496Y-138730355D01*
X178602590Y-138721166D01*
X178649492Y-138695618D01*
X178684366Y-138653176D01*
X178707857Y-138588855D01*
X178716908Y-138494234D01*
X178711358Y-138423020D01*
X178696323Y-138368229D01*
X178673402Y-138326347D01*
X178640205Y-138293719D01*
X178599461Y-138274151D01*
X178548747Y-138267271D01*
X178498413Y-138273946D01*
X178456477Y-138293166D01*
X178420886Y-138325431D01*
X178395312Y-138367203D01*
X178378553Y-138422798D01*
X178372343Y-138496249D01*
X177844993Y-138496249D01*
X177852362Y-138411418D01*
X177874105Y-138332912D01*
X177910232Y-138259668D01*
X177961740Y-138190616D01*
X178030525Y-138125122D01*
X178126307Y-138061682D01*
X178239268Y-138014649D01*
X178372625Y-137984792D01*
X178530337Y-137974180D01*
X178689038Y-137984314D01*
G37*
G36*
X180205446Y-139000000D02*
G01*
X179420877Y-139000000D01*
X179420877Y-138680805D01*
X179543792Y-138680805D01*
X179543792Y-138316822D01*
X179418862Y-138316822D01*
X179418862Y-137997627D01*
X180066136Y-137997627D01*
X180066136Y-138134830D01*
X180143961Y-138080366D01*
X180255821Y-138027394D01*
X180374936Y-137991405D01*
X180484341Y-137980041D01*
X180585867Y-137988847D01*
X180667187Y-138013229D01*
X180732407Y-138051440D01*
X180784421Y-138103596D01*
X180824602Y-138171650D01*
X180944222Y-138084293D01*
X181060532Y-138025306D01*
X181175072Y-137991222D01*
X181289701Y-137980041D01*
X181375531Y-137986845D01*
X181446546Y-138005885D01*
X181505490Y-138035912D01*
X181558062Y-138078500D01*
X181598402Y-138128613D01*
X181627581Y-138187220D01*
X181646079Y-138253115D01*
X181658788Y-138341955D01*
X181663576Y-138459246D01*
X181663576Y-138681079D01*
X181794734Y-138681079D01*
X181794734Y-139000000D01*
X181142331Y-139000000D01*
X181142331Y-138571170D01*
X181133856Y-138421199D01*
X181117144Y-138365365D01*
X181097464Y-138344339D01*
X181068681Y-138330921D01*
X181027385Y-138325889D01*
X180973923Y-138332300D01*
X180918971Y-138352233D01*
X180861238Y-138387713D01*
X180861238Y-138682636D01*
X181001647Y-138682636D01*
X181001647Y-139000000D01*
X180339994Y-139000000D01*
X180339994Y-138573185D01*
X180332631Y-138425322D01*
X180317829Y-138367197D01*
X180299676Y-138345281D01*
X180271476Y-138331233D01*
X180229168Y-138325889D01*
X180178970Y-138332118D01*
X180125122Y-138351864D01*
X180066136Y-138387713D01*
X180066136Y-138682636D01*
X180205446Y-138682636D01*
X180205446Y-139000000D01*
G37*
G36*
X148942393Y-141520000D02*
G01*
X148224410Y-141520000D01*
X148224410Y-141201812D01*
X148329923Y-141201812D01*
X148329923Y-140407901D01*
X148224410Y-140407901D01*
X148224410Y-140089713D01*
X148851168Y-140089713D01*
X148851168Y-141201812D01*
X148942393Y-141201812D01*
X148942393Y-141520000D01*
G37*
G36*
X149940434Y-140504314D02*
G01*
X150077043Y-140533018D01*
X150194918Y-140578491D01*
X150296841Y-140639993D01*
X150370277Y-140703852D01*
X150425361Y-140772870D01*
X150464173Y-140847748D01*
X150487702Y-140929777D01*
X150495777Y-141020737D01*
X150488164Y-141108427D01*
X150465857Y-141188713D01*
X150428894Y-141263120D01*
X150376306Y-141332783D01*
X150306184Y-141398367D01*
X150208350Y-141462094D01*
X150094478Y-141509117D01*
X149961650Y-141538807D01*
X149806280Y-141549309D01*
X149668638Y-141542288D01*
X149549969Y-141522464D01*
X149447723Y-141491326D01*
X149359665Y-141449832D01*
X149283936Y-141398367D01*
X149214958Y-141333385D01*
X149162979Y-141263664D01*
X149126257Y-141188492D01*
X149103987Y-141106675D01*
X149096357Y-141016615D01*
X149096389Y-141016249D01*
X149623739Y-141016249D01*
X149632457Y-141110970D01*
X149654967Y-141174888D01*
X149688082Y-141216627D01*
X149732138Y-141241480D01*
X149790892Y-141250355D01*
X149853986Y-141241166D01*
X149900888Y-141215618D01*
X149935762Y-141173176D01*
X149959253Y-141108855D01*
X149968304Y-141014234D01*
X149962754Y-140943020D01*
X149947719Y-140888229D01*
X149924798Y-140846347D01*
X149891601Y-140813719D01*
X149850857Y-140794151D01*
X149800143Y-140787271D01*
X149749809Y-140793946D01*
X149707872Y-140813166D01*
X149672282Y-140845431D01*
X149646708Y-140887203D01*
X149629949Y-140942798D01*
X149623739Y-141016249D01*
X149096389Y-141016249D01*
X149103758Y-140931418D01*
X149125501Y-140852912D01*
X149161628Y-140779668D01*
X149213136Y-140710616D01*
X149281921Y-140645122D01*
X149377703Y-140581682D01*
X149490664Y-140534649D01*
X149624021Y-140504792D01*
X149781733Y-140494180D01*
X149940434Y-140504314D01*
G37*
G36*
X151333832Y-140509470D02*
G01*
X151440939Y-140536450D01*
X151535061Y-140579909D01*
X151535061Y-140517627D01*
X152178214Y-140517627D01*
X152178214Y-140836455D01*
X152054291Y-140836455D01*
X152054291Y-141379499D01*
X152049860Y-141502428D01*
X152038170Y-141594434D01*
X152021318Y-141661599D01*
X151992927Y-141724059D01*
X151952664Y-141780346D01*
X151899410Y-141831226D01*
X151837916Y-141874719D01*
X151765392Y-141910162D01*
X151680141Y-141937197D01*
X151592248Y-141954913D01*
X151478572Y-141966910D01*
X151334019Y-141971360D01*
X151162194Y-141965132D01*
X150989270Y-141944524D01*
X150834451Y-141913871D01*
X150744722Y-141886181D01*
X150889069Y-141627253D01*
X150971911Y-141653914D01*
X151077931Y-141671705D01*
X151212111Y-141678269D01*
X151300275Y-141673420D01*
X151367820Y-141660433D01*
X151418832Y-141641174D01*
X151465932Y-141613513D01*
X151496666Y-141585426D01*
X151514819Y-141556728D01*
X151529332Y-141502887D01*
X151535061Y-141422089D01*
X151432038Y-141461693D01*
X151318531Y-141486102D01*
X151192694Y-141494537D01*
X151082350Y-141486088D01*
X150984021Y-141461693D01*
X150895693Y-141422049D01*
X150815796Y-141366859D01*
X150748183Y-141297986D01*
X150700107Y-141218070D01*
X150670421Y-141124917D01*
X150661079Y-141026598D01*
X151187381Y-141026598D01*
X151192804Y-141085724D01*
X151208174Y-141135521D01*
X151232902Y-141177815D01*
X151266975Y-141211360D01*
X151309045Y-141231525D01*
X151361679Y-141238632D01*
X151417584Y-141231233D01*
X151460479Y-141210602D01*
X151493570Y-141176808D01*
X151517098Y-141134691D01*
X151531844Y-141084554D01*
X151537076Y-141024492D01*
X151531393Y-140959094D01*
X151515529Y-140905694D01*
X151490456Y-140861918D01*
X151455122Y-140826777D01*
X151413601Y-140806123D01*
X151363786Y-140798995D01*
X151310161Y-140806637D01*
X151267429Y-140828398D01*
X151232902Y-140864940D01*
X151208193Y-140910534D01*
X151192804Y-140963829D01*
X151187381Y-141026598D01*
X150661079Y-141026598D01*
X150660000Y-141015241D01*
X150670779Y-140899414D01*
X150701585Y-140800091D01*
X150751567Y-140714046D01*
X150821841Y-140639077D01*
X150905928Y-140578554D01*
X150997732Y-140535445D01*
X151098786Y-140509112D01*
X151211103Y-140500041D01*
X151333832Y-140509470D01*
G37*
G36*
X153144133Y-140500866D02*
G01*
X153293610Y-140520833D01*
X153383800Y-140543150D01*
X153449810Y-140569966D01*
X153496759Y-140600059D01*
X153554228Y-140658558D01*
X153588808Y-140717753D01*
X153607708Y-140791895D01*
X153615644Y-140919162D01*
X153615644Y-141202453D01*
X153742681Y-141202453D01*
X153742681Y-141520000D01*
X153094399Y-141520000D01*
X153094399Y-141452131D01*
X153028860Y-141487363D01*
X152949814Y-141514107D01*
X152854754Y-141531380D01*
X152740766Y-141537585D01*
X152633662Y-141530736D01*
X152547218Y-141511886D01*
X152477743Y-141482932D01*
X152422212Y-141444803D01*
X152373282Y-141394415D01*
X152339914Y-141341581D01*
X152320226Y-141285435D01*
X152313585Y-141224618D01*
X152319315Y-141177907D01*
X152807169Y-141177907D01*
X152817432Y-141233130D01*
X152847286Y-141276001D01*
X152891790Y-141305283D01*
X152941533Y-141314836D01*
X153003102Y-141308628D01*
X153053247Y-141291206D01*
X153094399Y-141263270D01*
X153094399Y-141081553D01*
X153025537Y-141054291D01*
X152951792Y-141045191D01*
X152890741Y-141054886D01*
X152846187Y-141081919D01*
X152817096Y-141124408D01*
X152807169Y-141177907D01*
X152319315Y-141177907D01*
X152321735Y-141158183D01*
X152345744Y-141098722D01*
X152386537Y-141044322D01*
X152447033Y-140993992D01*
X152514265Y-140956506D01*
X152592661Y-140928555D01*
X152684137Y-140910800D01*
X152790958Y-140904508D01*
X152919770Y-140911180D01*
X153019018Y-140929079D01*
X153094399Y-140955615D01*
X153094399Y-140930519D01*
X153090363Y-140845748D01*
X153081301Y-140802383D01*
X153060004Y-140768500D01*
X153019111Y-140737354D01*
X152965636Y-140717906D01*
X152901600Y-140711067D01*
X152842407Y-140717258D01*
X152792298Y-140734943D01*
X152749343Y-140763835D01*
X152712373Y-140805040D01*
X152302869Y-140763640D01*
X152342958Y-140693132D01*
X152392273Y-140635463D01*
X152451333Y-140589151D01*
X152521405Y-140553531D01*
X152621846Y-140523340D01*
X152762710Y-140502242D01*
X152954906Y-140494180D01*
X153144133Y-140500866D01*
G37*
G36*
X154659782Y-141520000D02*
G01*
X153866970Y-141520000D01*
X153866970Y-141200805D01*
X153995106Y-141200805D01*
X153995106Y-140836822D01*
X153866970Y-140836822D01*
X153866970Y-140517627D01*
X154516350Y-140517627D01*
X154516350Y-140643565D01*
X154613190Y-140579678D01*
X154711990Y-140535266D01*
X154813859Y-140508886D01*
X154920175Y-140500041D01*
X155015837Y-140507638D01*
X155093820Y-140528766D01*
X155157480Y-140561870D01*
X155209328Y-140606745D01*
X155248053Y-140661938D01*
X155278041Y-140734327D01*
X155297958Y-140828129D01*
X155305316Y-140948471D01*
X155305316Y-141201079D01*
X155423193Y-141201079D01*
X155423193Y-141520000D01*
X154784071Y-141520000D01*
X154784071Y-141073676D01*
X154776285Y-140941910D01*
X154759799Y-140883808D01*
X154738925Y-140860599D01*
X154707377Y-140845678D01*
X154660973Y-140840027D01*
X154617128Y-140845155D01*
X154569350Y-140861477D01*
X154516350Y-140891135D01*
X154516350Y-141200347D01*
X154659782Y-141200347D01*
X154659782Y-141520000D01*
G37*
G36*
X156638627Y-140509329D02*
G01*
X156737387Y-140536431D01*
X156828028Y-140581120D01*
X156912006Y-140644389D01*
X156981034Y-140722188D01*
X157030063Y-140810061D01*
X157060164Y-140910020D01*
X157070642Y-141024950D01*
X157060169Y-141141237D01*
X157030347Y-141240399D01*
X156982210Y-141325713D01*
X156914937Y-141399466D01*
X156833151Y-141458525D01*
X156739662Y-141501435D01*
X156632301Y-141528197D01*
X156508273Y-141537585D01*
X156386949Y-141528040D01*
X156283786Y-141501013D01*
X156195581Y-141457901D01*
X156195581Y-141657478D01*
X156326739Y-141657478D01*
X156326739Y-141977222D01*
X155552428Y-141977222D01*
X155552428Y-141658027D01*
X155674336Y-141658027D01*
X155674336Y-141025316D01*
X156192558Y-141025316D01*
X156198759Y-141094396D01*
X156215461Y-141146137D01*
X156241010Y-141184593D01*
X156275564Y-141214749D01*
X156314917Y-141232531D01*
X156360720Y-141238632D01*
X156422599Y-141229899D01*
X156468263Y-141205765D01*
X156501902Y-141166044D01*
X156524380Y-141106384D01*
X156533002Y-141019180D01*
X156524670Y-140933706D01*
X156502987Y-140875390D01*
X156470651Y-140836712D01*
X156426928Y-140813305D01*
X156367864Y-140804856D01*
X156319730Y-140810822D01*
X156278652Y-140828081D01*
X156242934Y-140856972D01*
X156216647Y-140895696D01*
X156199158Y-140950084D01*
X156192558Y-141025316D01*
X155674336Y-141025316D01*
X155674336Y-140836822D01*
X155554443Y-140836822D01*
X155554443Y-140517627D01*
X156195581Y-140517627D01*
X156195581Y-140586045D01*
X156304999Y-140537903D01*
X156415939Y-140509499D01*
X156529797Y-140500041D01*
X156638627Y-140509329D01*
G37*
G36*
X158032410Y-140504026D02*
G01*
X158154301Y-140532023D01*
X158260107Y-140576668D01*
X158352276Y-140637611D01*
X158413489Y-140697884D01*
X158462844Y-140769675D01*
X158500703Y-140854667D01*
X158526532Y-140955197D01*
X158538938Y-141074134D01*
X157756018Y-141074134D01*
X157766185Y-141168356D01*
X157790195Y-141232408D01*
X157825119Y-141274600D01*
X157871547Y-141299908D01*
X157933430Y-141308974D01*
X157981780Y-141302108D01*
X158022085Y-141282226D01*
X158056395Y-141248418D01*
X158085288Y-141197324D01*
X158516590Y-141250722D01*
X158480685Y-141317854D01*
X158434616Y-141375469D01*
X158378337Y-141424740D01*
X158308770Y-141468434D01*
X158206350Y-141512218D01*
X158088369Y-141539658D01*
X157951840Y-141549309D01*
X157807023Y-141542311D01*
X157685277Y-141522792D01*
X157583301Y-141492580D01*
X157498183Y-141452939D01*
X157427481Y-141404503D01*
X157363401Y-141342567D01*
X157314633Y-141274870D01*
X157279827Y-141200611D01*
X157258521Y-141118506D01*
X157251168Y-141026873D01*
X157261700Y-140922001D01*
X157761147Y-140922001D01*
X157761880Y-140939678D01*
X158046453Y-140939678D01*
X158048377Y-140907530D01*
X158043558Y-140855267D01*
X158029915Y-140811396D01*
X158007985Y-140774265D01*
X157978168Y-140745548D01*
X157943293Y-140728630D01*
X157901648Y-140722791D01*
X157859411Y-140729215D01*
X157825420Y-140747690D01*
X157797600Y-140779211D01*
X157770762Y-140841965D01*
X157761147Y-140922001D01*
X157261700Y-140922001D01*
X157262255Y-140916476D01*
X157294578Y-140817828D01*
X157348251Y-140728341D01*
X157425374Y-140646312D01*
X157514981Y-140582023D01*
X157620377Y-140534698D01*
X157744575Y-140504790D01*
X157891390Y-140494180D01*
X158032410Y-140504026D01*
G37*
G36*
X159514566Y-141148872D02*
G01*
X159514566Y-141461564D01*
X159456118Y-141492516D01*
X159366830Y-141522472D01*
X159266694Y-141542796D01*
X159173481Y-141549309D01*
X159062283Y-141539108D01*
X158973446Y-141510840D01*
X158919433Y-141480415D01*
X158876844Y-141445006D01*
X158844120Y-141404503D01*
X158809040Y-141334344D01*
X158792462Y-141262995D01*
X158785227Y-140999487D01*
X158785227Y-140834166D01*
X158658190Y-140834166D01*
X158658190Y-140517627D01*
X158785227Y-140517627D01*
X158785227Y-140367875D01*
X159306563Y-140123236D01*
X159306563Y-140517627D01*
X159514566Y-140517627D01*
X159514566Y-140834166D01*
X159306563Y-140834166D01*
X159306563Y-141027789D01*
X159311969Y-141115113D01*
X159323599Y-141155009D01*
X159346360Y-141177269D01*
X159390735Y-141185875D01*
X159442182Y-141177857D01*
X159514566Y-141148872D01*
G37*
G36*
X160459207Y-140504026D02*
G01*
X160581098Y-140532023D01*
X160686904Y-140576668D01*
X160779073Y-140637611D01*
X160840286Y-140697884D01*
X160889641Y-140769675D01*
X160927500Y-140854667D01*
X160953328Y-140955197D01*
X160965735Y-141074134D01*
X160182815Y-141074134D01*
X160192982Y-141168356D01*
X160216992Y-141232408D01*
X160251916Y-141274600D01*
X160298344Y-141299908D01*
X160360227Y-141308974D01*
X160408577Y-141302108D01*
X160448882Y-141282226D01*
X160483192Y-141248418D01*
X160512085Y-141197324D01*
X160943387Y-141250722D01*
X160907482Y-141317854D01*
X160861413Y-141375469D01*
X160805134Y-141424740D01*
X160735567Y-141468434D01*
X160633147Y-141512218D01*
X160515166Y-141539658D01*
X160378637Y-141549309D01*
X160233819Y-141542311D01*
X160112074Y-141522792D01*
X160010097Y-141492580D01*
X159924980Y-141452939D01*
X159854278Y-141404503D01*
X159790198Y-141342567D01*
X159741430Y-141274870D01*
X159706624Y-141200611D01*
X159685318Y-141118506D01*
X159677965Y-141026873D01*
X159688497Y-140922001D01*
X160187944Y-140922001D01*
X160188677Y-140939678D01*
X160473250Y-140939678D01*
X160475174Y-140907530D01*
X160470355Y-140855267D01*
X160456712Y-140811396D01*
X160434782Y-140774265D01*
X160404965Y-140745548D01*
X160370090Y-140728630D01*
X160328445Y-140722791D01*
X160286208Y-140729215D01*
X160252217Y-140747690D01*
X160224397Y-140779211D01*
X160197559Y-140841965D01*
X160187944Y-140922001D01*
X159688497Y-140922001D01*
X159689052Y-140916476D01*
X159721375Y-140817828D01*
X159775047Y-140728341D01*
X159852171Y-140646312D01*
X159941778Y-140582023D01*
X160047174Y-140534698D01*
X160171371Y-140504790D01*
X160318186Y-140494180D01*
X160459207Y-140504026D01*
G37*
G36*
X161926984Y-141520000D02*
G01*
X161119791Y-141520000D01*
X161119791Y-141200805D01*
X161255072Y-141200805D01*
X161255072Y-140836822D01*
X161119791Y-140836822D01*
X161119791Y-140517627D01*
X161742519Y-140517627D01*
X161742519Y-140756313D01*
X161781843Y-140681233D01*
X161845193Y-140608302D01*
X161918330Y-140550864D01*
X161987800Y-140519733D01*
X162065310Y-140505816D01*
X162193422Y-140500041D01*
X162193422Y-140945540D01*
X162147443Y-140945540D01*
X162041739Y-140949892D01*
X161966151Y-140961155D01*
X161913886Y-140977048D01*
X161864106Y-141002532D01*
X161829423Y-141030699D01*
X161806725Y-141061495D01*
X161785135Y-141120989D01*
X161776316Y-141202362D01*
X161926984Y-141202362D01*
X161926984Y-141520000D01*
G37*
G36*
X162637913Y-141531723D02*
G01*
X162313406Y-141531723D01*
X162313406Y-141215184D01*
X162615657Y-141215184D01*
X162677181Y-141268563D01*
X162738674Y-141304579D01*
X162801038Y-141325493D01*
X162865517Y-141332421D01*
X162952449Y-141323595D01*
X162989559Y-141304426D01*
X162999881Y-141278840D01*
X162993162Y-141255379D01*
X162971763Y-141237166D01*
X162928601Y-141220890D01*
X162809464Y-141189173D01*
X162573708Y-141122403D01*
X162469166Y-141084290D01*
X162396571Y-141041803D01*
X162337681Y-140990534D01*
X162306445Y-140946181D01*
X162288422Y-140894987D01*
X162281624Y-140823633D01*
X162289732Y-140742117D01*
X162312450Y-140675883D01*
X162348785Y-140621696D01*
X162399685Y-140577527D01*
X162480831Y-140535825D01*
X162578185Y-140509448D01*
X162695433Y-140500041D01*
X162817405Y-140508423D01*
X162918376Y-140531788D01*
X163001988Y-140568277D01*
X163001988Y-140517627D01*
X163322373Y-140517627D01*
X163322373Y-140816580D01*
X163027267Y-140816580D01*
X162969686Y-140769897D01*
X162908365Y-140737307D01*
X162842340Y-140717733D01*
X162770263Y-140711067D01*
X162698261Y-140720065D01*
X162665339Y-140740632D01*
X162655316Y-140770601D01*
X162662997Y-140792734D01*
X162688105Y-140806688D01*
X162884660Y-140850744D01*
X163063463Y-140893367D01*
X163181140Y-140930703D01*
X163249191Y-140962089D01*
X163301703Y-140997655D01*
X163341241Y-141037131D01*
X163370195Y-141083792D01*
X163387913Y-141137387D01*
X163394089Y-141199706D01*
X163385321Y-141283994D01*
X163360642Y-141352858D01*
X163320879Y-141409616D01*
X163264671Y-141456252D01*
X163176102Y-141500240D01*
X163072187Y-141527831D01*
X162949598Y-141537585D01*
X162826617Y-141529900D01*
X162723814Y-141508433D01*
X162637913Y-141474937D01*
X162637913Y-141531723D01*
G37*
G36*
X164414753Y-140504314D02*
G01*
X164551363Y-140533018D01*
X164669237Y-140578491D01*
X164771161Y-140639993D01*
X164844596Y-140703852D01*
X164899681Y-140772870D01*
X164938493Y-140847748D01*
X164962022Y-140929777D01*
X164970097Y-141020737D01*
X164962484Y-141108427D01*
X164940177Y-141188713D01*
X164903213Y-141263120D01*
X164850625Y-141332783D01*
X164780503Y-141398367D01*
X164682670Y-141462094D01*
X164568797Y-141509117D01*
X164435970Y-141538807D01*
X164280599Y-141549309D01*
X164142958Y-141542288D01*
X164024289Y-141522464D01*
X163922043Y-141491326D01*
X163833985Y-141449832D01*
X163758255Y-141398367D01*
X163689278Y-141333385D01*
X163637299Y-141263664D01*
X163600577Y-141188492D01*
X163578307Y-141106675D01*
X163570677Y-141016615D01*
X163570709Y-141016249D01*
X164098058Y-141016249D01*
X164106777Y-141110970D01*
X164129286Y-141174888D01*
X164162402Y-141216627D01*
X164206458Y-141241480D01*
X164265212Y-141250355D01*
X164328305Y-141241166D01*
X164375207Y-141215618D01*
X164410082Y-141173176D01*
X164433572Y-141108855D01*
X164442624Y-141014234D01*
X164437074Y-140943020D01*
X164422038Y-140888229D01*
X164399118Y-140846347D01*
X164365920Y-140813719D01*
X164325177Y-140794151D01*
X164274463Y-140787271D01*
X164224129Y-140793946D01*
X164182192Y-140813166D01*
X164146602Y-140845431D01*
X164121028Y-140887203D01*
X164104269Y-140942798D01*
X164098058Y-141016249D01*
X163570709Y-141016249D01*
X163578078Y-140931418D01*
X163599821Y-140852912D01*
X163635947Y-140779668D01*
X163687456Y-140710616D01*
X163756240Y-140645122D01*
X163852023Y-140581682D01*
X163964984Y-140534649D01*
X164098340Y-140504792D01*
X164256053Y-140494180D01*
X164414753Y-140504314D01*
G37*
G36*
X165918889Y-141520000D02*
G01*
X165126076Y-141520000D01*
X165126076Y-141200805D01*
X165254212Y-141200805D01*
X165254212Y-140836822D01*
X165126076Y-140836822D01*
X165126076Y-140517627D01*
X165775457Y-140517627D01*
X165775457Y-140643565D01*
X165872296Y-140579678D01*
X165971097Y-140535266D01*
X166072966Y-140508886D01*
X166179282Y-140500041D01*
X166274943Y-140507638D01*
X166352927Y-140528766D01*
X166416587Y-140561870D01*
X166468435Y-140606745D01*
X166507160Y-140661938D01*
X166537148Y-140734327D01*
X166557064Y-140828129D01*
X166564423Y-140948471D01*
X166564423Y-141201079D01*
X166682300Y-141201079D01*
X166682300Y-141520000D01*
X166043178Y-141520000D01*
X166043178Y-141073676D01*
X166035391Y-140941910D01*
X166018906Y-140883808D01*
X165998032Y-140860599D01*
X165966484Y-140845678D01*
X165920079Y-140840027D01*
X165876235Y-140845155D01*
X165828457Y-140861477D01*
X165775457Y-140891135D01*
X165775457Y-141200347D01*
X165918889Y-141200347D01*
X165918889Y-141520000D01*
G37*
G36*
X167413746Y-141520000D02*
G01*
X166896532Y-141520000D01*
X166896532Y-141138981D01*
X167413746Y-141138981D01*
X167413746Y-141520000D01*
G37*
G36*
X168501913Y-140504314D02*
G01*
X168638522Y-140533018D01*
X168756397Y-140578491D01*
X168858321Y-140639993D01*
X168931756Y-140703852D01*
X168986841Y-140772870D01*
X169025652Y-140847748D01*
X169049181Y-140929777D01*
X169057257Y-141020737D01*
X169049644Y-141108427D01*
X169027337Y-141188713D01*
X168990373Y-141263120D01*
X168937785Y-141332783D01*
X168867663Y-141398367D01*
X168769829Y-141462094D01*
X168655957Y-141509117D01*
X168523130Y-141538807D01*
X168367759Y-141549309D01*
X168230118Y-141542288D01*
X168111449Y-141522464D01*
X168009203Y-141491326D01*
X167921144Y-141449832D01*
X167845415Y-141398367D01*
X167776438Y-141333385D01*
X167724459Y-141263664D01*
X167687736Y-141188492D01*
X167665467Y-141106675D01*
X167657837Y-141016615D01*
X167657869Y-141016249D01*
X168185218Y-141016249D01*
X168193937Y-141110970D01*
X168216446Y-141174888D01*
X168249562Y-141216627D01*
X168293617Y-141241480D01*
X168352372Y-141250355D01*
X168415465Y-141241166D01*
X168462367Y-141215618D01*
X168497242Y-141173176D01*
X168520732Y-141108855D01*
X168529784Y-141014234D01*
X168524234Y-140943020D01*
X168509198Y-140888229D01*
X168486278Y-140846347D01*
X168453080Y-140813719D01*
X168412337Y-140794151D01*
X168361622Y-140787271D01*
X168311289Y-140793946D01*
X168269352Y-140813166D01*
X168233761Y-140845431D01*
X168208188Y-140887203D01*
X168191429Y-140942798D01*
X168185218Y-141016249D01*
X167657869Y-141016249D01*
X167665237Y-140931418D01*
X167686981Y-140852912D01*
X167723107Y-140779668D01*
X167774615Y-140710616D01*
X167843400Y-140645122D01*
X167939183Y-140581682D01*
X168052144Y-140534649D01*
X168185500Y-140504792D01*
X168343213Y-140494180D01*
X168501913Y-140504314D01*
G37*
G36*
X170016307Y-141520000D02*
G01*
X169209115Y-141520000D01*
X169209115Y-141200805D01*
X169344395Y-141200805D01*
X169344395Y-140836822D01*
X169209115Y-140836822D01*
X169209115Y-140517627D01*
X169831842Y-140517627D01*
X169831842Y-140756313D01*
X169871166Y-140681233D01*
X169934516Y-140608302D01*
X170007653Y-140550864D01*
X170077123Y-140519733D01*
X170154633Y-140505816D01*
X170282745Y-140500041D01*
X170282745Y-140945540D01*
X170236766Y-140945540D01*
X170131062Y-140949892D01*
X170055474Y-140961155D01*
X170003209Y-140977048D01*
X169953429Y-141002532D01*
X169918746Y-141030699D01*
X169896048Y-141061495D01*
X169874458Y-141120989D01*
X169865639Y-141202362D01*
X170016307Y-141202362D01*
X170016307Y-141520000D01*
G37*
G36*
X171042764Y-140509470D02*
G01*
X171149872Y-140536450D01*
X171243993Y-140579909D01*
X171243993Y-140517627D01*
X171887146Y-140517627D01*
X171887146Y-140836455D01*
X171763223Y-140836455D01*
X171763223Y-141379499D01*
X171758793Y-141502428D01*
X171747102Y-141594434D01*
X171730250Y-141661599D01*
X171701860Y-141724059D01*
X171661596Y-141780346D01*
X171608343Y-141831226D01*
X171546849Y-141874719D01*
X171474325Y-141910162D01*
X171389074Y-141937197D01*
X171301181Y-141954913D01*
X171187504Y-141966910D01*
X171042951Y-141971360D01*
X170871126Y-141965132D01*
X170698202Y-141944524D01*
X170543383Y-141913871D01*
X170453654Y-141886181D01*
X170598002Y-141627253D01*
X170680843Y-141653914D01*
X170786863Y-141671705D01*
X170921043Y-141678269D01*
X171009208Y-141673420D01*
X171076752Y-141660433D01*
X171127764Y-141641174D01*
X171174865Y-141613513D01*
X171205598Y-141585426D01*
X171223752Y-141556728D01*
X171238264Y-141502887D01*
X171243993Y-141422089D01*
X171140971Y-141461693D01*
X171027463Y-141486102D01*
X170901626Y-141494537D01*
X170791283Y-141486088D01*
X170692953Y-141461693D01*
X170604625Y-141422049D01*
X170524729Y-141366859D01*
X170457115Y-141297986D01*
X170409039Y-141218070D01*
X170379353Y-141124917D01*
X170370011Y-141026598D01*
X170896314Y-141026598D01*
X170901736Y-141085724D01*
X170917107Y-141135521D01*
X170941834Y-141177815D01*
X170975907Y-141211360D01*
X171017977Y-141231525D01*
X171070611Y-141238632D01*
X171126516Y-141231233D01*
X171169411Y-141210602D01*
X171202503Y-141176808D01*
X171226030Y-141134691D01*
X171240776Y-141084554D01*
X171246008Y-141024492D01*
X171240326Y-140959094D01*
X171224461Y-140905694D01*
X171199388Y-140861918D01*
X171164055Y-140826777D01*
X171122533Y-140806123D01*
X171072718Y-140798995D01*
X171019093Y-140806637D01*
X170976361Y-140828398D01*
X170941834Y-140864940D01*
X170917125Y-140910534D01*
X170901736Y-140963829D01*
X170896314Y-141026598D01*
X170370011Y-141026598D01*
X170368932Y-141015241D01*
X170379712Y-140899414D01*
X170410517Y-140800091D01*
X170460499Y-140714046D01*
X170530774Y-140639077D01*
X170614861Y-140578554D01*
X170706664Y-140535445D01*
X170807719Y-140509112D01*
X170920036Y-140500041D01*
X171042764Y-140509470D01*
G37*
G36*
X142762373Y-143029470D02*
G01*
X142869480Y-143056450D01*
X142963602Y-143099909D01*
X142963602Y-143037627D01*
X143606754Y-143037627D01*
X143606754Y-143356455D01*
X143482832Y-143356455D01*
X143482832Y-143899499D01*
X143478401Y-144022428D01*
X143466710Y-144114434D01*
X143449859Y-144181599D01*
X143421468Y-144244059D01*
X143381205Y-144300346D01*
X143327951Y-144351226D01*
X143266457Y-144394719D01*
X143193933Y-144430162D01*
X143108682Y-144457197D01*
X143020789Y-144474913D01*
X142907113Y-144486910D01*
X142762559Y-144491360D01*
X142590735Y-144485132D01*
X142417811Y-144464524D01*
X142262992Y-144433871D01*
X142173262Y-144406181D01*
X142317610Y-144147253D01*
X142400452Y-144173914D01*
X142506471Y-144191705D01*
X142640652Y-144198269D01*
X142728816Y-144193420D01*
X142796361Y-144180433D01*
X142847373Y-144161174D01*
X142894473Y-144133513D01*
X142925206Y-144105426D01*
X142943360Y-144076728D01*
X142957872Y-144022887D01*
X142963602Y-143942089D01*
X142860579Y-143981693D01*
X142747071Y-144006102D01*
X142621234Y-144014537D01*
X142510891Y-144006088D01*
X142412562Y-143981693D01*
X142324233Y-143942049D01*
X142244337Y-143886859D01*
X142176723Y-143817986D01*
X142128647Y-143738070D01*
X142098962Y-143644917D01*
X142089620Y-143546598D01*
X142615922Y-143546598D01*
X142621345Y-143605724D01*
X142636715Y-143655521D01*
X142661443Y-143697815D01*
X142695516Y-143731360D01*
X142737586Y-143751525D01*
X142790220Y-143758632D01*
X142846125Y-143751233D01*
X142889020Y-143730602D01*
X142922111Y-143696808D01*
X142945638Y-143654691D01*
X142960385Y-143604554D01*
X142965617Y-143544492D01*
X142959934Y-143479094D01*
X142944070Y-143425694D01*
X142918997Y-143381918D01*
X142883663Y-143346777D01*
X142842141Y-143326123D01*
X142792326Y-143318995D01*
X142738701Y-143326637D01*
X142695969Y-143348398D01*
X142661443Y-143384940D01*
X142636733Y-143430534D01*
X142621344Y-143483829D01*
X142615922Y-143546598D01*
X142089620Y-143546598D01*
X142088541Y-143535241D01*
X142099320Y-143419414D01*
X142130125Y-143320091D01*
X142180107Y-143234046D01*
X142250382Y-143159077D01*
X142334469Y-143098554D01*
X142426272Y-143055445D01*
X142527327Y-143029112D01*
X142639644Y-143020041D01*
X142762373Y-143029470D01*
G37*
G36*
X144443713Y-144040000D02*
G01*
X143733974Y-144040000D01*
X143733974Y-143720805D01*
X143836373Y-143720805D01*
X143836373Y-143356822D01*
X143733974Y-143356822D01*
X143733974Y-143037627D01*
X144357709Y-143037627D01*
X144357709Y-143720805D01*
X144443713Y-143720805D01*
X144443713Y-144040000D01*
G37*
G36*
X143793325Y-142761205D02*
G01*
X143802308Y-142711199D01*
X143829290Y-142668025D01*
X143877864Y-142629589D01*
X143934919Y-142603085D01*
X144002311Y-142586346D01*
X144082203Y-142580404D01*
X144164074Y-142586765D01*
X144230199Y-142604367D01*
X144283612Y-142631787D01*
X144327403Y-142671278D01*
X144351718Y-142713491D01*
X144359724Y-142760198D01*
X144351121Y-142810483D01*
X144325634Y-142852924D01*
X144280498Y-142889707D01*
X144225377Y-142915628D01*
X144159359Y-142932097D01*
X144080097Y-142937976D01*
X143999261Y-142932577D01*
X143931938Y-142917496D01*
X143875849Y-142893920D01*
X143829279Y-142859060D01*
X143802556Y-142815765D01*
X143793325Y-142761205D01*
G37*
G36*
X145400748Y-143668872D02*
G01*
X145400748Y-143981564D01*
X145342301Y-144012516D01*
X145253012Y-144042472D01*
X145152876Y-144062796D01*
X145059663Y-144069309D01*
X144948465Y-144059108D01*
X144859628Y-144030840D01*
X144805615Y-144000415D01*
X144763026Y-143965006D01*
X144730302Y-143924503D01*
X144695222Y-143854344D01*
X144678645Y-143782995D01*
X144671409Y-143519487D01*
X144671409Y-143354166D01*
X144544372Y-143354166D01*
X144544372Y-143037627D01*
X144671409Y-143037627D01*
X144671409Y-142887875D01*
X145192745Y-142643236D01*
X145192745Y-143037627D01*
X145400748Y-143037627D01*
X145400748Y-143354166D01*
X145192745Y-143354166D01*
X145192745Y-143547789D01*
X145198151Y-143635113D01*
X145209781Y-143675009D01*
X145232542Y-143697269D01*
X145276917Y-143705875D01*
X145328364Y-143697857D01*
X145400748Y-143668872D01*
G37*
G36*
X146310797Y-144040000D02*
G01*
X145520092Y-144040000D01*
X145520092Y-143721812D01*
X145650151Y-143721812D01*
X145650151Y-142927901D01*
X145520092Y-142927901D01*
X145520092Y-142609713D01*
X146171487Y-142609713D01*
X146171487Y-143158069D01*
X146276873Y-143095403D01*
X146378209Y-143052786D01*
X146476609Y-143028109D01*
X146573297Y-143020041D01*
X146660644Y-143027057D01*
X146734944Y-143046939D01*
X146798518Y-143078705D01*
X146853108Y-143122440D01*
X146894082Y-143176583D01*
X146926326Y-143251319D01*
X146948140Y-143352397D01*
X146956331Y-143486881D01*
X146956331Y-143721079D01*
X147073201Y-143721079D01*
X147073201Y-144040000D01*
X146435086Y-144040000D01*
X146435086Y-143630679D01*
X146427938Y-143462980D01*
X146413837Y-143399595D01*
X146395232Y-143375356D01*
X146366115Y-143359990D01*
X146322246Y-143354166D01*
X146274346Y-143359435D01*
X146224443Y-143375851D01*
X146171487Y-143404999D01*
X146171487Y-143721904D01*
X146310797Y-143721904D01*
X146310797Y-144040000D01*
G37*
G36*
X147302820Y-143356547D02*
G01*
X147182927Y-143356547D01*
X147182927Y-143037627D01*
X147824065Y-143037627D01*
X147824065Y-143516557D01*
X147831069Y-143626211D01*
X147846230Y-143676933D01*
X147863864Y-143698333D01*
X147892233Y-143712241D01*
X147935898Y-143717599D01*
X148017832Y-143706312D01*
X148092793Y-143672536D01*
X148092793Y-143357738D01*
X147956506Y-143357738D01*
X147956506Y-143037627D01*
X148614130Y-143037627D01*
X148614130Y-143720805D01*
X148734022Y-143720805D01*
X148734022Y-144040000D01*
X148092793Y-144040000D01*
X148092793Y-143913787D01*
X147988584Y-143978445D01*
X147885580Y-144022900D01*
X147782707Y-144048961D01*
X147678710Y-144057585D01*
X147603405Y-144051248D01*
X147535097Y-144032769D01*
X147472452Y-144002332D01*
X147414470Y-143959308D01*
X147370303Y-143906957D01*
X147335494Y-143832561D01*
X147311790Y-143729548D01*
X147302820Y-143589646D01*
X147302820Y-143356547D01*
G37*
G36*
X149503296Y-143100367D02*
G01*
X149591533Y-143057411D01*
X149695661Y-143030363D01*
X149819102Y-143020774D01*
X149936634Y-143029878D01*
X150039857Y-143056009D01*
X150131186Y-143098236D01*
X150212485Y-143156787D01*
X150279870Y-143229949D01*
X150327990Y-143314371D01*
X150357751Y-143412283D01*
X150368190Y-143526906D01*
X150358469Y-143638543D01*
X150330546Y-143736009D01*
X150283868Y-143824642D01*
X150217706Y-143905086D01*
X150138264Y-143971768D01*
X150050532Y-144018917D01*
X149952795Y-144047659D01*
X149842640Y-144057585D01*
X149711541Y-144047995D01*
X149599489Y-144020837D01*
X149503296Y-143977626D01*
X149503296Y-144040000D01*
X148851900Y-144040000D01*
X148851900Y-143721354D01*
X148982051Y-143721354D01*
X148982051Y-143535241D01*
X149499266Y-143535241D01*
X149508040Y-143624017D01*
X149530916Y-143684749D01*
X149565147Y-143725180D01*
X149611611Y-143749744D01*
X149674571Y-143758632D01*
X149733582Y-143750002D01*
X149777491Y-143725991D01*
X149810179Y-143686055D01*
X149832219Y-143625460D01*
X149840717Y-143536249D01*
X149834786Y-143466674D01*
X149818743Y-143413759D01*
X149794189Y-143373766D01*
X149760179Y-143343503D01*
X149719620Y-143325340D01*
X149670449Y-143318995D01*
X149618450Y-143326003D01*
X149577088Y-143345848D01*
X149543779Y-143378804D01*
X149519683Y-143422285D01*
X149504605Y-143473801D01*
X149499266Y-143535241D01*
X148982051Y-143535241D01*
X148982051Y-142926252D01*
X148849885Y-142926252D01*
X148849885Y-142609713D01*
X149503296Y-142609713D01*
X149503296Y-143100367D01*
G37*
G36*
X151114932Y-144040000D02*
G01*
X150597717Y-144040000D01*
X150597717Y-143658981D01*
X151114932Y-143658981D01*
X151114932Y-144040000D01*
G37*
G36*
X152236739Y-143623169D02*
G01*
X152626917Y-143711188D01*
X152595259Y-143792146D01*
X152550440Y-143862451D01*
X152491805Y-143923527D01*
X152417723Y-143976069D01*
X152335986Y-144015392D01*
X152243363Y-144044537D01*
X152138215Y-144062876D01*
X152018661Y-144069309D01*
X151860261Y-144059169D01*
X151727495Y-144030785D01*
X151616208Y-143986383D01*
X151522970Y-143926976D01*
X151457143Y-143865482D01*
X151407006Y-143797620D01*
X151371156Y-143722538D01*
X151349148Y-143638837D01*
X151341528Y-143544675D01*
X151352447Y-143432934D01*
X151384081Y-143334344D01*
X151436221Y-143246168D01*
X151510605Y-143166587D01*
X151598296Y-143103376D01*
X151696317Y-143057889D01*
X151806598Y-143029806D01*
X151931650Y-143020041D01*
X152040771Y-143026354D01*
X152129207Y-143043722D01*
X152200497Y-143070305D01*
X152257622Y-143105038D01*
X152257622Y-143037627D01*
X152578008Y-143037627D01*
X152578008Y-143471402D01*
X152258446Y-143471402D01*
X152220973Y-143391725D01*
X152176424Y-143340616D01*
X152124608Y-143311367D01*
X152062808Y-143301409D01*
X152004665Y-143309675D01*
X151957881Y-143333291D01*
X151919651Y-143373033D01*
X151892062Y-143424644D01*
X151874983Y-143484072D01*
X151869001Y-143553101D01*
X151875770Y-143627918D01*
X151894440Y-143687111D01*
X151923681Y-143733994D01*
X151963095Y-143770630D01*
X152008763Y-143792225D01*
X152062808Y-143799665D01*
X152114194Y-143792804D01*
X152155668Y-143773278D01*
X152189660Y-143740726D01*
X152216994Y-143692310D01*
X152236739Y-143623169D01*
G37*
G36*
X153626058Y-143024314D02*
G01*
X153762667Y-143053018D01*
X153880542Y-143098491D01*
X153982465Y-143159993D01*
X154055901Y-143223852D01*
X154110985Y-143292870D01*
X154149797Y-143367748D01*
X154173326Y-143449777D01*
X154181401Y-143540737D01*
X154173788Y-143628427D01*
X154151481Y-143708713D01*
X154114518Y-143783120D01*
X154061929Y-143852783D01*
X153991807Y-143918367D01*
X153893974Y-143982094D01*
X153780101Y-144029117D01*
X153647274Y-144058807D01*
X153491903Y-144069309D01*
X153354262Y-144062288D01*
X153235593Y-144042464D01*
X153133347Y-144011326D01*
X153045289Y-143969832D01*
X152969560Y-143918367D01*
X152900582Y-143853385D01*
X152848603Y-143783664D01*
X152811881Y-143708492D01*
X152789611Y-143626675D01*
X152781981Y-143536615D01*
X152782013Y-143536249D01*
X153309362Y-143536249D01*
X153318081Y-143630970D01*
X153340590Y-143694888D01*
X153373706Y-143736627D01*
X153417762Y-143761480D01*
X153476516Y-143770355D01*
X153539609Y-143761166D01*
X153586512Y-143735618D01*
X153621386Y-143693176D01*
X153644877Y-143628855D01*
X153653928Y-143534234D01*
X153648378Y-143463020D01*
X153633343Y-143408229D01*
X153610422Y-143366347D01*
X153577224Y-143333719D01*
X153536481Y-143314151D01*
X153485767Y-143307271D01*
X153435433Y-143313946D01*
X153393496Y-143333166D01*
X153357906Y-143365431D01*
X153332332Y-143407203D01*
X153315573Y-143462798D01*
X153309362Y-143536249D01*
X152782013Y-143536249D01*
X152789382Y-143451418D01*
X152811125Y-143372912D01*
X152847252Y-143299668D01*
X152898760Y-143230616D01*
X152967545Y-143165122D01*
X153063327Y-143101682D01*
X153176288Y-143054649D01*
X153309645Y-143024792D01*
X153467357Y-143014180D01*
X153626058Y-143024314D01*
G37*
G36*
X155142466Y-144040000D02*
G01*
X154357897Y-144040000D01*
X154357897Y-143720805D01*
X154480812Y-143720805D01*
X154480812Y-143356822D01*
X154355882Y-143356822D01*
X154355882Y-143037627D01*
X155003156Y-143037627D01*
X155003156Y-143174830D01*
X155080981Y-143120366D01*
X155192841Y-143067394D01*
X155311955Y-143031405D01*
X155421361Y-143020041D01*
X155522887Y-143028847D01*
X155604207Y-143053229D01*
X155669427Y-143091440D01*
X155721441Y-143143596D01*
X155761622Y-143211650D01*
X155881242Y-143124293D01*
X155997552Y-143065306D01*
X156112091Y-143031222D01*
X156226721Y-143020041D01*
X156312551Y-143026845D01*
X156383565Y-143045885D01*
X156442510Y-143075912D01*
X156495082Y-143118500D01*
X156535422Y-143168613D01*
X156564601Y-143227220D01*
X156583099Y-143293115D01*
X156595808Y-143381955D01*
X156600596Y-143499246D01*
X156600596Y-143721079D01*
X156731754Y-143721079D01*
X156731754Y-144040000D01*
X156079351Y-144040000D01*
X156079351Y-143611170D01*
X156070876Y-143461199D01*
X156054164Y-143405365D01*
X156034484Y-143384339D01*
X156005701Y-143370921D01*
X155964404Y-143365889D01*
X155910943Y-143372300D01*
X155855991Y-143392233D01*
X155798258Y-143427713D01*
X155798258Y-143722636D01*
X155938667Y-143722636D01*
X155938667Y-144040000D01*
X155277013Y-144040000D01*
X155277013Y-143613185D01*
X155269650Y-143465322D01*
X155254848Y-143407197D01*
X155236696Y-143385281D01*
X155208496Y-143371233D01*
X155166188Y-143365889D01*
X155115990Y-143372118D01*
X155062142Y-143391864D01*
X155003156Y-143427713D01*
X155003156Y-143722636D01*
X155142466Y-143722636D01*
X155142466Y-144040000D01*
G37*
G36*
X157024846Y-144063447D02*
G01*
X156781122Y-144063447D01*
X157129901Y-142580404D01*
X157376647Y-142580404D01*
X157024846Y-144063447D01*
G37*
G36*
X157819490Y-144051723D02*
G01*
X157494983Y-144051723D01*
X157494983Y-143735184D01*
X157797233Y-143735184D01*
X157858757Y-143788563D01*
X157920250Y-143824579D01*
X157982614Y-143845493D01*
X158047094Y-143852421D01*
X158134026Y-143843595D01*
X158171135Y-143824426D01*
X158181458Y-143798840D01*
X158174739Y-143775379D01*
X158153339Y-143757166D01*
X158110177Y-143740890D01*
X157991040Y-143709173D01*
X157755284Y-143642403D01*
X157650742Y-143604290D01*
X157578147Y-143561803D01*
X157519258Y-143510534D01*
X157488022Y-143466181D01*
X157469999Y-143414987D01*
X157463201Y-143343633D01*
X157471308Y-143262117D01*
X157494027Y-143195883D01*
X157530362Y-143141696D01*
X157581261Y-143097527D01*
X157662407Y-143055825D01*
X157759762Y-143029448D01*
X157877009Y-143020041D01*
X157998981Y-143028423D01*
X158099953Y-143051788D01*
X158183564Y-143088277D01*
X158183564Y-143037627D01*
X158503950Y-143037627D01*
X158503950Y-143336580D01*
X158208843Y-143336580D01*
X158151262Y-143289897D01*
X158089942Y-143257307D01*
X158023916Y-143237733D01*
X157951839Y-143231067D01*
X157879837Y-143240065D01*
X157846915Y-143260632D01*
X157836892Y-143290601D01*
X157844573Y-143312734D01*
X157869682Y-143326688D01*
X158066236Y-143370744D01*
X158245039Y-143413367D01*
X158362716Y-143450703D01*
X158430767Y-143482089D01*
X158483279Y-143517655D01*
X158522818Y-143557131D01*
X158551771Y-143603792D01*
X158569489Y-143657387D01*
X158575666Y-143719706D01*
X158566897Y-143803994D01*
X158542218Y-143872858D01*
X158502455Y-143929616D01*
X158446247Y-143976252D01*
X158357678Y-144020240D01*
X158253764Y-144047831D01*
X158131174Y-144057585D01*
X158008194Y-144049900D01*
X157905391Y-144028433D01*
X157819490Y-143994937D01*
X157819490Y-144051723D01*
G37*
G36*
X159499911Y-144040000D02*
G01*
X158709205Y-144040000D01*
X158709205Y-143721812D01*
X158839265Y-143721812D01*
X158839265Y-142927901D01*
X158709205Y-142927901D01*
X158709205Y-142609713D01*
X159360601Y-142609713D01*
X159360601Y-143158069D01*
X159465986Y-143095403D01*
X159567323Y-143052786D01*
X159665722Y-143028109D01*
X159762411Y-143020041D01*
X159849758Y-143027057D01*
X159924058Y-143046939D01*
X159987631Y-143078705D01*
X160042222Y-143122440D01*
X160083196Y-143176583D01*
X160115440Y-143251319D01*
X160137254Y-143352397D01*
X160145445Y-143486881D01*
X160145445Y-143721079D01*
X160262315Y-143721079D01*
X160262315Y-144040000D01*
X159624200Y-144040000D01*
X159624200Y-143630679D01*
X159617052Y-143462980D01*
X159602951Y-143399595D01*
X159584346Y-143375356D01*
X159555229Y-143359990D01*
X159511360Y-143354166D01*
X159463460Y-143359435D01*
X159413556Y-143375851D01*
X159360601Y-143404999D01*
X159360601Y-143721904D01*
X159499911Y-143721904D01*
X159499911Y-144040000D01*
G37*
G36*
X161246644Y-143020866D02*
G01*
X161396121Y-143040833D01*
X161486311Y-143063150D01*
X161552322Y-143089966D01*
X161599270Y-143120059D01*
X161656740Y-143178558D01*
X161691319Y-143237753D01*
X161710220Y-143311895D01*
X161718155Y-143439162D01*
X161718155Y-143722453D01*
X161845192Y-143722453D01*
X161845192Y-144040000D01*
X161196910Y-144040000D01*
X161196910Y-143972131D01*
X161131372Y-144007363D01*
X161052325Y-144034107D01*
X160957265Y-144051380D01*
X160843277Y-144057585D01*
X160736173Y-144050736D01*
X160649730Y-144031886D01*
X160580254Y-144002932D01*
X160524724Y-143964803D01*
X160475793Y-143914415D01*
X160442425Y-143861581D01*
X160422737Y-143805435D01*
X160416097Y-143744618D01*
X160421827Y-143697907D01*
X160909681Y-143697907D01*
X160919943Y-143753130D01*
X160949798Y-143796001D01*
X160994301Y-143825283D01*
X161044045Y-143834836D01*
X161105613Y-143828628D01*
X161155758Y-143811206D01*
X161196910Y-143783270D01*
X161196910Y-143601553D01*
X161128048Y-143574291D01*
X161054303Y-143565191D01*
X160993253Y-143574886D01*
X160948699Y-143601919D01*
X160919608Y-143644408D01*
X160909681Y-143697907D01*
X160421827Y-143697907D01*
X160424247Y-143678183D01*
X160448255Y-143618722D01*
X160489049Y-143564322D01*
X160549545Y-143513992D01*
X160616777Y-143476506D01*
X160695172Y-143448555D01*
X160786649Y-143430800D01*
X160893469Y-143424508D01*
X161022281Y-143431180D01*
X161121529Y-143449079D01*
X161196910Y-143475615D01*
X161196910Y-143450519D01*
X161192874Y-143365748D01*
X161183813Y-143322383D01*
X161162515Y-143288500D01*
X161121623Y-143257354D01*
X161068147Y-143237906D01*
X161004111Y-143231067D01*
X160944918Y-143237258D01*
X160894810Y-143254943D01*
X160851854Y-143283835D01*
X160814884Y-143325040D01*
X160405380Y-143283640D01*
X160445469Y-143213132D01*
X160494784Y-143155463D01*
X160553844Y-143109151D01*
X160623917Y-143073531D01*
X160724357Y-143043340D01*
X160865222Y-143022242D01*
X161057417Y-143014180D01*
X161246644Y-143020866D01*
G37*
G36*
X162772552Y-144040000D02*
G01*
X161965359Y-144040000D01*
X161965359Y-143720805D01*
X162100639Y-143720805D01*
X162100639Y-143356822D01*
X161965359Y-143356822D01*
X161965359Y-143037627D01*
X162588087Y-143037627D01*
X162588087Y-143276313D01*
X162627410Y-143201233D01*
X162690761Y-143128302D01*
X162763898Y-143070864D01*
X162833368Y-143039733D01*
X162910878Y-143025816D01*
X163038990Y-143020041D01*
X163038990Y-143465540D01*
X162993011Y-143465540D01*
X162887307Y-143469892D01*
X162811719Y-143481155D01*
X162759454Y-143497048D01*
X162709674Y-143522532D01*
X162674990Y-143550699D01*
X162652292Y-143581495D01*
X162630703Y-143640989D01*
X162621884Y-143722362D01*
X162772552Y-143722362D01*
X162772552Y-144040000D01*
G37*
G36*
X163734533Y-144040000D02*
G01*
X163086159Y-144040000D01*
X163086159Y-143721812D01*
X163213288Y-143721812D01*
X163213288Y-142927901D01*
X163084144Y-142927901D01*
X163084144Y-142609713D01*
X163734533Y-142609713D01*
X163734533Y-143596332D01*
X164048232Y-143288953D01*
X163871095Y-143288953D01*
X163871095Y-143037627D01*
X164512232Y-143037627D01*
X164512232Y-143313682D01*
X164394721Y-143313682D01*
X164211172Y-143493659D01*
X164432640Y-143720805D01*
X164515346Y-143720805D01*
X164515346Y-144040000D01*
X164141197Y-144040000D01*
X163734533Y-143610621D01*
X163734533Y-144040000D01*
G37*
G36*
X165371906Y-144040000D02*
G01*
X164662167Y-144040000D01*
X164662167Y-143720805D01*
X164764566Y-143720805D01*
X164764566Y-143356822D01*
X164662167Y-143356822D01*
X164662167Y-143037627D01*
X165285902Y-143037627D01*
X165285902Y-143720805D01*
X165371906Y-143720805D01*
X165371906Y-144040000D01*
G37*
G36*
X164721518Y-142761205D02*
G01*
X164730500Y-142711199D01*
X164757483Y-142668025D01*
X164806056Y-142629589D01*
X164863111Y-142603085D01*
X164930503Y-142586346D01*
X165010396Y-142580404D01*
X165092266Y-142586765D01*
X165158392Y-142604367D01*
X165211805Y-142631787D01*
X165255595Y-142671278D01*
X165279910Y-142713491D01*
X165287917Y-142760198D01*
X165279314Y-142810483D01*
X165253826Y-142852924D01*
X165208691Y-142889707D01*
X165153570Y-142915628D01*
X165087551Y-142932097D01*
X165008289Y-142937976D01*
X164927453Y-142932577D01*
X164860131Y-142917496D01*
X164804041Y-142893920D01*
X164757472Y-142859060D01*
X164730749Y-142815765D01*
X164721518Y-142761205D01*
G37*
G36*
X166304303Y-144040000D02*
G01*
X165511491Y-144040000D01*
X165511491Y-143720805D01*
X165639627Y-143720805D01*
X165639627Y-143356822D01*
X165511491Y-143356822D01*
X165511491Y-143037627D01*
X166160871Y-143037627D01*
X166160871Y-143163565D01*
X166257711Y-143099678D01*
X166356511Y-143055266D01*
X166458380Y-143028886D01*
X166564696Y-143020041D01*
X166660358Y-143027638D01*
X166738341Y-143048766D01*
X166802001Y-143081870D01*
X166853849Y-143126745D01*
X166892574Y-143181938D01*
X166922562Y-143254327D01*
X166942479Y-143348129D01*
X166949837Y-143468471D01*
X166949837Y-143721079D01*
X167067715Y-143721079D01*
X167067715Y-144040000D01*
X166428592Y-144040000D01*
X166428592Y-143593676D01*
X166420806Y-143461910D01*
X166404321Y-143403808D01*
X166383446Y-143380599D01*
X166351898Y-143365678D01*
X166305494Y-143360027D01*
X166261649Y-143365155D01*
X166213872Y-143381477D01*
X166160871Y-143411135D01*
X166160871Y-143720347D01*
X166304303Y-143720347D01*
X166304303Y-144040000D01*
G37*
G36*
X167886169Y-143029470D02*
G01*
X167993276Y-143056450D01*
X168087398Y-143099909D01*
X168087398Y-143037627D01*
X168730550Y-143037627D01*
X168730550Y-143356455D01*
X168606628Y-143356455D01*
X168606628Y-143899499D01*
X168602197Y-144022428D01*
X168590507Y-144114434D01*
X168573655Y-144181599D01*
X168545264Y-144244059D01*
X168505001Y-144300346D01*
X168451747Y-144351226D01*
X168390253Y-144394719D01*
X168317729Y-144430162D01*
X168232478Y-144457197D01*
X168144585Y-144474913D01*
X168030909Y-144486910D01*
X167886356Y-144491360D01*
X167714531Y-144485132D01*
X167541607Y-144464524D01*
X167386788Y-144433871D01*
X167297059Y-144406181D01*
X167441406Y-144147253D01*
X167524248Y-144173914D01*
X167630267Y-144191705D01*
X167764448Y-144198269D01*
X167852612Y-144193420D01*
X167920157Y-144180433D01*
X167971169Y-144161174D01*
X168018269Y-144133513D01*
X168049003Y-144105426D01*
X168067156Y-144076728D01*
X168081669Y-144022887D01*
X168087398Y-143942089D01*
X167984375Y-143981693D01*
X167870868Y-144006102D01*
X167745031Y-144014537D01*
X167634687Y-144006088D01*
X167536358Y-143981693D01*
X167448030Y-143942049D01*
X167368133Y-143886859D01*
X167300520Y-143817986D01*
X167252444Y-143738070D01*
X167222758Y-143644917D01*
X167213416Y-143546598D01*
X167739718Y-143546598D01*
X167745141Y-143605724D01*
X167760511Y-143655521D01*
X167785239Y-143697815D01*
X167819312Y-143731360D01*
X167861382Y-143751525D01*
X167914016Y-143758632D01*
X167969921Y-143751233D01*
X168012816Y-143730602D01*
X168045907Y-143696808D01*
X168069435Y-143654691D01*
X168084181Y-143604554D01*
X168089413Y-143544492D01*
X168083730Y-143479094D01*
X168067866Y-143425694D01*
X168042793Y-143381918D01*
X168007459Y-143346777D01*
X167965938Y-143326123D01*
X167916123Y-143318995D01*
X167862498Y-143326637D01*
X167819766Y-143348398D01*
X167785239Y-143384940D01*
X167760530Y-143430534D01*
X167745140Y-143483829D01*
X167739718Y-143546598D01*
X167213416Y-143546598D01*
X167212337Y-143535241D01*
X167223116Y-143419414D01*
X167253921Y-143320091D01*
X167303903Y-143234046D01*
X167374178Y-143159077D01*
X167458265Y-143098554D01*
X167550069Y-143055445D01*
X167651123Y-143029112D01*
X167763440Y-143020041D01*
X167886169Y-143029470D01*
G37*
G36*
X169232470Y-144051723D02*
G01*
X168907962Y-144051723D01*
X168907962Y-143735184D01*
X169210213Y-143735184D01*
X169271737Y-143788563D01*
X169333230Y-143824579D01*
X169395594Y-143845493D01*
X169460073Y-143852421D01*
X169547005Y-143843595D01*
X169584115Y-143824426D01*
X169594437Y-143798840D01*
X169587718Y-143775379D01*
X169566319Y-143757166D01*
X169523157Y-143740890D01*
X169404020Y-143709173D01*
X169168264Y-143642403D01*
X169063722Y-143604290D01*
X168991127Y-143561803D01*
X168932238Y-143510534D01*
X168901001Y-143466181D01*
X168882978Y-143414987D01*
X168876180Y-143343633D01*
X168884288Y-143262117D01*
X168907007Y-143195883D01*
X168943341Y-143141696D01*
X168994241Y-143097527D01*
X169075387Y-143055825D01*
X169172741Y-143029448D01*
X169289989Y-143020041D01*
X169411961Y-143028423D01*
X169512932Y-143051788D01*
X169596544Y-143088277D01*
X169596544Y-143037627D01*
X169916930Y-143037627D01*
X169916930Y-143336580D01*
X169621823Y-143336580D01*
X169564242Y-143289897D01*
X169502921Y-143257307D01*
X169436896Y-143237733D01*
X169364819Y-143231067D01*
X169292817Y-143240065D01*
X169259895Y-143260632D01*
X169249872Y-143290601D01*
X169257553Y-143312734D01*
X169282661Y-143326688D01*
X169479216Y-143370744D01*
X169658019Y-143413367D01*
X169775696Y-143450703D01*
X169843747Y-143482089D01*
X169896259Y-143517655D01*
X169935797Y-143557131D01*
X169964751Y-143603792D01*
X169982469Y-143657387D01*
X169988645Y-143719706D01*
X169979877Y-143803994D01*
X169955198Y-143872858D01*
X169915435Y-143929616D01*
X169859227Y-143976252D01*
X169770658Y-144020240D01*
X169666744Y-144047831D01*
X169544154Y-144057585D01*
X169421173Y-144049900D01*
X169318371Y-144028433D01*
X169232470Y-143994937D01*
X169232470Y-144051723D01*
G37*
G36*
X170964182Y-143668872D02*
G01*
X170964182Y-143981564D01*
X170905734Y-144012516D01*
X170816445Y-144042472D01*
X170716310Y-144062796D01*
X170623097Y-144069309D01*
X170511899Y-144059108D01*
X170423062Y-144030840D01*
X170369048Y-144000415D01*
X170326460Y-143965006D01*
X170293735Y-143924503D01*
X170258656Y-143854344D01*
X170242078Y-143782995D01*
X170234842Y-143519487D01*
X170234842Y-143354166D01*
X170107805Y-143354166D01*
X170107805Y-143037627D01*
X170234842Y-143037627D01*
X170234842Y-142887875D01*
X170756179Y-142643236D01*
X170756179Y-143037627D01*
X170964182Y-143037627D01*
X170964182Y-143354166D01*
X170756179Y-143354166D01*
X170756179Y-143547789D01*
X170761584Y-143635113D01*
X170773214Y-143675009D01*
X170795975Y-143697269D01*
X170840351Y-143705875D01*
X170891797Y-143697857D01*
X170964182Y-143668872D01*
G37*
G36*
X171204425Y-143356547D02*
G01*
X171084533Y-143356547D01*
X171084533Y-143037627D01*
X171725670Y-143037627D01*
X171725670Y-143516557D01*
X171732674Y-143626211D01*
X171747835Y-143676933D01*
X171765469Y-143698333D01*
X171793838Y-143712241D01*
X171837503Y-143717599D01*
X171919437Y-143706312D01*
X171994398Y-143672536D01*
X171994398Y-143357738D01*
X171858111Y-143357738D01*
X171858111Y-143037627D01*
X172515735Y-143037627D01*
X172515735Y-143720805D01*
X172635627Y-143720805D01*
X172635627Y-144040000D01*
X171994398Y-144040000D01*
X171994398Y-143913787D01*
X171890190Y-143978445D01*
X171787185Y-144022900D01*
X171684312Y-144048961D01*
X171580315Y-144057585D01*
X171505010Y-144051248D01*
X171436702Y-144032769D01*
X171374057Y-144002332D01*
X171316075Y-143959308D01*
X171271908Y-143906957D01*
X171237099Y-143832561D01*
X171213395Y-143729548D01*
X171204425Y-143589646D01*
X171204425Y-143356547D01*
G37*
G36*
X174183699Y-143721812D02*
G01*
X174312751Y-143721812D01*
X174312751Y-144040000D01*
X173662363Y-144040000D01*
X173662363Y-143977626D01*
X173566285Y-144021169D01*
X173457469Y-144048167D01*
X173333368Y-144057585D01*
X173229827Y-144049366D01*
X173133959Y-144025228D01*
X173044269Y-143985275D01*
X172959585Y-143928716D01*
X172901612Y-143873475D01*
X172856731Y-143810285D01*
X172824080Y-143738050D01*
X172803702Y-143655107D01*
X172796553Y-143559330D01*
X172797764Y-143544492D01*
X173325033Y-143544492D01*
X173330173Y-143605305D01*
X173344611Y-143655788D01*
X173367531Y-143697907D01*
X173399219Y-143731209D01*
X173440102Y-143751413D01*
X173493194Y-143758632D01*
X173541843Y-143752457D01*
X173582842Y-143734654D01*
X173618033Y-143704868D01*
X173642684Y-143665944D01*
X173659218Y-143611132D01*
X173665477Y-143535241D01*
X173660380Y-143474412D01*
X173645975Y-143423164D01*
X173622979Y-143379719D01*
X173590721Y-143346326D01*
X173549775Y-143326160D01*
X173497316Y-143318995D01*
X173435814Y-143327845D01*
X173390223Y-143352396D01*
X173356443Y-143393035D01*
X173333759Y-143454416D01*
X173325033Y-143544492D01*
X172797764Y-143544492D01*
X172807017Y-143431073D01*
X172836436Y-143324109D01*
X172883095Y-143234506D01*
X172947037Y-143159351D01*
X173025865Y-143100040D01*
X173117500Y-143056766D01*
X173224381Y-143029622D01*
X173349671Y-143020041D01*
X173470995Y-143029586D01*
X173574158Y-143056613D01*
X173662363Y-143099726D01*
X173662363Y-142926527D01*
X173535326Y-142926527D01*
X173535326Y-142609713D01*
X174183699Y-142609713D01*
X174183699Y-143721812D01*
G37*
G36*
X175164090Y-144040000D02*
G01*
X174454351Y-144040000D01*
X174454351Y-143720805D01*
X174556750Y-143720805D01*
X174556750Y-143356822D01*
X174454351Y-143356822D01*
X174454351Y-143037627D01*
X175078086Y-143037627D01*
X175078086Y-143720805D01*
X175164090Y-143720805D01*
X175164090Y-144040000D01*
G37*
G36*
X174513702Y-142761205D02*
G01*
X174522684Y-142711199D01*
X174549667Y-142668025D01*
X174598241Y-142629589D01*
X174655295Y-142603085D01*
X174722688Y-142586346D01*
X174802580Y-142580404D01*
X174884451Y-142586765D01*
X174950576Y-142604367D01*
X175003989Y-142631787D01*
X175047779Y-142671278D01*
X175072095Y-142713491D01*
X175080101Y-142760198D01*
X175071498Y-142810483D01*
X175046011Y-142852924D01*
X175000875Y-142889707D01*
X174945754Y-142915628D01*
X174879736Y-142932097D01*
X174800474Y-142937976D01*
X174719637Y-142932577D01*
X174652315Y-142917496D01*
X174596226Y-142893920D01*
X174549656Y-142859060D01*
X174522933Y-142815765D01*
X174513702Y-142761205D01*
G37*
G36*
X176166253Y-143024314D02*
G01*
X176302862Y-143053018D01*
X176420737Y-143098491D01*
X176522661Y-143159993D01*
X176596096Y-143223852D01*
X176651180Y-143292870D01*
X176689992Y-143367748D01*
X176713521Y-143449777D01*
X176721596Y-143540737D01*
X176713983Y-143628427D01*
X176691677Y-143708713D01*
X176654713Y-143783120D01*
X176602125Y-143852783D01*
X176532003Y-143918367D01*
X176434169Y-143982094D01*
X176320297Y-144029117D01*
X176187470Y-144058807D01*
X176032099Y-144069309D01*
X175894457Y-144062288D01*
X175775788Y-144042464D01*
X175673542Y-144011326D01*
X175585484Y-143969832D01*
X175509755Y-143918367D01*
X175440777Y-143853385D01*
X175388798Y-143783664D01*
X175352076Y-143708492D01*
X175329807Y-143626675D01*
X175322176Y-143536615D01*
X175322208Y-143536249D01*
X175849558Y-143536249D01*
X175858276Y-143630970D01*
X175880786Y-143694888D01*
X175913901Y-143736627D01*
X175957957Y-143761480D01*
X176016711Y-143770355D01*
X176079805Y-143761166D01*
X176126707Y-143735618D01*
X176161581Y-143693176D01*
X176185072Y-143628855D01*
X176194123Y-143534234D01*
X176188574Y-143463020D01*
X176173538Y-143408229D01*
X176150618Y-143366347D01*
X176117420Y-143333719D01*
X176076676Y-143314151D01*
X176025962Y-143307271D01*
X175975629Y-143313946D01*
X175933692Y-143333166D01*
X175898101Y-143365431D01*
X175872528Y-143407203D01*
X175855768Y-143462798D01*
X175849558Y-143536249D01*
X175322208Y-143536249D01*
X175329577Y-143451418D01*
X175351321Y-143372912D01*
X175387447Y-143299668D01*
X175438955Y-143230616D01*
X175507740Y-143165122D01*
X175603522Y-143101682D01*
X175716484Y-143054649D01*
X175849840Y-143024792D01*
X176007552Y-143014180D01*
X176166253Y-143024314D01*
G37*
G36*
X177254382Y-144051723D02*
G01*
X176929874Y-144051723D01*
X176929874Y-143735184D01*
X177232125Y-143735184D01*
X177293649Y-143788563D01*
X177355142Y-143824579D01*
X177417506Y-143845493D01*
X177481985Y-143852421D01*
X177568917Y-143843595D01*
X177606027Y-143824426D01*
X177616349Y-143798840D01*
X177609630Y-143775379D01*
X177588231Y-143757166D01*
X177545069Y-143740890D01*
X177425932Y-143709173D01*
X177190176Y-143642403D01*
X177085634Y-143604290D01*
X177013039Y-143561803D01*
X176954150Y-143510534D01*
X176922914Y-143466181D01*
X176904890Y-143414987D01*
X176898092Y-143343633D01*
X176906200Y-143262117D01*
X176928919Y-143195883D01*
X176965254Y-143141696D01*
X177016153Y-143097527D01*
X177097299Y-143055825D01*
X177194654Y-143029448D01*
X177311901Y-143020041D01*
X177433873Y-143028423D01*
X177534844Y-143051788D01*
X177618456Y-143088277D01*
X177618456Y-143037627D01*
X177938842Y-143037627D01*
X177938842Y-143336580D01*
X177643735Y-143336580D01*
X177586154Y-143289897D01*
X177524833Y-143257307D01*
X177458808Y-143237733D01*
X177386731Y-143231067D01*
X177314729Y-143240065D01*
X177281807Y-143260632D01*
X177271784Y-143290601D01*
X177279465Y-143312734D01*
X177304574Y-143326688D01*
X177501128Y-143370744D01*
X177679931Y-143413367D01*
X177797608Y-143450703D01*
X177865659Y-143482089D01*
X177918171Y-143517655D01*
X177957709Y-143557131D01*
X177986663Y-143603792D01*
X178004381Y-143657387D01*
X178010557Y-143719706D01*
X178001789Y-143803994D01*
X177977110Y-143872858D01*
X177937347Y-143929616D01*
X177881139Y-143976252D01*
X177792570Y-144020240D01*
X177688656Y-144047831D01*
X177566066Y-144057585D01*
X177443085Y-144049900D01*
X177340283Y-144028433D01*
X177254382Y-143994937D01*
X177254382Y-144051723D01*
G37*
G36*
X148280189Y-149080000D02*
G01*
X147474005Y-149080000D01*
X147474005Y-148732778D01*
X147597011Y-148732778D01*
X147597011Y-147995561D01*
X147438925Y-147995561D01*
X147438925Y-148253482D01*
X147165618Y-148253482D01*
X147165618Y-147649713D01*
X148584455Y-147649713D01*
X148584455Y-148253482D01*
X148311147Y-148253482D01*
X148311147Y-147995561D01*
X148154068Y-147995561D01*
X148154068Y-148732778D01*
X148280189Y-148732778D01*
X148280189Y-149080000D01*
G37*
G36*
X149497434Y-149080000D02*
G01*
X148706729Y-149080000D01*
X148706729Y-148761812D01*
X148836788Y-148761812D01*
X148836788Y-147967901D01*
X148706729Y-147967901D01*
X148706729Y-147649713D01*
X149358124Y-147649713D01*
X149358124Y-148198069D01*
X149463510Y-148135403D01*
X149564846Y-148092786D01*
X149663246Y-148068109D01*
X149759934Y-148060041D01*
X149847281Y-148067057D01*
X149921581Y-148086939D01*
X149985155Y-148118705D01*
X150039745Y-148162440D01*
X150080720Y-148216583D01*
X150112963Y-148291319D01*
X150134777Y-148392397D01*
X150142968Y-148526881D01*
X150142968Y-148761079D01*
X150259839Y-148761079D01*
X150259839Y-149080000D01*
X149621724Y-149080000D01*
X149621724Y-148670679D01*
X149614575Y-148502980D01*
X149600474Y-148439595D01*
X149581869Y-148415356D01*
X149552752Y-148399990D01*
X149508883Y-148394166D01*
X149460984Y-148399435D01*
X149411080Y-148415851D01*
X149358124Y-148444999D01*
X149358124Y-148761904D01*
X149497434Y-148761904D01*
X149497434Y-149080000D01*
G37*
G36*
X151104949Y-149080000D02*
G01*
X150395210Y-149080000D01*
X150395210Y-148760805D01*
X150497609Y-148760805D01*
X150497609Y-148396822D01*
X150395210Y-148396822D01*
X150395210Y-148077627D01*
X151018945Y-148077627D01*
X151018945Y-148760805D01*
X151104949Y-148760805D01*
X151104949Y-149080000D01*
G37*
G36*
X150454561Y-147801205D02*
G01*
X150463544Y-147751199D01*
X150490526Y-147708025D01*
X150539100Y-147669589D01*
X150596155Y-147643085D01*
X150663547Y-147626346D01*
X150743439Y-147620404D01*
X150825310Y-147626765D01*
X150891435Y-147644367D01*
X150944848Y-147671787D01*
X150988638Y-147711278D01*
X151012954Y-147753491D01*
X151020960Y-147800198D01*
X151012357Y-147850483D01*
X150986870Y-147892924D01*
X150941734Y-147929707D01*
X150886613Y-147955628D01*
X150820595Y-147972097D01*
X150741333Y-147977976D01*
X150660497Y-147972577D01*
X150593174Y-147957496D01*
X150537085Y-147933920D01*
X150490515Y-147899060D01*
X150463792Y-147855765D01*
X150454561Y-147801205D01*
G37*
G36*
X151621340Y-149091723D02*
G01*
X151296833Y-149091723D01*
X151296833Y-148775184D01*
X151599083Y-148775184D01*
X151660607Y-148828563D01*
X151722101Y-148864579D01*
X151784464Y-148885493D01*
X151848944Y-148892421D01*
X151935876Y-148883595D01*
X151972985Y-148864426D01*
X151983308Y-148838840D01*
X151976589Y-148815379D01*
X151955189Y-148797166D01*
X151912027Y-148780890D01*
X151792890Y-148749173D01*
X151557134Y-148682403D01*
X151452592Y-148644290D01*
X151379997Y-148601803D01*
X151321108Y-148550534D01*
X151289872Y-148506181D01*
X151271849Y-148454987D01*
X151265051Y-148383633D01*
X151273158Y-148302117D01*
X151295877Y-148235883D01*
X151332212Y-148181696D01*
X151383111Y-148137527D01*
X151464257Y-148095825D01*
X151561612Y-148069448D01*
X151678859Y-148060041D01*
X151800831Y-148068423D01*
X151901803Y-148091788D01*
X151985414Y-148128277D01*
X151985414Y-148077627D01*
X152305800Y-148077627D01*
X152305800Y-148376580D01*
X152010693Y-148376580D01*
X151953112Y-148329897D01*
X151891792Y-148297307D01*
X151825766Y-148277733D01*
X151753689Y-148271067D01*
X151681687Y-148280065D01*
X151648765Y-148300632D01*
X151638742Y-148330601D01*
X151646423Y-148352734D01*
X151671532Y-148366688D01*
X151868086Y-148410744D01*
X152046889Y-148453367D01*
X152164566Y-148490703D01*
X152232617Y-148522089D01*
X152285129Y-148557655D01*
X152324668Y-148597131D01*
X152353621Y-148643792D01*
X152371339Y-148697387D01*
X152377516Y-148759706D01*
X152368747Y-148843994D01*
X152344068Y-148912858D01*
X152304305Y-148969616D01*
X152248097Y-149016252D01*
X152159528Y-149060240D01*
X152055614Y-149087831D01*
X151933024Y-149097585D01*
X151810044Y-149089900D01*
X151707241Y-149068433D01*
X151621340Y-149034937D01*
X151621340Y-149091723D01*
G37*
G36*
X153976970Y-148663169D02*
G01*
X154367148Y-148751188D01*
X154335490Y-148832146D01*
X154290671Y-148902451D01*
X154232036Y-148963527D01*
X154157954Y-149016069D01*
X154076217Y-149055392D01*
X153983594Y-149084537D01*
X153878446Y-149102876D01*
X153758892Y-149109309D01*
X153600492Y-149099169D01*
X153467726Y-149070785D01*
X153356439Y-149026383D01*
X153263201Y-148966976D01*
X153197374Y-148905482D01*
X153147237Y-148837620D01*
X153111387Y-148762538D01*
X153089379Y-148678837D01*
X153081759Y-148584675D01*
X153092678Y-148472934D01*
X153124312Y-148374344D01*
X153176452Y-148286168D01*
X153250836Y-148206587D01*
X153338527Y-148143376D01*
X153436548Y-148097889D01*
X153546829Y-148069806D01*
X153671881Y-148060041D01*
X153781002Y-148066354D01*
X153869438Y-148083722D01*
X153940728Y-148110305D01*
X153997853Y-148145038D01*
X153997853Y-148077627D01*
X154318239Y-148077627D01*
X154318239Y-148511402D01*
X153998678Y-148511402D01*
X153961204Y-148431725D01*
X153916655Y-148380616D01*
X153864839Y-148351367D01*
X153803039Y-148341409D01*
X153744896Y-148349675D01*
X153698112Y-148373291D01*
X153659882Y-148413033D01*
X153632293Y-148464644D01*
X153615214Y-148524072D01*
X153609232Y-148593101D01*
X153616001Y-148667918D01*
X153634672Y-148727111D01*
X153663912Y-148773994D01*
X153703327Y-148810630D01*
X153748994Y-148832225D01*
X153803039Y-148839665D01*
X153854425Y-148832804D01*
X153895899Y-148813278D01*
X153929891Y-148780726D01*
X153957225Y-148732310D01*
X153976970Y-148663169D01*
G37*
G36*
X155354775Y-148060866D02*
G01*
X155504251Y-148080833D01*
X155594442Y-148103150D01*
X155660452Y-148129966D01*
X155707400Y-148160059D01*
X155764870Y-148218558D01*
X155799449Y-148277753D01*
X155818350Y-148351895D01*
X155826286Y-148479162D01*
X155826286Y-148762453D01*
X155953322Y-148762453D01*
X155953322Y-149080000D01*
X155305041Y-149080000D01*
X155305041Y-149012131D01*
X155239502Y-149047363D01*
X155160456Y-149074107D01*
X155065396Y-149091380D01*
X154951408Y-149097585D01*
X154844304Y-149090736D01*
X154757860Y-149071886D01*
X154688385Y-149042932D01*
X154632854Y-149004803D01*
X154583924Y-148954415D01*
X154550556Y-148901581D01*
X154530868Y-148845435D01*
X154524227Y-148784618D01*
X154529957Y-148737907D01*
X155017811Y-148737907D01*
X155028074Y-148793130D01*
X155057928Y-148836001D01*
X155102432Y-148865283D01*
X155152175Y-148874836D01*
X155213744Y-148868628D01*
X155263889Y-148851206D01*
X155305041Y-148823270D01*
X155305041Y-148641553D01*
X155236179Y-148614291D01*
X155162434Y-148605191D01*
X155101383Y-148614886D01*
X155056829Y-148641919D01*
X155027738Y-148684408D01*
X155017811Y-148737907D01*
X154529957Y-148737907D01*
X154532377Y-148718183D01*
X154556386Y-148658722D01*
X154597179Y-148604322D01*
X154657675Y-148553992D01*
X154724907Y-148516506D01*
X154803302Y-148488555D01*
X154894779Y-148470800D01*
X155001600Y-148464508D01*
X155130412Y-148471180D01*
X155229660Y-148489079D01*
X155305041Y-148515615D01*
X155305041Y-148490519D01*
X155301005Y-148405748D01*
X155291943Y-148362383D01*
X155270646Y-148328500D01*
X155229753Y-148297354D01*
X155176278Y-148277906D01*
X155112242Y-148271067D01*
X155053049Y-148277258D01*
X155002940Y-148294943D01*
X154959985Y-148323835D01*
X154923015Y-148365040D01*
X154513511Y-148323640D01*
X154553600Y-148253132D01*
X154602915Y-148195463D01*
X154661975Y-148149151D01*
X154732047Y-148113531D01*
X154832488Y-148083340D01*
X154973352Y-148062242D01*
X155165548Y-148054180D01*
X155354775Y-148060866D01*
G37*
G36*
X156880682Y-149080000D02*
G01*
X156073490Y-149080000D01*
X156073490Y-148760805D01*
X156208770Y-148760805D01*
X156208770Y-148396822D01*
X156073490Y-148396822D01*
X156073490Y-148077627D01*
X156696218Y-148077627D01*
X156696218Y-148316313D01*
X156735541Y-148241233D01*
X156798891Y-148168302D01*
X156872028Y-148110864D01*
X156941499Y-148079733D01*
X157019008Y-148065816D01*
X157147120Y-148060041D01*
X157147120Y-148505540D01*
X157101142Y-148505540D01*
X156995438Y-148509892D01*
X156919849Y-148521155D01*
X156867585Y-148537048D01*
X156817804Y-148562532D01*
X156783121Y-148590699D01*
X156760423Y-148621495D01*
X156738834Y-148680989D01*
X156730015Y-148762362D01*
X156880682Y-148762362D01*
X156880682Y-149080000D01*
G37*
G36*
X158628606Y-148761812D02*
G01*
X158757658Y-148761812D01*
X158757658Y-149080000D01*
X158107270Y-149080000D01*
X158107270Y-149017626D01*
X158011191Y-149061169D01*
X157902376Y-149088167D01*
X157778275Y-149097585D01*
X157674734Y-149089366D01*
X157578866Y-149065228D01*
X157489176Y-149025275D01*
X157404491Y-148968716D01*
X157346518Y-148913475D01*
X157301638Y-148850285D01*
X157268986Y-148778050D01*
X157248609Y-148695107D01*
X157241459Y-148599330D01*
X157242670Y-148584492D01*
X157769940Y-148584492D01*
X157775080Y-148645305D01*
X157789517Y-148695788D01*
X157812438Y-148737907D01*
X157844126Y-148771209D01*
X157885008Y-148791413D01*
X157938101Y-148798632D01*
X157986749Y-148792457D01*
X158027749Y-148774654D01*
X158062940Y-148744868D01*
X158087591Y-148705944D01*
X158104124Y-148651132D01*
X158110384Y-148575241D01*
X158105286Y-148514412D01*
X158090882Y-148463164D01*
X158067885Y-148419719D01*
X158035628Y-148386326D01*
X157994682Y-148366160D01*
X157942223Y-148358995D01*
X157880721Y-148367845D01*
X157835129Y-148392396D01*
X157801350Y-148433035D01*
X157778666Y-148494416D01*
X157769940Y-148584492D01*
X157242670Y-148584492D01*
X157251924Y-148471073D01*
X157281343Y-148364109D01*
X157328001Y-148274506D01*
X157391943Y-148199351D01*
X157470772Y-148140040D01*
X157562406Y-148096766D01*
X157669287Y-148069622D01*
X157794578Y-148060041D01*
X157915901Y-148069586D01*
X158019064Y-148096613D01*
X158107270Y-148139726D01*
X158107270Y-147966527D01*
X157980233Y-147966527D01*
X157980233Y-147649713D01*
X158628606Y-147649713D01*
X158628606Y-148761812D01*
G37*
G36*
X160224855Y-149080000D02*
G01*
X159417663Y-149080000D01*
X159417663Y-148760805D01*
X159552943Y-148760805D01*
X159552943Y-148396822D01*
X159417663Y-148396822D01*
X159417663Y-148077627D01*
X160040391Y-148077627D01*
X160040391Y-148316313D01*
X160079714Y-148241233D01*
X160143064Y-148168302D01*
X160216201Y-148110864D01*
X160285672Y-148079733D01*
X160363181Y-148065816D01*
X160491294Y-148060041D01*
X160491294Y-148505540D01*
X160445315Y-148505540D01*
X160339611Y-148509892D01*
X160264023Y-148521155D01*
X160211758Y-148537048D01*
X160161977Y-148562532D01*
X160127294Y-148590699D01*
X160104596Y-148621495D01*
X160083007Y-148680989D01*
X160074188Y-148762362D01*
X160224855Y-148762362D01*
X160224855Y-149080000D01*
G37*
G36*
X160697831Y-148396547D02*
G01*
X160577939Y-148396547D01*
X160577939Y-148077627D01*
X161219076Y-148077627D01*
X161219076Y-148556557D01*
X161226080Y-148666211D01*
X161241241Y-148716933D01*
X161258875Y-148738333D01*
X161287244Y-148752241D01*
X161330909Y-148757599D01*
X161412843Y-148746312D01*
X161487804Y-148712536D01*
X161487804Y-148397738D01*
X161351517Y-148397738D01*
X161351517Y-148077627D01*
X162009141Y-148077627D01*
X162009141Y-148760805D01*
X162129033Y-148760805D01*
X162129033Y-149080000D01*
X161487804Y-149080000D01*
X161487804Y-148953787D01*
X161383596Y-149018445D01*
X161280591Y-149062900D01*
X161177718Y-149088961D01*
X161073721Y-149097585D01*
X160998416Y-149091248D01*
X160930108Y-149072769D01*
X160867463Y-149042332D01*
X160809481Y-148999308D01*
X160765314Y-148946957D01*
X160730505Y-148872561D01*
X160706802Y-148769548D01*
X160697831Y-148629646D01*
X160697831Y-148396547D01*
G37*
G36*
X163098616Y-149080000D02*
G01*
X162305804Y-149080000D01*
X162305804Y-148760805D01*
X162433940Y-148760805D01*
X162433940Y-148396822D01*
X162305804Y-148396822D01*
X162305804Y-148077627D01*
X162955185Y-148077627D01*
X162955185Y-148203565D01*
X163052024Y-148139678D01*
X163150825Y-148095266D01*
X163252694Y-148068886D01*
X163359010Y-148060041D01*
X163454671Y-148067638D01*
X163532655Y-148088766D01*
X163596315Y-148121870D01*
X163648163Y-148166745D01*
X163686887Y-148221938D01*
X163716876Y-148294327D01*
X163736792Y-148388129D01*
X163744150Y-148508471D01*
X163744150Y-148761079D01*
X163862028Y-148761079D01*
X163862028Y-149080000D01*
X163222906Y-149080000D01*
X163222906Y-148633676D01*
X163215119Y-148501910D01*
X163198634Y-148443808D01*
X163177760Y-148420599D01*
X163146212Y-148405678D01*
X163099807Y-148400027D01*
X163055963Y-148405155D01*
X163008185Y-148421477D01*
X162955185Y-148451135D01*
X162955185Y-148760347D01*
X163098616Y-148760347D01*
X163098616Y-149080000D01*
G37*
G36*
X164364955Y-149091723D02*
G01*
X164040447Y-149091723D01*
X164040447Y-148775184D01*
X164342698Y-148775184D01*
X164404222Y-148828563D01*
X164465715Y-148864579D01*
X164528079Y-148885493D01*
X164592558Y-148892421D01*
X164679490Y-148883595D01*
X164716600Y-148864426D01*
X164726922Y-148838840D01*
X164720203Y-148815379D01*
X164698804Y-148797166D01*
X164655642Y-148780890D01*
X164536505Y-148749173D01*
X164300749Y-148682403D01*
X164196207Y-148644290D01*
X164123612Y-148601803D01*
X164064723Y-148550534D01*
X164033486Y-148506181D01*
X164015463Y-148454987D01*
X164008665Y-148383633D01*
X164016773Y-148302117D01*
X164039492Y-148235883D01*
X164075826Y-148181696D01*
X164126726Y-148137527D01*
X164207872Y-148095825D01*
X164305226Y-148069448D01*
X164422474Y-148060041D01*
X164544446Y-148068423D01*
X164645417Y-148091788D01*
X164729029Y-148128277D01*
X164729029Y-148077627D01*
X165049415Y-148077627D01*
X165049415Y-148376580D01*
X164754308Y-148376580D01*
X164696727Y-148329897D01*
X164635406Y-148297307D01*
X164569381Y-148277733D01*
X164497304Y-148271067D01*
X164425302Y-148280065D01*
X164392380Y-148300632D01*
X164382357Y-148330601D01*
X164390038Y-148352734D01*
X164415146Y-148366688D01*
X164611701Y-148410744D01*
X164790504Y-148453367D01*
X164908181Y-148490703D01*
X164976232Y-148522089D01*
X165028744Y-148557655D01*
X165068282Y-148597131D01*
X165097236Y-148643792D01*
X165114954Y-148697387D01*
X165121130Y-148759706D01*
X165112362Y-148843994D01*
X165087683Y-148912858D01*
X165047920Y-148969616D01*
X164991712Y-149016252D01*
X164903143Y-149060240D01*
X164799229Y-149087831D01*
X164676639Y-149097585D01*
X164553658Y-149089900D01*
X164450856Y-149068433D01*
X164364955Y-149034937D01*
X164364955Y-149091723D01*
G37*
G36*
X166519818Y-149080000D02*
G01*
X165801835Y-149080000D01*
X165801835Y-148761812D01*
X165907348Y-148761812D01*
X165907348Y-147967901D01*
X165801835Y-147967901D01*
X165801835Y-147649713D01*
X166428593Y-147649713D01*
X166428593Y-148761812D01*
X166519818Y-148761812D01*
X166519818Y-149080000D01*
G37*
G36*
X167367127Y-149080000D02*
G01*
X166657387Y-149080000D01*
X166657387Y-148760805D01*
X166759786Y-148760805D01*
X166759786Y-148396822D01*
X166657387Y-148396822D01*
X166657387Y-148077627D01*
X167281123Y-148077627D01*
X167281123Y-148760805D01*
X167367127Y-148760805D01*
X167367127Y-149080000D01*
G37*
G36*
X166716738Y-147801205D02*
G01*
X166725721Y-147751199D01*
X166752703Y-147708025D01*
X166801277Y-147669589D01*
X166858332Y-147643085D01*
X166925724Y-147626346D01*
X167005617Y-147620404D01*
X167087487Y-147626765D01*
X167153612Y-147644367D01*
X167207025Y-147671787D01*
X167250816Y-147711278D01*
X167275131Y-147753491D01*
X167283138Y-147800198D01*
X167274535Y-147850483D01*
X167249047Y-147892924D01*
X167203911Y-147929707D01*
X167148791Y-147955628D01*
X167082772Y-147972097D01*
X167003510Y-147977976D01*
X166922674Y-147972577D01*
X166855351Y-147957496D01*
X166799262Y-147933920D01*
X166752692Y-147899060D01*
X166725969Y-147855765D01*
X166716738Y-147801205D01*
G37*
G36*
X168299524Y-149080000D02*
G01*
X167506711Y-149080000D01*
X167506711Y-148760805D01*
X167634847Y-148760805D01*
X167634847Y-148396822D01*
X167506711Y-148396822D01*
X167506711Y-148077627D01*
X168156092Y-148077627D01*
X168156092Y-148203565D01*
X168252931Y-148139678D01*
X168351732Y-148095266D01*
X168453601Y-148068886D01*
X168559917Y-148060041D01*
X168655578Y-148067638D01*
X168733562Y-148088766D01*
X168797222Y-148121870D01*
X168849070Y-148166745D01*
X168887795Y-148221938D01*
X168917783Y-148294327D01*
X168937699Y-148388129D01*
X168945057Y-148508471D01*
X168945057Y-148761079D01*
X169062935Y-148761079D01*
X169062935Y-149080000D01*
X168423813Y-149080000D01*
X168423813Y-148633676D01*
X168416026Y-148501910D01*
X168399541Y-148443808D01*
X168378667Y-148420599D01*
X168347119Y-148405678D01*
X168300714Y-148400027D01*
X168256870Y-148405155D01*
X168209092Y-148421477D01*
X168156092Y-148451135D01*
X168156092Y-148760347D01*
X168299524Y-148760347D01*
X168299524Y-149080000D01*
G37*
G36*
X169275152Y-148396547D02*
G01*
X169155259Y-148396547D01*
X169155259Y-148077627D01*
X169796396Y-148077627D01*
X169796396Y-148556557D01*
X169803401Y-148666211D01*
X169818562Y-148716933D01*
X169836195Y-148738333D01*
X169864564Y-148752241D01*
X169908229Y-148757599D01*
X169990163Y-148746312D01*
X170065125Y-148712536D01*
X170065125Y-148397738D01*
X169928837Y-148397738D01*
X169928837Y-148077627D01*
X170586461Y-148077627D01*
X170586461Y-148760805D01*
X170706354Y-148760805D01*
X170706354Y-149080000D01*
X170065125Y-149080000D01*
X170065125Y-148953787D01*
X169960916Y-149018445D01*
X169857912Y-149062900D01*
X169755038Y-149088961D01*
X169651041Y-149097585D01*
X169575736Y-149091248D01*
X169507428Y-149072769D01*
X169444784Y-149042332D01*
X169386801Y-148999308D01*
X169342634Y-148946957D01*
X169307825Y-148872561D01*
X169284122Y-148769548D01*
X169275152Y-148629646D01*
X169275152Y-148396547D01*
G37*
G36*
X171236391Y-149080000D02*
G01*
X170841634Y-149080000D01*
X170841634Y-148760805D01*
X170968304Y-148760805D01*
X171112194Y-148604367D01*
X170939545Y-148396822D01*
X170819102Y-148396822D01*
X170819102Y-148077627D01*
X171326700Y-148077627D01*
X171507501Y-148344981D01*
X171693522Y-148077627D01*
X172087364Y-148077627D01*
X172087364Y-148396822D01*
X171946405Y-148396822D01*
X171820834Y-148538879D01*
X172006947Y-148760805D01*
X172123268Y-148760805D01*
X172123268Y-149080000D01*
X171625836Y-149080000D01*
X171435693Y-148812370D01*
X171236391Y-149080000D01*
G37*
G36*
X172855721Y-149080000D02*
G01*
X172338507Y-149080000D01*
X172338507Y-148698981D01*
X172855721Y-148698981D01*
X172855721Y-149080000D01*
G37*
G36*
X172773289Y-148505540D02*
G01*
X172418924Y-148505540D01*
X172346750Y-148060499D01*
X172346750Y-147649713D01*
X172847478Y-147649713D01*
X172847478Y-148052348D01*
X172773289Y-148505540D01*
G37*
G36*
X101858408Y-126571309D02*
G01*
X101934693Y-126595603D01*
X102003093Y-126633049D01*
X102064813Y-126684323D01*
X102127778Y-126760469D01*
X102167686Y-126837798D01*
X102187348Y-126917864D01*
X102189862Y-127001463D01*
X102175859Y-127084410D01*
X102144538Y-127168180D01*
X102099157Y-127245047D01*
X102021114Y-127345579D01*
X101899858Y-127475553D01*
X101744681Y-127630729D01*
X101882112Y-127768160D01*
X101983533Y-127666738D01*
X102228085Y-127911290D01*
X101634905Y-128504469D01*
X101390354Y-128259918D01*
X101488149Y-128162123D01*
X100965886Y-127639861D01*
X100868092Y-127737656D01*
X100623540Y-127493104D01*
X100891471Y-127225173D01*
X101339125Y-127225173D01*
X101524870Y-127410918D01*
X101598896Y-127336892D01*
X101666798Y-127257951D01*
X101695266Y-127203347D01*
X101698142Y-127170307D01*
X101686732Y-127136065D01*
X101657443Y-127098169D01*
X101619998Y-127070244D01*
X101580050Y-127057562D01*
X101540457Y-127059122D01*
X101502915Y-127075243D01*
X101464293Y-127104243D01*
X101397931Y-127166367D01*
X101339125Y-127225173D01*
X100891471Y-127225173D01*
X101243662Y-126872983D01*
X101393082Y-126735128D01*
X101508647Y-126649240D01*
X101597277Y-126602007D01*
X101692774Y-126572492D01*
X101779048Y-126563011D01*
X101858408Y-126571309D01*
G37*
G36*
X103348384Y-126790991D02*
G01*
X102840694Y-127298681D01*
X102615701Y-127073688D01*
X102690310Y-126999079D01*
X102128930Y-126437699D01*
X102054321Y-126512308D01*
X101829329Y-126287316D01*
X102272513Y-125844131D01*
X103058886Y-126630504D01*
X103123392Y-126565998D01*
X103348384Y-126790991D01*
G37*
G36*
X103029029Y-126143797D02*
G01*
X102944253Y-126228574D01*
X102718742Y-126003064D01*
X103172095Y-125549711D01*
X103510749Y-125888365D01*
X103593240Y-125960950D01*
X103639825Y-125986095D01*
X103667427Y-125988759D01*
X103697321Y-125978533D01*
X103731985Y-125951446D01*
X103781940Y-125885529D01*
X103811063Y-125808640D01*
X103588467Y-125586044D01*
X103492097Y-125682414D01*
X103265744Y-125456061D01*
X103730755Y-124991051D01*
X104213834Y-125474131D01*
X104298611Y-125389354D01*
X104524316Y-125615058D01*
X104070899Y-126068476D01*
X103981653Y-125979230D01*
X103953687Y-126098637D01*
X103912286Y-126202906D01*
X103857971Y-126294077D01*
X103790532Y-126373712D01*
X103732803Y-126422480D01*
X103671435Y-126457714D01*
X103605616Y-126480488D01*
X103534194Y-126491065D01*
X103465946Y-126485278D01*
X103388726Y-126457286D01*
X103299124Y-126401206D01*
X103193856Y-126308623D01*
X103029029Y-126143797D01*
G37*
G36*
X105222544Y-123950153D02*
G01*
X105134917Y-124037780D01*
X105518907Y-124421770D01*
X105602698Y-124511826D01*
X105659490Y-124585151D01*
X105695067Y-124644560D01*
X105719157Y-124708801D01*
X105730488Y-124777072D01*
X105728809Y-124850706D01*
X105716081Y-124924943D01*
X105689860Y-125001287D01*
X105648695Y-125080685D01*
X105599073Y-125155362D01*
X105527175Y-125244226D01*
X105428107Y-125349588D01*
X105302204Y-125466683D01*
X105165357Y-125574386D01*
X105034208Y-125662185D01*
X104951180Y-125706053D01*
X104870159Y-125420894D01*
X104947589Y-125381168D01*
X105035137Y-125318782D01*
X105134658Y-125228543D01*
X105193571Y-125162773D01*
X105232149Y-125105828D01*
X105254602Y-125056139D01*
X105268348Y-125003275D01*
X105270219Y-124961683D01*
X105262763Y-124928553D01*
X105234953Y-124880220D01*
X105181872Y-124819036D01*
X105137028Y-124919888D01*
X105074026Y-125017411D01*
X104991010Y-125112355D01*
X104907011Y-125184405D01*
X104820232Y-125236684D01*
X104729742Y-125271110D01*
X104634222Y-125288580D01*
X104537711Y-125287689D01*
X104447207Y-125265175D01*
X104360347Y-125220297D01*
X104275425Y-125150113D01*
X104201145Y-125060588D01*
X104152696Y-124968574D01*
X104127195Y-124872388D01*
X104123876Y-124769685D01*
X104140539Y-124667431D01*
X104169036Y-124588478D01*
X104572824Y-124588478D01*
X104574250Y-124638731D01*
X104589017Y-124688443D01*
X104615821Y-124737010D01*
X104656371Y-124785229D01*
X104702014Y-124823203D01*
X104748094Y-124847546D01*
X104795486Y-124859967D01*
X104843299Y-124859594D01*
X104887305Y-124844105D01*
X104929549Y-124811912D01*
X104963848Y-124767149D01*
X104979590Y-124722230D01*
X104979094Y-124674935D01*
X104965949Y-124628517D01*
X104940924Y-124582638D01*
X104902153Y-124536468D01*
X104851891Y-124494243D01*
X104802914Y-124467701D01*
X104754231Y-124454476D01*
X104704397Y-124454612D01*
X104660433Y-124469368D01*
X104620168Y-124499552D01*
X104587653Y-124542875D01*
X104572824Y-124588478D01*
X104169036Y-124588478D01*
X104174971Y-124572034D01*
X104227807Y-124481957D01*
X104300813Y-124396123D01*
X104394262Y-124316007D01*
X104489076Y-124259349D01*
X104586361Y-124223525D01*
X104542321Y-124179485D01*
X104997098Y-123724707D01*
X105222544Y-123950153D01*
G37*
G36*
X106573794Y-123565581D02*
G01*
X106179118Y-123960257D01*
X105933595Y-123714734D01*
X106011118Y-123637210D01*
X105489828Y-123115920D01*
X105410102Y-123195645D01*
X105165551Y-122951094D01*
X105776994Y-122339650D01*
X106310007Y-122578502D01*
X106074782Y-122041862D01*
X106682599Y-121434046D01*
X106927150Y-121678597D01*
X106848137Y-121757610D01*
X107369428Y-122278901D01*
X107450578Y-122197751D01*
X107696101Y-122443274D01*
X107165937Y-122973437D01*
X106920479Y-122727979D01*
X107000917Y-122647542D01*
X106451259Y-122097884D01*
X106945543Y-123193831D01*
X106791986Y-123347389D01*
X105706206Y-122857444D01*
X106248610Y-123399848D01*
X106328336Y-123320123D01*
X106573794Y-123565581D01*
G37*
G36*
X108144666Y-120933589D02*
G01*
X108231535Y-120966918D01*
X108320884Y-121019740D01*
X108413758Y-121095068D01*
X107860150Y-121648676D01*
X107933964Y-121708112D01*
X107996233Y-121736425D01*
X108050763Y-121741565D01*
X108101487Y-121726631D01*
X108151655Y-121689284D01*
X108180989Y-121650240D01*
X108195431Y-121607681D01*
X108195786Y-121559515D01*
X108180087Y-121502956D01*
X108522822Y-121235737D01*
X108544902Y-121308595D01*
X108553067Y-121381910D01*
X108548111Y-121456546D01*
X108529816Y-121536633D01*
X108488355Y-121640016D01*
X108424333Y-121742844D01*
X108334616Y-121846208D01*
X108227266Y-121943661D01*
X108127377Y-122015947D01*
X108033906Y-122066692D01*
X107945688Y-122098848D01*
X107861445Y-122114593D01*
X107772339Y-122116109D01*
X107689985Y-122102724D01*
X107612865Y-122074826D01*
X107539742Y-122031835D01*
X107469748Y-121972240D01*
X107399525Y-121886338D01*
X107352627Y-121793728D01*
X107327302Y-121692499D01*
X107323833Y-121579961D01*
X107341736Y-121471140D01*
X107380661Y-121368771D01*
X107678393Y-121368771D01*
X107681011Y-121410731D01*
X107706406Y-121474082D01*
X107756202Y-121537475D01*
X107769220Y-121549457D01*
X107970444Y-121348233D01*
X107949072Y-121324140D01*
X107908709Y-121290592D01*
X107868040Y-121269218D01*
X107826278Y-121258469D01*
X107784888Y-121259246D01*
X107748265Y-121271944D01*
X107714688Y-121297263D01*
X107689365Y-121331671D01*
X107678393Y-121368771D01*
X107380661Y-121368771D01*
X107382798Y-121363150D01*
X107449471Y-121254180D01*
X107545782Y-121142864D01*
X107652461Y-121050111D01*
X107758447Y-120983717D01*
X107864833Y-120940469D01*
X107973099Y-120918390D01*
X108059003Y-120917725D01*
X108144666Y-120933589D01*
G37*
G36*
X109715204Y-120424171D02*
G01*
X109213343Y-120926032D01*
X108987638Y-120700327D01*
X109060045Y-120627920D01*
X108802670Y-120370545D01*
X108730263Y-120442952D01*
X108504558Y-120217247D01*
X108945605Y-119776200D01*
X109428685Y-120259280D01*
X109489499Y-120198466D01*
X109715204Y-120424171D01*
G37*
G36*
X108351066Y-119979820D02*
G01*
X108322058Y-119938109D01*
X108310609Y-119888501D01*
X108317777Y-119826976D01*
X108339380Y-119767891D01*
X108375197Y-119708401D01*
X108427488Y-119647707D01*
X108489877Y-119594314D01*
X108549081Y-119560003D01*
X108606239Y-119541622D01*
X108665128Y-119538583D01*
X108712170Y-119551238D01*
X108750858Y-119578603D01*
X108780332Y-119620244D01*
X108792320Y-119668276D01*
X108786414Y-119726202D01*
X108765767Y-119783507D01*
X108730729Y-119841834D01*
X108678840Y-119902038D01*
X108617862Y-119955380D01*
X108559595Y-119992321D01*
X108503263Y-120015311D01*
X108445683Y-120023591D01*
X108396172Y-120011873D01*
X108351066Y-119979820D01*
G37*
G36*
X110374508Y-119764866D02*
G01*
X109813905Y-120325469D01*
X109588200Y-120099764D01*
X109678806Y-120009159D01*
X109421431Y-119751784D01*
X109330826Y-119842390D01*
X109105121Y-119616685D01*
X109564302Y-119157503D01*
X109653354Y-119246555D01*
X109676655Y-119132904D01*
X109715113Y-119031638D01*
X109768492Y-118940952D01*
X109837415Y-118859521D01*
X109910429Y-118797250D01*
X109980511Y-118757047D01*
X110048935Y-118735441D01*
X110117328Y-118730510D01*
X110183737Y-118742155D01*
X110256129Y-118772137D01*
X110336540Y-118824382D01*
X110426838Y-118904273D01*
X110605459Y-119082894D01*
X110688811Y-118999542D01*
X110914322Y-119225053D01*
X110462394Y-119676981D01*
X110146796Y-119361382D01*
X110048117Y-119273715D01*
X109995376Y-119244288D01*
X109964204Y-119242637D01*
X109931346Y-119254394D01*
X109894537Y-119283211D01*
X109867160Y-119317840D01*
X109844918Y-119363165D01*
X109828413Y-119421614D01*
X110047058Y-119640259D01*
X110148480Y-119538838D01*
X110374508Y-119764866D01*
G37*
G36*
X111431532Y-118707842D02*
G01*
X111065806Y-119073568D01*
X110796385Y-118804147D01*
X111162111Y-118438421D01*
X111431532Y-118707842D01*
G37*
G36*
X110967040Y-118359926D02*
G01*
X110716466Y-118610501D01*
X110350740Y-118346844D01*
X110060270Y-118056374D01*
X110414339Y-117702306D01*
X110699044Y-117987011D01*
X110967040Y-118359926D01*
G37*
G36*
X137649044Y-133753928D02*
G01*
X134015687Y-133753928D01*
X134015687Y-132828003D01*
X134357138Y-132828003D01*
X134357138Y-130862092D01*
X134015687Y-130862092D01*
X134015687Y-129939831D01*
X136203614Y-129939831D01*
X136203614Y-130862092D01*
X135842868Y-130862092D01*
X135842868Y-132831667D01*
X136726294Y-132831667D01*
X136726294Y-132222036D01*
X137649044Y-132222036D01*
X137649044Y-133753928D01*
G37*
G36*
X140215476Y-131045432D02*
G01*
X140579767Y-131121978D01*
X140894100Y-131243239D01*
X141165896Y-131407242D01*
X141361724Y-131577533D01*
X141508616Y-131761582D01*
X141612114Y-131961258D01*
X141674858Y-132180001D01*
X141696392Y-132422560D01*
X141676091Y-132656401D01*
X141616606Y-132870496D01*
X141518036Y-133068915D01*
X141377801Y-133254684D01*
X141190809Y-133429573D01*
X140929919Y-133599513D01*
X140626259Y-133724908D01*
X140272054Y-133804082D01*
X139857732Y-133832085D01*
X139490688Y-133813364D01*
X139174237Y-133760500D01*
X138901581Y-133677466D01*
X138666759Y-133566815D01*
X138464815Y-133429573D01*
X138280874Y-133256289D01*
X138142264Y-133070366D01*
X138044338Y-132869908D01*
X137984952Y-132651728D01*
X137964605Y-132411569D01*
X137964690Y-132410592D01*
X139370956Y-132410592D01*
X139394205Y-132663182D01*
X139454230Y-132833630D01*
X139542539Y-132944935D01*
X139660021Y-133011210D01*
X139816699Y-133034877D01*
X139984947Y-133010372D01*
X140110020Y-132942243D01*
X140203019Y-132829066D01*
X140265660Y-132657542D01*
X140289797Y-132405218D01*
X140274998Y-132215316D01*
X140234903Y-132069205D01*
X140173782Y-131957521D01*
X140085254Y-131870513D01*
X139976605Y-131818331D01*
X139841367Y-131799985D01*
X139707144Y-131817785D01*
X139595312Y-131869037D01*
X139500404Y-131955079D01*
X139432208Y-132066471D01*
X139387517Y-132214723D01*
X139370956Y-132410592D01*
X137964690Y-132410592D01*
X137984340Y-132184376D01*
X138042323Y-131975027D01*
X138138660Y-131779709D01*
X138276015Y-131595572D01*
X138459441Y-131420920D01*
X138714861Y-131251748D01*
X139016091Y-131126326D01*
X139371708Y-131046708D01*
X139792274Y-131018408D01*
X140215476Y-131045432D01*
G37*
G36*
X143931205Y-131059181D02*
G01*
X144216824Y-131131128D01*
X144467815Y-131247019D01*
X144467815Y-131080934D01*
X146182889Y-131080934D01*
X146182889Y-131931143D01*
X145852428Y-131931143D01*
X145852428Y-133379259D01*
X145840614Y-133707070D01*
X145809439Y-133952420D01*
X145764501Y-134131527D01*
X145688792Y-134298086D01*
X145581424Y-134448186D01*
X145439413Y-134583865D01*
X145275430Y-134699846D01*
X145082032Y-134794360D01*
X144854696Y-134866454D01*
X144620315Y-134913698D01*
X144317178Y-134945688D01*
X143931702Y-134957556D01*
X143473503Y-134940948D01*
X143012372Y-134885993D01*
X142599522Y-134804252D01*
X142360244Y-134730410D01*
X142745171Y-134039936D01*
X142966082Y-134111032D01*
X143248801Y-134158476D01*
X143606615Y-134175979D01*
X143841720Y-134163049D01*
X144021839Y-134128416D01*
X144157871Y-134077061D01*
X144283472Y-134003297D01*
X144365428Y-133928399D01*
X144413838Y-133851869D01*
X144452537Y-133708293D01*
X144467815Y-133492832D01*
X144193088Y-133598442D01*
X143890401Y-133663535D01*
X143554836Y-133686028D01*
X143260587Y-133663497D01*
X142998375Y-133598443D01*
X142762833Y-133492727D01*
X142549776Y-133345553D01*
X142369473Y-133161892D01*
X142241270Y-132948783D01*
X142162108Y-132700375D01*
X142137197Y-132438191D01*
X143540669Y-132438191D01*
X143555129Y-132595860D01*
X143596118Y-132728652D01*
X143662058Y-132841436D01*
X143752919Y-132930889D01*
X143865106Y-132984663D01*
X144005464Y-133003613D01*
X144154544Y-132983884D01*
X144268930Y-132928867D01*
X144357173Y-132838750D01*
X144419913Y-132726439D01*
X144459237Y-132592739D01*
X144473189Y-132432574D01*
X144458035Y-132258179D01*
X144415730Y-132115779D01*
X144348869Y-131999043D01*
X144254645Y-131905333D01*
X144143921Y-131850258D01*
X144011081Y-131831248D01*
X143868081Y-131851627D01*
X143754129Y-131909656D01*
X143662058Y-132007103D01*
X143596166Y-132128687D01*
X143555129Y-132270806D01*
X143540669Y-132438191D01*
X142137197Y-132438191D01*
X142134319Y-132407905D01*
X142163064Y-132099032D01*
X142245211Y-131834171D01*
X142378497Y-131604717D01*
X142565896Y-131404800D01*
X142790128Y-131243407D01*
X143034937Y-131128450D01*
X143304416Y-131058228D01*
X143603928Y-131034039D01*
X143931205Y-131059181D01*
G37*
G36*
X148758674Y-131036237D02*
G01*
X149157278Y-131089482D01*
X149397785Y-131148995D01*
X149573813Y-131220504D01*
X149699009Y-131300752D01*
X149852261Y-131456751D01*
X149944473Y-131614604D01*
X149994875Y-131812314D01*
X150016036Y-132151694D01*
X150016036Y-132907138D01*
X150354801Y-132907138D01*
X150354801Y-133753928D01*
X148626050Y-133753928D01*
X148626050Y-133572944D01*
X148451280Y-133666898D01*
X148240490Y-133738215D01*
X147986995Y-133784276D01*
X147683028Y-133800822D01*
X147397418Y-133782557D01*
X147166901Y-133732291D01*
X146981633Y-133655080D01*
X146833552Y-133553404D01*
X146703070Y-133419034D01*
X146614089Y-133278144D01*
X146561588Y-133128422D01*
X146543880Y-132966244D01*
X146559161Y-132841680D01*
X147860104Y-132841680D01*
X147887471Y-132988943D01*
X147967083Y-133103265D01*
X148085759Y-133181349D01*
X148218408Y-133206824D01*
X148382591Y-133190269D01*
X148516310Y-133143810D01*
X148626050Y-133069315D01*
X148626050Y-132584737D01*
X148442418Y-132512039D01*
X148245764Y-132487773D01*
X148082962Y-132513624D01*
X147964152Y-132585714D01*
X147886576Y-132699017D01*
X147860104Y-132841680D01*
X146559161Y-132841680D01*
X146565613Y-132789083D01*
X146629636Y-132630522D01*
X146738419Y-132485454D01*
X146899741Y-132351241D01*
X147079026Y-132251278D01*
X147288081Y-132176742D01*
X147532019Y-132129396D01*
X147816873Y-132112616D01*
X148160372Y-132130409D01*
X148425034Y-132178138D01*
X148626050Y-132248903D01*
X148626050Y-132181981D01*
X148615287Y-131955924D01*
X148591123Y-131840285D01*
X148534329Y-131749929D01*
X148425282Y-131666872D01*
X148282682Y-131615012D01*
X148111919Y-131596775D01*
X147954070Y-131613283D01*
X147820447Y-131660443D01*
X147705900Y-131737489D01*
X147607313Y-131847368D01*
X146515303Y-131736970D01*
X146622207Y-131548948D01*
X146753714Y-131395163D01*
X146911206Y-131271666D01*
X147098067Y-131176677D01*
X147365908Y-131096168D01*
X147741547Y-131039907D01*
X148254068Y-131018408D01*
X148758674Y-131036237D01*
G37*
G36*
X152800404Y-133753928D02*
G01*
X150686238Y-133753928D01*
X150686238Y-132902741D01*
X151027934Y-132902741D01*
X151027934Y-131932120D01*
X150686238Y-131932120D01*
X150686238Y-131080934D01*
X152417920Y-131080934D01*
X152417920Y-131416768D01*
X152676158Y-131246403D01*
X152939626Y-131127971D01*
X153211277Y-131057625D01*
X153494787Y-131034039D01*
X153749884Y-131054297D01*
X153957839Y-131110637D01*
X154127600Y-131198917D01*
X154265861Y-131318582D01*
X154369127Y-131465762D01*
X154449095Y-131658800D01*
X154502206Y-131908939D01*
X154521828Y-132229852D01*
X154521828Y-132903474D01*
X154836168Y-132903474D01*
X154836168Y-133753928D01*
X153131842Y-133753928D01*
X153131842Y-132563732D01*
X153111078Y-132212355D01*
X153067117Y-132057417D01*
X153011453Y-131995526D01*
X152927324Y-131955737D01*
X152803579Y-131940669D01*
X152686661Y-131954341D01*
X152559254Y-131997867D01*
X152417920Y-132076956D01*
X152417920Y-132901520D01*
X152800404Y-132901520D01*
X152800404Y-133753928D01*
G37*
G36*
X159506540Y-129961638D02*
G01*
X159886404Y-130017598D01*
X160142589Y-130095658D01*
X160378312Y-130220075D01*
X160558871Y-130364876D01*
X160692868Y-130530166D01*
X160790902Y-130719821D01*
X160849271Y-130919405D01*
X160868967Y-131132469D01*
X160844112Y-131394779D01*
X160773550Y-131615843D01*
X160659651Y-131803893D01*
X160506756Y-131966269D01*
X160323945Y-132096270D01*
X160106929Y-132195170D01*
X159876416Y-132254539D01*
X159539691Y-132296946D01*
X159065966Y-132313383D01*
X158480760Y-132313383D01*
X158480760Y-132831667D01*
X158863244Y-132831667D01*
X158863244Y-133753928D01*
X156626224Y-133753928D01*
X156626224Y-132831667D01*
X156995031Y-132831667D01*
X156995031Y-131484423D01*
X158480760Y-131484423D01*
X158759930Y-131484423D01*
X159036820Y-131463607D01*
X159193461Y-131414325D01*
X159261186Y-131357447D01*
X159304237Y-131271366D01*
X159320467Y-131144681D01*
X159302516Y-131021417D01*
X159251102Y-130922176D01*
X159173504Y-130850460D01*
X159072316Y-130810068D01*
X158944806Y-130791926D01*
X158702533Y-130783934D01*
X158480760Y-130783934D01*
X158480760Y-131484423D01*
X156995031Y-131484423D01*
X156995031Y-130862092D01*
X156626224Y-130862092D01*
X156626224Y-129939831D01*
X158964850Y-129939831D01*
X159506540Y-129961638D01*
G37*
G36*
X163161838Y-131044666D02*
G01*
X163486881Y-131119322D01*
X163769031Y-131238376D01*
X164014815Y-131400892D01*
X164178050Y-131561619D01*
X164309664Y-131753061D01*
X164410620Y-131979708D01*
X164479496Y-132247789D01*
X164512582Y-132564953D01*
X162424794Y-132564953D01*
X162451905Y-132816212D01*
X162515933Y-132987016D01*
X162609064Y-133099530D01*
X162732870Y-133167017D01*
X162897892Y-133191192D01*
X163026827Y-133172883D01*
X163134306Y-133119865D01*
X163225800Y-133029710D01*
X163302847Y-132893460D01*
X164452986Y-133035854D01*
X164357238Y-133214872D01*
X164234389Y-133368512D01*
X164084310Y-133499902D01*
X163898799Y-133616419D01*
X163625679Y-133733178D01*
X163311064Y-133806351D01*
X162946985Y-133832085D01*
X162560806Y-133813425D01*
X162236150Y-133761373D01*
X161964214Y-133680808D01*
X161737234Y-133575099D01*
X161548695Y-133445937D01*
X161377816Y-133280774D01*
X161247767Y-133100250D01*
X161154952Y-132902225D01*
X161098136Y-132683277D01*
X161078527Y-132438924D01*
X161106612Y-132159266D01*
X162438471Y-132159266D01*
X162440425Y-132206405D01*
X163199288Y-132206405D01*
X163204417Y-132120676D01*
X163191567Y-131981307D01*
X163155185Y-131864318D01*
X163096706Y-131765302D01*
X163017195Y-131688723D01*
X162924195Y-131643609D01*
X162813140Y-131628038D01*
X162700510Y-131645170D01*
X162609865Y-131694435D01*
X162535680Y-131778491D01*
X162464110Y-131945835D01*
X162438471Y-132159266D01*
X161106612Y-132159266D01*
X161108092Y-132144530D01*
X161194287Y-131881471D01*
X161337414Y-131642839D01*
X161543077Y-131424095D01*
X161782029Y-131252657D01*
X162063084Y-131126456D01*
X162394278Y-131046701D01*
X162785785Y-131018408D01*
X163161838Y-131044666D01*
G37*
G36*
X166961849Y-132764255D02*
G01*
X166961849Y-133598101D01*
X166805988Y-133680638D01*
X166567885Y-133760522D01*
X166300856Y-133814718D01*
X166052288Y-133832085D01*
X165755761Y-133804883D01*
X165518862Y-133729503D01*
X165374825Y-133648369D01*
X165261256Y-133553945D01*
X165173991Y-133445937D01*
X165080446Y-133258847D01*
X165036238Y-133068582D01*
X165016943Y-132365895D01*
X165016943Y-131925037D01*
X164678178Y-131925037D01*
X164678178Y-131080934D01*
X165016943Y-131080934D01*
X165016943Y-130681597D01*
X166407173Y-130029224D01*
X166407173Y-131080934D01*
X166961849Y-131080934D01*
X166961849Y-131925037D01*
X166407173Y-131925037D01*
X166407173Y-132441366D01*
X166421589Y-132674229D01*
X166452602Y-132780620D01*
X166513297Y-132839979D01*
X166631632Y-132862930D01*
X166768824Y-132841546D01*
X166961849Y-132764255D01*
G37*
G36*
X169480889Y-131044666D02*
G01*
X169805932Y-131119322D01*
X170088082Y-131238376D01*
X170333866Y-131400892D01*
X170497101Y-131561619D01*
X170628715Y-131753061D01*
X170729671Y-131979708D01*
X170798547Y-132247789D01*
X170831632Y-132564953D01*
X168743845Y-132564953D01*
X168770956Y-132816212D01*
X168834984Y-132987016D01*
X168928115Y-133099530D01*
X169051921Y-133167017D01*
X169216943Y-133191192D01*
X169345877Y-133172883D01*
X169453357Y-133119865D01*
X169544851Y-133029710D01*
X169621898Y-132893460D01*
X170772037Y-133035854D01*
X170676289Y-133214872D01*
X170553440Y-133368512D01*
X170403361Y-133499902D01*
X170217850Y-133616419D01*
X169944730Y-133733178D01*
X169630115Y-133806351D01*
X169266036Y-133832085D01*
X168879857Y-133813425D01*
X168555201Y-133761373D01*
X168283265Y-133680808D01*
X168056285Y-133575099D01*
X167867746Y-133445937D01*
X167696867Y-133280774D01*
X167566818Y-133100250D01*
X167474003Y-132902225D01*
X167417187Y-132683277D01*
X167397578Y-132438924D01*
X167425663Y-132159266D01*
X168757522Y-132159266D01*
X168759476Y-132206405D01*
X169518339Y-132206405D01*
X169523468Y-132120676D01*
X169510618Y-131981307D01*
X169474236Y-131864318D01*
X169415757Y-131765302D01*
X169336246Y-131688723D01*
X169243246Y-131643609D01*
X169132191Y-131628038D01*
X169019561Y-131645170D01*
X168928916Y-131694435D01*
X168854731Y-131778491D01*
X168783161Y-131945835D01*
X168757522Y-132159266D01*
X167425663Y-132159266D01*
X167427143Y-132144530D01*
X167513338Y-131881471D01*
X167656465Y-131642839D01*
X167862128Y-131424095D01*
X168101080Y-131252657D01*
X168382135Y-131126456D01*
X168713329Y-131046701D01*
X169104836Y-131018408D01*
X169480889Y-131044666D01*
G37*
G36*
X173394961Y-133753928D02*
G01*
X171242449Y-133753928D01*
X171242449Y-132902741D01*
X171603196Y-132902741D01*
X171603196Y-131932120D01*
X171242449Y-131932120D01*
X171242449Y-131080934D01*
X172903056Y-131080934D01*
X172903056Y-131717431D01*
X173007918Y-131517217D01*
X173176852Y-131322734D01*
X173371884Y-131169567D01*
X173557138Y-131086551D01*
X173763831Y-131049439D01*
X174105464Y-131034039D01*
X174105464Y-132222036D01*
X173982854Y-132222036D01*
X173700977Y-132233640D01*
X173499408Y-132263675D01*
X173360034Y-132306056D01*
X173227287Y-132374013D01*
X173134798Y-132449126D01*
X173074270Y-132531248D01*
X173016699Y-132689899D01*
X172993182Y-132906893D01*
X173394961Y-132906893D01*
X173394961Y-133753928D01*
G37*
G36*
X175290774Y-133785191D02*
G01*
X174425422Y-133785191D01*
X174425422Y-132941087D01*
X175231423Y-132941087D01*
X175395486Y-133083430D01*
X175559469Y-133179473D01*
X175725772Y-133235244D01*
X175897718Y-133253718D01*
X176129536Y-133230183D01*
X176228495Y-133179066D01*
X176256022Y-133110836D01*
X176238104Y-133048273D01*
X176181039Y-132999706D01*
X176065941Y-132956302D01*
X175748241Y-132871722D01*
X175119560Y-132693669D01*
X174840781Y-132592034D01*
X174647194Y-132478736D01*
X174490155Y-132342019D01*
X174406859Y-132223746D01*
X174358798Y-132087228D01*
X174340669Y-131896949D01*
X174362290Y-131679574D01*
X174422873Y-131502949D01*
X174519766Y-131358452D01*
X174655498Y-131240669D01*
X174871886Y-131129463D01*
X175131499Y-131059124D01*
X175444159Y-131034039D01*
X175769417Y-131056390D01*
X176038675Y-131118698D01*
X176261639Y-131216000D01*
X176261639Y-131080934D01*
X177116001Y-131080934D01*
X177116001Y-131878142D01*
X176329050Y-131878142D01*
X176175501Y-131753654D01*
X176011979Y-131666748D01*
X175835911Y-131614550D01*
X175643705Y-131596775D01*
X175451701Y-131620769D01*
X175363909Y-131675615D01*
X175337180Y-131755533D01*
X175357663Y-131814552D01*
X175424619Y-131851764D01*
X175948764Y-131969245D01*
X176425573Y-132082907D01*
X176739378Y-132182469D01*
X176920847Y-132266167D01*
X177060880Y-132361010D01*
X177166315Y-132466279D01*
X177243525Y-132590708D01*
X177290772Y-132733627D01*
X177307243Y-132899810D01*
X177283861Y-133124580D01*
X177218051Y-133308217D01*
X177112016Y-133459571D01*
X176962128Y-133583934D01*
X176725943Y-133701235D01*
X176448838Y-133774811D01*
X176121933Y-133800822D01*
X175793984Y-133780330D01*
X175519844Y-133723082D01*
X175290774Y-133633760D01*
X175290774Y-133785191D01*
G37*
G36*
X180029014Y-131045432D02*
G01*
X180393305Y-131121978D01*
X180707638Y-131243239D01*
X180979434Y-131407242D01*
X181175262Y-131577533D01*
X181322154Y-131761582D01*
X181425652Y-131961258D01*
X181488396Y-132180001D01*
X181509930Y-132422560D01*
X181489629Y-132656401D01*
X181430144Y-132870496D01*
X181331574Y-133068915D01*
X181191339Y-133254684D01*
X181004347Y-133429573D01*
X180743457Y-133599513D01*
X180439797Y-133724908D01*
X180085592Y-133804082D01*
X179671270Y-133832085D01*
X179304226Y-133813364D01*
X178987775Y-133760500D01*
X178715119Y-133677466D01*
X178480297Y-133566815D01*
X178278353Y-133429573D01*
X178094412Y-133256289D01*
X177955802Y-133070366D01*
X177857876Y-132869908D01*
X177798490Y-132651728D01*
X177778143Y-132411569D01*
X177778228Y-132410592D01*
X179184494Y-132410592D01*
X179207743Y-132663182D01*
X179267768Y-132833630D01*
X179356077Y-132944935D01*
X179473559Y-133011210D01*
X179630237Y-133034877D01*
X179798485Y-133010372D01*
X179923558Y-132942243D01*
X180016557Y-132829066D01*
X180079198Y-132657542D01*
X180103335Y-132405218D01*
X180088536Y-132215316D01*
X180048441Y-132069205D01*
X179987320Y-131957521D01*
X179898792Y-131870513D01*
X179790143Y-131818331D01*
X179654905Y-131799985D01*
X179520682Y-131817785D01*
X179408851Y-131869037D01*
X179313942Y-131955079D01*
X179245746Y-132066471D01*
X179201055Y-132214723D01*
X179184494Y-132410592D01*
X177778228Y-132410592D01*
X177797878Y-132184376D01*
X177855861Y-131975027D01*
X177952198Y-131779709D01*
X178089553Y-131595572D01*
X178272979Y-131420920D01*
X178528399Y-131251748D01*
X178829629Y-131126326D01*
X179185246Y-131046708D01*
X179605813Y-131018408D01*
X180029014Y-131045432D01*
G37*
G36*
X184040041Y-133753928D02*
G01*
X181925875Y-133753928D01*
X181925875Y-132902741D01*
X182267571Y-132902741D01*
X182267571Y-131932120D01*
X181925875Y-131932120D01*
X181925875Y-131080934D01*
X183657557Y-131080934D01*
X183657557Y-131416768D01*
X183915795Y-131246403D01*
X184179263Y-131127971D01*
X184450915Y-131057625D01*
X184734424Y-131034039D01*
X184989521Y-131054297D01*
X185197476Y-131110637D01*
X185367237Y-131198917D01*
X185505498Y-131318582D01*
X185608764Y-131465762D01*
X185688732Y-131658800D01*
X185741843Y-131908939D01*
X185761465Y-132229852D01*
X185761465Y-132903474D01*
X186075806Y-132903474D01*
X186075806Y-133753928D01*
X184371479Y-133753928D01*
X184371479Y-132563732D01*
X184350715Y-132212355D01*
X184306755Y-132057417D01*
X184251090Y-131995526D01*
X184166962Y-131955737D01*
X184043217Y-131940669D01*
X183926298Y-131954341D01*
X183798891Y-131997867D01*
X183657557Y-132076956D01*
X183657557Y-132901520D01*
X184040041Y-132901520D01*
X184040041Y-133753928D01*
G37*
%TO.C,TP1*%
D12*
X168450000Y-108750000D02*
G75*
G02*
X166550000Y-108750000I-950000J0D01*
G01*
X166550000Y-108750000D02*
G75*
G02*
X168450000Y-108750000I950000J0D01*
G01*
%TO.C,R7*%
X113332776Y-137960338D02*
X113842224Y-137960338D01*
X113332776Y-139005338D02*
X113842224Y-139005338D01*
%TO.C,U1*%
D13*
X159300316Y-114530609D02*
X163360316Y-114530609D01*
X159300316Y-117890609D02*
X159300316Y-114530609D01*
X163360316Y-114530609D02*
X163360316Y-117890609D01*
X163360316Y-117890609D02*
X159300316Y-117890609D01*
X163590316Y-114300609D02*
X161730316Y-114300609D01*
X163590316Y-115960609D02*
X163590316Y-114300609D01*
D14*
X162960316Y-114960609D02*
G75*
G02*
X162900316Y-114960609I-30000J0D01*
G01*
X162900316Y-114960609D02*
G75*
G02*
X162960316Y-114960609I30000J0D01*
G01*
%TO.C,U4*%
D13*
X164520000Y-117930000D02*
X174980000Y-117930000D01*
X164520000Y-124570000D02*
X164520000Y-117930000D01*
X174980000Y-117930000D02*
X174980000Y-124570000D01*
X174980000Y-124570000D02*
X164520000Y-124570000D01*
D11*
X164720000Y-126000000D02*
G75*
G02*
X164420000Y-126000000I-150000J0D01*
G01*
X164420000Y-126000000D02*
G75*
G02*
X164720000Y-126000000I150000J0D01*
G01*
D14*
X164630000Y-126410000D02*
G75*
G02*
X164570000Y-126410000I-30000J0D01*
G01*
X164570000Y-126410000D02*
G75*
G02*
X164630000Y-126410000I30000J0D01*
G01*
D11*
X165460000Y-123820000D02*
G75*
G02*
X165140000Y-123820000I-160000J0D01*
G01*
X165140000Y-123820000D02*
G75*
G02*
X165460000Y-123820000I160000J0D01*
G01*
%TO.C,R8*%
D12*
X165090000Y-129004724D02*
X165090000Y-128495276D01*
X166135000Y-129004724D02*
X166135000Y-128495276D01*
%TO.C,C4*%
X168258767Y-127490000D02*
X167966233Y-127490000D01*
X168258767Y-128510000D02*
X167966233Y-128510000D01*
%TO.C,TP5*%
X141450000Y-101250000D02*
G75*
G02*
X139550000Y-101250000I-950000J0D01*
G01*
X139550000Y-101250000D02*
G75*
G02*
X141450000Y-101250000I950000J0D01*
G01*
%TO.C,C27*%
X148990000Y-102353733D02*
X148990000Y-102646267D01*
X150010000Y-102353733D02*
X150010000Y-102646267D01*
%TO.C,D14*%
X101652180Y-130394621D02*
X103631048Y-131537121D01*
X103631048Y-131537121D02*
X104366048Y-130264063D01*
X104366048Y-130264063D02*
X102387180Y-129121563D01*
%TO.C,C1*%
X161896267Y-113240000D02*
X161603733Y-113240000D01*
X161896267Y-114260000D02*
X161603733Y-114260000D01*
%TO.C,R24*%
X106082776Y-132418007D02*
X106592224Y-132418007D01*
X106082776Y-133463007D02*
X106592224Y-133463007D01*
%TO.C,R6*%
X113332776Y-140703379D02*
X113842224Y-140703379D01*
X113332776Y-141748379D02*
X113842224Y-141748379D01*
%TO.C,C32*%
X146237398Y-122644214D02*
X146237398Y-122351680D01*
X147257398Y-122644214D02*
X147257398Y-122351680D01*
%TO.C,U3*%
X114253446Y-116459619D02*
X114288802Y-116424264D01*
X115540381Y-117746554D02*
X114253446Y-116459619D01*
X115575736Y-117711198D02*
X115540381Y-117746554D01*
X116424264Y-114288802D02*
X116459619Y-114253446D01*
X116459619Y-114253446D02*
X117746554Y-115540381D01*
X117746554Y-115540381D02*
X117711198Y-115575736D01*
X116042426Y-113906964D02*
X116106066Y-113503913D01*
X116445477Y-113843324D01*
X116042426Y-113906964D01*
G36*
X116445477Y-113843324D02*
G01*
X116042426Y-113906964D01*
X116106066Y-113503913D01*
X116445477Y-113843324D01*
G37*
%TO.C,D6*%
X109349631Y-133884797D02*
X111496828Y-133103281D01*
X110994059Y-131721933D02*
X108846861Y-132503449D01*
X111496828Y-133103281D02*
X110994059Y-131721933D01*
%TO.C,D2*%
X108884361Y-144387227D02*
X111031559Y-145168743D01*
X111031559Y-145168743D02*
X111534328Y-143787395D01*
X111534328Y-143787395D02*
X109387131Y-143005879D01*
%TO.C,C21*%
X140353733Y-116990000D02*
X140646267Y-116990000D01*
X140353733Y-118010000D02*
X140646267Y-118010000D01*
%TO.C,C3*%
X113535949Y-118007198D02*
X113742802Y-118214051D01*
X114257198Y-117285949D02*
X114464051Y-117492802D01*
%TO.C,C34*%
X155990000Y-122646267D02*
X155990000Y-122353733D01*
X157010000Y-122646267D02*
X157010000Y-122353733D01*
%TO.C,R18*%
X106082776Y-140675254D02*
X106592224Y-140675254D01*
X106082776Y-141720254D02*
X106592224Y-141720254D01*
%TO.C,R14*%
X163477500Y-129004724D02*
X163477500Y-128495276D01*
X164522500Y-129004724D02*
X164522500Y-128495276D01*
%TO.C,TP3*%
X130950000Y-104750000D02*
G75*
G02*
X129050000Y-104750000I-950000J0D01*
G01*
X129050000Y-104750000D02*
G75*
G02*
X130950000Y-104750000I950000J0D01*
G01*
%TO.C,R23*%
X176027500Y-118254724D02*
X176027500Y-117745276D01*
X177072500Y-118254724D02*
X177072500Y-117745276D01*
%TO.C,R25*%
X177527500Y-118254724D02*
X177527500Y-117745276D01*
X178572500Y-118254724D02*
X178572500Y-117745276D01*
%TO.C,R1*%
X164582776Y-100727500D02*
X165092224Y-100727500D01*
X164582776Y-101772500D02*
X165092224Y-101772500D01*
%TO.C,D4*%
X109087500Y-139180338D02*
X111372500Y-139180338D01*
X111372500Y-137710338D02*
X109087500Y-137710338D01*
X111372500Y-139180338D02*
X111372500Y-137710338D01*
%TO.C,C11*%
X127460316Y-108196285D02*
X127253463Y-107989432D01*
X128181565Y-107475036D02*
X127974712Y-107268183D01*
%TO.C,R10*%
X170090000Y-129254724D02*
X170090000Y-128745276D01*
X171135000Y-129254724D02*
X171135000Y-128745276D01*
%TO.C,Card1*%
D15*
X172300000Y-100250000D02*
X172300000Y-103240000D01*
X172320000Y-105980000D02*
X172320000Y-113150000D01*
X172320000Y-113150000D02*
X174810000Y-113150000D01*
X174810000Y-113150000D02*
X174800000Y-113150000D01*
X174810000Y-115250000D02*
X174810000Y-113150000D01*
X175600000Y-115250000D02*
X174810000Y-115250000D01*
X175600000Y-115250000D02*
X177450000Y-115250000D01*
X187540000Y-100250000D02*
X172300000Y-100250000D01*
X187540000Y-100250000D02*
X187540000Y-103190000D01*
X187560000Y-113200000D02*
X187560000Y-106040000D01*
D14*
X172260000Y-115460000D02*
G75*
G02*
X172200000Y-115460000I-30000J0D01*
G01*
X172200000Y-115460000D02*
G75*
G02*
X172260000Y-115460000I30000J0D01*
G01*
D15*
X177260000Y-114500000D02*
G75*
G02*
X177160000Y-114500000I-50000J0D01*
G01*
X177160000Y-114500000D02*
G75*
G02*
X177260000Y-114500000I50000J0D01*
G01*
%TO.C,R4*%
D12*
X113332776Y-146189460D02*
X113842224Y-146189460D01*
X113332776Y-147234460D02*
X113842224Y-147234460D01*
%TO.C,TP6*%
X130700000Y-110000000D02*
G75*
G02*
X128800000Y-110000000I-950000J0D01*
G01*
X128800000Y-110000000D02*
G75*
G02*
X130700000Y-110000000I950000J0D01*
G01*
%TO.C,C17*%
X137877500Y-101791233D02*
X137877500Y-102083767D01*
X138897500Y-101791233D02*
X138897500Y-102083767D01*
%TO.C,D11*%
X101950000Y-139180338D02*
X104235000Y-139180338D01*
X104235000Y-137710338D02*
X101950000Y-137710338D01*
X104235000Y-139180338D02*
X104235000Y-137710338D01*
%TO.C,L1*%
D15*
X123370575Y-106553133D02*
X123391788Y-106531920D01*
X124813073Y-107995631D02*
X124834286Y-107974418D01*
D14*
X123937976Y-108872443D02*
G75*
G02*
X123877976Y-108872443I-30000J0D01*
G01*
X123877976Y-108872443D02*
G75*
G02*
X123937976Y-108872443I30000J0D01*
G01*
%TO.C,R11*%
D12*
X113332776Y-132474257D02*
X113842224Y-132474257D01*
X113332776Y-133519257D02*
X113842224Y-133519257D01*
%TO.C,U6*%
X122965400Y-117628679D02*
X125878680Y-114715400D01*
X123004291Y-117667570D02*
X122965400Y-117628679D01*
X125878680Y-114715400D02*
X125917571Y-114754290D01*
X130121320Y-124784600D02*
X130082429Y-124745710D01*
X132995709Y-121832430D02*
X133034600Y-121871321D01*
X133034600Y-121871321D02*
X130121320Y-124784600D01*
X133381084Y-121454127D02*
X133784133Y-121517768D01*
X133444722Y-121857178D01*
X133381084Y-121454127D01*
G36*
X133784133Y-121517768D02*
G01*
X133444722Y-121857178D01*
X133381084Y-121454127D01*
X133784133Y-121517768D01*
G37*
%TO.C,D3*%
X108972022Y-141792669D02*
X111222308Y-142189455D01*
X111222308Y-142189455D02*
X111477571Y-140741788D01*
X111477571Y-140741788D02*
X109227285Y-140345002D01*
%TO.C,R20*%
X106082776Y-137922838D02*
X106592224Y-137922838D01*
X106082776Y-138967838D02*
X106592224Y-138967838D01*
%TO.C,D5*%
X109227285Y-136545675D02*
X111477571Y-136148889D01*
X111222308Y-134701222D02*
X108972022Y-135098008D01*
X111477571Y-136148889D02*
X111222308Y-134701222D01*
%TO.C,R21*%
X185527500Y-118254724D02*
X185527500Y-117745276D01*
X186572500Y-118254724D02*
X186572500Y-117745276D01*
%TO.C,C8*%
X122206490Y-109306418D02*
X122413343Y-109513271D01*
X122927739Y-108585169D02*
X123134592Y-108792022D01*
%TO.C,C12*%
X182196267Y-118327500D02*
X181903733Y-118327500D01*
X182196267Y-119347500D02*
X181903733Y-119347500D01*
%TO.C,TP4*%
X141450000Y-103750000D02*
G75*
G02*
X139550000Y-103750000I-950000J0D01*
G01*
X139550000Y-103750000D02*
G75*
G02*
X141450000Y-103750000I950000J0D01*
G01*
%TO.C,R13*%
X123780502Y-111089418D02*
X123420268Y-111449652D01*
X124519428Y-111828344D02*
X124159194Y-112188578D01*
%TO.C,D12*%
X101834522Y-136267838D02*
X104084808Y-136664624D01*
X104084808Y-136664624D02*
X104340071Y-135216957D01*
X104340071Y-135216957D02*
X102089785Y-134820171D01*
%TO.C,C24*%
X140353733Y-113490000D02*
X140646267Y-113490000D01*
X140353733Y-114510000D02*
X140646267Y-114510000D01*
%TO.C,U8*%
X134477500Y-100490000D02*
X136297500Y-100490000D01*
X134477500Y-100540000D02*
X134477500Y-100490000D01*
X134477500Y-103610000D02*
X134477500Y-103560000D01*
X136297500Y-100490000D02*
X136297500Y-100540000D01*
X136297500Y-101660000D02*
X136297500Y-102440000D01*
X136297500Y-103560000D02*
X136297500Y-103610000D01*
X136297500Y-103610000D02*
X134477500Y-103610000D01*
X133937500Y-100540000D02*
X133697500Y-100210000D01*
X134177500Y-100210000D01*
X133937500Y-100540000D01*
G36*
X133937500Y-100540000D02*
G01*
X133697500Y-100210000D01*
X134177500Y-100210000D01*
X133937500Y-100540000D01*
G37*
%TO.C,C26*%
X152240000Y-102353733D02*
X152240000Y-102646267D01*
X153260000Y-102353733D02*
X153260000Y-102646267D01*
%TO.C,C33*%
X159492802Y-120714051D02*
X159285949Y-120507198D01*
X160214051Y-119992802D02*
X160007198Y-119785949D01*
%TO.C,U9*%
D13*
X143431483Y-105380611D02*
X143431483Y-105960611D01*
X143431483Y-119540611D02*
X143431483Y-118960611D01*
X143841483Y-105790611D02*
X157181483Y-105790611D01*
X143841483Y-119130611D02*
X143841483Y-105790611D01*
X144011483Y-105380611D02*
X143431483Y-105380611D01*
X144011483Y-119540611D02*
X143431483Y-119540611D01*
X157011483Y-105380611D02*
X157591483Y-105380611D01*
X157011483Y-119540611D02*
X157591483Y-119540611D01*
X157181483Y-105790611D02*
X157181483Y-119130611D01*
X157181483Y-119130611D02*
X143841483Y-119130611D01*
X157591483Y-105380611D02*
X157591483Y-105960611D01*
X157591483Y-119540611D02*
X157591483Y-118960611D01*
D16*
X141951483Y-106260611D02*
G75*
G02*
X141751483Y-106260611I-100000J0D01*
G01*
X141751483Y-106260611D02*
G75*
G02*
X141951483Y-106260611I100000J0D01*
G01*
D14*
X142541483Y-104460611D02*
G75*
G02*
X142481483Y-104460611I-30000J0D01*
G01*
X142481483Y-104460611D02*
G75*
G02*
X142541483Y-104460611I30000J0D01*
G01*
D11*
X144491483Y-106290611D02*
G75*
G02*
X144191483Y-106290611I-150000J0D01*
G01*
X144191483Y-106290611D02*
G75*
G02*
X144491483Y-106290611I150000J0D01*
G01*
%TO.C,C22*%
D12*
X140353733Y-115490000D02*
X140646267Y-115490000D01*
X140353733Y-116510000D02*
X140646267Y-116510000D01*
%TO.C,R5*%
X113332776Y-143446419D02*
X113842224Y-143446419D01*
X113332776Y-144491419D02*
X113842224Y-144491419D01*
%TO.C,C9*%
X126399656Y-109256945D02*
X126192803Y-109050092D01*
X127120905Y-108535696D02*
X126914052Y-108328843D01*
%TO.C,D13*%
X101746861Y-133337565D02*
X103894059Y-134119081D01*
X103894059Y-134119081D02*
X104396828Y-132737733D01*
X104396828Y-132737733D02*
X102249631Y-131956217D01*
%TO.C,C29*%
X160896267Y-109990000D02*
X160603733Y-109990000D01*
X160896267Y-111010000D02*
X160603733Y-111010000D01*
%TO.C,D8*%
X102387180Y-147769114D02*
X104366048Y-146626614D01*
X103631048Y-145353556D02*
X101652180Y-146496056D01*
X104366048Y-146626614D02*
X103631048Y-145353556D01*
%TO.C,C20*%
X154490000Y-122646267D02*
X154490000Y-122353733D01*
X155510000Y-122646267D02*
X155510000Y-122353733D01*
%TO.C,C14*%
X131877500Y-105946267D02*
X131877500Y-105653733D01*
X132897500Y-105946267D02*
X132897500Y-105653733D01*
%TO.C,C25*%
X144240000Y-102353733D02*
X144240000Y-102646267D01*
X145260000Y-102353733D02*
X145260000Y-102646267D01*
%TO.C,R22*%
X106082776Y-135170423D02*
X106592224Y-135170423D01*
X106082776Y-136215423D02*
X106592224Y-136215423D01*
%TO.C,SW1*%
D15*
X166600000Y-101150000D02*
X166720000Y-101150000D01*
X166600000Y-106350000D02*
X166600000Y-101150000D01*
X166600000Y-106350000D02*
X166720000Y-106350000D01*
X168080000Y-101150000D02*
X170420000Y-101150000D01*
X168080000Y-106350000D02*
X170420000Y-106350000D01*
X171780000Y-101150000D02*
X171790000Y-101150000D01*
X171780000Y-106350000D02*
X171790000Y-106350000D01*
X171850000Y-103760000D02*
X171850000Y-101150000D01*
X171850000Y-103760000D02*
X171850000Y-106350000D01*
D14*
X166680000Y-106950000D02*
G75*
G02*
X166620000Y-106950000I-30000J0D01*
G01*
X166620000Y-106950000D02*
G75*
G02*
X166680000Y-106950000I30000J0D01*
G01*
D15*
X170250000Y-103750000D02*
G75*
G02*
X168250000Y-103750000I-1000000J0D01*
G01*
X168250000Y-103750000D02*
G75*
G02*
X170250000Y-103750000I1000000J0D01*
G01*
%TO.C,D7*%
D12*
X109524680Y-131194621D02*
X111503548Y-130052121D01*
X110768548Y-128779063D02*
X108789680Y-129921563D01*
X111503548Y-130052121D02*
X110768548Y-128779063D01*
%TO.C,R12*%
X125046614Y-110042899D02*
X125406848Y-110403133D01*
X125785540Y-109303973D02*
X126145774Y-109664207D01*
%TO.C,C31*%
X152990000Y-122646267D02*
X152990000Y-122353733D01*
X154010000Y-122646267D02*
X154010000Y-122353733D01*
%TO.C,R15*%
X113332776Y-129731217D02*
X113842224Y-129731217D01*
X113332776Y-130776217D02*
X113842224Y-130776217D01*
%TO.C,R27*%
X179027500Y-118254724D02*
X179027500Y-117745276D01*
X180072500Y-118254724D02*
X180072500Y-117745276D01*
%TO.C,C18*%
X158448240Y-121747578D02*
X158241387Y-121540725D01*
X159169489Y-121026329D02*
X158962636Y-120819476D01*
%TO.C,C28*%
X160896267Y-111490000D02*
X160603733Y-111490000D01*
X160896267Y-112510000D02*
X160603733Y-112510000D01*
%TO.C,TP7*%
X151700000Y-126250000D02*
G75*
G02*
X149800000Y-126250000I-950000J0D01*
G01*
X149800000Y-126250000D02*
G75*
G02*
X151700000Y-126250000I950000J0D01*
G01*
%TO.C,C15*%
X137877500Y-105653733D02*
X137877500Y-105946267D01*
X138897500Y-105653733D02*
X138897500Y-105946267D01*
%TO.C,U5*%
D13*
X118891611Y-112900261D02*
X120150261Y-111641611D01*
X121069499Y-115078149D02*
X122328149Y-113819499D01*
D11*
X118659774Y-113098250D02*
G75*
G02*
X118359772Y-113098250I-150001J0D01*
G01*
X118359772Y-113098250D02*
G75*
G02*
X118659774Y-113098250I150001J0D01*
G01*
D14*
X118617555Y-113317454D02*
G75*
G02*
X118557555Y-113317454I-30000J0D01*
G01*
X118557555Y-113317454D02*
G75*
G02*
X118617555Y-113317454I30000J0D01*
G01*
%TO.C,C2*%
D12*
X161603733Y-118240000D02*
X161896267Y-118240000D01*
X161603733Y-119260000D02*
X161896267Y-119260000D01*
%TO.C,R26*%
X106082776Y-129665592D02*
X106592224Y-129665592D01*
X106082776Y-130710592D02*
X106592224Y-130710592D01*
%TO.C,D1*%
X108827180Y-146969114D02*
X110806048Y-148111614D01*
X110806048Y-148111614D02*
X111541048Y-146838556D01*
X111541048Y-146838556D02*
X109562180Y-145696056D01*
%TO.C,C23*%
X140353733Y-110240000D02*
X140646267Y-110240000D01*
X140353733Y-111260000D02*
X140646267Y-111260000D01*
%TO.C,D10*%
X102052285Y-142070506D02*
X104302571Y-141673720D01*
X104047308Y-140226053D02*
X101797022Y-140622839D01*
X104302571Y-141673720D02*
X104047308Y-140226053D01*
%TO.C,C6*%
X168258767Y-128990000D02*
X167966233Y-128990000D01*
X168258767Y-130010000D02*
X167966233Y-130010000D01*
%TO.C,C10*%
X182196267Y-116577500D02*
X181903733Y-116577500D01*
X182196267Y-117597500D02*
X181903733Y-117597500D01*
%TO.C,C16*%
X131877500Y-102083767D02*
X131877500Y-101791233D01*
X132897500Y-102083767D02*
X132897500Y-101791233D01*
%TO.C,C19*%
X150473091Y-123389250D02*
X150473091Y-123096716D01*
X151493091Y-123389250D02*
X151493091Y-123096716D01*
%TO.C,U7*%
X134477500Y-104300000D02*
X136297500Y-104300000D01*
X134477500Y-104350000D02*
X134477500Y-104300000D01*
X134477500Y-107420000D02*
X134477500Y-107370000D01*
X136297500Y-104300000D02*
X136297500Y-104350000D01*
X136297500Y-105470000D02*
X136297500Y-106250000D01*
X136297500Y-107370000D02*
X136297500Y-107420000D01*
X136297500Y-107420000D02*
X134477500Y-107420000D01*
X133937500Y-104350000D02*
X133697500Y-104020000D01*
X134177500Y-104020000D01*
X133937500Y-104350000D01*
G36*
X133937500Y-104350000D02*
G01*
X133697500Y-104020000D01*
X134177500Y-104020000D01*
X133937500Y-104350000D01*
G37*
%TO.C,U2*%
X120965400Y-127878680D02*
X123878680Y-124965400D01*
X121004291Y-127917571D02*
X120965400Y-127878680D01*
X123878680Y-124965400D02*
X123917571Y-125004291D01*
X128121320Y-135034600D02*
X128082429Y-134995709D01*
X130995709Y-132082429D02*
X131034600Y-132121320D01*
X131034600Y-132121320D02*
X128121320Y-135034600D01*
X131381083Y-131704127D02*
X131784133Y-131767767D01*
X131444722Y-132107178D01*
X131381083Y-131704127D01*
G36*
X131784133Y-131767767D02*
G01*
X131444722Y-132107178D01*
X131381083Y-131704127D01*
X131784133Y-131767767D01*
G37*
%TO.C,R16*%
X106082776Y-146180085D02*
X106592224Y-146180085D01*
X106082776Y-147225085D02*
X106592224Y-147225085D01*
%TO.C,C30*%
X148490000Y-122646267D02*
X148490000Y-122353733D01*
X149510000Y-122646267D02*
X149510000Y-122353733D01*
%TO.C,TP8*%
X149200000Y-126250000D02*
G75*
G02*
X147300000Y-126250000I-950000J0D01*
G01*
X147300000Y-126250000D02*
G75*
G02*
X149200000Y-126250000I950000J0D01*
G01*
%TO.C,R19*%
X184027500Y-118254724D02*
X184027500Y-117745276D01*
X185072500Y-118254724D02*
X185072500Y-117745276D01*
%TO.C,C7*%
X121145829Y-110367078D02*
X121352682Y-110573931D01*
X121867078Y-109645829D02*
X122073931Y-109852682D01*
%TO.C,R17*%
X106082776Y-143427669D02*
X106592224Y-143427669D01*
X106082776Y-144472669D02*
X106592224Y-144472669D01*
%TO.C,C13*%
X128520976Y-107135625D02*
X128314123Y-106928772D01*
X129242225Y-106414376D02*
X129035372Y-106207523D01*
%TO.C,C35*%
X153740000Y-102353733D02*
X153740000Y-102646267D01*
X154760000Y-102353733D02*
X154760000Y-102646267D01*
%TO.C,R9*%
X113332776Y-135217298D02*
X113842224Y-135217298D01*
X113332776Y-136262298D02*
X113842224Y-136262298D01*
%TO.C,D9*%
X102212131Y-144934459D02*
X104359328Y-144152943D01*
X103856559Y-142771595D02*
X101709361Y-143553111D01*
X104359328Y-144152943D02*
X103856559Y-142771595D01*
%TO.C,R3*%
X172477500Y-129254724D02*
X172477500Y-128745276D01*
X173522500Y-129254724D02*
X173522500Y-128745276D01*
%TO.C,C5*%
X118413417Y-111299560D02*
X118620270Y-111092707D01*
X119134666Y-112020809D02*
X119341519Y-111813956D01*
%TD*%
M02*
