%TF.GenerationSoftware,KiCad,Pcbnew,10.0.3*%
%TF.CreationDate,2026-06-10T19:11:58-04:00*%
%TF.ProjectId,Yuzu Pocket,59757a75-2050-46f6-936b-65742e6b6963,1*%
%TF.SameCoordinates,Original*%
%TF.FileFunction,Legend,Bot*%
%TF.FilePolarity,Positive*%
%FSLAX46Y46*%
G04 Gerber Fmt 4.6, Leading zero omitted, Abs format (unit mm)*
G04 Created by KiCad (PCBNEW 10.0.3) date 2026-06-10 19:11:58*
%MOMM*%
%LPD*%
G01*
G04 APERTURE LIST*
%ADD10C,0.300000*%
%ADD11C,0.000000*%
G04 APERTURE END LIST*
D10*
G36*
X100500000Y-147836243D02*
G01*
X100500000Y-148620904D01*
X100846855Y-148620904D01*
X100846855Y-148506140D01*
X101069330Y-148506140D01*
X101583430Y-148864353D01*
X101583430Y-148963088D01*
X101930286Y-148963088D01*
X101930286Y-148212316D01*
X101582789Y-148212316D01*
X101582789Y-148295389D01*
X101300139Y-148148386D01*
X101582789Y-147970516D01*
X101582789Y-148055238D01*
X101930286Y-148055238D01*
X101930286Y-147501203D01*
X101583430Y-147501203D01*
X101583430Y-147591695D01*
X101069330Y-147948992D01*
X100846855Y-147948992D01*
X100846855Y-147836243D01*
X100500000Y-147836243D01*
G37*
G36*
X101183452Y-147385524D02*
G01*
X101183452Y-147505416D01*
X101502372Y-147505416D01*
X101502372Y-146864279D01*
X101023442Y-146864279D01*
X100913788Y-146857275D01*
X100863066Y-146842114D01*
X100841666Y-146824480D01*
X100827758Y-146796111D01*
X100822400Y-146752446D01*
X100833687Y-146670512D01*
X100867463Y-146595551D01*
X101182261Y-146595551D01*
X101182261Y-146731838D01*
X101502372Y-146731838D01*
X101502372Y-146074214D01*
X100819194Y-146074214D01*
X100819194Y-145954322D01*
X100500000Y-145954322D01*
X100500000Y-146595551D01*
X100626212Y-146595551D01*
X100561554Y-146699759D01*
X100517099Y-146802764D01*
X100491038Y-146905637D01*
X100482414Y-147009634D01*
X100488751Y-147084939D01*
X100507230Y-147153247D01*
X100537667Y-147215892D01*
X100580691Y-147273874D01*
X100633042Y-147318041D01*
X100707438Y-147352850D01*
X100810451Y-147376554D01*
X100950353Y-147385524D01*
X101183452Y-147385524D01*
G37*
G36*
X100500000Y-144686518D02*
G01*
X100500000Y-145891307D01*
X100767171Y-145891307D01*
X101262037Y-145337547D01*
X101262037Y-145666085D01*
X101144801Y-145666085D01*
X101144801Y-145883064D01*
X101502372Y-145883064D01*
X101502372Y-144676260D01*
X101252603Y-144676260D01*
X100746196Y-145239270D01*
X100746196Y-144906520D01*
X100863433Y-144906520D01*
X100863433Y-144686518D01*
X100500000Y-144686518D01*
G37*
G36*
X101183452Y-144431162D02*
G01*
X101183452Y-144551055D01*
X101502372Y-144551055D01*
X101502372Y-143909918D01*
X101023442Y-143909918D01*
X100913788Y-143902913D01*
X100863066Y-143887752D01*
X100841666Y-143870119D01*
X100827758Y-143841750D01*
X100822400Y-143798085D01*
X100833687Y-143716151D01*
X100867463Y-143641189D01*
X101182261Y-143641189D01*
X101182261Y-143777477D01*
X101502372Y-143777477D01*
X101502372Y-143119853D01*
X100819194Y-143119853D01*
X100819194Y-142999960D01*
X100500000Y-142999960D01*
X100500000Y-143641189D01*
X100626212Y-143641189D01*
X100561554Y-143745398D01*
X100517099Y-143848402D01*
X100491038Y-143951276D01*
X100482414Y-144055273D01*
X100488751Y-144130578D01*
X100507230Y-144198886D01*
X100537667Y-144261530D01*
X100580691Y-144319513D01*
X100633042Y-144363680D01*
X100707438Y-144398489D01*
X100810451Y-144422192D01*
X100950353Y-144431162D01*
X101183452Y-144431162D01*
G37*
G36*
X101562946Y-140736895D02*
G01*
X101637790Y-140758784D01*
X101708910Y-140795546D01*
X101770894Y-140845795D01*
X101825194Y-140913505D01*
X101871851Y-141001901D01*
X101901123Y-141097970D01*
X101922108Y-141240419D01*
X101930286Y-141443553D01*
X101930286Y-142320538D01*
X101584438Y-142320538D01*
X101584438Y-142182235D01*
X100845847Y-142182235D01*
X100845847Y-142320538D01*
X100500000Y-142320538D01*
X100500000Y-141481655D01*
X100845847Y-141481655D01*
X100845847Y-141625087D01*
X101040204Y-141625087D01*
X101040204Y-141520398D01*
X101351064Y-141520398D01*
X101351064Y-141625087D01*
X101613747Y-141625087D01*
X101613747Y-141541922D01*
X101610750Y-141451069D01*
X101603947Y-141403253D01*
X101588800Y-141365308D01*
X101561906Y-141336209D01*
X101524691Y-141316928D01*
X101478467Y-141310197D01*
X101430960Y-141316283D01*
X101398680Y-141332427D01*
X101377350Y-141357824D01*
X101358870Y-141416564D01*
X101351064Y-141520398D01*
X101040204Y-141520398D01*
X101040204Y-141405635D01*
X101046368Y-141227988D01*
X101062270Y-141101716D01*
X101084534Y-141015273D01*
X101121621Y-140933893D01*
X101170371Y-140865338D01*
X101231263Y-140808003D01*
X101301781Y-140765291D01*
X101384680Y-140738830D01*
X101483046Y-140729509D01*
X101562946Y-140736895D01*
G37*
G36*
X101090222Y-139260587D02*
G01*
X101172251Y-139284116D01*
X101247129Y-139322928D01*
X101316147Y-139378012D01*
X101380006Y-139451448D01*
X101441508Y-139553371D01*
X101486981Y-139671246D01*
X101515685Y-139807855D01*
X101525819Y-139966556D01*
X101515207Y-140124268D01*
X101485350Y-140257625D01*
X101438317Y-140370586D01*
X101374877Y-140466368D01*
X101309383Y-140535153D01*
X101240331Y-140586661D01*
X101167087Y-140622787D01*
X101088581Y-140644531D01*
X101003384Y-140651932D01*
X100913324Y-140644302D01*
X100831507Y-140622032D01*
X100756335Y-140585310D01*
X100686614Y-140533331D01*
X100621632Y-140464353D01*
X100570167Y-140388624D01*
X100528673Y-140300566D01*
X100497535Y-140198320D01*
X100477711Y-140079651D01*
X100471475Y-139957397D01*
X100769644Y-139957397D01*
X100778519Y-140016151D01*
X100803372Y-140060207D01*
X100845111Y-140093322D01*
X100909029Y-140115832D01*
X101003750Y-140124550D01*
X101077201Y-140118340D01*
X101132796Y-140101581D01*
X101174568Y-140076007D01*
X101206833Y-140040416D01*
X101226053Y-139998480D01*
X101232728Y-139948146D01*
X101225848Y-139897432D01*
X101206280Y-139856688D01*
X101173652Y-139823490D01*
X101131770Y-139800570D01*
X101076979Y-139785534D01*
X101005765Y-139779985D01*
X100911144Y-139789036D01*
X100846823Y-139812527D01*
X100804381Y-139847401D01*
X100778833Y-139894303D01*
X100769644Y-139957397D01*
X100471475Y-139957397D01*
X100470690Y-139942009D01*
X100481192Y-139786638D01*
X100510882Y-139653811D01*
X100557905Y-139539939D01*
X100621632Y-139442105D01*
X100687216Y-139371983D01*
X100756879Y-139319395D01*
X100831286Y-139282431D01*
X100911572Y-139260125D01*
X100999262Y-139252512D01*
X101090222Y-139260587D01*
G37*
G36*
X100916830Y-138236950D02*
G01*
X100828811Y-137846772D01*
X100747853Y-137878431D01*
X100677548Y-137923250D01*
X100616472Y-137981884D01*
X100563930Y-138055966D01*
X100524607Y-138137703D01*
X100495462Y-138230327D01*
X100477123Y-138335474D01*
X100470690Y-138455028D01*
X100480830Y-138613428D01*
X100509214Y-138746194D01*
X100553616Y-138857482D01*
X100613023Y-138950719D01*
X100674517Y-139016546D01*
X100742379Y-139066683D01*
X100817461Y-139102534D01*
X100901162Y-139124542D01*
X100995324Y-139132161D01*
X101107065Y-139121242D01*
X101205655Y-139089608D01*
X101293831Y-139037468D01*
X101373412Y-138963084D01*
X101436623Y-138875393D01*
X101482110Y-138777373D01*
X101510193Y-138667091D01*
X101519958Y-138542040D01*
X101513645Y-138432919D01*
X101496277Y-138344482D01*
X101469694Y-138273193D01*
X101434961Y-138216067D01*
X101502372Y-138216067D01*
X101502372Y-137895682D01*
X101068597Y-137895682D01*
X101068597Y-138215243D01*
X101148274Y-138252716D01*
X101199383Y-138297265D01*
X101228632Y-138349081D01*
X101238590Y-138410881D01*
X101230324Y-138469025D01*
X101206708Y-138515808D01*
X101166966Y-138554038D01*
X101115355Y-138581627D01*
X101055927Y-138598706D01*
X100986898Y-138604688D01*
X100912081Y-138597920D01*
X100852888Y-138579249D01*
X100806005Y-138550008D01*
X100769369Y-138510594D01*
X100747774Y-138464926D01*
X100740334Y-138410881D01*
X100747195Y-138359495D01*
X100766721Y-138318021D01*
X100799273Y-138284029D01*
X100847689Y-138256695D01*
X100916830Y-138236950D01*
G37*
G36*
X100500000Y-137082353D02*
G01*
X100500000Y-137730726D01*
X100818187Y-137730726D01*
X100818187Y-137603598D01*
X101612098Y-137603598D01*
X101612098Y-137732741D01*
X101930286Y-137732741D01*
X101930286Y-137082353D01*
X100943667Y-137082353D01*
X101251046Y-136768654D01*
X101251046Y-136945791D01*
X101502372Y-136945791D01*
X101502372Y-136304653D01*
X101226317Y-136304653D01*
X101226317Y-136422165D01*
X101046340Y-136605713D01*
X100819194Y-136384246D01*
X100819194Y-136301539D01*
X100500000Y-136301539D01*
X100500000Y-136675689D01*
X100929378Y-137082353D01*
X100500000Y-137082353D01*
G37*
G36*
X101064802Y-134872211D02*
G01*
X101165332Y-134898040D01*
X101250324Y-134935898D01*
X101322115Y-134985254D01*
X101382388Y-135046467D01*
X101443331Y-135138635D01*
X101487976Y-135244442D01*
X101515973Y-135366333D01*
X101525819Y-135507353D01*
X101515209Y-135654168D01*
X101485301Y-135778366D01*
X101437976Y-135883761D01*
X101373687Y-135973368D01*
X101291658Y-136050492D01*
X101202171Y-136104165D01*
X101103523Y-136136488D01*
X100993126Y-136147575D01*
X100901493Y-136140221D01*
X100819388Y-136118915D01*
X100745129Y-136084110D01*
X100677432Y-136035341D01*
X100615496Y-135971262D01*
X100567060Y-135900559D01*
X100527419Y-135815442D01*
X100497207Y-135713466D01*
X100477688Y-135591720D01*
X100470690Y-135446903D01*
X100480341Y-135310373D01*
X100507781Y-135192393D01*
X100551565Y-135089972D01*
X100595259Y-135020406D01*
X100644530Y-134964126D01*
X100702145Y-134918058D01*
X100769277Y-134882152D01*
X100822675Y-135313455D01*
X100771581Y-135342347D01*
X100737773Y-135376657D01*
X100717891Y-135416962D01*
X100711025Y-135465313D01*
X100720091Y-135527196D01*
X100745399Y-135573623D01*
X100787591Y-135608547D01*
X100851643Y-135632558D01*
X100945865Y-135642725D01*
X100945865Y-135352289D01*
X101080321Y-135352289D01*
X101080321Y-135636863D01*
X101097998Y-135637595D01*
X101178034Y-135627981D01*
X101240788Y-135601142D01*
X101272309Y-135573323D01*
X101290784Y-135539331D01*
X101297208Y-135497095D01*
X101291369Y-135455449D01*
X101274451Y-135420574D01*
X101245734Y-135390758D01*
X101208603Y-135368828D01*
X101164732Y-135355185D01*
X101112469Y-135350366D01*
X101080321Y-135352289D01*
X100945865Y-135352289D01*
X100945865Y-134859804D01*
X101064802Y-134872211D01*
G37*
G36*
X100871127Y-133894434D02*
G01*
X100558435Y-133894434D01*
X100527483Y-133952882D01*
X100497527Y-134042171D01*
X100477203Y-134142307D01*
X100470690Y-134235519D01*
X100480891Y-134346717D01*
X100509159Y-134435554D01*
X100539584Y-134489568D01*
X100574993Y-134532156D01*
X100615496Y-134564881D01*
X100685655Y-134599960D01*
X100757004Y-134616538D01*
X101020512Y-134623774D01*
X101185833Y-134623774D01*
X101185833Y-134750811D01*
X101502372Y-134750811D01*
X101502372Y-134623774D01*
X101652124Y-134623774D01*
X101896763Y-134102438D01*
X101502372Y-134102438D01*
X101502372Y-133894434D01*
X101185833Y-133894434D01*
X101185833Y-134102438D01*
X100992210Y-134102438D01*
X100904886Y-134097032D01*
X100864990Y-134085402D01*
X100842730Y-134062641D01*
X100834124Y-134018265D01*
X100842142Y-133966819D01*
X100871127Y-133894434D01*
G37*
G36*
X162832982Y-148490570D02*
G01*
X162457367Y-148622553D01*
X162489619Y-148735232D01*
X162536526Y-148834864D01*
X162598075Y-148923201D01*
X162675079Y-149001465D01*
X162764356Y-149063636D01*
X162870658Y-149109757D01*
X162997279Y-149139104D01*
X163148330Y-149149568D01*
X163316833Y-149139370D01*
X163458020Y-149110859D01*
X163576199Y-149066390D01*
X163674985Y-149007199D01*
X163757136Y-148933321D01*
X163828579Y-148844004D01*
X163883614Y-148748247D01*
X163923132Y-148645079D01*
X163947314Y-148533186D01*
X163955614Y-148410977D01*
X163947469Y-148287811D01*
X163923739Y-148174905D01*
X163884983Y-148070719D01*
X163831084Y-147973969D01*
X163761258Y-147883688D01*
X163678661Y-147805427D01*
X163588205Y-147745364D01*
X163488775Y-147702216D01*
X163378721Y-147675693D01*
X163255950Y-147666525D01*
X163129719Y-147674943D01*
X163021832Y-147698733D01*
X162929387Y-147736380D01*
X162850018Y-147787334D01*
X162850018Y-147695834D01*
X162501881Y-147695834D01*
X162501881Y-148221109D01*
X162862566Y-148221109D01*
X162886251Y-148158348D01*
X162917287Y-148107547D01*
X162955531Y-148066870D01*
X163001095Y-148036400D01*
X163049880Y-148018440D01*
X163103176Y-148012373D01*
X163168268Y-148021768D01*
X163220832Y-148048694D01*
X163264063Y-148094340D01*
X163298647Y-148163677D01*
X163322645Y-148264664D01*
X163331879Y-148407497D01*
X163322442Y-148549890D01*
X163297863Y-148650903D01*
X163262311Y-148720590D01*
X163217633Y-148766743D01*
X163162993Y-148794129D01*
X163095024Y-148803720D01*
X163033396Y-148795939D01*
X162980632Y-148773370D01*
X162934507Y-148735374D01*
X162894043Y-148679040D01*
X162859641Y-148599548D01*
X162832982Y-148490570D01*
G37*
G36*
X161537885Y-149126121D02*
G01*
X162328590Y-149126121D01*
X162328590Y-148807933D01*
X162198531Y-148807933D01*
X162198531Y-148014022D01*
X162328590Y-148014022D01*
X162328590Y-147695834D01*
X161677195Y-147695834D01*
X161677195Y-148244190D01*
X161571809Y-148181524D01*
X161470473Y-148138907D01*
X161372073Y-148114230D01*
X161275385Y-148106162D01*
X161188038Y-148113178D01*
X161113738Y-148133060D01*
X161050164Y-148164826D01*
X160995574Y-148208561D01*
X160954600Y-148262704D01*
X160922356Y-148337440D01*
X160900542Y-148438518D01*
X160892351Y-148573002D01*
X160892351Y-148807200D01*
X160775481Y-148807200D01*
X160775481Y-149126121D01*
X161413596Y-149126121D01*
X161413596Y-148716800D01*
X161420744Y-148549101D01*
X161434845Y-148485716D01*
X161453450Y-148461477D01*
X161482567Y-148446111D01*
X161526436Y-148440287D01*
X161574336Y-148445556D01*
X161624239Y-148461972D01*
X161677195Y-148491120D01*
X161677195Y-148808025D01*
X161537885Y-148808025D01*
X161537885Y-149126121D01*
G37*
G36*
X160129300Y-148110911D02*
G01*
X160253498Y-148140819D01*
X160358893Y-148188144D01*
X160448501Y-148252433D01*
X160525624Y-148334462D01*
X160579297Y-148423949D01*
X160611620Y-148522597D01*
X160622707Y-148632994D01*
X160615353Y-148724627D01*
X160594048Y-148806732D01*
X160559242Y-148880991D01*
X160510473Y-148948688D01*
X160446394Y-149010624D01*
X160375692Y-149059060D01*
X160290574Y-149098701D01*
X160188598Y-149128913D01*
X160066852Y-149148432D01*
X159922035Y-149155430D01*
X159785506Y-149145779D01*
X159667525Y-149118339D01*
X159565105Y-149074555D01*
X159495538Y-149030861D01*
X159439259Y-148981590D01*
X159393190Y-148923975D01*
X159357285Y-148856843D01*
X159788587Y-148803445D01*
X159817479Y-148854539D01*
X159851790Y-148888347D01*
X159892094Y-148908229D01*
X159940445Y-148915095D01*
X160002328Y-148906029D01*
X160048755Y-148880721D01*
X160083679Y-148838529D01*
X160107690Y-148774477D01*
X160117857Y-148680255D01*
X159334936Y-148680255D01*
X159347343Y-148561318D01*
X159359590Y-148513651D01*
X159825498Y-148513651D01*
X159827421Y-148545799D01*
X160111995Y-148545799D01*
X160112728Y-148528122D01*
X160103113Y-148448086D01*
X160076274Y-148385332D01*
X160048455Y-148353811D01*
X160014463Y-148335336D01*
X159972227Y-148328912D01*
X159930581Y-148334751D01*
X159895706Y-148351669D01*
X159865890Y-148380386D01*
X159843960Y-148417517D01*
X159830317Y-148461388D01*
X159825498Y-148513651D01*
X159359590Y-148513651D01*
X159373172Y-148460788D01*
X159411030Y-148375796D01*
X159460386Y-148304005D01*
X159521599Y-148243732D01*
X159613768Y-148182789D01*
X159719574Y-148138144D01*
X159841465Y-148110147D01*
X159982485Y-148100301D01*
X160129300Y-148110911D01*
G37*
G36*
X158260024Y-148709290D02*
G01*
X157869846Y-148797309D01*
X157901504Y-148878267D01*
X157946323Y-148948572D01*
X158004958Y-149009648D01*
X158079040Y-149062190D01*
X158160777Y-149101513D01*
X158253400Y-149130658D01*
X158358548Y-149148997D01*
X158478102Y-149155430D01*
X158636502Y-149145290D01*
X158769268Y-149116906D01*
X158880555Y-149072504D01*
X158973793Y-149013097D01*
X159039620Y-148951603D01*
X159089757Y-148883741D01*
X159125607Y-148808659D01*
X159147615Y-148724958D01*
X159155235Y-148630796D01*
X159144316Y-148519055D01*
X159112682Y-148420465D01*
X159060542Y-148332289D01*
X158986158Y-148252708D01*
X158898467Y-148189497D01*
X158800446Y-148144010D01*
X158690165Y-148115927D01*
X158565113Y-148106162D01*
X158455992Y-148112475D01*
X158367556Y-148129843D01*
X158296266Y-148156426D01*
X158239141Y-148191159D01*
X158239141Y-148123748D01*
X157918755Y-148123748D01*
X157918755Y-148557523D01*
X158238316Y-148557523D01*
X158275790Y-148477846D01*
X158320339Y-148426737D01*
X158372155Y-148397488D01*
X158433955Y-148387530D01*
X158492098Y-148395796D01*
X158538882Y-148419412D01*
X158577112Y-148459154D01*
X158604701Y-148510765D01*
X158621780Y-148570193D01*
X158627762Y-148639222D01*
X158620993Y-148714039D01*
X158602322Y-148773232D01*
X158573082Y-148820115D01*
X158533667Y-148856751D01*
X158488000Y-148878346D01*
X158433955Y-148885786D01*
X158382569Y-148878925D01*
X158341095Y-148859399D01*
X158307103Y-148826847D01*
X158279769Y-148778431D01*
X158260024Y-148709290D01*
G37*
G36*
X157105427Y-149126121D02*
G01*
X157753800Y-149126121D01*
X157753800Y-148807933D01*
X157626671Y-148807933D01*
X157626671Y-148014022D01*
X157755815Y-148014022D01*
X157755815Y-147695834D01*
X157105427Y-147695834D01*
X157105427Y-148682453D01*
X156791727Y-148375074D01*
X156968864Y-148375074D01*
X156968864Y-148123748D01*
X156327727Y-148123748D01*
X156327727Y-148399803D01*
X156445238Y-148399803D01*
X156628787Y-148579780D01*
X156407319Y-148806926D01*
X156324613Y-148806926D01*
X156324613Y-149126121D01*
X156698762Y-149126121D01*
X157105427Y-148696742D01*
X157105427Y-149126121D01*
G37*
G36*
X155109100Y-148110913D02*
G01*
X155242457Y-148140770D01*
X155355418Y-148187803D01*
X155451200Y-148251243D01*
X155519985Y-148316737D01*
X155571493Y-148385789D01*
X155607620Y-148459033D01*
X155629363Y-148537539D01*
X155636764Y-148622736D01*
X155629134Y-148712796D01*
X155606864Y-148794613D01*
X155570142Y-148869785D01*
X155518163Y-148939506D01*
X155449185Y-149004488D01*
X155373456Y-149055953D01*
X155285398Y-149097447D01*
X155183152Y-149128585D01*
X155064483Y-149148409D01*
X154926841Y-149155430D01*
X154771471Y-149144928D01*
X154638644Y-149115238D01*
X154524771Y-149068215D01*
X154426937Y-149004488D01*
X154356815Y-148938904D01*
X154304227Y-148869241D01*
X154267264Y-148794834D01*
X154244957Y-148714548D01*
X154237344Y-148626858D01*
X154237921Y-148620355D01*
X154764817Y-148620355D01*
X154773868Y-148714976D01*
X154797359Y-148779297D01*
X154832233Y-148821739D01*
X154879136Y-148847287D01*
X154942229Y-148856476D01*
X155000983Y-148847601D01*
X155045039Y-148822748D01*
X155078154Y-148781009D01*
X155100664Y-148717091D01*
X155109382Y-148622370D01*
X155103172Y-148548919D01*
X155086413Y-148493324D01*
X155060839Y-148451552D01*
X155025249Y-148419287D01*
X154983312Y-148400067D01*
X154932978Y-148393392D01*
X154882264Y-148400272D01*
X154841520Y-148419840D01*
X154808323Y-148452468D01*
X154785402Y-148494350D01*
X154770367Y-148549141D01*
X154764817Y-148620355D01*
X154237921Y-148620355D01*
X154245419Y-148535898D01*
X154268948Y-148453869D01*
X154307760Y-148378991D01*
X154362844Y-148309973D01*
X154436280Y-148246114D01*
X154538203Y-148184612D01*
X154656078Y-148139139D01*
X154792687Y-148110435D01*
X154951388Y-148100301D01*
X155109100Y-148110913D01*
G37*
G36*
X153985010Y-148442668D02*
G01*
X154104903Y-148442668D01*
X154104903Y-148123748D01*
X153463766Y-148123748D01*
X153463766Y-148602678D01*
X153456761Y-148712332D01*
X153441601Y-148763054D01*
X153423967Y-148784454D01*
X153395598Y-148798362D01*
X153351933Y-148803720D01*
X153269999Y-148792433D01*
X153195038Y-148758657D01*
X153195038Y-148443859D01*
X153331325Y-148443859D01*
X153331325Y-148123748D01*
X152673701Y-148123748D01*
X152673701Y-148806926D01*
X152553808Y-148806926D01*
X152553808Y-149126121D01*
X153195038Y-149126121D01*
X153195038Y-148999908D01*
X153299246Y-149064566D01*
X153402251Y-149109021D01*
X153505124Y-149135082D01*
X153609121Y-149143706D01*
X153684426Y-149137369D01*
X153752734Y-149118890D01*
X153815379Y-149088453D01*
X153873361Y-149045429D01*
X153917528Y-148993078D01*
X153952337Y-148918682D01*
X153976040Y-148815669D01*
X153985010Y-148675767D01*
X153985010Y-148442668D01*
G37*
G36*
X151602086Y-148754993D02*
G01*
X151602086Y-149067685D01*
X151660534Y-149098637D01*
X151749822Y-149128593D01*
X151849958Y-149148917D01*
X151943171Y-149155430D01*
X152054369Y-149145229D01*
X152143206Y-149116961D01*
X152197219Y-149086536D01*
X152239808Y-149051127D01*
X152272532Y-149010624D01*
X152307612Y-148940465D01*
X152324190Y-148869116D01*
X152331425Y-148605608D01*
X152331425Y-148440287D01*
X152458462Y-148440287D01*
X152458462Y-148123748D01*
X152331425Y-148123748D01*
X152331425Y-147973996D01*
X151810089Y-147729357D01*
X151810089Y-148123748D01*
X151602086Y-148123748D01*
X151602086Y-148440287D01*
X151810089Y-148440287D01*
X151810089Y-148633910D01*
X151804683Y-148721234D01*
X151793053Y-148761130D01*
X151770293Y-148783390D01*
X151725917Y-148791996D01*
X151674470Y-148783978D01*
X151602086Y-148754993D01*
G37*
G36*
X150167403Y-149126121D02*
G01*
X150958109Y-149126121D01*
X150958109Y-148807933D01*
X150828050Y-148807933D01*
X150828050Y-148014022D01*
X150958109Y-148014022D01*
X150958109Y-147695834D01*
X150306713Y-147695834D01*
X150306713Y-148244190D01*
X150201328Y-148181524D01*
X150099992Y-148138907D01*
X150001592Y-148114230D01*
X149904903Y-148106162D01*
X149817557Y-148113178D01*
X149743257Y-148133060D01*
X149679683Y-148164826D01*
X149625092Y-148208561D01*
X149584118Y-148262704D01*
X149551874Y-148337440D01*
X149530061Y-148438518D01*
X149521869Y-148573002D01*
X149521869Y-148807200D01*
X149404999Y-148807200D01*
X149404999Y-149126121D01*
X150043114Y-149126121D01*
X150043114Y-148716800D01*
X150050262Y-148549101D01*
X150064363Y-148485716D01*
X150082969Y-148461477D01*
X150112085Y-148446111D01*
X150155954Y-148440287D01*
X150203854Y-148445556D01*
X150253758Y-148461972D01*
X150306713Y-148491120D01*
X150306713Y-148808025D01*
X150167403Y-148808025D01*
X150167403Y-149126121D01*
G37*
G36*
X148725569Y-148110913D02*
G01*
X148858926Y-148140770D01*
X148971887Y-148187803D01*
X149067669Y-148251243D01*
X149136454Y-148316737D01*
X149187962Y-148385789D01*
X149224089Y-148459033D01*
X149245832Y-148537539D01*
X149253233Y-148622736D01*
X149245603Y-148712796D01*
X149223333Y-148794613D01*
X149186611Y-148869785D01*
X149134632Y-148939506D01*
X149065654Y-149004488D01*
X148989925Y-149055953D01*
X148901867Y-149097447D01*
X148799621Y-149128585D01*
X148680952Y-149148409D01*
X148543310Y-149155430D01*
X148387940Y-149144928D01*
X148255112Y-149115238D01*
X148141240Y-149068215D01*
X148043406Y-149004488D01*
X147973284Y-148938904D01*
X147920696Y-148869241D01*
X147883733Y-148794834D01*
X147861426Y-148714548D01*
X147853813Y-148626858D01*
X147854390Y-148620355D01*
X148381286Y-148620355D01*
X148390337Y-148714976D01*
X148413828Y-148779297D01*
X148448702Y-148821739D01*
X148495604Y-148847287D01*
X148558698Y-148856476D01*
X148617452Y-148847601D01*
X148661508Y-148822748D01*
X148694623Y-148781009D01*
X148717133Y-148717091D01*
X148725851Y-148622370D01*
X148719641Y-148548919D01*
X148702882Y-148493324D01*
X148677308Y-148451552D01*
X148641718Y-148419287D01*
X148599781Y-148400067D01*
X148549447Y-148393392D01*
X148498733Y-148400272D01*
X148457989Y-148419840D01*
X148424792Y-148452468D01*
X148401871Y-148494350D01*
X148386836Y-148549141D01*
X148381286Y-148620355D01*
X147854390Y-148620355D01*
X147861888Y-148535898D01*
X147885417Y-148453869D01*
X147924229Y-148378991D01*
X147979313Y-148309973D01*
X148052749Y-148246114D01*
X148154672Y-148184612D01*
X148272547Y-148139139D01*
X148409156Y-148110435D01*
X148567857Y-148100301D01*
X148725569Y-148110913D01*
G37*
G36*
X146932681Y-149137844D02*
G01*
X147344383Y-149137844D01*
X147648649Y-148442760D01*
X147756268Y-148442760D01*
X147756268Y-148123748D01*
X147080235Y-148123748D01*
X147080235Y-148442760D01*
X147178420Y-148442760D01*
X147065672Y-148762962D01*
X146822864Y-148123748D01*
X146436533Y-148123748D01*
X146215065Y-148762962D01*
X146092517Y-148442760D01*
X146186489Y-148442760D01*
X146186489Y-148123748D01*
X145695927Y-148123748D01*
X145695927Y-148442760D01*
X145794296Y-148442760D01*
X146083266Y-149137844D01*
X146495975Y-149137844D01*
X146721381Y-148632353D01*
X146932681Y-149137844D01*
G37*
G36*
X144271778Y-149126121D02*
G01*
X145090144Y-149126121D01*
X145090144Y-148779265D01*
X144958986Y-148779265D01*
X144958986Y-148042690D01*
X145090144Y-148042690D01*
X145090144Y-147695834D01*
X144271778Y-147695834D01*
X144271778Y-148042690D01*
X144401929Y-148042690D01*
X144401929Y-148779265D01*
X144271778Y-148779265D01*
X144271778Y-149126121D01*
G37*
G36*
X142801192Y-149126121D02*
G01*
X143585761Y-149126121D01*
X143585761Y-148806926D01*
X143462845Y-148806926D01*
X143462845Y-148442943D01*
X143587776Y-148442943D01*
X143587776Y-148123748D01*
X142940502Y-148123748D01*
X142940502Y-148260951D01*
X142862677Y-148206487D01*
X142750816Y-148153515D01*
X142631702Y-148117526D01*
X142522297Y-148106162D01*
X142420771Y-148114968D01*
X142339451Y-148139350D01*
X142274231Y-148177561D01*
X142222216Y-148229717D01*
X142182036Y-148297771D01*
X142062416Y-148210414D01*
X141946106Y-148151427D01*
X141831566Y-148117343D01*
X141716936Y-148106162D01*
X141631107Y-148112966D01*
X141560092Y-148132006D01*
X141501148Y-148162033D01*
X141448576Y-148204621D01*
X141408236Y-148254734D01*
X141379057Y-148313341D01*
X141360559Y-148379236D01*
X141347850Y-148468076D01*
X141343062Y-148585367D01*
X141343062Y-148807200D01*
X141211903Y-148807200D01*
X141211903Y-149126121D01*
X141864307Y-149126121D01*
X141864307Y-148697291D01*
X141872782Y-148547320D01*
X141889494Y-148491486D01*
X141909173Y-148470460D01*
X141937956Y-148457042D01*
X141979253Y-148452010D01*
X142032715Y-148458421D01*
X142087667Y-148478354D01*
X142145400Y-148513834D01*
X142145400Y-148808757D01*
X142004990Y-148808757D01*
X142004990Y-149126121D01*
X142666644Y-149126121D01*
X142666644Y-148699306D01*
X142674007Y-148551443D01*
X142688809Y-148493318D01*
X142706962Y-148471402D01*
X142735161Y-148457354D01*
X142777469Y-148452010D01*
X142827668Y-148458239D01*
X142881516Y-148477985D01*
X142940502Y-148513834D01*
X142940502Y-148808757D01*
X142801192Y-148808757D01*
X142801192Y-149126121D01*
G37*
G36*
X140620446Y-148108363D02*
G01*
X140761310Y-148129461D01*
X140861751Y-148159652D01*
X140931823Y-148195272D01*
X140990883Y-148241584D01*
X141040198Y-148299253D01*
X141080287Y-148369761D01*
X140670783Y-148411161D01*
X140633813Y-148369956D01*
X140590858Y-148341064D01*
X140540749Y-148323379D01*
X140481556Y-148317188D01*
X140417520Y-148324027D01*
X140364045Y-148343475D01*
X140323152Y-148374621D01*
X140301855Y-148408504D01*
X140292793Y-148451869D01*
X140288757Y-148536640D01*
X140288757Y-148561736D01*
X140364138Y-148535200D01*
X140463386Y-148517301D01*
X140592198Y-148510629D01*
X140699018Y-148516921D01*
X140790495Y-148534676D01*
X140868891Y-148562627D01*
X140936123Y-148600113D01*
X140996619Y-148650443D01*
X141037412Y-148704843D01*
X141061421Y-148764304D01*
X141069571Y-148830739D01*
X141062930Y-148891556D01*
X141043242Y-148947702D01*
X141009874Y-149000536D01*
X140960944Y-149050924D01*
X140905413Y-149089053D01*
X140835938Y-149118007D01*
X140749494Y-149136857D01*
X140642390Y-149143706D01*
X140528402Y-149137501D01*
X140433342Y-149120228D01*
X140354296Y-149093484D01*
X140288757Y-149058252D01*
X140288757Y-149126121D01*
X139640475Y-149126121D01*
X139640475Y-148808574D01*
X139767512Y-148808574D01*
X139767512Y-148687674D01*
X140288757Y-148687674D01*
X140288757Y-148869391D01*
X140329909Y-148897327D01*
X140380054Y-148914749D01*
X140441622Y-148920957D01*
X140491366Y-148911404D01*
X140535870Y-148882122D01*
X140565724Y-148839251D01*
X140575987Y-148784028D01*
X140566060Y-148730529D01*
X140536969Y-148688040D01*
X140492415Y-148661007D01*
X140431364Y-148651312D01*
X140357619Y-148660412D01*
X140288757Y-148687674D01*
X139767512Y-148687674D01*
X139767512Y-148525283D01*
X139775447Y-148398016D01*
X139794348Y-148323874D01*
X139828928Y-148264679D01*
X139886397Y-148206180D01*
X139933346Y-148176087D01*
X139999356Y-148149271D01*
X140089546Y-148126954D01*
X140239023Y-148106987D01*
X140428250Y-148100301D01*
X140620446Y-148108363D01*
G37*
G36*
X138750760Y-148012648D02*
G01*
X138623723Y-148012648D01*
X138623723Y-148185847D01*
X138711928Y-148142734D01*
X138815091Y-148115707D01*
X138936415Y-148106162D01*
X139061706Y-148115743D01*
X139168586Y-148142887D01*
X139260221Y-148186161D01*
X139339049Y-148245472D01*
X139402991Y-148320627D01*
X139449650Y-148410230D01*
X139479069Y-148517194D01*
X139489533Y-148645451D01*
X139482384Y-148741228D01*
X139462006Y-148824171D01*
X139429355Y-148896406D01*
X139384474Y-148959596D01*
X139326501Y-149014837D01*
X139241817Y-149071396D01*
X139152127Y-149111349D01*
X139056259Y-149135487D01*
X138952718Y-149143706D01*
X138828617Y-149134288D01*
X138719801Y-149107290D01*
X138623723Y-149063747D01*
X138623723Y-149126121D01*
X137973335Y-149126121D01*
X137973335Y-148807933D01*
X138102387Y-148807933D01*
X138102387Y-148621362D01*
X138620609Y-148621362D01*
X138626868Y-148697253D01*
X138643402Y-148752065D01*
X138668053Y-148790989D01*
X138703244Y-148820775D01*
X138744243Y-148838578D01*
X138792892Y-148844753D01*
X138845984Y-148837534D01*
X138886867Y-148817330D01*
X138918555Y-148784028D01*
X138941475Y-148741909D01*
X138955913Y-148691426D01*
X138961053Y-148630613D01*
X138952327Y-148540537D01*
X138929643Y-148479156D01*
X138895863Y-148438517D01*
X138850272Y-148413966D01*
X138788770Y-148405116D01*
X138736311Y-148412281D01*
X138695365Y-148432447D01*
X138663107Y-148465840D01*
X138640111Y-148509285D01*
X138625706Y-148560533D01*
X138620609Y-148621362D01*
X138102387Y-148621362D01*
X138102387Y-147695834D01*
X138750760Y-147695834D01*
X138750760Y-148012648D01*
G37*
G36*
X137320926Y-148110911D02*
G01*
X137445124Y-148140819D01*
X137550519Y-148188144D01*
X137640126Y-148252433D01*
X137717250Y-148334462D01*
X137770923Y-148423949D01*
X137803246Y-148522597D01*
X137814333Y-148632994D01*
X137806979Y-148724627D01*
X137785673Y-148806732D01*
X137750868Y-148880991D01*
X137702099Y-148948688D01*
X137638020Y-149010624D01*
X137567318Y-149059060D01*
X137482200Y-149098701D01*
X137380224Y-149128913D01*
X137258478Y-149148432D01*
X137113661Y-149155430D01*
X136977132Y-149145779D01*
X136859151Y-149118339D01*
X136756731Y-149074555D01*
X136687164Y-149030861D01*
X136630885Y-148981590D01*
X136584816Y-148923975D01*
X136548911Y-148856843D01*
X136980213Y-148803445D01*
X137009105Y-148854539D01*
X137043416Y-148888347D01*
X137083720Y-148908229D01*
X137132071Y-148915095D01*
X137193954Y-148906029D01*
X137240381Y-148880721D01*
X137275305Y-148838529D01*
X137299316Y-148774477D01*
X137309483Y-148680255D01*
X136526562Y-148680255D01*
X136538969Y-148561318D01*
X136551216Y-148513651D01*
X137017124Y-148513651D01*
X137019047Y-148545799D01*
X137303621Y-148545799D01*
X137304354Y-148528122D01*
X137294739Y-148448086D01*
X137267900Y-148385332D01*
X137240081Y-148353811D01*
X137206089Y-148335336D01*
X137163853Y-148328912D01*
X137122207Y-148334751D01*
X137087332Y-148351669D01*
X137057516Y-148380386D01*
X137035586Y-148417517D01*
X137021943Y-148461388D01*
X137017124Y-148513651D01*
X136551216Y-148513651D01*
X136564798Y-148460788D01*
X136602656Y-148375796D01*
X136652012Y-148304005D01*
X136713225Y-148243732D01*
X136805394Y-148182789D01*
X136911200Y-148138144D01*
X137033091Y-148110147D01*
X137174111Y-148100301D01*
X137320926Y-148110911D01*
G37*
G36*
X135026301Y-148754993D02*
G01*
X135026301Y-149067685D01*
X135084749Y-149098637D01*
X135174037Y-149128593D01*
X135274173Y-149148917D01*
X135367386Y-149155430D01*
X135478584Y-149145229D01*
X135567421Y-149116961D01*
X135621434Y-149086536D01*
X135664023Y-149051127D01*
X135696747Y-149010624D01*
X135731827Y-148940465D01*
X135748405Y-148869116D01*
X135755640Y-148605608D01*
X135755640Y-148440287D01*
X135882677Y-148440287D01*
X135882677Y-148123748D01*
X135755640Y-148123748D01*
X135755640Y-147973996D01*
X135234304Y-147729357D01*
X135234304Y-148123748D01*
X135026301Y-148123748D01*
X135026301Y-148440287D01*
X135234304Y-148440287D01*
X135234304Y-148633910D01*
X135228898Y-148721234D01*
X135217268Y-148761130D01*
X135194507Y-148783390D01*
X135150132Y-148791996D01*
X135098685Y-148783978D01*
X135026301Y-148754993D01*
G37*
G36*
X134116252Y-149126121D02*
G01*
X134906957Y-149126121D01*
X134906957Y-148807933D01*
X134776898Y-148807933D01*
X134776898Y-148014022D01*
X134906957Y-148014022D01*
X134906957Y-147695834D01*
X134255562Y-147695834D01*
X134255562Y-148244190D01*
X134150177Y-148181524D01*
X134048840Y-148138907D01*
X133950440Y-148114230D01*
X133853752Y-148106162D01*
X133766405Y-148113178D01*
X133692105Y-148133060D01*
X133628532Y-148164826D01*
X133573941Y-148208561D01*
X133532967Y-148262704D01*
X133500723Y-148337440D01*
X133478909Y-148438518D01*
X133470718Y-148573002D01*
X133470718Y-148807200D01*
X133353848Y-148807200D01*
X133353848Y-149126121D01*
X133991963Y-149126121D01*
X133991963Y-148716800D01*
X133999111Y-148549101D01*
X134013212Y-148485716D01*
X134031817Y-148461477D01*
X134060934Y-148446111D01*
X134104803Y-148440287D01*
X134152703Y-148445556D01*
X134202606Y-148461972D01*
X134255562Y-148491120D01*
X134255562Y-148808025D01*
X134116252Y-148808025D01*
X134116252Y-149126121D01*
G37*
G36*
X132508737Y-149126121D02*
G01*
X133218476Y-149126121D01*
X133218476Y-148806926D01*
X133116077Y-148806926D01*
X133116077Y-148442943D01*
X133218476Y-148442943D01*
X133218476Y-148123748D01*
X132594741Y-148123748D01*
X132594741Y-148806926D01*
X132508737Y-148806926D01*
X132508737Y-149126121D01*
G37*
G36*
X133159125Y-147847326D02*
G01*
X133150143Y-147797320D01*
X133123160Y-147754146D01*
X133074587Y-147715710D01*
X133017532Y-147689206D01*
X132950139Y-147672467D01*
X132870247Y-147666525D01*
X132788377Y-147672886D01*
X132722251Y-147690488D01*
X132668838Y-147717908D01*
X132625048Y-147757399D01*
X132600733Y-147799612D01*
X132592726Y-147846319D01*
X132601329Y-147896604D01*
X132626816Y-147939045D01*
X132671952Y-147975828D01*
X132727073Y-148001749D01*
X132793092Y-148018218D01*
X132872353Y-148024097D01*
X132953190Y-148018698D01*
X133020512Y-148003617D01*
X133076602Y-147980041D01*
X133123171Y-147945181D01*
X133149894Y-147901886D01*
X133159125Y-147847326D01*
G37*
G36*
X131992346Y-149137844D02*
G01*
X132316854Y-149137844D01*
X132316854Y-148821305D01*
X132014603Y-148821305D01*
X131953079Y-148874684D01*
X131891586Y-148910700D01*
X131829222Y-148931614D01*
X131764743Y-148938542D01*
X131677811Y-148929716D01*
X131640701Y-148910547D01*
X131630379Y-148884961D01*
X131637098Y-148861500D01*
X131658497Y-148843287D01*
X131701659Y-148827011D01*
X131820796Y-148795294D01*
X132056552Y-148728524D01*
X132161094Y-148690411D01*
X132233689Y-148647924D01*
X132292578Y-148596655D01*
X132323815Y-148552302D01*
X132341838Y-148501108D01*
X132348636Y-148429754D01*
X132340528Y-148348238D01*
X132317809Y-148282004D01*
X132281475Y-148227817D01*
X132230575Y-148183648D01*
X132149429Y-148141946D01*
X132052075Y-148115569D01*
X131934827Y-148106162D01*
X131812855Y-148114544D01*
X131711884Y-148137909D01*
X131628272Y-148174398D01*
X131628272Y-148123748D01*
X131307886Y-148123748D01*
X131307886Y-148422701D01*
X131602993Y-148422701D01*
X131660574Y-148376018D01*
X131721895Y-148343428D01*
X131787920Y-148323854D01*
X131859997Y-148317188D01*
X131931999Y-148326186D01*
X131964921Y-148346753D01*
X131974944Y-148376722D01*
X131967263Y-148398855D01*
X131942155Y-148412809D01*
X131745600Y-148456865D01*
X131566797Y-148499488D01*
X131449120Y-148536824D01*
X131381069Y-148568210D01*
X131328557Y-148603776D01*
X131289019Y-148643252D01*
X131260065Y-148689913D01*
X131242347Y-148743508D01*
X131236171Y-148805827D01*
X131244939Y-148890115D01*
X131269618Y-148958979D01*
X131309381Y-149015737D01*
X131365589Y-149062373D01*
X131454158Y-149106361D01*
X131558072Y-149133952D01*
X131680662Y-149143706D01*
X131803643Y-149136021D01*
X131906445Y-149114554D01*
X131992346Y-149081058D01*
X131992346Y-149137844D01*
G37*
G36*
X130472759Y-149126121D02*
G01*
X130989974Y-149126121D01*
X130989974Y-148745102D01*
X130472759Y-148745102D01*
X130472759Y-149126121D01*
G37*
G36*
X130555191Y-148551661D02*
G01*
X130909557Y-148551661D01*
X130981731Y-148106620D01*
X130981731Y-147695834D01*
X130481002Y-147695834D01*
X130481002Y-148098469D01*
X130555191Y-148551661D01*
G37*
D11*
%TO.C,G\u002A\u002A\u002A*%
G36*
X109282337Y-141914669D02*
G01*
X109518520Y-142041846D01*
X109820351Y-142253031D01*
X110014493Y-142449822D01*
X110036503Y-142490304D01*
X110207858Y-142655542D01*
X110301844Y-142674951D01*
X110459186Y-142784926D01*
X110496331Y-142992451D01*
X110547104Y-143221453D01*
X110647537Y-143278201D01*
X110791501Y-143356665D01*
X110852729Y-143500452D01*
X110963003Y-143754145D01*
X111050771Y-143846086D01*
X111125183Y-143983276D01*
X111035272Y-144163585D01*
X110826875Y-144501901D01*
X110788795Y-144713235D01*
X110912468Y-144850932D01*
X110923880Y-144857478D01*
X111067531Y-145005810D01*
X111064420Y-145093468D01*
X111023228Y-145267383D01*
X110977333Y-145626868D01*
X110934925Y-146103828D01*
X110924057Y-146260414D01*
X110895913Y-146768754D01*
X110896265Y-147061836D01*
X110929988Y-147177300D01*
X111001954Y-147152787D01*
X111035345Y-147119952D01*
X111167980Y-146901000D01*
X111329537Y-146526772D01*
X111455705Y-146167452D01*
X111611125Y-145715938D01*
X111765977Y-145329783D01*
X111861872Y-145136844D01*
X111961744Y-144821626D01*
X111896704Y-144525325D01*
X111787433Y-144182794D01*
X111811438Y-143996817D01*
X111989428Y-143896255D01*
X112087709Y-143869129D01*
X112318253Y-143760270D01*
X112339676Y-143571156D01*
X112333151Y-143549209D01*
X112332146Y-143358285D01*
X112510700Y-143309952D01*
X112809725Y-143223223D01*
X112954687Y-143119452D01*
X113182133Y-142960749D01*
X113361836Y-142942947D01*
X113417330Y-143040400D01*
X113309876Y-143238916D01*
X113061262Y-143402287D01*
X112782103Y-143461857D01*
X112745011Y-143457694D01*
X112563793Y-143471416D01*
X112571596Y-143620516D01*
X112546793Y-143816812D01*
X112333516Y-143946591D01*
X112134332Y-144050299D01*
X112063754Y-144211690D01*
X112089058Y-144519141D01*
X112098691Y-144580767D01*
X112117285Y-145031058D01*
X112000012Y-145313442D01*
X111866083Y-145548963D01*
X111703595Y-145935834D01*
X111579044Y-146294451D01*
X111436282Y-146718106D01*
X111307522Y-147050413D01*
X111232922Y-147199104D01*
X111184813Y-147425623D01*
X111216418Y-147580104D01*
X111256340Y-147740076D01*
X111157238Y-147697330D01*
X111123358Y-147670501D01*
X110985784Y-147602605D01*
X110942117Y-147743719D01*
X110940830Y-147813081D01*
X110997163Y-148029804D01*
X111131330Y-148045974D01*
X111144631Y-148093818D01*
X111000338Y-148273944D01*
X110729291Y-148548319D01*
X110706293Y-148570143D01*
X110351498Y-148869709D01*
X110030438Y-149079733D01*
X109827293Y-149151951D01*
X109530848Y-149233911D01*
X109313026Y-149374201D01*
X109139333Y-149500548D01*
X109114211Y-149434251D01*
X109118852Y-149418720D01*
X109236923Y-149209084D01*
X109466620Y-148901233D01*
X109755467Y-148555269D01*
X110050994Y-148231290D01*
X110300726Y-147989395D01*
X110452189Y-147889683D01*
X110453996Y-147889543D01*
X110629804Y-147788190D01*
X110645642Y-147566115D01*
X110518628Y-147336736D01*
X110390543Y-147174912D01*
X110444744Y-147159531D01*
X110549975Y-147197242D01*
X110702386Y-147235651D01*
X110695186Y-147135741D01*
X110621387Y-146989320D01*
X110492179Y-146792700D01*
X110387284Y-146807647D01*
X110315563Y-146894664D01*
X110121803Y-147026203D01*
X109951402Y-146974809D01*
X109767125Y-146935482D01*
X109624891Y-147098838D01*
X109589221Y-147172480D01*
X109376096Y-147427677D01*
X109177649Y-147464473D01*
X108990664Y-147497427D01*
X108865061Y-147682234D01*
X108783130Y-147955398D01*
X108645212Y-148344522D01*
X108465089Y-148656409D01*
X108422719Y-148704580D01*
X108267167Y-148965349D01*
X108252017Y-149170645D01*
X108270610Y-149307720D01*
X108186250Y-149289645D01*
X107969962Y-149121027D01*
X107677520Y-148784983D01*
X107461585Y-148432284D01*
X107998663Y-148432284D01*
X108016097Y-148507786D01*
X108083330Y-148516951D01*
X108187865Y-148470484D01*
X108167996Y-148432284D01*
X108017278Y-148417084D01*
X107998663Y-148432284D01*
X107461585Y-148432284D01*
X107369239Y-148281450D01*
X107082425Y-147691309D01*
X106854383Y-147095451D01*
X106722419Y-146574762D01*
X106704167Y-146376487D01*
X106702718Y-146365207D01*
X106897615Y-146365207D01*
X106922224Y-146731156D01*
X106988438Y-147105540D01*
X107090644Y-147408778D01*
X107097677Y-147422739D01*
X107191736Y-147561060D01*
X107280020Y-147515346D01*
X107408888Y-147275122D01*
X107597611Y-147004113D01*
X107920934Y-146649363D01*
X108096625Y-146484951D01*
X110242330Y-146484951D01*
X110288797Y-146589486D01*
X110326997Y-146569618D01*
X110342197Y-146418898D01*
X110326997Y-146400285D01*
X110251495Y-146417718D01*
X110242330Y-146484951D01*
X108096625Y-146484951D01*
X108312703Y-146282743D01*
X108357674Y-146244321D01*
X108801997Y-145913451D01*
X109734331Y-145913451D01*
X109797830Y-145976952D01*
X109861330Y-145913451D01*
X109797830Y-145849951D01*
X109734331Y-145913451D01*
X108801997Y-145913451D01*
X108859556Y-145870588D01*
X109229405Y-145659451D01*
X109607330Y-145659451D01*
X109670830Y-145722951D01*
X109734331Y-145659451D01*
X110369330Y-145659451D01*
X110432830Y-145722951D01*
X110496331Y-145659451D01*
X110432830Y-145595952D01*
X110369330Y-145659451D01*
X109734331Y-145659451D01*
X109670830Y-145595952D01*
X109607330Y-145659451D01*
X109229405Y-145659451D01*
X109360292Y-145584732D01*
X109805834Y-145410736D01*
X110142130Y-145372588D01*
X110244721Y-145406928D01*
X110374915Y-145368775D01*
X110505350Y-145173589D01*
X110592490Y-144914532D01*
X110592787Y-144684766D01*
X110588290Y-144671818D01*
X110408626Y-144545725D01*
X110128652Y-144550906D01*
X109774529Y-144562666D01*
X109513639Y-144513003D01*
X109227728Y-144421033D01*
X108997916Y-144393907D01*
X108906058Y-144438523D01*
X108914747Y-144462525D01*
X108849539Y-144573951D01*
X108619448Y-144755640D01*
X108432607Y-144874038D01*
X108013228Y-145159315D01*
X107619278Y-145486615D01*
X107519819Y-145584621D01*
X107255189Y-145828338D01*
X107042141Y-145965747D01*
X106995670Y-145976952D01*
X106920224Y-146087278D01*
X106897615Y-146365207D01*
X106702718Y-146365207D01*
X106645892Y-145922862D01*
X106514836Y-145707096D01*
X107100329Y-145707096D01*
X107193362Y-145646227D01*
X107210089Y-145629817D01*
X107310404Y-145463305D01*
X107296802Y-145402090D01*
X107202331Y-145440202D01*
X107138995Y-145558723D01*
X107100329Y-145707096D01*
X106514836Y-145707096D01*
X106495120Y-145674636D01*
X106378732Y-145481044D01*
X106389601Y-145249986D01*
X106469876Y-145151451D01*
X107575330Y-145151451D01*
X107638831Y-145214952D01*
X107702330Y-145151451D01*
X107638831Y-145087951D01*
X107575330Y-145151451D01*
X106469876Y-145151451D01*
X106512050Y-145099684D01*
X106572917Y-145087951D01*
X106655261Y-144978301D01*
X106685012Y-144749284D01*
X107871664Y-144749284D01*
X107889097Y-144824785D01*
X107956330Y-144833952D01*
X108060865Y-144787483D01*
X108040997Y-144749284D01*
X107890277Y-144734085D01*
X107871664Y-144749284D01*
X106685012Y-144749284D01*
X106686386Y-144738702D01*
X106715263Y-144516451D01*
X106841635Y-144516451D01*
X106879391Y-144524128D01*
X106917476Y-144495285D01*
X108506663Y-144495285D01*
X108524096Y-144570786D01*
X108591331Y-144579951D01*
X108695866Y-144533484D01*
X108675997Y-144495285D01*
X108525277Y-144480085D01*
X108506663Y-144495285D01*
X106917476Y-144495285D01*
X107055077Y-144391072D01*
X107056946Y-144389451D01*
X109861330Y-144389451D01*
X109924831Y-144452952D01*
X109988330Y-144389451D01*
X109924831Y-144325951D01*
X109861330Y-144389451D01*
X107056946Y-144389451D01*
X107142938Y-144314820D01*
X107524967Y-144030163D01*
X107941123Y-143794072D01*
X107956330Y-143787171D01*
X108288698Y-143643001D01*
X109099330Y-143643001D01*
X109161107Y-143681016D01*
X109329937Y-143517871D01*
X109369529Y-143468701D01*
X109454530Y-143352285D01*
X110030663Y-143352285D01*
X110048096Y-143427786D01*
X110115331Y-143436951D01*
X110219866Y-143390484D01*
X110199997Y-143352285D01*
X110049277Y-143337085D01*
X110030663Y-143352285D01*
X109454530Y-143352285D01*
X109479365Y-143318271D01*
X109413599Y-143349807D01*
X109321580Y-143420751D01*
X109145690Y-143577418D01*
X109099330Y-143643001D01*
X108288698Y-143643001D01*
X108600341Y-143507821D01*
X109076777Y-143326653D01*
X109443782Y-143225373D01*
X109759502Y-143185687D01*
X109876840Y-143182951D01*
X110224199Y-143149464D01*
X110362813Y-143039325D01*
X110369330Y-142992451D01*
X110275630Y-142823901D01*
X110194321Y-142801951D01*
X109998532Y-142705882D01*
X109825453Y-142516201D01*
X109653719Y-142323141D01*
X109476890Y-142329833D01*
X109371998Y-142386195D01*
X109120123Y-142492004D01*
X108707891Y-142620471D01*
X108223931Y-142744015D01*
X108217496Y-142745481D01*
X107322590Y-142949023D01*
X107115907Y-143669238D01*
X106993190Y-144079465D01*
X106890125Y-144393633D01*
X106841635Y-144516451D01*
X106715263Y-144516451D01*
X106724311Y-144446817D01*
X106824095Y-144006052D01*
X106964846Y-143507668D01*
X106977443Y-143467429D01*
X107216003Y-142840099D01*
X107447462Y-142484451D01*
X108083330Y-142484451D01*
X108146830Y-142547952D01*
X108210331Y-142484451D01*
X108146830Y-142420952D01*
X108083330Y-142484451D01*
X107447462Y-142484451D01*
X107483153Y-142429610D01*
X107617159Y-142336284D01*
X108379663Y-142336284D01*
X108397097Y-142411787D01*
X108464330Y-142420952D01*
X108568865Y-142374485D01*
X108548996Y-142336284D01*
X108398278Y-142321085D01*
X108379663Y-142336284D01*
X107617159Y-142336284D01*
X107814434Y-142198895D01*
X108245386Y-142110891D01*
X108279881Y-142109132D01*
X108313459Y-142103451D01*
X108972331Y-142103451D01*
X109035830Y-142166952D01*
X109099330Y-142103451D01*
X109035830Y-142039952D01*
X108972331Y-142103451D01*
X108313459Y-142103451D01*
X108629423Y-142049997D01*
X108882737Y-141934607D01*
X109053727Y-141856841D01*
X109282337Y-141914669D01*
G37*
G36*
X117687816Y-135912201D02*
G01*
X117853850Y-136187946D01*
X118030913Y-136322385D01*
X118053194Y-136324952D01*
X118226604Y-136373310D01*
X118177841Y-136504887D01*
X117916700Y-136699433D01*
X117854339Y-136735920D01*
X117569274Y-136873586D01*
X117368478Y-136871049D01*
X117178115Y-136767134D01*
X116982768Y-136659872D01*
X116871506Y-136706826D01*
X116775486Y-136949367D01*
X116752728Y-137022791D01*
X116691878Y-137374794D01*
X116760884Y-137559809D01*
X116945648Y-137546759D01*
X116981333Y-137526506D01*
X117177011Y-137535239D01*
X117401912Y-137716793D01*
X117593463Y-138007157D01*
X117672656Y-138233717D01*
X117750833Y-138476942D01*
X117891908Y-138529023D01*
X118115394Y-138465248D01*
X118513554Y-138383679D01*
X118836692Y-138379401D01*
X119053871Y-138429851D01*
X119178503Y-138563016D01*
X119256878Y-138847748D01*
X119291196Y-139055451D01*
X119328318Y-139932137D01*
X119159445Y-140694441D01*
X119063384Y-140907482D01*
X118956381Y-141180983D01*
X119001969Y-141383319D01*
X119070233Y-141483371D01*
X119235315Y-141756503D01*
X119202258Y-141890808D01*
X119079474Y-141912951D01*
X118910499Y-142018457D01*
X118742027Y-142275068D01*
X118730225Y-142301189D01*
X118583565Y-142563810D01*
X118396371Y-142642053D01*
X118148079Y-142612933D01*
X117735330Y-142536441D01*
X117735330Y-143248191D01*
X117753464Y-143619997D01*
X117800414Y-143849365D01*
X117849959Y-143889097D01*
X117964142Y-143943867D01*
X118087733Y-144172492D01*
X118097352Y-144199102D01*
X118231610Y-144463423D01*
X118374036Y-144579697D01*
X118379598Y-144579951D01*
X118470051Y-144676017D01*
X118440057Y-144977109D01*
X118436612Y-144992701D01*
X118354685Y-145419627D01*
X118301121Y-145786452D01*
X118184171Y-146592465D01*
X118032656Y-147190003D01*
X117832172Y-147623788D01*
X117625355Y-147884464D01*
X117359346Y-148120440D01*
X117151997Y-148252674D01*
X117110099Y-148262952D01*
X116986761Y-148342714D01*
X116942708Y-148615918D01*
X116942007Y-148643952D01*
X116967252Y-148801414D01*
X117022965Y-149056701D01*
X117061346Y-149332626D01*
X117016511Y-149405118D01*
X116920539Y-149297071D01*
X116805515Y-149031378D01*
X116756009Y-148866201D01*
X116693739Y-148464072D01*
X116678597Y-148188868D01*
X116729355Y-148188868D01*
X116752706Y-148353589D01*
X116796059Y-148355556D01*
X116826375Y-148185580D01*
X116806085Y-148112139D01*
X116749692Y-148064034D01*
X116729355Y-148188868D01*
X116678597Y-148188868D01*
X116661746Y-147882595D01*
X116663310Y-147194983D01*
X116671121Y-146971756D01*
X116687361Y-146293002D01*
X116670435Y-145817608D01*
X116621414Y-145566381D01*
X116597282Y-145535511D01*
X116471081Y-145358895D01*
X116465330Y-145314772D01*
X116541659Y-145282218D01*
X116704983Y-145392468D01*
X116841452Y-145567890D01*
X116905770Y-145822605D01*
X116912891Y-146231269D01*
X116906036Y-146396493D01*
X116881757Y-146831574D01*
X116857664Y-147166951D01*
X116841843Y-147310542D01*
X116827029Y-147528577D01*
X116850524Y-147731235D01*
X116896061Y-147827338D01*
X116928060Y-147793836D01*
X117078431Y-147697236D01*
X117172035Y-147712173D01*
X117328269Y-147683727D01*
X117354330Y-147578038D01*
X117410243Y-147400362D01*
X117464067Y-147373951D01*
X117544122Y-147260595D01*
X117623024Y-146972791D01*
X117654570Y-146784703D01*
X117683643Y-146368986D01*
X117620882Y-146129029D01*
X117568182Y-146072202D01*
X117864275Y-146072202D01*
X117881372Y-146361027D01*
X117936017Y-146420341D01*
X117989330Y-146357952D01*
X118091651Y-146076484D01*
X118114385Y-145881702D01*
X118068096Y-145658724D01*
X117989330Y-145595952D01*
X117908148Y-145708107D01*
X117866012Y-145986216D01*
X117864275Y-146072202D01*
X117568182Y-146072202D01*
X117551724Y-146054454D01*
X117453608Y-145848081D01*
X117370967Y-145396926D01*
X117304746Y-144709792D01*
X117301767Y-144654034D01*
X117877062Y-144654034D01*
X117886832Y-144999919D01*
X117929243Y-145227189D01*
X117946997Y-145257285D01*
X118130985Y-145338217D01*
X118236332Y-145195815D01*
X118243329Y-145113351D01*
X118184352Y-144851662D01*
X118128657Y-144764101D01*
X118004067Y-144545616D01*
X117952889Y-144389451D01*
X117913616Y-144340809D01*
X117884370Y-144509398D01*
X117877062Y-144654034D01*
X117301767Y-144654034D01*
X117255888Y-143795484D01*
X117234084Y-143091687D01*
X117179756Y-142887760D01*
X117005079Y-142885576D01*
X116981549Y-142864201D01*
X117137666Y-142734273D01*
X117417830Y-142538712D01*
X117742974Y-142336284D01*
X118158663Y-142336284D01*
X118176096Y-142411787D01*
X118243329Y-142420952D01*
X118347864Y-142374485D01*
X118327997Y-142336284D01*
X118177277Y-142321085D01*
X118158663Y-142336284D01*
X117742974Y-142336284D01*
X117771867Y-142318296D01*
X118044114Y-142176471D01*
X118157519Y-142144719D01*
X118204278Y-142092273D01*
X118179435Y-142039314D01*
X118191593Y-141966977D01*
X118388664Y-141966977D01*
X118418610Y-142033245D01*
X118489835Y-142039952D01*
X118662048Y-141947714D01*
X118686930Y-141914406D01*
X118666488Y-141842238D01*
X118567425Y-141864494D01*
X118388664Y-141966977D01*
X118191593Y-141966977D01*
X118207244Y-141873860D01*
X118371395Y-141604784D01*
X118378934Y-141595452D01*
X118751330Y-141595452D01*
X118814829Y-141658952D01*
X118878330Y-141595452D01*
X118814829Y-141531951D01*
X118751330Y-141595452D01*
X118378934Y-141595452D01*
X118496003Y-141450558D01*
X118875992Y-140942535D01*
X119074344Y-140454027D01*
X119132318Y-139882742D01*
X119132330Y-139872684D01*
X119114837Y-139549236D01*
X119030606Y-139406804D01*
X118832003Y-139373121D01*
X118802940Y-139372952D01*
X118508091Y-139288016D01*
X118407128Y-139118952D01*
X118286753Y-138896354D01*
X118128903Y-138902795D01*
X118051640Y-138993876D01*
X117889722Y-139130996D01*
X117601350Y-139293110D01*
X117567896Y-139308822D01*
X117288599Y-139443534D01*
X117022362Y-139591109D01*
X116689793Y-139798016D01*
X116319269Y-140039702D01*
X115968749Y-140201819D01*
X115653567Y-140261952D01*
X115385501Y-140333348D01*
X115134896Y-140579064D01*
X115006422Y-140767428D01*
X114816516Y-141092385D01*
X114702273Y-141334427D01*
X114687330Y-141394932D01*
X114597797Y-141571947D01*
X114416532Y-141609644D01*
X114300857Y-141523095D01*
X114207461Y-141464012D01*
X114125714Y-141639843D01*
X114114435Y-141682790D01*
X113994818Y-141924444D01*
X113805699Y-141951677D01*
X113606623Y-141998516D01*
X113497102Y-142205235D01*
X113501531Y-142486221D01*
X113594171Y-142693990D01*
X113742877Y-142865064D01*
X113811837Y-142896393D01*
X113802542Y-142941364D01*
X113769171Y-142985625D01*
X113641030Y-142989678D01*
X113473538Y-142842022D01*
X113336059Y-142620511D01*
X113294369Y-142452702D01*
X113216821Y-142307949D01*
X113064967Y-142335077D01*
X112955257Y-142484451D01*
X112805377Y-142662958D01*
X112635788Y-142636701D01*
X112533299Y-142431501D01*
X112528330Y-142357452D01*
X112487324Y-142130543D01*
X112313012Y-142047534D01*
X112147330Y-142039952D01*
X111853870Y-141971289D01*
X111763634Y-141806511D01*
X111896680Y-141607433D01*
X111987617Y-141547734D01*
X112173488Y-141338306D01*
X112209868Y-141192173D01*
X112321802Y-140986248D01*
X112528330Y-140917122D01*
X112906154Y-140783640D01*
X113186624Y-140538023D01*
X113290330Y-140261952D01*
X113313499Y-140198451D01*
X113417330Y-140198451D01*
X113480830Y-140261952D01*
X113544331Y-140198451D01*
X113480830Y-140134952D01*
X113417330Y-140198451D01*
X113313499Y-140198451D01*
X113378852Y-140019336D01*
X113544331Y-139817451D01*
X113737159Y-139561316D01*
X113798330Y-139354958D01*
X113882685Y-139160430D01*
X114080153Y-138885276D01*
X114956931Y-138885276D01*
X115018830Y-139343804D01*
X115277375Y-139696515D01*
X115540425Y-139930532D01*
X115642197Y-139982064D01*
X115601199Y-139848054D01*
X115506080Y-139658702D01*
X115346387Y-139251050D01*
X115375974Y-138949184D01*
X115586289Y-138695391D01*
X115865150Y-138557594D01*
X116075531Y-138642456D01*
X116184672Y-138921159D01*
X116182833Y-139220082D01*
X116162270Y-139489155D01*
X116201183Y-139539702D01*
X116286524Y-139441935D01*
X116376471Y-139183115D01*
X116350943Y-138991952D01*
X117227330Y-138991952D01*
X117273797Y-139096487D01*
X117311996Y-139076618D01*
X117327195Y-138925899D01*
X117311996Y-138907284D01*
X117236495Y-138924719D01*
X117227330Y-138991952D01*
X116350943Y-138991952D01*
X116325504Y-138801452D01*
X117506088Y-138801452D01*
X117519815Y-139018346D01*
X117559572Y-139037441D01*
X117564633Y-139026119D01*
X117589757Y-138774000D01*
X117569339Y-138645119D01*
X117528914Y-138593328D01*
X117506925Y-138762012D01*
X117506088Y-138801452D01*
X116325504Y-138801452D01*
X116324819Y-138796319D01*
X116315951Y-138762245D01*
X116122698Y-138311097D01*
X115998009Y-138186231D01*
X116719659Y-138186231D01*
X116746299Y-138425058D01*
X116797949Y-138520238D01*
X116936717Y-138507881D01*
X117062187Y-138413237D01*
X117261285Y-138292794D01*
X117364568Y-138299780D01*
X117474168Y-138282218D01*
X117481329Y-138241914D01*
X117377837Y-138086262D01*
X117142362Y-137932310D01*
X116887419Y-137850614D01*
X116854679Y-137848952D01*
X116759219Y-137953580D01*
X116719659Y-138186231D01*
X115998009Y-138186231D01*
X115858365Y-138046389D01*
X115565318Y-137982888D01*
X115285916Y-138135359D01*
X115135091Y-138350645D01*
X114956931Y-138885276D01*
X114080153Y-138885276D01*
X114107027Y-138847829D01*
X114428258Y-138475146D01*
X114538682Y-138358641D01*
X114993758Y-137923386D01*
X115196637Y-137785452D01*
X115449330Y-137785452D01*
X115512830Y-137848952D01*
X115576329Y-137785452D01*
X115512830Y-137721951D01*
X115449330Y-137785452D01*
X115196637Y-137785452D01*
X115356381Y-137676845D01*
X115680920Y-137600457D01*
X116021736Y-137675667D01*
X116240928Y-137777586D01*
X116514234Y-137874653D01*
X116661174Y-137840304D01*
X116677496Y-137638097D01*
X116491818Y-137499939D01*
X116274830Y-137467952D01*
X116009339Y-137420648D01*
X115894824Y-137342562D01*
X115728929Y-137273022D01*
X115425078Y-137268117D01*
X115379330Y-137273250D01*
X115062576Y-137277122D01*
X114941486Y-137192043D01*
X114941330Y-137187426D01*
X114866112Y-137196561D01*
X114670262Y-137353166D01*
X114398486Y-137611890D01*
X114095490Y-137927387D01*
X113805981Y-138254303D01*
X113574664Y-138547290D01*
X113515486Y-138633797D01*
X113358332Y-138935262D01*
X113171369Y-139375095D01*
X113023579Y-139776797D01*
X112870735Y-140201922D01*
X112737136Y-140530041D01*
X112655443Y-140684331D01*
X112594849Y-140685951D01*
X112604132Y-140514488D01*
X112668412Y-140236299D01*
X112772809Y-139917741D01*
X112885766Y-139657266D01*
X113014795Y-139338374D01*
X113000456Y-139111406D01*
X112938983Y-138992240D01*
X112854922Y-138733799D01*
X112798063Y-138321975D01*
X112786136Y-138042836D01*
X112916465Y-138042836D01*
X112940647Y-138427482D01*
X113049478Y-138690293D01*
X113176250Y-138804245D01*
X113273867Y-138737442D01*
X113380820Y-138505452D01*
X113569058Y-138188385D01*
X113796462Y-137976951D01*
X114001751Y-137750751D01*
X114052329Y-137552303D01*
X113994432Y-137204801D01*
X113852363Y-136848350D01*
X113673547Y-136587318D01*
X113585665Y-136525388D01*
X113397571Y-136568480D01*
X113221277Y-136803659D01*
X113072110Y-137169036D01*
X112965397Y-137602725D01*
X112916465Y-138042836D01*
X112786136Y-138042836D01*
X112782331Y-137953784D01*
X112849514Y-137323670D01*
X113033861Y-136787297D01*
X113309561Y-136403043D01*
X113530946Y-136260378D01*
X113774703Y-136286691D01*
X114014813Y-136499316D01*
X114191012Y-136836954D01*
X114225078Y-136966443D01*
X114326060Y-137264807D01*
X114462438Y-137312148D01*
X114638783Y-137108987D01*
X114689706Y-137019011D01*
X114831560Y-136842159D01*
X115348613Y-136842159D01*
X115487940Y-136938326D01*
X115774325Y-136959951D01*
X116063297Y-136990034D01*
X116155209Y-137069616D01*
X116147829Y-137086952D01*
X116184783Y-137188659D01*
X116317067Y-137213952D01*
X116550317Y-137099988D01*
X116641949Y-136906544D01*
X116654867Y-136466990D01*
X116606423Y-136393356D01*
X117377957Y-136393356D01*
X117417830Y-136578951D01*
X117598914Y-136700948D01*
X117780749Y-136607283D01*
X117789936Y-136593341D01*
X117766289Y-136430205D01*
X117681738Y-136333175D01*
X117488688Y-136276199D01*
X117377957Y-136393356D01*
X116606423Y-136393356D01*
X116442588Y-136144335D01*
X116299850Y-136050357D01*
X116105124Y-135988440D01*
X115921386Y-136068018D01*
X115679792Y-136309890D01*
X115413956Y-136642251D01*
X115348613Y-136842159D01*
X114831560Y-136842159D01*
X114860237Y-136806407D01*
X115016796Y-136756470D01*
X115169901Y-136697196D01*
X115316514Y-136475160D01*
X115530242Y-136144785D01*
X115783899Y-135897965D01*
X115992069Y-135760040D01*
X116144999Y-135749045D01*
X116333016Y-135884121D01*
X116508867Y-136051604D01*
X116827997Y-136303884D01*
X117062487Y-136327367D01*
X117254157Y-136113536D01*
X117362006Y-135877866D01*
X117512574Y-135499452D01*
X117687816Y-135912201D01*
G37*
G36*
X116059517Y-141892640D02*
G01*
X116084330Y-142047447D01*
X116135597Y-142228446D01*
X116232912Y-142217112D01*
X116323515Y-142207620D01*
X116279013Y-142368368D01*
X116199488Y-142635273D01*
X116114484Y-143035417D01*
X116078682Y-143246451D01*
X115991121Y-143682304D01*
X115850418Y-144246040D01*
X115684973Y-144824989D01*
X115662516Y-144897451D01*
X115500870Y-145434144D01*
X115361153Y-145935039D01*
X115269183Y-146306754D01*
X115258682Y-146357952D01*
X115125513Y-146821542D01*
X114910100Y-147351922D01*
X114660962Y-147841563D01*
X114444155Y-148163055D01*
X114198069Y-148347720D01*
X113902215Y-148340914D01*
X113501681Y-148140603D01*
X113480830Y-148127337D01*
X113160925Y-147960718D01*
X112894525Y-147883296D01*
X112877581Y-147882619D01*
X112689154Y-147818158D01*
X112655330Y-147746392D01*
X112754771Y-147669055D01*
X112920230Y-147694911D01*
X113101837Y-147732229D01*
X113101792Y-147631468D01*
X113036941Y-147502092D01*
X112949173Y-147266425D01*
X112959551Y-147154396D01*
X113056091Y-147187782D01*
X113105042Y-147278239D01*
X113276074Y-147430816D01*
X113393782Y-147441643D01*
X113501191Y-147439243D01*
X113449081Y-147464991D01*
X113299508Y-147596193D01*
X113364337Y-147754423D01*
X113512580Y-147831708D01*
X113828462Y-147954999D01*
X113943194Y-148010626D01*
X114230090Y-148028494D01*
X114387693Y-147941895D01*
X114520779Y-147801786D01*
X114457584Y-147758991D01*
X114353081Y-147683358D01*
X114371109Y-147625879D01*
X114523313Y-147552616D01*
X114569105Y-147569875D01*
X114680826Y-147541782D01*
X114696866Y-147476697D01*
X114708707Y-147262708D01*
X114728843Y-146892252D01*
X114743960Y-146611951D01*
X114780219Y-146170039D01*
X114832041Y-145801177D01*
X114865352Y-145659451D01*
X114949185Y-145405452D01*
X114828866Y-145659451D01*
X114690911Y-145987090D01*
X114631448Y-146153878D01*
X114543411Y-146321601D01*
X114490958Y-146330913D01*
X114501513Y-146188086D01*
X114588906Y-145863846D01*
X114734213Y-145412032D01*
X114918510Y-144886491D01*
X115122873Y-144341062D01*
X115328378Y-143829589D01*
X115446077Y-143563951D01*
X115703330Y-143563951D01*
X115749797Y-143668486D01*
X115787996Y-143648617D01*
X115803195Y-143497899D01*
X115787996Y-143479284D01*
X115712495Y-143496718D01*
X115703330Y-143563951D01*
X115446077Y-143563951D01*
X115516101Y-143405913D01*
X115527018Y-143383149D01*
X115708347Y-143008960D01*
X115795647Y-142797141D01*
X115796825Y-142677415D01*
X115719788Y-142579506D01*
X115627494Y-142490259D01*
X115514844Y-142288062D01*
X115505964Y-142079924D01*
X115587623Y-141956681D01*
X115702433Y-141975897D01*
X115820105Y-141966675D01*
X115830330Y-141920447D01*
X115922520Y-141791120D01*
X115957329Y-141785952D01*
X116059517Y-141892640D01*
G37*
G36*
X112280605Y-145856989D02*
G01*
X112426369Y-146232172D01*
X112533067Y-146516701D01*
X112660250Y-146896189D01*
X112698472Y-147090496D01*
X112654078Y-147082014D01*
X112533407Y-146853135D01*
X112466972Y-146700169D01*
X112320989Y-146291605D01*
X112218694Y-145906419D01*
X112187021Y-145714017D01*
X112204240Y-145690905D01*
X112280605Y-145856989D01*
G37*
G36*
X113769390Y-144089236D02*
G01*
X113781035Y-144285130D01*
X113854541Y-144636093D01*
X113998103Y-144888582D01*
X114142239Y-145125714D01*
X114156852Y-145274587D01*
X114086082Y-145292515D01*
X113953127Y-145111539D01*
X113882285Y-144975670D01*
X113746454Y-144595107D01*
X113699557Y-144253245D01*
X113706241Y-144185986D01*
X113746307Y-144022066D01*
X113769390Y-144089236D01*
G37*
G36*
X117100329Y-144389451D02*
G01*
X117036830Y-144452952D01*
X116973330Y-144389451D01*
X117036830Y-144325951D01*
X117100329Y-144389451D01*
G37*
G36*
X118265153Y-140993322D02*
G01*
X118280808Y-141198249D01*
X118201709Y-141499391D01*
X118041600Y-141793389D01*
X117857324Y-141991899D01*
X117747396Y-142027292D01*
X117579495Y-141987101D01*
X117354330Y-141926835D01*
X117065502Y-141758952D01*
X117017127Y-141595452D01*
X117100329Y-141595452D01*
X117195567Y-141758225D01*
X117427340Y-141800880D01*
X117714732Y-141734571D01*
X117976835Y-141570455D01*
X118068780Y-141461930D01*
X118192295Y-141159171D01*
X118108185Y-140983215D01*
X117834921Y-140963528D01*
X117766107Y-140979105D01*
X117567180Y-141081468D01*
X117542903Y-141291753D01*
X117562445Y-141387695D01*
X117598440Y-141607703D01*
X117537701Y-141619469D01*
X117472326Y-141563702D01*
X117243321Y-141416067D01*
X117117051Y-141483269D01*
X117100329Y-141595452D01*
X117017127Y-141595452D01*
X116991482Y-141508775D01*
X117130943Y-141227435D01*
X117377672Y-141024996D01*
X117807177Y-140822517D01*
X118109051Y-140813118D01*
X118265153Y-140993322D01*
G37*
G36*
X120693336Y-139422771D02*
G01*
X120945689Y-139632635D01*
X121121268Y-139857989D01*
X121086420Y-139981886D01*
X120917253Y-140177897D01*
X120897623Y-140223930D01*
X120783809Y-140276952D01*
X120536910Y-140125410D01*
X120529329Y-140119296D01*
X120331245Y-139912005D01*
X120341007Y-139880952D01*
X120656330Y-139880952D01*
X120699660Y-140004650D01*
X120712334Y-140007951D01*
X120820763Y-139918958D01*
X120846830Y-139880952D01*
X120836760Y-139763924D01*
X120790824Y-139753952D01*
X120661497Y-139846142D01*
X120656330Y-139880952D01*
X120341007Y-139880952D01*
X120366737Y-139799108D01*
X120370580Y-139797485D01*
X120516366Y-139629162D01*
X120529329Y-139552868D01*
X120564533Y-139396899D01*
X120693336Y-139422771D01*
G37*
G36*
X120013172Y-136944708D02*
G01*
X120241958Y-137210516D01*
X120442382Y-137333561D01*
X120621735Y-137413986D01*
X120600137Y-137485181D01*
X120370580Y-137600781D01*
X120122486Y-137766492D01*
X120021330Y-137932836D01*
X119966141Y-138084785D01*
X119801081Y-138008435D01*
X119535420Y-137714925D01*
X119427882Y-137552618D01*
X119767329Y-137552618D01*
X119837862Y-137707167D01*
X120008532Y-137666750D01*
X120136020Y-137546283D01*
X120210203Y-137383398D01*
X120100487Y-137301033D01*
X119866683Y-137298420D01*
X119768966Y-137506421D01*
X119767329Y-137552618D01*
X119427882Y-137552618D01*
X119378552Y-137478162D01*
X119351627Y-137349003D01*
X119372615Y-137340951D01*
X119519787Y-137239781D01*
X119683313Y-137001044D01*
X119861409Y-136661136D01*
X120013172Y-136944708D01*
G37*
G36*
X134139071Y-105747377D02*
G01*
X134139071Y-107519973D01*
X132366476Y-107519973D01*
X130593880Y-107519973D01*
X130593880Y-105747377D01*
X130593880Y-103974781D01*
X132366476Y-103974781D01*
X134139071Y-103974781D01*
X134139071Y-105747377D01*
G37*
G36*
X159906559Y-105747377D02*
G01*
X159906559Y-107519973D01*
X158155580Y-107519973D01*
X156404602Y-107519973D01*
X156404602Y-105747377D01*
X156404602Y-103974781D01*
X158155580Y-103974781D01*
X159906559Y-103974781D01*
X159906559Y-105747377D01*
G37*
G36*
X155237283Y-123322014D02*
G01*
X155237283Y-123905673D01*
X154653623Y-123905673D01*
X154069964Y-123905673D01*
X154069964Y-123322014D01*
X154069964Y-122738354D01*
X154653623Y-122738354D01*
X155237283Y-122738354D01*
X155237283Y-123322014D01*
G37*
G36*
X143520859Y-109854611D02*
G01*
X143520859Y-111021930D01*
X142915582Y-111021930D01*
X142310305Y-111021930D01*
X142310305Y-109854611D01*
X142310305Y-108687292D01*
X142915582Y-108687292D01*
X143520859Y-108687292D01*
X143520859Y-109854611D01*
G37*
G36*
X142310305Y-111605590D02*
G01*
X142310305Y-112189249D01*
X141726646Y-112189249D01*
X141142986Y-112189249D01*
X141142986Y-111605590D01*
X141142986Y-111021930D01*
X141726646Y-111021930D01*
X142310305Y-111021930D01*
X142310305Y-111605590D01*
G37*
G36*
X136473709Y-128034525D02*
G01*
X136473709Y-128618184D01*
X135890050Y-128618184D01*
X135306390Y-128618184D01*
X135306390Y-128034525D01*
X135306390Y-127450865D01*
X135890050Y-127450865D01*
X136473709Y-127450865D01*
X136473709Y-128034525D01*
G37*
G36*
X159906559Y-131536482D02*
G01*
X159906559Y-133287461D01*
X158155580Y-133287461D01*
X156404602Y-133287461D01*
X156404602Y-131536482D01*
X156404602Y-129785503D01*
X158155580Y-129785503D01*
X159906559Y-129785503D01*
X159906559Y-131536482D01*
G37*
G36*
X136474148Y-109854611D02*
G01*
X132366476Y-109854611D01*
X128258803Y-109854611D01*
X128269831Y-105758185D01*
X128277776Y-102806858D01*
X129426560Y-102806858D01*
X129426560Y-105747075D01*
X129426560Y-108687292D01*
X132366777Y-108687292D01*
X135306995Y-108687292D01*
X135295884Y-105758185D01*
X135284773Y-102829079D01*
X132355667Y-102817969D01*
X129426560Y-102806858D01*
X128277776Y-102806858D01*
X128280859Y-101661760D01*
X132366476Y-101661760D01*
X136452092Y-101661760D01*
X136463120Y-105758185D01*
X136471006Y-108687292D01*
X136474148Y-109854611D01*
G37*
G36*
X162241197Y-105747377D02*
G01*
X162241197Y-109854611D01*
X158155580Y-109854611D01*
X154069964Y-109854611D01*
X154069964Y-108687292D01*
X155193444Y-108687292D01*
X158133661Y-108687292D01*
X161073878Y-108687292D01*
X161073878Y-105747075D01*
X161073878Y-102806858D01*
X158144772Y-102817969D01*
X155215665Y-102829079D01*
X155204555Y-105758185D01*
X155193444Y-108687292D01*
X154069964Y-108687292D01*
X154069964Y-105747377D01*
X154069964Y-101640143D01*
X158155580Y-101640143D01*
X162241197Y-101640143D01*
X162241197Y-105747075D01*
X162241197Y-105747377D01*
G37*
G36*
X157571921Y-111605590D02*
G01*
X157571921Y-112189249D01*
X155820942Y-112189249D01*
X154069964Y-112189249D01*
X154069964Y-111605590D01*
X154069964Y-111021930D01*
X155820942Y-111021930D01*
X157571921Y-111021930D01*
X157571921Y-111605590D01*
G37*
G36*
X162241197Y-111605590D02*
G01*
X162241197Y-112189249D01*
X161073878Y-112189249D01*
X159906559Y-112189249D01*
X159906559Y-111605590D01*
X159906559Y-111021930D01*
X161073878Y-111021930D01*
X162241197Y-111021930D01*
X162241197Y-111605590D01*
G37*
G36*
X129426560Y-113940228D02*
G01*
X129426560Y-114523888D01*
X128842901Y-114523888D01*
X128259241Y-114523888D01*
X128259241Y-113940228D01*
X128259241Y-113356569D01*
X128842901Y-113356569D01*
X129426560Y-113356569D01*
X129426560Y-113940228D01*
G37*
G36*
X161657538Y-119236397D02*
G01*
X162241197Y-119236397D01*
X162241197Y-119820057D01*
X162241197Y-120403716D01*
X161657538Y-120403716D01*
X161073878Y-120403716D01*
X161073878Y-119820057D01*
X161073878Y-119236397D01*
X161657538Y-119236397D01*
G37*
G36*
X162241197Y-117485420D02*
G01*
X162241197Y-118069079D01*
X161657538Y-118069079D01*
X161073878Y-118069079D01*
X161073878Y-118652737D01*
X161073878Y-119236397D01*
X160490219Y-119236397D01*
X159906559Y-119236397D01*
X159906559Y-118069079D01*
X159906559Y-116901760D01*
X161073878Y-116901760D01*
X162241197Y-116901760D01*
X162241197Y-117485420D01*
G37*
G36*
X162241197Y-122154695D02*
G01*
X162241197Y-122738354D01*
X161657538Y-122738354D01*
X161073878Y-122738354D01*
X161073878Y-122154695D01*
X161073878Y-121571035D01*
X161657538Y-121571035D01*
X162241197Y-121571035D01*
X162241197Y-122154695D01*
G37*
G36*
X145855496Y-135038440D02*
G01*
X145855496Y-135622099D01*
X145271836Y-135622099D01*
X144688177Y-135622099D01*
X144688177Y-135038440D01*
X144688177Y-134454780D01*
X145271836Y-134454780D01*
X145855496Y-134454780D01*
X145855496Y-135038440D01*
G37*
G36*
X158739240Y-113940228D02*
G01*
X158739240Y-114523888D01*
X159906559Y-114523888D01*
X161073878Y-114523888D01*
X161073878Y-113940228D01*
X161073878Y-113356569D01*
X161657538Y-113356569D01*
X162241197Y-113356569D01*
X162241197Y-114545505D01*
X162241197Y-115734441D01*
X159906559Y-115734441D01*
X157571921Y-115734441D01*
X157571921Y-114545505D01*
X157571921Y-113356569D01*
X158155580Y-113356569D01*
X158739240Y-113356569D01*
X158739240Y-113940228D01*
G37*
G36*
X130593880Y-124489333D02*
G01*
X130593880Y-125072993D01*
X130010220Y-125072993D01*
X129426560Y-125072993D01*
X129426560Y-124489333D01*
X129426560Y-123905673D01*
X130010220Y-123905673D01*
X130593880Y-123905673D01*
X130593880Y-124489333D01*
G37*
G36*
X152859410Y-126845589D02*
G01*
X152859410Y-127450865D01*
X152275751Y-127450865D01*
X151692091Y-127450865D01*
X151692091Y-126845589D01*
X151692091Y-126240312D01*
X152275751Y-126240312D01*
X152859410Y-126240312D01*
X152859410Y-126845589D01*
G37*
G36*
X130593880Y-135038440D02*
G01*
X130593880Y-135622099D01*
X130010220Y-135622099D01*
X129426560Y-135622099D01*
X129426560Y-135038440D01*
X129426560Y-134454780D01*
X130010220Y-134454780D01*
X130593880Y-134454780D01*
X130593880Y-135038440D01*
G37*
G36*
X138808348Y-135038440D02*
G01*
X138808348Y-135622099D01*
X138224688Y-135622099D01*
X137641028Y-135622099D01*
X137641028Y-135038440D01*
X137641028Y-134454780D01*
X138224688Y-134454780D01*
X138808348Y-134454780D01*
X138808348Y-135038440D01*
G37*
G36*
X147606474Y-133287461D02*
G01*
X148190133Y-133287461D01*
X148190133Y-133871121D01*
X148190133Y-134454780D01*
X147606474Y-134454780D01*
X147022815Y-134454780D01*
X147022815Y-133871121D01*
X147022815Y-133287461D01*
X147606474Y-133287461D01*
G37*
G36*
X151692091Y-128618184D02*
G01*
X152859410Y-128618184D01*
X152859410Y-129785503D01*
X152859410Y-130952822D01*
X152275751Y-130952822D01*
X151692091Y-130952822D01*
X151692091Y-130369163D01*
X151692091Y-129785503D01*
X151108432Y-129785503D01*
X150524772Y-129785503D01*
X150524772Y-129201844D01*
X150524772Y-128618184D01*
X151692091Y-128618184D01*
G37*
G36*
X140559327Y-127450865D02*
G01*
X141142986Y-127450865D01*
X141142986Y-128034525D01*
X141142986Y-128618184D01*
X140559327Y-128618184D01*
X139975667Y-128618184D01*
X139975667Y-128034525D01*
X139975667Y-127450865D01*
X140559327Y-127450865D01*
G37*
G36*
X151692091Y-122738354D02*
G01*
X152859410Y-122738354D01*
X152859410Y-123905673D01*
X152859410Y-125072993D01*
X154632006Y-125072993D01*
X156404602Y-125072993D01*
X156404602Y-123905673D01*
X156404602Y-122738354D01*
X156988261Y-122738354D01*
X157571921Y-122738354D01*
X157571921Y-123905673D01*
X157571921Y-125072993D01*
X158155580Y-125072993D01*
X158739240Y-125072993D01*
X158739240Y-124489333D01*
X158739240Y-123905673D01*
X159322900Y-123905673D01*
X159906559Y-123905673D01*
X159906559Y-124489333D01*
X159906559Y-125072993D01*
X161073878Y-125072993D01*
X162241197Y-125072993D01*
X162241197Y-125656653D01*
X162241197Y-126240312D01*
X159906559Y-126240312D01*
X157571921Y-126240312D01*
X157571921Y-125656653D01*
X157571921Y-125072993D01*
X156988261Y-125072993D01*
X156404602Y-125072993D01*
X156404602Y-125656653D01*
X156404602Y-126240312D01*
X154632006Y-126240312D01*
X152859410Y-126240312D01*
X152859410Y-125656653D01*
X152859410Y-125072993D01*
X152275751Y-125072993D01*
X151692091Y-125072993D01*
X151692091Y-124489333D01*
X151692091Y-123905673D01*
X151108432Y-123905673D01*
X150524772Y-123905673D01*
X150524772Y-123322014D01*
X150524772Y-122738354D01*
X151692091Y-122738354D01*
G37*
G36*
X138808348Y-113356569D02*
G01*
X138808348Y-113940228D01*
X138808348Y-114523888D01*
X139392008Y-114523888D01*
X139975667Y-114523888D01*
X139975667Y-113940228D01*
X139975667Y-113356569D01*
X140559327Y-113356569D01*
X141142986Y-113356569D01*
X141142986Y-113940228D01*
X141142986Y-114523888D01*
X141726646Y-114523888D01*
X142310305Y-114523888D01*
X142310305Y-115129165D01*
X142310305Y-115734441D01*
X142915582Y-115734441D01*
X143520859Y-115734441D01*
X143520859Y-116901760D01*
X143520859Y-118069079D01*
X144104518Y-118069079D01*
X144688177Y-118069079D01*
X144688177Y-118652737D01*
X144688177Y-119236397D01*
X143499241Y-119236397D01*
X142310305Y-119236397D01*
X142310305Y-118069079D01*
X142310305Y-116901760D01*
X141726646Y-116901760D01*
X141142986Y-116901760D01*
X141142986Y-118069079D01*
X141142986Y-119236397D01*
X140559327Y-119236397D01*
X139975667Y-119236397D01*
X139975667Y-119820057D01*
X139975667Y-120987376D01*
X139975667Y-122738354D01*
X139392008Y-122738354D01*
X138808348Y-122738354D01*
X138808348Y-121571035D01*
X138808348Y-120403716D01*
X138224688Y-120403716D01*
X137641028Y-120403716D01*
X137641028Y-120987376D01*
X137641028Y-121571035D01*
X137057369Y-121571035D01*
X136473709Y-121571035D01*
X136473709Y-122154695D01*
X136473709Y-122738354D01*
X136473709Y-123905673D01*
X133533795Y-123905673D01*
X130593880Y-123905673D01*
X130593880Y-123322014D01*
X130593880Y-122738354D01*
X130010220Y-122738354D01*
X129426560Y-122738354D01*
X129426560Y-121571035D01*
X131804433Y-121571035D01*
X131804433Y-122154695D01*
X131804433Y-122738354D01*
X132971752Y-122738354D01*
X134139071Y-122738354D01*
X134139071Y-122154695D01*
X134139071Y-121571035D01*
X132971752Y-121571035D01*
X131804433Y-121571035D01*
X129426560Y-121571035D01*
X129426560Y-120403716D01*
X129426560Y-119236397D01*
X130593880Y-119236397D01*
X130593880Y-119820057D01*
X130593880Y-120403716D01*
X132366476Y-120403716D01*
X134139071Y-120403716D01*
X134139071Y-120987376D01*
X134139071Y-121571035D01*
X134722731Y-121571035D01*
X135306390Y-121571035D01*
X135306390Y-120987376D01*
X135306390Y-120403716D01*
X135890050Y-120403716D01*
X136473709Y-120403716D01*
X136473709Y-119820057D01*
X136473709Y-119236397D01*
X133533795Y-119236397D01*
X130593880Y-119236397D01*
X129426560Y-119236397D01*
X129426560Y-118652737D01*
X136473709Y-118652737D01*
X136473709Y-119236397D01*
X137057369Y-119236397D01*
X137641028Y-119236397D01*
X137641028Y-118652737D01*
X137641028Y-118069079D01*
X137057369Y-118069079D01*
X136473709Y-118069079D01*
X136473709Y-118652737D01*
X129426560Y-118652737D01*
X129426560Y-118069079D01*
X130010220Y-118069079D01*
X130593880Y-118069079D01*
X130593880Y-117485420D01*
X130593880Y-116901760D01*
X131804433Y-116901760D01*
X131804433Y-117485420D01*
X131804433Y-118069079D01*
X132971752Y-118069079D01*
X134139071Y-118069079D01*
X134139071Y-116901760D01*
X134139071Y-115734441D01*
X134722731Y-115734441D01*
X135306390Y-115734441D01*
X135306390Y-116901760D01*
X135306390Y-118069079D01*
X135890050Y-118069079D01*
X136473709Y-118069079D01*
X136473709Y-117485420D01*
X136473709Y-116901760D01*
X137057369Y-116901760D01*
X137641028Y-116901760D01*
X138808348Y-116901760D01*
X138808348Y-118069079D01*
X138808348Y-119236397D01*
X139392008Y-119236397D01*
X139975667Y-119236397D01*
X139975667Y-118069079D01*
X139975667Y-116901760D01*
X139392008Y-116901760D01*
X138808348Y-116901760D01*
X137641028Y-116901760D01*
X137641028Y-116318101D01*
X137641028Y-115734441D01*
X137057369Y-115734441D01*
X136473709Y-115734441D01*
X136473709Y-115129165D01*
X136473709Y-114523888D01*
X134722731Y-114523888D01*
X132971752Y-114523888D01*
X132971752Y-115712824D01*
X132971752Y-116901760D01*
X132388092Y-116901760D01*
X131804433Y-116901760D01*
X130593880Y-116901760D01*
X130010220Y-116901760D01*
X129426560Y-116901760D01*
X129426560Y-116318101D01*
X129426560Y-115734441D01*
X130615496Y-115734441D01*
X131804433Y-115734441D01*
X131804433Y-115129165D01*
X131804433Y-114523888D01*
X131199156Y-114523888D01*
X130593880Y-114523888D01*
X130593880Y-113356569D01*
X130593880Y-112189249D01*
X131804433Y-112189249D01*
X131804433Y-112772909D01*
X131804433Y-113356569D01*
X132388092Y-113356569D01*
X132971752Y-113356569D01*
X136473709Y-113356569D01*
X136473709Y-113940228D01*
X136473709Y-114523888D01*
X137057369Y-114523888D01*
X137641028Y-114523888D01*
X137641028Y-113940228D01*
X137641028Y-113356569D01*
X137057369Y-113356569D01*
X136473709Y-113356569D01*
X132971752Y-113356569D01*
X132971752Y-112772909D01*
X132971752Y-112189249D01*
X132388092Y-112189249D01*
X131804433Y-112189249D01*
X130593880Y-112189249D01*
X129426560Y-112189249D01*
X128259241Y-112189249D01*
X128259241Y-111605590D01*
X128259241Y-111021930D01*
X130615496Y-111021930D01*
X132971752Y-111021930D01*
X132971752Y-111605590D01*
X132971752Y-112189249D01*
X133555412Y-112189249D01*
X134139071Y-112189249D01*
X134139071Y-111605590D01*
X134139071Y-111021930D01*
X134722731Y-111021930D01*
X135306390Y-111021930D01*
X135306390Y-111605590D01*
X135306390Y-112189249D01*
X137057369Y-112189249D01*
X138808348Y-112189249D01*
X138808348Y-111605590D01*
X138808348Y-111021930D01*
X138224688Y-111021930D01*
X137641028Y-111021930D01*
X137641028Y-109270952D01*
X137641028Y-107519973D01*
X138224688Y-107519973D01*
X138808348Y-107519973D01*
X138808348Y-108687292D01*
X138808348Y-109854611D01*
X139392008Y-109854611D01*
X139975667Y-109854611D01*
X139975667Y-109270952D01*
X139975667Y-108687292D01*
X140559327Y-108687292D01*
X141142986Y-108687292D01*
X141142986Y-109270952D01*
X141142986Y-109854611D01*
X140559327Y-109854611D01*
X139975667Y-109854611D01*
X139975667Y-111021930D01*
X139975667Y-112189249D01*
X139392008Y-112189249D01*
X138808348Y-112189249D01*
X138808348Y-112772909D01*
X138808348Y-113356569D01*
G37*
G36*
X158739240Y-118069079D02*
G01*
X158155580Y-118069079D01*
X157571921Y-118069079D01*
X157571921Y-118652737D01*
X157571921Y-119236397D01*
X156988261Y-119236397D01*
X156404602Y-119236397D01*
X156404602Y-119820057D01*
X156404602Y-120403716D01*
X156988261Y-120403716D01*
X157571921Y-120403716D01*
X157571921Y-120987376D01*
X157571921Y-121571035D01*
X158155580Y-121571035D01*
X158739240Y-121571035D01*
X158739240Y-120987376D01*
X158739240Y-120403716D01*
X159322900Y-120403716D01*
X159906559Y-120403716D01*
X159906559Y-121571035D01*
X159906559Y-122738354D01*
X158739240Y-122738354D01*
X157571921Y-122738354D01*
X157571921Y-122154695D01*
X157571921Y-121571035D01*
X156988261Y-121571035D01*
X156404602Y-121571035D01*
X156404602Y-122154695D01*
X156404602Y-122738354D01*
X155820942Y-122738354D01*
X155237283Y-122738354D01*
X155237283Y-122154695D01*
X155237283Y-121571035D01*
X154048346Y-121571035D01*
X152859410Y-121571035D01*
X152859410Y-120403716D01*
X152859410Y-119236397D01*
X154069964Y-119236397D01*
X154069964Y-119820057D01*
X154069964Y-120403716D01*
X154653623Y-120403716D01*
X155237283Y-120403716D01*
X155237283Y-119820057D01*
X155237283Y-119236397D01*
X154653623Y-119236397D01*
X154069964Y-119236397D01*
X152859410Y-119236397D01*
X152275751Y-119236397D01*
X151692091Y-119236397D01*
X151692091Y-119820057D01*
X151692091Y-120403716D01*
X149941112Y-120403716D01*
X148190133Y-120403716D01*
X148190133Y-119236397D01*
X148190133Y-118069079D01*
X148773793Y-118069079D01*
X149357452Y-118069079D01*
X149357452Y-118652737D01*
X149357452Y-119236397D01*
X149941112Y-119236397D01*
X150524772Y-119236397D01*
X150524772Y-118652737D01*
X150524772Y-118069079D01*
X149941112Y-118069079D01*
X149357452Y-118069079D01*
X149357452Y-117485420D01*
X149357452Y-116901760D01*
X148773793Y-116901760D01*
X148190133Y-116901760D01*
X148190133Y-117485420D01*
X148190133Y-118069079D01*
X147606474Y-118069079D01*
X147022815Y-118069079D01*
X147022815Y-119236397D01*
X147022815Y-120403716D01*
X147606474Y-120403716D01*
X148190133Y-120403716D01*
X148190133Y-120987376D01*
X148190133Y-121571035D01*
X147606474Y-121571035D01*
X147022815Y-121571035D01*
X147022815Y-122154695D01*
X147022815Y-122738354D01*
X148190133Y-122738354D01*
X149357452Y-122738354D01*
X149357452Y-122154695D01*
X149357452Y-121571035D01*
X149941112Y-121571035D01*
X150524772Y-121571035D01*
X150524772Y-122154695D01*
X150524772Y-122738354D01*
X149941112Y-122738354D01*
X149357452Y-122738354D01*
X149357452Y-123322014D01*
X149357452Y-123905673D01*
X148773793Y-123905673D01*
X148190133Y-123905673D01*
X148190133Y-124489333D01*
X148190133Y-125072993D01*
X147606474Y-125072993D01*
X147022815Y-125072993D01*
X147022815Y-126845589D01*
X147022815Y-128618184D01*
X147606474Y-128618184D01*
X148190133Y-128618184D01*
X148190133Y-128034525D01*
X148190133Y-127450865D01*
X148773793Y-127450865D01*
X149357452Y-127450865D01*
X149357452Y-126845589D01*
X149357452Y-126240312D01*
X149941112Y-126240312D01*
X150524772Y-126240312D01*
X150524772Y-127429248D01*
X150524772Y-128618184D01*
X149357452Y-128618184D01*
X148190133Y-128618184D01*
X148190133Y-129201844D01*
X148190133Y-129785503D01*
X147022815Y-129785503D01*
X145855496Y-129785503D01*
X145855496Y-129201844D01*
X145855496Y-128618184D01*
X144082901Y-128618184D01*
X142310305Y-128618184D01*
X142310305Y-129201844D01*
X142310305Y-129785503D01*
X142915582Y-129785503D01*
X143520859Y-129785503D01*
X143520859Y-130369163D01*
X143520859Y-130952822D01*
X144104518Y-130952822D01*
X144688177Y-130952822D01*
X144688177Y-131536482D01*
X144688177Y-132120141D01*
X145271836Y-132120141D01*
X145855496Y-132120141D01*
X145855496Y-131536482D01*
X145855496Y-130952822D01*
X148190133Y-130952822D01*
X150524772Y-130952822D01*
X150524772Y-132703801D01*
X150524772Y-134454780D01*
X151108432Y-134454780D01*
X151692091Y-134454780D01*
X151692091Y-133871121D01*
X151692091Y-133287461D01*
X152275751Y-133287461D01*
X152859410Y-133287461D01*
X152859410Y-134454780D01*
X152859410Y-135622099D01*
X151108432Y-135622099D01*
X149357452Y-135622099D01*
X149357452Y-133871121D01*
X149357452Y-132120141D01*
X148190133Y-132120141D01*
X147022815Y-132120141D01*
X147022815Y-132703801D01*
X147022815Y-133287461D01*
X145855496Y-133287461D01*
X144688177Y-133287461D01*
X144688177Y-132703801D01*
X144688177Y-132120141D01*
X144104518Y-132120141D01*
X143520859Y-132120141D01*
X143520859Y-132703801D01*
X143520859Y-133287461D01*
X142915582Y-133287461D01*
X142310305Y-133287461D01*
X142310305Y-132120141D01*
X142310305Y-130952822D01*
X141726646Y-130952822D01*
X141142986Y-130952822D01*
X141142986Y-132120141D01*
X141142986Y-133287461D01*
X140559327Y-133287461D01*
X139975667Y-133287461D01*
X139975667Y-133871121D01*
X139975667Y-134454780D01*
X139392008Y-134454780D01*
X138808348Y-134454780D01*
X138808348Y-133287461D01*
X138808348Y-132120141D01*
X139392008Y-132120141D01*
X139975667Y-132120141D01*
X139975667Y-131536482D01*
X139975667Y-130952822D01*
X137641028Y-130952822D01*
X135306390Y-130952822D01*
X135306390Y-131536482D01*
X135306390Y-132120141D01*
X134722731Y-132120141D01*
X134139071Y-132120141D01*
X134139071Y-131536482D01*
X134139071Y-130952822D01*
X133555412Y-130952822D01*
X132971752Y-130952822D01*
X132971752Y-131536482D01*
X132971752Y-132120141D01*
X132388092Y-132120141D01*
X131804433Y-132120141D01*
X131804433Y-132703801D01*
X131804433Y-133287461D01*
X132388092Y-133287461D01*
X132971752Y-133287461D01*
X132971752Y-132703801D01*
X132971752Y-132120141D01*
X133555412Y-132120141D01*
X134139071Y-132120141D01*
X134139071Y-132703801D01*
X134139071Y-133287461D01*
X134722731Y-133287461D01*
X135306390Y-133287461D01*
X135306390Y-132703801D01*
X135306390Y-132120141D01*
X136473709Y-132120141D01*
X137641028Y-132120141D01*
X137641028Y-132703801D01*
X137641028Y-133287461D01*
X137057369Y-133287461D01*
X136473709Y-133287461D01*
X136473709Y-134454780D01*
X136473709Y-135622099D01*
X135890050Y-135622099D01*
X135306390Y-135622099D01*
X135306390Y-135038440D01*
X135306390Y-134454780D01*
X134722731Y-134454780D01*
X134139071Y-134454780D01*
X134139071Y-135038440D01*
X134139071Y-135622099D01*
X133555412Y-135622099D01*
X132971752Y-135622099D01*
X132971752Y-135038440D01*
X132971752Y-134454780D01*
X131782816Y-134454780D01*
X130593880Y-134454780D01*
X130593880Y-133871121D01*
X130593880Y-133287461D01*
X129426560Y-133287461D01*
X128259241Y-133287461D01*
X128259241Y-132703801D01*
X128259241Y-132120141D01*
X128842901Y-132120141D01*
X129426560Y-132120141D01*
X129426560Y-131536482D01*
X129426560Y-130952822D01*
X128842901Y-130952822D01*
X128259241Y-130952822D01*
X128259241Y-130369163D01*
X128259241Y-129785503D01*
X128842901Y-129785503D01*
X129426560Y-129785503D01*
X129426560Y-130369163D01*
X129426560Y-130952822D01*
X130615496Y-130952822D01*
X131804433Y-130952822D01*
X131804433Y-130369163D01*
X131804433Y-129785503D01*
X130615496Y-129785503D01*
X129426560Y-129785503D01*
X129426560Y-129201844D01*
X129426560Y-128618184D01*
X128842901Y-128618184D01*
X128259241Y-128618184D01*
X128259241Y-128034525D01*
X128259241Y-127450865D01*
X128842901Y-127450865D01*
X129426560Y-127450865D01*
X129426560Y-128034525D01*
X129426560Y-128618184D01*
X130010220Y-128618184D01*
X130593880Y-128618184D01*
X131804433Y-128618184D01*
X131804433Y-129201844D01*
X131804433Y-129785503D01*
X132388092Y-129785503D01*
X132971752Y-129785503D01*
X134139071Y-129785503D01*
X135890050Y-129785503D01*
X137641028Y-129785503D01*
X137641028Y-128012908D01*
X137641028Y-126240312D01*
X135890050Y-126240312D01*
X134139071Y-126240312D01*
X134139071Y-128012908D01*
X134139071Y-129201844D01*
X134139071Y-129785503D01*
X132971752Y-129785503D01*
X132971752Y-129201844D01*
X132971752Y-128618184D01*
X132388092Y-128618184D01*
X131804433Y-128618184D01*
X130593880Y-128618184D01*
X130593880Y-127429248D01*
X130593880Y-126240312D01*
X131782816Y-126240312D01*
X132971752Y-126240312D01*
X132971752Y-125656653D01*
X132971752Y-125072993D01*
X135306390Y-125072993D01*
X137641028Y-125072993D01*
X137641028Y-124489333D01*
X137641028Y-123905673D01*
X138808348Y-123905673D01*
X139975667Y-123905673D01*
X139975667Y-125678269D01*
X139975667Y-127450865D01*
X139392008Y-127450865D01*
X138808348Y-127450865D01*
X138808348Y-128012908D01*
X138808348Y-128034525D01*
X138808348Y-128618184D01*
X139392008Y-128618184D01*
X139975667Y-128618184D01*
X139975667Y-129201844D01*
X139975667Y-129785503D01*
X140559327Y-129785503D01*
X141142986Y-129785503D01*
X141142986Y-129201844D01*
X141142986Y-128618184D01*
X141726646Y-128618184D01*
X142310305Y-128618184D01*
X142310305Y-127429248D01*
X142310305Y-126240312D01*
X141726646Y-126240312D01*
X141142986Y-126240312D01*
X141142986Y-125656653D01*
X141142986Y-125072993D01*
X141726646Y-125072993D01*
X142310305Y-125072993D01*
X142310305Y-123322014D01*
X142310305Y-122738354D01*
X143520859Y-122738354D01*
X143520859Y-124489333D01*
X143520859Y-126240312D01*
X144104518Y-126240312D01*
X144688177Y-126240312D01*
X144688177Y-125072993D01*
X145855496Y-125072993D01*
X146439155Y-125072993D01*
X147022815Y-125072993D01*
X147022815Y-124489333D01*
X147022815Y-123905673D01*
X146439155Y-123905673D01*
X145855496Y-123905673D01*
X145855496Y-124489333D01*
X145855496Y-125072993D01*
X144688177Y-125072993D01*
X144688177Y-124489333D01*
X144688177Y-122738354D01*
X144104518Y-122738354D01*
X143520859Y-122738354D01*
X142310305Y-122738354D01*
X142310305Y-121571035D01*
X141726646Y-121571035D01*
X141142986Y-121571035D01*
X141142986Y-120403716D01*
X141142986Y-119236397D01*
X141726646Y-119236397D01*
X142310305Y-119236397D01*
X142310305Y-119820057D01*
X142310305Y-120403716D01*
X142915582Y-120403716D01*
X143520859Y-120403716D01*
X143520859Y-120987376D01*
X143520859Y-121571035D01*
X144104518Y-121571035D01*
X144688177Y-121571035D01*
X144688177Y-122154695D01*
X144688177Y-122738354D01*
X145271836Y-122738354D01*
X145855496Y-122738354D01*
X145855496Y-119236397D01*
X145855496Y-115734441D01*
X146439155Y-115734441D01*
X147022815Y-115734441D01*
X147022815Y-115129165D01*
X147022815Y-114523888D01*
X147606474Y-114523888D01*
X148190133Y-114523888D01*
X148190133Y-115129165D01*
X148190133Y-115734441D01*
X148773793Y-115734441D01*
X149357452Y-115734441D01*
X149357452Y-116318101D01*
X149357452Y-116901760D01*
X151108432Y-116901760D01*
X152859410Y-116901760D01*
X152859410Y-117485420D01*
X152859410Y-118069079D01*
X154048346Y-118069079D01*
X155237283Y-118069079D01*
X155237283Y-117485420D01*
X155237283Y-116901760D01*
X154048346Y-116901760D01*
X152859410Y-116901760D01*
X152859410Y-116318101D01*
X152859410Y-115734441D01*
X154048346Y-115734441D01*
X155237283Y-115734441D01*
X155237283Y-116318101D01*
X155237283Y-116901760D01*
X155820942Y-116901760D01*
X156404602Y-116901760D01*
X156404602Y-116318101D01*
X156404602Y-115734441D01*
X156988261Y-115734441D01*
X157571921Y-115734441D01*
X157571921Y-116318101D01*
X157571921Y-116901760D01*
X158155580Y-116901760D01*
X158739240Y-116901760D01*
X158739240Y-117485420D01*
X158739240Y-118069079D01*
G37*
G36*
X158155580Y-119236397D02*
G01*
X158739240Y-119236397D01*
X158739240Y-119820057D01*
X158739240Y-120403716D01*
X158155580Y-120403716D01*
X157571921Y-120403716D01*
X157571921Y-119820057D01*
X157571921Y-119236397D01*
X158155580Y-119236397D01*
G37*
G36*
X156404602Y-113940228D02*
G01*
X156404602Y-114523888D01*
X154632006Y-114523888D01*
X152859410Y-114523888D01*
X152859410Y-115129165D01*
X152859410Y-115734441D01*
X151692091Y-115734441D01*
X150524772Y-115734441D01*
X150524772Y-115129165D01*
X150524772Y-114523888D01*
X149941112Y-114523888D01*
X149357452Y-114523888D01*
X149357452Y-113940228D01*
X149357452Y-113356569D01*
X152881027Y-113356569D01*
X156404602Y-113356569D01*
X156404602Y-113940228D01*
G37*
G36*
X150524772Y-112189249D02*
G01*
X149941112Y-112189249D01*
X149357452Y-112189249D01*
X149357452Y-111605590D01*
X149357452Y-111021930D01*
X148773793Y-111021930D01*
X148190133Y-111021930D01*
X148190133Y-111605590D01*
X148190133Y-112189249D01*
X147606474Y-112189249D01*
X147022815Y-112189249D01*
X147022815Y-113356569D01*
X147022815Y-114523888D01*
X146439155Y-114523888D01*
X145855496Y-114523888D01*
X145855496Y-115129165D01*
X145855496Y-115734441D01*
X145271836Y-115734441D01*
X144688177Y-115734441D01*
X144688177Y-114545505D01*
X144688177Y-113356569D01*
X144104518Y-113356569D01*
X143520859Y-113356569D01*
X143520859Y-113940228D01*
X143520859Y-114523888D01*
X142915582Y-114523888D01*
X142310305Y-114523888D01*
X142310305Y-113356569D01*
X142310305Y-112189249D01*
X143499241Y-112189249D01*
X144688177Y-112189249D01*
X144688177Y-111021930D01*
X145855496Y-111021930D01*
X145855496Y-111605590D01*
X145855496Y-112189249D01*
X146439155Y-112189249D01*
X147022815Y-112189249D01*
X147022815Y-111605590D01*
X147022815Y-111021930D01*
X146439155Y-111021930D01*
X145855496Y-111021930D01*
X144688177Y-111021930D01*
X144688177Y-110438271D01*
X144688177Y-108687292D01*
X145271836Y-108687292D01*
X145855496Y-108687292D01*
X145855496Y-109270952D01*
X145855496Y-109854611D01*
X146439155Y-109854611D01*
X147022815Y-109854611D01*
X147022815Y-110438271D01*
X147022815Y-111021930D01*
X147606474Y-111021930D01*
X148190133Y-111021930D01*
X148190133Y-110438271D01*
X148190133Y-109854611D01*
X147606474Y-109854611D01*
X147022815Y-109854611D01*
X147022815Y-109270952D01*
X147022815Y-108687292D01*
X147606474Y-108687292D01*
X148190133Y-108687292D01*
X148190133Y-109270952D01*
X148190133Y-109854611D01*
X148773793Y-109854611D01*
X149357452Y-109854611D01*
X149357452Y-107519973D01*
X149357452Y-105185334D01*
X149941112Y-105185334D01*
X150524772Y-105185334D01*
X150524772Y-104580058D01*
X150524772Y-103974781D01*
X151108432Y-103974781D01*
X151692091Y-103974781D01*
X151692091Y-102807462D01*
X151692091Y-101640143D01*
X152275751Y-101640143D01*
X152859410Y-101640143D01*
X152859410Y-103996398D01*
X152859410Y-106352653D01*
X152275751Y-106352653D01*
X151692091Y-106352653D01*
X151692091Y-106936313D01*
X151692091Y-107519973D01*
X152275751Y-107519973D01*
X152859410Y-107519973D01*
X152859410Y-108687292D01*
X152859410Y-109854611D01*
X152275751Y-109854611D01*
X151692091Y-109854611D01*
X151692091Y-109270952D01*
X151692091Y-108687292D01*
X151108432Y-108687292D01*
X150524772Y-108687292D01*
X150524772Y-110438271D01*
X150524772Y-112189249D01*
G37*
G36*
X148190133Y-102807462D02*
G01*
X149357452Y-102807462D01*
X149357452Y-103391121D01*
X149357452Y-103974781D01*
X148773793Y-103974781D01*
X148190133Y-103974781D01*
X148190133Y-105747377D01*
X148190133Y-107519973D01*
X147022815Y-107519973D01*
X145855496Y-107519973D01*
X145855496Y-106936313D01*
X145855496Y-106352653D01*
X145271836Y-106352653D01*
X144688177Y-106352653D01*
X144688177Y-107519973D01*
X144688177Y-108687292D01*
X144104518Y-108687292D01*
X143520859Y-108687292D01*
X143520859Y-108103633D01*
X143520859Y-107519973D01*
X142915582Y-107519973D01*
X142310305Y-107519973D01*
X142310305Y-108103633D01*
X142310305Y-108687292D01*
X141726646Y-108687292D01*
X141142986Y-108687292D01*
X141142986Y-108103633D01*
X141142986Y-107519973D01*
X141726646Y-107519973D01*
X142310305Y-107519973D01*
X142310305Y-106936313D01*
X142310305Y-106352653D01*
X142915582Y-106352653D01*
X143520859Y-106352653D01*
X143520859Y-105768994D01*
X143520859Y-105185334D01*
X144104518Y-105185334D01*
X144688177Y-105185334D01*
X144688177Y-104580058D01*
X144688177Y-103974781D01*
X145271836Y-103974781D01*
X145855496Y-103974781D01*
X145855496Y-105163717D01*
X145855496Y-106352653D01*
X146439155Y-106352653D01*
X147022815Y-106352653D01*
X147022815Y-104580058D01*
X147022815Y-102807462D01*
X148190133Y-102807462D01*
G37*
G36*
X140559327Y-105185334D02*
G01*
X141142986Y-105185334D01*
X141142986Y-106352653D01*
X141142986Y-107519973D01*
X140559327Y-107519973D01*
X139975667Y-107519973D01*
X139975667Y-106352653D01*
X139975667Y-105185334D01*
X140559327Y-105185334D01*
G37*
G36*
X141142986Y-102223803D02*
G01*
X141142986Y-102807462D01*
X142915582Y-102807462D01*
X144688177Y-102807462D01*
X144688177Y-103391121D01*
X144688177Y-103974781D01*
X142331922Y-103974781D01*
X139975667Y-103974781D01*
X139975667Y-104580058D01*
X139975667Y-105185334D01*
X139392008Y-105185334D01*
X138808348Y-105185334D01*
X138808348Y-105768994D01*
X138808348Y-106352653D01*
X138224688Y-106352653D01*
X137641028Y-106352653D01*
X137641028Y-104580058D01*
X137641028Y-102807462D01*
X138224688Y-102807462D01*
X138808348Y-102807462D01*
X138808348Y-103391121D01*
X138808348Y-103974781D01*
X139392008Y-103974781D01*
X139975667Y-103974781D01*
X139975667Y-102807462D01*
X139975667Y-101640143D01*
X140559327Y-101640143D01*
X141142986Y-101640143D01*
X141142986Y-102223803D01*
G37*
G36*
X147022815Y-102223803D02*
G01*
X147022815Y-102807462D01*
X146439155Y-102807462D01*
X145855496Y-102807462D01*
X145855496Y-102223803D01*
X145855496Y-101640143D01*
X146439155Y-101640143D01*
X147022815Y-101640143D01*
X147022815Y-102223803D01*
G37*
G36*
X162241197Y-135622099D02*
G01*
X158155580Y-135622099D01*
X154069964Y-135622099D01*
X154069964Y-131536482D01*
X154069964Y-128618184D01*
X155194048Y-128618184D01*
X155194048Y-131536482D01*
X155194048Y-134454780D01*
X158133964Y-134454780D01*
X161073878Y-134454780D01*
X161073878Y-131536482D01*
X161073878Y-128618184D01*
X158133964Y-128618184D01*
X155194048Y-128618184D01*
X154069964Y-128618184D01*
X154069964Y-127450865D01*
X158155580Y-127450865D01*
X162241197Y-127450865D01*
X162241197Y-131536482D01*
X162241197Y-135622099D01*
G37*
G36*
X129508636Y-137840952D02*
G01*
X129542639Y-137864495D01*
X129584808Y-137898981D01*
X129630138Y-137939882D01*
X129673626Y-137982676D01*
X129710265Y-138022833D01*
X129735052Y-138055829D01*
X129735916Y-138057253D01*
X129748299Y-138082107D01*
X129757481Y-138112286D01*
X129764064Y-138152410D01*
X129768650Y-138207099D01*
X129771840Y-138280971D01*
X129773556Y-138346172D01*
X129792638Y-138648798D01*
X129836008Y-138942668D01*
X129903344Y-139226450D01*
X129994322Y-139498809D01*
X130108616Y-139758414D01*
X130125727Y-139792241D01*
X130171991Y-139882433D01*
X130207435Y-139952172D01*
X130233674Y-140004988D01*
X130252324Y-140044418D01*
X130264998Y-140073996D01*
X130273312Y-140097257D01*
X130278882Y-140117735D01*
X130282692Y-140135725D01*
X130283597Y-140187247D01*
X130269935Y-140217774D01*
X130251151Y-140235235D01*
X130228580Y-140237119D01*
X130195133Y-140225779D01*
X130163717Y-140210413D01*
X130138233Y-140189945D01*
X130111089Y-140157347D01*
X130091325Y-140129732D01*
X130063124Y-140085028D01*
X130027081Y-140021702D01*
X129986290Y-139945839D01*
X129943844Y-139863524D01*
X129902839Y-139780845D01*
X129866368Y-139703887D01*
X129837529Y-139638737D01*
X129823136Y-139602306D01*
X129808093Y-139561814D01*
X129796677Y-139533217D01*
X129792216Y-139524056D01*
X129783375Y-139506534D01*
X129768600Y-139467914D01*
X129749454Y-139413060D01*
X129727498Y-139346834D01*
X129704293Y-139274101D01*
X129681403Y-139199724D01*
X129660389Y-139128565D01*
X129642813Y-139065487D01*
X129634242Y-139032222D01*
X129615220Y-138955887D01*
X129601044Y-138902636D01*
X129590402Y-138869241D01*
X129581976Y-138852478D01*
X129574451Y-138849120D01*
X129566512Y-138855943D01*
X129563823Y-138859533D01*
X129554712Y-138875807D01*
X129535312Y-138912875D01*
X129507342Y-138967327D01*
X129472517Y-139035746D01*
X129432553Y-139114721D01*
X129389169Y-139200837D01*
X129344080Y-139290683D01*
X129299002Y-139380843D01*
X129255653Y-139467907D01*
X129215747Y-139548459D01*
X129181004Y-139619087D01*
X129155747Y-139670972D01*
X129133630Y-139717423D01*
X129104740Y-139779089D01*
X129071048Y-139851662D01*
X129034522Y-139930839D01*
X128997133Y-140012314D01*
X128960850Y-140091783D01*
X128927642Y-140164939D01*
X128899478Y-140227478D01*
X128878331Y-140275095D01*
X128866167Y-140303485D01*
X128864870Y-140306780D01*
X128856413Y-140328566D01*
X128839969Y-140370406D01*
X128817531Y-140427248D01*
X128791093Y-140494036D01*
X128775693Y-140532868D01*
X128630408Y-140927551D01*
X128510783Y-141314959D01*
X128416656Y-141695785D01*
X128347866Y-142070721D01*
X128304254Y-142440461D01*
X128292221Y-142616199D01*
X128285984Y-142937429D01*
X128301926Y-143244900D01*
X128340458Y-143540860D01*
X128401995Y-143827562D01*
X128486947Y-144107255D01*
X128595728Y-144382189D01*
X128628996Y-144455380D01*
X128684302Y-144565595D01*
X128752710Y-144688943D01*
X128829721Y-144818052D01*
X128910835Y-144945556D01*
X128991548Y-145064087D01*
X129047639Y-145140725D01*
X129090022Y-145196595D01*
X129138372Y-145260475D01*
X129182411Y-145318782D01*
X129183458Y-145320171D01*
X129214512Y-145357741D01*
X129264270Y-145413045D01*
X129331868Y-145485180D01*
X129416447Y-145573241D01*
X129517144Y-145676325D01*
X129633097Y-145793528D01*
X129668309Y-145828880D01*
X129768993Y-145929935D01*
X129852228Y-146013802D01*
X129919735Y-146082340D01*
X129973231Y-146137406D01*
X130014437Y-146180858D01*
X130045070Y-146214556D01*
X130066849Y-146240358D01*
X130081496Y-146260121D01*
X130090728Y-146275704D01*
X130096264Y-146288965D01*
X130097468Y-146292790D01*
X130106573Y-146348566D01*
X130099395Y-146393005D01*
X130077142Y-146420937D01*
X130066380Y-146425748D01*
X130050560Y-146429365D01*
X130034866Y-146428475D01*
X130016013Y-146420887D01*
X129990720Y-146404413D01*
X129955701Y-146376860D01*
X129907671Y-146336043D01*
X129843347Y-146279769D01*
X129830552Y-146268505D01*
X129551267Y-146008074D01*
X129293707Y-145738142D01*
X129058551Y-145459745D01*
X128846480Y-145173917D01*
X128658175Y-144881692D01*
X128494313Y-144584105D01*
X128355576Y-144282191D01*
X128242643Y-143976982D01*
X128177124Y-143753595D01*
X128160994Y-143687909D01*
X128143324Y-143609530D01*
X128125349Y-143524680D01*
X128108309Y-143439587D01*
X128093440Y-143360476D01*
X128081980Y-143293574D01*
X128075167Y-143245108D01*
X128074302Y-143236207D01*
X128071516Y-143204306D01*
X128066926Y-143154031D01*
X128061316Y-143093909D01*
X128058417Y-143063288D01*
X128042116Y-142786146D01*
X128043980Y-142492607D01*
X128063720Y-142186010D01*
X128101045Y-141869696D01*
X128155669Y-141547005D01*
X128212606Y-141282348D01*
X128244934Y-141156445D01*
X128286652Y-141011476D01*
X128336048Y-140852277D01*
X128391406Y-140683681D01*
X128451013Y-140510524D01*
X128513153Y-140337641D01*
X128576113Y-140169866D01*
X128638179Y-140012035D01*
X128697636Y-139868981D01*
X128752771Y-139745539D01*
X128771239Y-139706817D01*
X128790177Y-139667169D01*
X128815616Y-139612912D01*
X128842879Y-139554037D01*
X128850422Y-139537609D01*
X128868023Y-139500342D01*
X128895982Y-139442565D01*
X128932499Y-139367902D01*
X128975772Y-139279971D01*
X129023999Y-139182396D01*
X129075380Y-139078799D01*
X129128112Y-138972798D01*
X129180394Y-138868018D01*
X129230427Y-138768079D01*
X129276407Y-138676603D01*
X129316533Y-138597211D01*
X129349005Y-138533523D01*
X129370414Y-138492210D01*
X129390912Y-138449591D01*
X129403689Y-138415740D01*
X129405996Y-138398225D01*
X129393452Y-138401505D01*
X129362397Y-138424079D01*
X129313050Y-138465767D01*
X129245635Y-138526390D01*
X129232424Y-138538539D01*
X129110790Y-138648757D01*
X128971994Y-138771187D01*
X128820612Y-138901988D01*
X128661221Y-139037323D01*
X128498396Y-139173353D01*
X128336716Y-139306238D01*
X128180756Y-139432142D01*
X128035092Y-139547225D01*
X127966973Y-139599953D01*
X127898394Y-139651662D01*
X127847517Y-139687627D01*
X127811494Y-139709654D01*
X127787478Y-139719543D01*
X127776831Y-139720299D01*
X127739211Y-139703117D01*
X127699325Y-139666247D01*
X127661554Y-139616188D01*
X127630273Y-139559447D01*
X127609863Y-139502521D01*
X127604332Y-139464110D01*
X127606090Y-139434014D01*
X127615213Y-139407939D01*
X127635316Y-139381299D01*
X127670008Y-139349505D01*
X127722902Y-139307969D01*
X127733701Y-139299808D01*
X127866782Y-139197647D01*
X128016077Y-139079654D01*
X128178234Y-138948633D01*
X128349900Y-138807389D01*
X128527725Y-138658728D01*
X128708355Y-138505454D01*
X128888442Y-138350373D01*
X129064632Y-138196289D01*
X129233573Y-138046008D01*
X129257328Y-138024645D01*
X129321221Y-137967829D01*
X129379218Y-137917622D01*
X129428052Y-137876740D01*
X129464461Y-137847900D01*
X129485180Y-137833816D01*
X129487805Y-137832878D01*
X129508636Y-137840952D01*
G37*
%TD*%
M02*
