M48
; DRILL file KiCad 10.0.3 date 2026-06-10T19:11:56
; FORMAT={-:-/ absolute / metric / decimal}
; #@! TF.CreationDate,2026-06-10T19:11:56-04:00
; #@! TF.GenerationSoftware,Kicad,Pcbnew,10.0.3
; #@! TF.FileFunction,Plated,1,2,PTH
FMAT,2
METRIC
; #@! TA.AperFunction,Plated,PTH,ViaDrill
T1C0.300
; #@! TA.AperFunction,Plated,PTH,ComponentDrill
T2C1.200
%
G90
G05
T1
X108.405Y-135.039
X108.437Y-129.85
X108.5Y-132.25
X108.5Y-137.5
X108.5Y-140.0
X108.5Y-142.75
X108.5Y-145.5
X113.0Y-116.0
X114.375Y-114.375
X114.75Y-110.0
X115.25Y-109.5
X115.25Y-110.5
X115.25Y-119.5
X115.75Y-110.0
X115.75Y-119.0
X115.75Y-120.0
X115.75Y-130.25
X115.75Y-133.0
X115.75Y-135.75
X115.75Y-138.5
X115.75Y-141.25
X115.75Y-144.0
X115.75Y-146.75
X116.25Y-119.5
X117.545Y-118.146
X118.146Y-117.545
X120.5Y-113.526
X122.176Y-109.474
X122.623Y-112.282
X124.466Y-125.912
X127.75Y-113.75
X128.5Y-114.75
X129.5Y-115.75
X130.25Y-116.5
X131.25Y-117.5
X131.51Y-106.24
X131.75Y-102.0
X132.125Y-118.375
X133.0Y-119.25
X133.893Y-120.143
X134.75Y-104.0
X139.0Y-113.0
X139.5Y-102.5
X140.25Y-111.75
X140.75Y-118.5
X142.0Y-104.0
X144.014Y-113.057
X144.101Y-118.061
X144.111Y-114.0
X144.146Y-116.44
X144.751Y-116.963
X144.856Y-114.292
X144.887Y-116.138
X145.49Y-117.269
X145.5Y-102.0
X147.75Y-121.637
X148.503Y-102.022
X148.75Y-106.25
X148.75Y-110.75
X148.75Y-112.5
X148.75Y-114.25
X150.449Y-107.199
X150.5Y-110.75
X150.5Y-112.5
X150.5Y-114.25
X151.051Y-107.801
X151.319Y-117.569
X151.337Y-118.4
X151.726Y-121.637
X151.75Y-103.075
X152.0Y-101.0
X152.096Y-118.148
X152.25Y-110.75
X152.25Y-112.5
X152.25Y-114.25
X152.259Y-108.738
X152.833Y-108.18
X152.893Y-118.213
X153.123Y-107.435
X153.5Y-101.0
X153.577Y-106.776
X153.654Y-118.461
X154.344Y-107.034
X154.748Y-106.344
X155.531Y-106.507
X156.0Y-116.25
X157.311Y-104.661
X159.371Y-113.035
X159.802Y-114.302
X161.419Y-116.352
X164.75Y-117.0
X166.5Y-118.75
X167.231Y-124.6
X168.092Y-128.756
X171.25Y-102.0
X171.576Y-130.326
X174.25Y-127.75
X175.5Y-119.5
X178.0Y-113.75
X179.0Y-113.75
X180.0Y-113.75
X181.0Y-113.75
X182.0Y-113.75
X182.0Y-118.0
X183.5Y-114.0
X184.259Y-113.747
X185.5Y-113.75
T2
X177.25Y-104.25
X185.25Y-104.25
M30
